<svg width="307" height="307" viewBox="0 0 307 307" fill="none" xmlns="http://www.w3.org/2000/svg">
<rect x="153.5" y="-1.35635" width="219" height="219" rx="17" transform="rotate(45 153.5 -1.35635)" fill="#0B192F" stroke="#64FFDA" stroke-width="10"/>
<g filter="url(#filter0_i_3_6)">
<path d="M126 99H161.326C173.043 99 181.918 102.606 187.951 109.818C193.984 117.03 197 127.158 197 140.202C197 147.414 195.956 153.622 193.868 158.827C191.779 163.969 188.792 168.171 184.906 171.432C181.077 174.631 176.466 176.982 171.071 178.487C165.676 179.992 159.586 180.745 152.799 180.745V210H126V99ZM152.799 152.619H157.933C162.167 152.619 165.27 151.364 167.243 148.856C169.215 146.285 170.201 142.992 170.201 138.979C170.201 134.965 169.215 131.673 167.243 129.102C165.27 126.531 162.167 125.245 157.933 125.245H152.799V152.619Z" fill="#64FFDA"/>
</g>
<defs>
<filter id="filter0_i_3_6" x="126" y="99" width="71" height="115" filterUnits="userSpaceOnUse" color-interpolation-filters="sRGB">
<feFlood flood-opacity="0" result="BackgroundImageFix"/>
<feBlend mode="normal" in="SourceGraphic" in2="BackgroundImageFix" result="shape"/>
<feColorMatrix in="SourceAlpha" type="matrix" values="0 0 0 0 0 0 0 0 0 0 0 0 0 0 0 0 0 0 127 0" result="hardAlpha"/>
<feOffset dy="4"/>
<feGaussianBlur stdDeviation="2"/>
<feComposite in2="hardAlpha" operator="arithmetic" k2="-1" k3="1"/>
<feColorMatrix type="matrix" values="0 0 0 0 0 0 0 0 0 0 0 0 0 0 0 0 0 0 0.25 0"/>
<feBlend mode="normal" in2="shape" result="effect1_innerShadow_3_6"/>
</filter>
</defs>
</svg>
