<svg width="273" height="100" viewBox="0 0 273 100" fill="none" xmlns="http://www.w3.org/2000/svg">
<path d="M10.1255 5.41667C10.1255 2.42512 13.101 0 16.7715 0H230.979C242.273 0 251.429 7.46192 251.429 16.6667V65.3762C251.429 68.3901 254.427 70.8333 258.125 70.8333H258.685C262.074 70.8333 264.82 73.0719 264.82 75.8333C264.82 78.5948 262.074 80.8333 258.685 80.8333H249.994C246.324 80.8333 243.348 83.2585 243.348 86.25C243.348 89.2415 246.324 91.6667 249.994 91.6667H267.888C270.711 91.6667 273 93.5321 273 95.8333C273 98.1345 270.711 100 267.888 100H30.5749C19.281 100 10.1255 92.5381 10.1255 83.3333V43.3738C10.1255 40.1298 13.3521 37.5 17.3324 37.5H19.9382C22.4793 37.5 24.5393 35.8211 24.5393 33.75C24.5393 31.6789 22.4793 30 19.9382 30H6.13483C2.74666 30 0 27.7614 0 25V23.3333C0 20.5719 2.74666 18.3333 6.13483 18.3333H29.1404C31.6816 18.3333 33.7416 16.6544 33.7416 14.5833C33.7416 12.5123 31.6816 10.8333 29.1405 10.8333H16.7715C13.101 10.8333 10.1255 8.40821 10.1255 5.41667Z" fill="white"/>
</svg>
