<svg width="108" height="96" viewBox="0 0 108 96" fill="none" xmlns="http://www.w3.org/2000/svg">
<path d="M108 94.2001L50.4 96.0001L63.6 63.6001L108 94.2001Z" fill="white"/>
<rect width="96" height="96" rx="48" fill="white"/>
<path d="M37.3333 26C35.9188 26 34.5623 26.5663 33.5621 27.5743C32.5619 28.5823 32 29.9495 32 31.375V63.625C32 65.0505 32.5619 66.4177 33.5621 67.4257C34.5623 68.4337 35.9188 69 37.3333 69H62.6667C63.0203 69 63.3594 68.8584 63.6095 68.6064C63.8595 68.3544 64 68.0126 64 67.6562C64 67.2999 63.8595 66.9581 63.6095 66.7061C63.3594 66.4541 63.0203 66.3125 62.6667 66.3125H37.3333C36.6261 66.3125 35.9478 66.0294 35.4477 65.5254C34.9476 65.0213 34.6667 64.3378 34.6667 63.625H61.3333C62.0406 63.625 62.7189 63.3419 63.219 62.8378C63.719 62.3338 64 61.6503 64 60.9375V31.375C64 29.9495 63.4381 28.5823 62.4379 27.5743C61.4377 26.5663 60.0812 26 58.6667 26H37.3333ZM44.6933 37.8492C44.2767 38.275 44.03 38.8403 44 39.4375C44 39.7939 43.8595 40.1357 43.6095 40.3877C43.3594 40.6397 43.0203 40.7812 42.6667 40.7812C42.313 40.7812 41.9739 40.6397 41.7239 40.3877C41.4738 40.1357 41.3333 39.7939 41.3333 39.4375C41.3333 38.4566 41.7067 37.1021 42.7733 35.9868C43.8667 34.8419 45.5733 34.0625 48 34.0625C50.4267 34.0625 52.1333 34.8392 53.2267 35.9868C54.2933 37.1021 54.6667 38.4566 54.6667 39.4375C54.6667 42.2486 52.72 43.5951 51.2613 44.3261C50.9172 44.4959 50.5687 44.6563 50.216 44.8071L50.1867 44.8206C49.8983 44.9426 49.6137 45.0734 49.3333 45.2129V47.5C49.3337 47.8564 49.1935 48.1983 48.9438 48.4506C48.694 48.7028 48.355 48.8447 48.0013 48.8451C47.6477 48.8454 47.3084 48.7042 47.0581 48.4525C46.8078 48.2007 46.667 47.8591 46.6667 47.5027V44.8125C46.6667 44.146 47.008 43.6676 47.3147 43.3747C47.6053 43.1006 47.9547 42.9044 48.2347 42.7619C48.5067 42.6222 48.816 42.4878 49.0987 42.3669L49.1573 42.34C49.472 42.2029 49.776 42.0712 50.072 41.9207C51.28 41.3134 52 40.6576 52 39.4375C51.97 38.8403 51.7233 38.275 51.3067 37.8492C50.8 37.3144 49.84 36.75 48 36.75C46.16 36.75 45.2 37.3171 44.6933 37.8492ZM48 55.5625C47.4696 55.5625 46.9609 55.3501 46.5858 54.9721C46.2107 54.5941 46 54.0815 46 53.5469C46 53.0123 46.2107 52.4996 46.5858 52.1216C46.9609 51.7436 47.4696 51.5312 48 51.5312C48.5304 51.5312 49.0391 51.7436 49.4142 52.1216C49.7893 52.4996 50 53.0123 50 53.5469C50 54.0815 49.7893 54.5941 49.4142 54.9721C49.0391 55.3501 48.5304 55.5625 48 55.5625Z" fill="#EC3237"/>
<path d="M37.3333 26C35.9188 26 34.5623 26.5663 33.5621 27.5743C32.5619 28.5823 32 29.9495 32 31.375V63.625C32 65.0505 32.5619 66.4177 33.5621 67.4257C34.5623 68.4337 35.9188 69 37.3333 69H62.6667C63.0203 69 63.3594 68.8584 63.6095 68.6064C63.8595 68.3544 64 68.0126 64 67.6562C64 67.2999 63.8595 66.9581 63.6095 66.7061C63.3594 66.4541 63.0203 66.3125 62.6667 66.3125H37.3333C36.6261 66.3125 35.9478 66.0294 35.4477 65.5254C34.9476 65.0213 34.6667 64.3378 34.6667 63.625H61.3333C62.0406 63.625 62.7189 63.3419 63.219 62.8378C63.719 62.3338 64 61.6503 64 60.9375V31.375C64 29.9495 63.4381 28.5823 62.4379 27.5743C61.4377 26.5663 60.0812 26 58.6667 26H37.3333ZM44.6933 37.8492C44.2767 38.275 44.03 38.8403 44 39.4375C44 39.7939 43.8595 40.1357 43.6095 40.3877C43.3594 40.6397 43.0203 40.7812 42.6667 40.7812C42.313 40.7812 41.9739 40.6397 41.7239 40.3877C41.4738 40.1357 41.3333 39.7939 41.3333 39.4375C41.3333 38.4566 41.7067 37.1021 42.7733 35.9868C43.8667 34.8419 45.5733 34.0625 48 34.0625C50.4267 34.0625 52.1333 34.8392 53.2267 35.9868C54.2933 37.1021 54.6667 38.4566 54.6667 39.4375C54.6667 42.2486 52.72 43.5951 51.2613 44.3261C50.9172 44.4959 50.5687 44.6563 50.216 44.8071L50.1867 44.8206C49.8983 44.9426 49.6137 45.0734 49.3333 45.2129V47.5C49.3337 47.8564 49.1935 48.1983 48.9438 48.4506C48.694 48.7028 48.355 48.8447 48.0013 48.8451C47.6477 48.8454 47.3084 48.7042 47.0581 48.4525C46.8078 48.2007 46.667 47.8591 46.6667 47.5027V44.8125C46.6667 44.146 47.008 43.6676 47.3147 43.3747C47.6053 43.1006 47.9547 42.9044 48.2347 42.7619C48.5067 42.6222 48.816 42.4878 49.0987 42.3669L49.1573 42.34C49.472 42.2029 49.776 42.0712 50.072 41.9207C51.28 41.3134 52 40.6576 52 39.4375C51.97 38.8403 51.7233 38.275 51.3067 37.8492C50.8 37.3144 49.84 36.75 48 36.75C46.16 36.75 45.2 37.3171 44.6933 37.8492ZM48 55.5625C47.4696 55.5625 46.9609 55.3501 46.5858 54.9721C46.2107 54.5941 46 54.0815 46 53.5469C46 53.0123 46.2107 52.4996 46.5858 52.1216C46.9609 51.7436 47.4696 51.5312 48 51.5312C48.5304 51.5312 49.0391 51.7436 49.4142 52.1216C49.7893 52.4996 50 53.0123 50 53.5469C50 54.0815 49.7893 54.5941 49.4142 54.9721C49.0391 55.3501 48.5304 55.5625 48 55.5625Z" fill="black" fill-opacity="0.1"/>
</svg>
