<svg width="525" height="320" viewBox="0 0 525 320" fill="none" xmlns="http://www.w3.org/2000/svg">
<path opacity="0.4" d="M59.7643 149.448C59.7643 149.448 55.5519 80.2137 100.409 41.3447C145.266 2.47567 193.281 10.7345 193.281 10.7345" stroke="url(#paint0_linear_201_43498)" stroke-width="19" stroke-miterlimit="10"/>
<path opacity="0.4" d="M65.239 285.874C60.2798 273.587 50.5262 251.99 46.8231 231.249C43.12 210.509 48.2988 179.46 41.5232 180.869C34.7476 182.278 36.9036 204.939 27.972 222.408C19.0404 239.878 35.6718 239.568 38.7519 258.661C41.8321 277.753 78.7008 319.23 65.239 285.874Z" fill="url(#paint1_linear_201_43498)"/>
<path opacity="0.4" d="M333.578 21.93C344.309 14.7204 361.936 16.0786 367.802 28.7068C373.667 41.3351 381.56 50.8666 360.058 47.4852C338.557 44.1038 320.283 30.8628 333.578 21.93Z" fill="url(#paint2_linear_201_43498)"/>
<path opacity="0.4" d="M88.6869 308.016C88.6869 308.016 51.6689 282.343 53.9946 191.976C56.3204 101.608 114.066 17.9141 205.801 13.2932C297.535 8.67232 291.483 52.8298 383.218 55.3968C474.953 57.9638 547.132 156.547 500.1 311.867L88.6869 308.016Z" fill="url(#paint3_linear_201_43498)"/>
<g opacity="0.4">
<mask id="mask0_201_43498" style="mask-type:luminance" maskUnits="userSpaceOnUse" x="53" y="12" width="462" height="300">
<path d="M88.6869 308.016C88.6869 308.016 51.6689 282.343 53.9946 191.976C56.3204 101.608 114.066 17.9141 205.801 13.2932C297.535 8.67232 291.483 52.8298 383.218 55.3968C474.953 57.9638 547.132 156.547 500.1 311.867L88.6869 308.016Z" fill="white"/>
</mask>
<g mask="url(#mask0_201_43498)">
<path d="M23.1971 195.736C23.1971 195.736 29.4953 243.135 172.919 242.572C316.342 242.009 465.924 163.288 514.889 111.692C522.253 103.933 542.972 232.042 542.972 232.042L511.033 347.819L157.047 346.488L35.5164 352.804L23.1971 195.736Z" fill="#3E4095"/>
<path d="M23.1971 195.736C23.1971 195.736 29.4953 243.135 172.919 242.572C316.342 242.009 465.924 163.288 514.889 111.692C522.253 103.933 542.972 232.042 542.972 232.042L511.033 347.819L157.047 346.488L35.5164 352.804L23.1971 195.736Z" fill="white" fill-opacity="0.35"/>
</g>
</g>
<path d="M352.984 263.858H65.0757C61.5889 263.858 58.7622 266.685 58.7622 270.172V270.173C58.7622 273.66 61.5889 276.487 65.0757 276.487H352.984C356.471 276.487 359.298 273.66 359.298 270.173V270.172C359.298 266.685 356.471 263.858 352.984 263.858Z" fill="#8288A8"/>
<mask id="mask1_201_43498" style="mask-type:luminance" maskUnits="userSpaceOnUse" x="58" y="263" width="302" height="14">
<path d="M352.984 263.858H65.0757C61.5889 263.858 58.7622 266.685 58.7622 270.172V270.173C58.7622 273.66 61.5889 276.487 65.0757 276.487H352.984C356.471 276.487 359.298 273.66 359.298 270.173V270.172C359.298 266.685 356.471 263.858 352.984 263.858Z" fill="white"/>
</mask>
<g mask="url(#mask1_201_43498)">
<path d="M369.578 270.172H49.3768V285.264H369.578V270.172Z" fill="#505578"/>
</g>
<path d="M195.249 218.162C195.044 218.776 187.553 247.417 184.516 259.037C184.368 259.606 184.352 260.202 184.469 260.779C184.586 261.355 184.835 261.897 185.194 262.362C185.554 262.828 186.015 263.205 186.543 263.464C187.071 263.724 187.652 263.859 188.24 263.859H217.84L228.702 220.472L195.249 218.162Z" fill="#505577"/>
<path d="M239.574 256.67H188.173C186.188 256.67 184.579 258.279 184.579 260.264C184.579 262.249 186.188 263.858 188.173 263.858H239.574C241.559 263.858 243.168 262.249 243.168 260.264C243.168 258.279 241.559 256.67 239.574 256.67Z" fill="#737792"/>
<path d="M63.9252 74.0093L59.3298 71.584L53.5576 77.8464C52.3174 79.191 51.4815 80.8582 51.146 82.6564C50.8104 84.4546 50.9889 86.311 51.6607 88.0124L103.469 219.25C104.186 221.066 105.432 222.623 107.046 223.721C108.659 224.818 110.566 225.406 112.517 225.406H129.597L63.9252 74.0093Z" fill="#737792"/>
<path d="M302.529 225.187L125.881 225.181C120.191 225.181 113.85 220.69 111.712 215.151L59.1206 78.5544C56.9888 73.0158 59.8724 68.5264 65.5617 68.5264H242.209C247.899 68.5264 254.24 73.017 256.372 78.5557L308.963 215.152C311.095 220.696 308.211 225.187 302.529 225.187Z" fill="#505577"/>
<path d="M289.444 215.618H131.583C125.893 215.618 119.552 211.127 117.414 205.589L72.1928 88.1251C70.0611 82.5864 72.9434 78.0957 78.6339 78.0957H236.496C242.185 78.0957 248.527 82.5864 250.665 88.1251L295.891 205.589C298.017 211.128 295.134 215.618 289.444 215.618Z" fill="#22273D"/>
<mask id="mask2_201_43498" style="mask-type:luminance" maskUnits="userSpaceOnUse" x="71" y="78" width="226" height="138">
<path d="M289.444 215.618H131.583C125.893 215.618 119.552 211.127 117.414 205.589L72.1928 88.1251C70.0611 82.5864 72.9434 78.0957 78.6339 78.0957H236.496C242.185 78.0957 248.527 82.5864 250.665 88.1251L295.891 205.589C298.017 211.128 295.134 215.618 289.444 215.618Z" fill="white"/>
</mask>
<g mask="url(#mask2_201_43498)">
<path d="M285.423 218.934H127.561C121.872 218.934 115.531 214.443 113.392 208.904L68.1743 91.441C66.0412 85.901 68.9248 81.4116 74.6141 81.4116H232.476C238.166 81.4116 244.507 85.9023 246.645 91.441L291.871 208.899C293.999 214.443 291.115 218.934 285.423 218.934Z" fill="#3E4095"/>
<path d="M285.423 218.934H127.561C121.872 218.934 115.531 214.443 113.392 208.904L68.1743 91.441C66.0412 85.901 68.9248 81.4116 74.6141 81.4116H232.476C238.166 81.4116 244.507 85.9023 246.645 91.441L291.871 208.899C293.999 214.443 291.115 218.934 285.423 218.934Z" fill="white" fill-opacity="0.9"/>
<mask id="mask3_201_43498" style="mask-type:luminance" maskUnits="userSpaceOnUse" x="67" y="81" width="226" height="138">
<path d="M285.423 218.934H127.561C121.872 218.934 115.531 214.443 113.392 208.904L68.1743 91.441C66.0412 85.901 68.9248 81.4116 74.6141 81.4116H232.476C238.166 81.4116 244.507 85.9023 246.645 91.441L291.871 208.899C293.999 214.443 291.115 218.934 285.423 218.934Z" fill="white"/>
</mask>
<g mask="url(#mask3_201_43498)">
<path d="M60.0181 93.111H296.587L273.925 64.2241L50.9793 68.5271L60.0181 93.111Z" fill="#EC3237"/>
<path d="M60.0181 93.111H296.587L273.925 64.2241L50.9793 68.5271L60.0181 93.111Z" fill="white" fill-opacity="0.2"/>
</g>
</g>
<path d="M186.457 89.4253H106.429C104.795 89.4253 102.975 88.1361 102.362 86.5443C101.749 84.9538 102.578 83.6646 104.211 83.6646H184.239C185.873 83.6646 187.694 84.9538 188.306 86.5443C188.922 88.1399 188.091 89.4253 186.457 89.4253Z" fill="white"/>
<path d="M197.777 88.6277C198.578 87.5871 197.996 85.7951 196.477 84.6251C194.957 83.4551 193.076 83.3502 192.275 84.3908C191.473 85.4313 192.055 87.2234 193.575 88.3934C195.094 89.5633 196.975 89.6682 197.777 88.6277Z" fill="white"/>
<path d="M203.146 166.005H117.2C114.249 166.005 110.958 163.676 109.851 160.801L88.2977 104.821C87.191 101.946 88.6807 99.6167 91.6396 99.6167H177.584C180.537 99.6167 183.827 101.948 184.934 104.821L206.488 160.8C207.594 163.676 206.098 166.005 203.146 166.005Z" fill="#FDFFFE"/>
<path d="M202.102 160.174H115.63C114.95 160.174 114.192 159.637 113.938 158.975C113.682 158.313 114.027 157.776 114.703 157.776H201.174C201.854 157.776 202.612 158.313 202.868 158.976C203.127 159.637 202.781 160.174 202.102 160.174Z" fill="#3E4095"/>
<path d="M154.593 136.42C156.999 133.296 155.251 127.915 150.69 124.402C146.128 120.889 140.48 120.574 138.074 123.698C135.668 126.822 137.416 132.202 141.977 135.715C146.539 139.228 152.187 139.544 154.593 136.42Z" fill="#EC685C"/>
<path d="M149.946 129.044C150.932 129.5 151.369 130.638 150.735 131.094L148.608 132.626L146.48 134.157C145.842 134.613 144.613 134.044 144.263 133.136L143.088 130.085L141.913 127.033C141.562 126.122 142.356 125.553 143.342 126.012L146.644 127.544L149.946 129.044Z" fill="#FDFFFE"/>
<path d="M252.771 123.498H204.249C202.335 123.498 200.198 121.985 199.479 120.12L195.267 109.182C194.548 107.316 195.522 105.805 197.437 105.805H245.959C247.873 105.805 250.01 107.317 250.729 109.182L254.941 120.122C255.659 121.984 254.688 123.498 252.771 123.498Z" fill="#FDFFFE"/>
<path d="M223.192 121.164H205.939C204.298 121.164 202.467 119.867 201.855 118.269L198.856 110.482C198.241 108.883 199.073 107.587 200.715 107.587H217.968C219.609 107.587 221.44 108.884 222.052 110.482L225.051 118.269C225.666 119.868 224.834 121.164 223.192 121.164Z" fill="#EC3237"/>
<path d="M223.192 121.164H205.939C204.298 121.164 202.467 119.867 201.855 118.269L198.856 110.482C198.241 108.883 199.073 107.587 200.715 107.587H217.968C219.609 107.587 221.44 108.884 222.052 110.482L225.051 118.269C225.666 119.868 224.834 121.164 223.192 121.164Z" fill="white" fill-opacity="0.2"/>
<path d="M262.146 147.842H213.624C211.71 147.842 209.573 146.33 208.854 144.465L204.642 133.527C203.924 131.66 204.897 130.149 206.812 130.149H255.333C257.248 130.149 259.385 131.662 260.104 133.527L264.316 144.465C265.033 146.331 264.062 147.842 262.146 147.842Z" fill="#FDFFFE"/>
<path d="M232.565 145.51H215.314C213.671 145.51 211.84 144.215 211.229 142.615L208.23 134.829C207.614 133.231 208.446 131.935 210.089 131.935H227.343C228.986 131.935 230.817 133.231 231.428 134.83L234.428 142.617C235.041 144.214 234.208 145.51 232.565 145.51Z" fill="#EC3237"/>
<path d="M232.565 145.51H215.314C213.671 145.51 211.84 144.215 211.229 142.615L208.23 134.829C207.614 133.231 208.446 131.935 210.089 131.935H227.343C228.986 131.935 230.817 133.231 231.428 134.83L234.428 142.617C235.041 144.214 234.208 145.51 232.565 145.51Z" fill="white" fill-opacity="0.2"/>
<path d="M271.52 172.189H223.004C221.089 172.189 218.951 170.676 218.233 168.811L214.021 157.872C213.304 156.007 214.276 154.494 216.191 154.494H264.714C266.629 154.494 268.766 156.006 269.484 157.872L273.697 168.81C274.408 170.677 273.436 172.189 271.52 172.189Z" fill="#FDFFFE"/>
<path d="M241.941 169.857H224.689C223.046 169.857 221.216 168.561 220.604 166.962L217.604 159.175C216.989 157.577 217.821 156.28 219.464 156.28H236.716C238.359 156.28 240.189 157.576 240.801 159.175L243.8 166.962C244.416 168.559 243.583 169.857 241.941 169.857Z" fill="#EC3237"/>
<path d="M241.941 169.857H224.689C223.046 169.857 221.216 168.561 220.604 166.962L217.604 159.175C216.989 157.577 217.821 156.28 219.464 156.28H236.716C238.359 156.28 240.189 157.576 240.801 159.175L243.8 166.962C244.416 168.559 243.583 169.857 241.941 169.857Z" fill="white" fill-opacity="0.2"/>
<path d="M281.276 195.984H232.753C230.838 195.984 228.701 194.472 227.982 192.607L223.77 181.667C223.051 179.802 224.025 178.29 225.94 178.29H274.462C276.376 178.29 278.515 179.802 279.232 181.668L283.444 192.607C284.162 194.472 283.192 195.984 281.276 195.984Z" fill="#FDFFFE"/>
<path d="M251.697 193.65H234.444C232.802 193.65 230.972 192.355 230.359 190.755L227.36 182.969C226.745 181.371 227.577 180.074 229.219 180.074H246.472C248.114 180.074 249.944 181.369 250.557 182.969L253.555 190.755C254.17 192.355 253.338 193.652 251.697 193.65Z" fill="#EC3237"/>
<path d="M251.697 193.65H234.444C232.802 193.65 230.972 192.355 230.359 190.755L227.36 182.969C226.745 181.371 227.577 180.074 229.219 180.074H246.472C248.114 180.074 249.944 181.369 250.557 182.969L253.555 190.755C254.17 192.355 253.338 193.652 251.697 193.65Z" fill="white" fill-opacity="0.2"/>
<path d="M143.038 194.001C145.618 190.651 143.743 184.881 138.851 181.113C133.958 177.345 127.901 177.007 125.321 180.357C122.741 183.707 124.615 189.478 129.508 193.245C134.4 197.013 140.458 197.351 143.038 194.001Z" fill="white"/>
<path d="M173.658 182.345H148.264C147.478 182.345 146.605 181.724 146.306 180.959C146.011 180.193 146.41 179.572 147.2 179.572H172.593C173.379 179.572 174.252 180.193 174.551 180.959C174.842 181.722 174.444 182.345 173.658 182.345Z" fill="#3E4095"/>
<path d="M208.896 188.684H150.704C149.918 188.684 149.045 188.063 148.746 187.297C148.451 186.532 148.851 185.911 149.639 185.911H207.831C208.618 185.911 209.49 186.533 209.79 187.299C210.082 188.062 209.683 188.684 208.896 188.684Z" fill="#3E4095"/>
<path d="M208.896 188.684H150.704C149.918 188.684 149.045 188.063 148.746 187.297C148.451 186.532 148.851 185.911 149.639 185.911H207.831C208.618 185.911 209.49 186.533 209.79 187.299C210.082 188.062 209.683 188.684 208.896 188.684Z" fill="white" fill-opacity="0.25"/>
<path d="M211.338 195.023H153.146C152.36 195.023 151.487 194.403 151.188 193.637C150.893 192.871 151.292 192.251 152.082 192.251H210.274C211.061 192.251 211.934 192.873 212.232 193.637C212.523 194.402 212.125 195.023 211.338 195.023Z" fill="#3E4095"/>
<path d="M211.338 195.023H153.146C152.36 195.023 151.487 194.403 151.188 193.637C150.893 192.871 151.292 192.251 152.082 192.251H210.274C211.061 192.251 211.934 192.873 212.232 193.637C212.523 194.402 212.125 195.023 211.338 195.023Z" fill="white" fill-opacity="0.25"/>
<path d="M134.972 187.436C135.474 188.738 135.982 190.04 136.468 191.344C136.53 191.506 136.542 191.716 136.468 191.819C136.355 191.968 136.103 191.826 135.898 191.719C134.684 191.088 133.472 190.442 132.253 189.828C132.059 189.743 131.884 189.619 131.74 189.463C131.595 189.308 131.484 189.125 131.412 188.925C131.043 187.904 130.646 186.882 130.233 185.852C130.105 185.533 130.129 185.303 130.332 185.128C131.107 184.461 131.872 183.782 132.657 183.124C132.719 183.08 132.791 183.051 132.867 183.041C132.943 183.03 133.02 183.038 133.092 183.063C133.25 183.161 133.372 183.306 133.443 183.478C133.963 184.797 134.464 186.116 134.972 187.436Z" fill="#505577"/>
<path d="M130.386 187.458C130.584 187.969 130.781 188.479 130.977 188.99C131.155 189.449 131.075 189.568 130.594 189.569C130.416 189.569 130.239 189.569 130.058 189.569C129.936 189.566 129.818 189.526 129.718 189.456C129.619 189.385 129.542 189.287 129.498 189.174C129.046 188.02 128.601 186.866 128.163 185.712C128.067 185.456 128.174 185.315 128.431 185.303C128.623 185.296 128.821 185.303 129.018 185.303C129.41 185.303 129.608 185.444 129.754 185.814C129.968 186.365 130.176 186.912 130.386 187.458Z" fill="#505577"/>
<path d="M139.685 187.624C140.213 189.123 139.985 190.445 138.87 191.366C138.811 191.407 138.744 191.435 138.673 191.449C138.602 191.462 138.53 191.46 138.46 191.442C138.175 191.366 138.046 191.048 138.212 190.881C138.377 190.736 138.534 190.583 138.682 190.421C140.031 188.716 138.674 185.656 135.918 184.176C135.835 184.132 135.751 184.093 135.663 184.049C135.451 183.921 135.338 183.768 135.387 183.594C135.437 183.421 135.608 183.374 135.816 183.501C136.391 183.831 136.945 184.194 137.476 184.589C138.5 185.395 139.189 186.366 139.685 187.624Z" fill="#505577"/>
<path d="M138.261 187.45C138.661 188.619 138.516 189.547 137.75 190.196C137.565 190.353 137.358 190.335 137.172 190.161C136.985 189.988 136.98 189.807 137.164 189.651C138.41 188.572 137.594 186.391 135.528 185.274C135.233 185.114 135.11 184.952 135.152 184.777C135.195 184.602 135.394 184.569 135.691 184.725C136.928 185.376 137.77 186.294 138.261 187.45Z" fill="#505577"/>
<path d="M136.922 187.476C137.124 188.075 137.05 188.564 136.659 188.91C136.52 189.037 136.348 189.054 136.122 188.87C135.927 188.712 135.911 188.522 136.067 188.366C136.557 187.874 136.258 187.073 135.397 186.562C135.12 186.399 135.002 186.216 135.069 186.052C135.135 185.887 135.324 185.882 135.609 186.038C136.2 186.35 136.665 186.859 136.922 187.476Z" fill="#505577"/>
<path d="M381.907 116.463H239.238C234.242 116.463 228.674 112.52 226.802 107.655L203.633 47.4826C201.761 42.6191 204.292 38.6748 209.288 38.6748H351.957C356.953 38.6748 362.521 42.6179 364.394 47.4826L387.562 107.655C389.435 112.521 386.904 116.463 381.907 116.463Z" stroke="#EC3237" stroke-width="9" stroke-miterlimit="10"/>
<path d="M381.907 116.463H239.238C234.242 116.463 228.674 112.52 226.802 107.655L203.633 47.4826C201.761 42.6191 204.292 38.6748 209.288 38.6748H351.957C356.953 38.6748 362.521 42.6179 364.394 47.4826L387.562 107.655C389.435 112.521 386.904 116.463 381.907 116.463Z" stroke="black" stroke-opacity="0.1" stroke-width="9" stroke-miterlimit="10"/>
<g opacity="0.65">
<path d="M382.637 113.515H239.968C234.971 113.515 229.403 109.572 227.531 104.707L204.366 44.5324C202.494 39.669 205.025 35.7246 210.021 35.7246H352.69C357.686 35.7246 363.254 39.6677 365.127 44.5324L388.295 104.705C390.164 109.573 387.633 113.515 382.637 113.515Z" fill="#EC3237"/>
<path d="M382.637 113.515H239.968C234.971 113.515 229.403 109.572 227.531 104.707L204.366 44.5324C202.494 39.669 205.025 35.7246 210.021 35.7246H352.69C357.686 35.7246 363.254 39.6677 365.127 44.5324L388.295 104.705C390.164 109.573 387.633 113.515 382.637 113.515Z" fill="white" fill-opacity="0.4"/>
</g>
<path d="M246.963 84.835C248.127 84.835 249.139 84.835 250.154 84.835C251.169 84.835 251.409 85.0099 251.793 85.9532C252.72 88.2215 252.72 88.2228 250.365 88.224C247.428 88.224 244.492 88.224 241.557 88.224C240.553 88.224 240.242 87.9981 239.853 87.0305C238.972 84.8477 238.972 84.8477 241.226 84.8477H243.454C242.915 83.4436 242.425 82.0969 241.843 80.7502C241.764 80.5677 241.221 80.3277 240.906 80.2486C236.242 79.0716 232.457 76.4497 230.078 72.2565C228.75 69.9154 227.997 67.4607 227.077 65.0571C226.724 64.1368 227.343 63.4781 228.238 63.5011C229.183 63.5253 230.195 64.2197 230.598 65.209C231.28 66.8799 231.875 68.5521 232.541 70.223C233.719 73.159 236.382 75.666 239.471 76.6348C242.648 77.6318 244.996 77.1161 246.364 75.0941C247.258 73.7678 247.241 72.0893 246.521 70.1911C245.952 68.69 245.365 67.1888 244.806 65.6877C244.342 64.4444 244.743 63.7053 245.827 63.7283C246.866 63.75 247.869 64.5082 248.298 65.6775C249.093 67.8284 250.117 70.0175 250.551 72.1174C251.422 76.3221 249.741 78.9951 245.997 80.1822C245.407 80.3698 245.286 80.6136 245.57 81.2698C246.077 82.4275 246.482 83.5853 246.963 84.835Z" fill="url(#paint4_linear_201_43498)"/>
<path d="M238.393 65.6865H243.669C244.198 67.2694 244.881 68.8343 245.186 70.3393C245.641 72.5847 244.037 74.216 241.671 74.1981L238.393 65.6865Z" fill="url(#paint5_linear_201_43498)"/>
<path d="M240.47 74.2544C239.001 74.1345 237.587 73.6346 236.369 72.8036C235.151 71.9727 234.169 70.8394 233.521 69.5148C232.921 68.2638 232.531 66.9925 232.031 65.6968C232.245 65.6777 232.402 65.6509 232.57 65.6509C234.073 65.6509 235.578 65.6509 237.157 65.6509L240.47 74.2544Z" fill="url(#paint6_linear_201_43498)"/>
<path d="M231.451 64.2133L230.94 62.8705C232.036 62.8705 233.122 62.9164 234.152 62.8449C234.508 62.8194 234.908 62.582 234.972 62.2935C235.084 61.7893 234.388 61.2646 233.629 61.2493C232.549 61.2263 231.482 61.2429 230.342 61.2429L229.892 60.0762C230.902 60.0762 231.935 60.0686 232.97 60.0762C233.562 60.0826 234.144 60.0469 233.879 59.3103C233.592 58.5138 232.951 58.4717 232.332 58.4768C231.323 58.4857 230.311 58.4768 229.308 58.4768C228.089 55.7643 229.576 53.3581 232.444 53.3428L236.628 64.2082L231.451 64.2133Z" fill="url(#paint7_linear_201_43498)"/>
<path d="M241.409 60.0832L241.856 61.2435C240.792 61.2435 239.72 61.2192 238.673 61.2575C238.357 61.269 238.02 61.3852 237.868 61.5818C237.761 61.7222 237.856 62.1881 238.029 62.3336C238.326 62.5889 238.795 62.8442 239.116 62.8582C240.234 62.9208 241.321 62.8825 242.471 62.8825L242.975 64.1922H237.83L233.668 53.3842C236.184 53.1429 239.624 55.5823 240.75 58.4901C239.723 58.4901 238.692 58.499 237.656 58.4901C237.051 58.4901 236.507 58.5578 236.787 59.2892C237.066 60.0206 237.665 60.1023 238.266 60.0947C239.276 60.0742 240.293 60.0832 241.409 60.0832Z" fill="url(#paint8_linear_201_43498)"/>
<path d="M374.002 102.319H240.533C238.861 102.319 236.998 100.999 236.371 99.3719C235.745 97.7457 236.592 96.4258 238.263 96.4258H371.734C373.405 96.4258 375.268 97.7444 375.895 99.3719C376.521 101.001 375.67 102.319 374.002 102.319Z" fill="#F1857C"/>
<path d="M266.021 75.8101C265.343 75.8101 264.589 75.2753 264.335 74.6166L260.736 65.2702C260.481 64.6115 260.826 64.0767 261.502 64.0767C262.18 64.0767 262.936 64.6115 263.189 65.2702L266.788 74.6166C267.042 75.2765 266.7 75.8101 266.021 75.8101Z" fill="white"/>
<path d="M274.72 79.7477C274.042 79.7477 273.288 79.2129 273.034 78.553L266.403 61.3332C266.148 60.6732 266.493 60.1396 267.169 60.1396C267.847 60.1396 268.602 60.6745 268.856 61.3332L275.486 78.553C275.74 79.2129 275.396 79.7477 274.72 79.7477Z" fill="white"/>
<path d="M281.062 77.5679C280.384 77.5679 279.628 77.0344 279.374 76.3744L274.423 63.5138C274.167 62.8539 274.512 62.319 275.189 62.3203C275.866 62.3203 276.621 62.8539 276.875 63.5138L281.826 76.3744C282.082 77.0344 281.738 77.5692 281.062 77.5679Z" fill="white"/>
<path d="M290.92 84.5246C290.242 84.5246 289.487 83.9898 289.233 83.3311L278.924 56.5581C278.669 55.8981 279.014 55.3633 279.69 55.3633C280.368 55.3633 281.123 55.8981 281.377 56.5581L291.685 83.3311C291.941 83.9898 291.597 84.5246 290.92 84.5246Z" fill="white"/>
<path d="M296.624 80.6912C295.946 80.6912 295.192 80.1564 294.938 79.4977L287.582 60.3913C287.326 59.7313 287.671 59.1978 288.347 59.1978C289.024 59.1978 289.78 59.7326 290.034 60.3913L297.39 79.4977C297.645 80.1564 297.302 80.6912 296.624 80.6912Z" fill="white"/>
<path d="M302.886 78.3033C302.208 78.3033 301.453 77.7684 301.199 77.1098L295.682 62.7799C295.427 62.1213 295.772 61.5864 296.448 61.5864C297.126 61.5864 297.882 62.1213 298.136 62.7799L303.653 77.1098C303.907 77.7684 303.563 78.3033 302.886 78.3033Z" fill="white"/>
<path d="M311.135 81.0809C310.458 81.0809 309.703 80.5461 309.449 79.8861L301.79 60.0036C301.535 59.3436 301.88 58.8101 302.556 58.8101C303.234 58.8101 303.988 59.3436 304.242 60.0036L311.901 79.8861C312.157 80.5461 311.813 81.0809 311.135 81.0809Z" fill="white"/>
<path d="M318.167 80.6925C317.489 80.6925 316.735 80.1576 316.481 79.4977L309.125 60.3925C308.869 59.7326 309.214 59.1978 309.891 59.1978C310.567 59.1978 311.323 59.7326 311.577 60.3925L318.933 79.4977C319.188 80.1576 318.845 80.6925 318.167 80.6925Z" fill="white"/>
<path d="M328.3 88.3609C327.623 88.3609 326.867 87.8261 326.613 87.1661L313.352 52.7252C313.097 52.0653 313.441 51.5317 314.118 51.5317C314.796 51.5317 315.55 52.0653 315.804 52.7252L329.067 87.1661C329.321 87.8261 328.977 88.3609 328.3 88.3609Z" fill="white"/>
<path d="M334.44 85.6584C333.764 85.6584 333.008 85.1236 332.754 84.4636L321.573 55.4274C321.318 54.7687 321.663 54.2339 322.339 54.2339C323.016 54.2339 323.771 54.7687 324.025 55.4274L335.206 84.4636C335.461 85.1236 335.117 85.6584 334.44 85.6584Z" fill="white"/>
<path d="M339.347 79.7506C338.669 79.7506 337.913 79.2157 337.66 78.5558L331.029 61.3335C330.774 60.6735 331.118 60.1387 331.795 60.1387C332.473 60.1387 333.227 60.6735 333.481 61.3335L340.111 78.5533C340.367 79.2158 340.023 79.7506 339.347 79.7506Z" fill="white"/>
<path d="M345.01 75.8126C344.333 75.8126 343.578 75.2777 343.324 74.619L339.725 65.2726C339.47 64.6139 339.814 64.0791 340.491 64.0791C341.169 64.0791 341.923 64.6139 342.177 65.2726L345.776 74.619C346.031 75.2777 345.688 75.8126 345.01 75.8126Z" fill="white"/>
<path d="M358.055 129.115C358.055 129.115 356.236 137.329 357.468 139.947C358.7 142.565 364.084 140.742 364.084 140.742L358.055 129.115Z" fill="#E26356"/>
<path d="M351.6 109.309C351.6 109.82 355.708 125.569 362.382 140.288C369.057 155.008 381.551 156.372 392.676 143.026L390.28 113.925C390.28 113.925 382.921 105.025 381.209 105.373C379.498 105.72 351.6 109.309 351.6 109.309Z" fill="#F8BFAB"/>
<mask id="mask4_201_43498" style="mask-type:luminance" maskUnits="userSpaceOnUse" x="351" y="105" width="42" height="48">
<path d="M351.6 109.309C351.6 109.82 355.708 125.569 362.382 140.288C369.057 155.008 381.551 156.372 392.676 143.026L390.28 113.925C390.28 113.925 382.921 105.025 381.209 105.373C379.498 105.72 351.6 109.309 351.6 109.309Z" fill="white"/>
</mask>
<g mask="url(#mask4_201_43498)">
<path d="M349.054 115.099C349.054 115.099 350.585 117.948 364.682 120.489C378.778 123.031 383.471 122.645 385.165 130.956C386.859 139.268 386.628 151.361 386.628 151.361L393.482 149.59C393.482 149.59 399.025 135.804 398.64 129.805C398.254 123.805 394.482 117.871 394.482 117.871C394.482 117.871 382.009 114.348 381.079 114.223C380.15 114.098 373.534 112.404 370.146 111.556C366.758 110.709 357.289 109.33 357.289 109.33C357.289 109.33 353.788 110.178 353.113 109.713C352.437 109.248 349.054 115.099 349.054 115.099Z" fill="#F29883"/>
<path d="M362.612 123.793C362.198 122.601 360.897 121.97 359.705 122.383C358.513 122.797 357.882 124.098 358.295 125.291L359.439 128.588C359.853 129.78 361.154 130.411 362.346 129.998C363.538 129.584 364.169 128.283 363.755 127.091L362.612 123.793Z" fill="#663020"/>
</g>
<path d="M389.024 248.198L327.153 180.954C274.268 178.663 259.356 206.93 259.356 206.93L309.439 269.25C348.461 231.254 389.024 248.198 389.024 248.198Z" fill="white"/>
<mask id="mask5_201_43498" style="mask-type:luminance" maskUnits="userSpaceOnUse" x="259" y="180" width="131" height="90">
<path d="M389.024 248.198L327.153 180.954C274.268 178.663 259.356 206.93 259.356 206.93L309.439 269.25C348.461 231.254 389.024 248.198 389.024 248.198Z" fill="white"/>
</mask>
<g mask="url(#mask5_201_43498)">
<g opacity="0.57">
<path d="M267.59 208.968C267.59 208.968 287.916 184.061 326.493 187.14" stroke="#181818" stroke-width="11" stroke-linecap="round" stroke-linejoin="round"/>
<path d="M267.59 208.968C267.59 208.968 287.916 184.061 326.493 187.14" stroke="white" stroke-opacity="0.8" stroke-width="11" stroke-linecap="round" stroke-linejoin="round"/>
</g>
<g opacity="0.57">
<path d="M276.004 219.699C276.004 219.699 296.045 194.6 334.485 197.199" stroke="#181818" stroke-width="11" stroke-linecap="round" stroke-linejoin="round"/>
<path d="M276.004 219.699C276.004 219.699 296.045 194.6 334.485 197.199" stroke="white" stroke-opacity="0.8" stroke-width="11" stroke-linecap="round" stroke-linejoin="round"/>
</g>
<g opacity="0.57">
<path d="M284.42 230.432C284.42 230.432 304.179 205.139 342.477 207.26" stroke="#181818" stroke-width="11" stroke-linecap="round" stroke-linejoin="round"/>
<path d="M284.42 230.432C284.42 230.432 304.179 205.139 342.477 207.26" stroke="white" stroke-opacity="0.8" stroke-width="11" stroke-linecap="round" stroke-linejoin="round"/>
</g>
<g opacity="0.57">
<path d="M292.834 241.163C292.834 241.163 312.31 215.677 350.47 217.322" stroke="#181818" stroke-width="11" stroke-linecap="round" stroke-linejoin="round"/>
<path d="M292.834 241.163C292.834 241.163 312.31 215.677 350.47 217.322" stroke="white" stroke-opacity="0.8" stroke-width="11" stroke-linecap="round" stroke-linejoin="round"/>
</g>
<g opacity="0.57">
<path d="M301.251 251.896C301.251 251.896 320.442 226.216 358.463 227.387" stroke="#181818" stroke-width="11" stroke-linecap="round" stroke-linejoin="round"/>
<path d="M301.251 251.896C301.251 251.896 320.442 226.216 358.463 227.387" stroke="white" stroke-opacity="0.8" stroke-width="11" stroke-linecap="round" stroke-linejoin="round"/>
</g>
<g opacity="0.57">
<path d="M309.665 262.626C309.665 262.626 328.568 236.755 366.454 237.448" stroke="#181818" stroke-width="11" stroke-linecap="round" stroke-linejoin="round"/>
<path d="M309.665 262.626C309.665 262.626 328.568 236.755 366.454 237.448" stroke="white" stroke-opacity="0.8" stroke-width="11" stroke-linecap="round" stroke-linejoin="round"/>
</g>
</g>
<path d="M390.281 248.198C390.281 248.198 376.033 260.392 371.925 261.035C367.817 261.677 339.718 233.436 337.914 226.894C336.111 220.352 329.437 210.976 327.127 206.227C324.816 201.479 303.166 201.905 301.369 203.617C299.571 205.329 295.036 221.331 300.603 225.267C306.169 229.204 317.889 238.96 326.018 237.933C326.018 237.933 356.289 287.127 361.788 289.791C367.288 292.455 370.261 290.557 378.476 286.198C386.691 281.839 405.346 267.371 405.346 267.371L402.522 248.715L390.281 248.198Z" fill="#F8BFAB"/>
<mask id="mask6_201_43498" style="mask-type:luminance" maskUnits="userSpaceOnUse" x="297" y="202" width="109" height="90">
<path d="M390.281 248.198C390.281 248.198 376.033 260.392 371.925 261.035C367.817 261.677 339.718 233.436 337.914 226.894C336.111 220.352 329.437 210.976 327.127 206.227C324.816 201.479 303.166 201.905 301.369 203.617C299.571 205.329 295.036 221.331 300.603 225.267C306.169 229.204 317.889 238.96 326.018 237.933C326.018 237.933 356.289 287.127 361.788 289.791C367.288 292.455 370.261 290.557 378.476 286.198C386.691 281.839 405.346 267.371 405.346 267.371L402.522 248.715L390.281 248.198Z" fill="white"/>
</mask>
<g mask="url(#mask6_201_43498)">
<path d="M324.191 243.704C325.34 243.993 334.132 261.113 356.416 264.872C378.699 268.632 386.783 244.381 386.783 244.381C386.783 244.381 410.345 242.072 410.807 245.767C411.269 249.463 412.655 267.249 411.731 271.408C410.807 275.567 409.421 284.343 397.409 287.808C385.397 291.274 379.532 295.562 372.692 294.738C365.853 293.915 356.209 294.738 351.63 287.346C347.051 279.954 324.191 243.704 324.191 243.704Z" fill="#DD7F62"/>
</g>
<path d="M360.243 243.706C360.243 243.706 352.029 270.662 346.637 275.027C341.245 279.391 284.393 282.087 284.393 282.087C284.393 282.087 281.942 272.587 275.91 267.966C269.877 263.346 238.94 275.154 249.082 285.937C259.223 296.719 271.931 299.672 279.375 301.213C286.82 302.753 353.954 300.574 363.581 295.564C373.208 290.554 385.792 256.158 385.792 256.158L360.243 243.706Z" fill="#F8BFAB"/>
<mask id="mask7_201_43498" style="mask-type:luminance" maskUnits="userSpaceOnUse" x="247" y="243" width="139" height="59">
<path d="M360.243 243.706C360.243 243.706 352.029 270.662 346.637 275.027C341.245 279.391 284.393 282.087 284.393 282.087C284.393 282.087 281.942 272.587 275.91 267.966C269.877 263.346 238.94 275.154 249.082 285.937C259.223 296.719 271.931 299.672 279.375 301.213C286.82 302.753 353.954 300.574 363.581 295.564C373.208 290.554 385.792 256.158 385.792 256.158L360.243 243.706Z" fill="white"/>
</mask>
<g mask="url(#mask7_201_43498)">
<path d="M368 244.482C368 244.482 377.852 256.291 371.537 272.703C365.222 289.115 356.497 293.119 337.914 294.505C319.331 295.891 284.529 298.355 282.065 289.577C279.602 280.798 288.226 277.103 288.226 277.103L283.452 266.785C283.452 266.785 251.728 265.553 248.341 271.713C244.953 277.874 240.948 286.138 248.032 291.015C255.115 295.893 256.04 298.871 267.898 302.539C279.755 306.208 295.309 307.901 310.708 309.443C326.108 310.985 342.432 310.52 350.748 309.905C359.064 309.289 365.378 309.048 371.384 301.699C377.389 294.351 380.636 288.961 385.789 276.487C390.942 264.014 395.098 254.773 395.715 251.078C396.331 247.382 391.247 243.706 391.247 243.706L367.998 244.482" fill="#F29883"/>
</g>
<path d="M188.008 215.614C188.008 215.614 177.055 221.071 173.975 223.809C173.975 223.809 197.947 238.389 210.355 258.74C222.762 279.091 240.21 302.539 240.21 302.539C240.21 302.539 275.638 266.768 309.44 269.249L188.008 215.614Z" fill="#3E4095"/>
<path d="M188.008 215.614C188.008 215.614 177.055 221.071 173.975 223.809C173.975 223.809 197.947 238.389 210.355 258.74C222.762 279.091 240.21 302.539 240.21 302.539C240.21 302.539 275.638 266.768 309.44 269.249L188.008 215.614Z" fill="white" fill-opacity="0.25"/>
<path d="M175.806 217.134C200.317 229.457 240.874 296.463 240.874 296.463C276.028 262.061 309.437 269.249 309.437 269.249L259.357 206.93C203.369 190.05 175.806 217.134 175.806 217.134Z" fill="white"/>
<mask id="mask8_201_43498" style="mask-type:luminance" maskUnits="userSpaceOnUse" x="175" y="201" width="135" height="96">
<path d="M175.806 217.134C200.317 229.457 240.874 296.463 240.874 296.463C276.028 262.061 309.437 269.249 309.437 269.249L259.357 206.93C203.369 190.05 175.806 217.134 175.806 217.134Z" fill="white"/>
</mask>
<g mask="url(#mask8_201_43498)">
<g opacity="0.57">
<path d="M190.876 216.881C190.876 216.881 219.891 199.219 257.582 211" stroke="#181818" stroke-width="11" stroke-linecap="round" stroke-linejoin="round"/>
<path d="M190.876 216.881C190.876 216.881 219.891 199.219 257.582 211" stroke="white" stroke-opacity="0.8" stroke-width="11" stroke-linecap="round" stroke-linejoin="round"/>
</g>
<g opacity="0.57">
<path d="M201.049 229.68C201.049 229.68 230.536 210.885 266.003 221.572" stroke="#181818" stroke-width="11" stroke-linecap="round" stroke-linejoin="round"/>
<path d="M201.049 229.68C201.049 229.68 230.536 210.885 266.003 221.572" stroke="white" stroke-opacity="0.8" stroke-width="11" stroke-linecap="round" stroke-linejoin="round"/>
</g>
<g opacity="0.57">
<path d="M211.21 242.479C211.21 242.479 241.158 222.55 274.413 232.14" stroke="#181818" stroke-width="11" stroke-linecap="round" stroke-linejoin="round"/>
<path d="M211.21 242.479C211.21 242.479 241.158 222.55 274.413 232.14" stroke="white" stroke-opacity="0.8" stroke-width="11" stroke-linecap="round" stroke-linejoin="round"/>
</g>
<g opacity="0.57">
<path d="M221.376 255.278C221.376 255.278 251.791 234.216 282.829 242.716" stroke="#181818" stroke-width="11" stroke-linecap="round" stroke-linejoin="round"/>
<path d="M221.376 255.278C221.376 255.278 251.791 234.216 282.829 242.716" stroke="white" stroke-opacity="0.8" stroke-width="11" stroke-linecap="round" stroke-linejoin="round"/>
</g>
<g opacity="0.57">
<path d="M231.542 268.076C231.542 268.076 262.424 245.88 291.245 253.287" stroke="#181818" stroke-width="11" stroke-linecap="round" stroke-linejoin="round"/>
<path d="M231.542 268.076C231.542 268.076 262.424 245.88 291.245 253.287" stroke="white" stroke-opacity="0.8" stroke-width="11" stroke-linecap="round" stroke-linejoin="round"/>
</g>
<g opacity="0.57">
<path d="M241.709 280.876C241.709 280.876 273.058 257.545 299.662 263.859" stroke="#181818" stroke-width="11" stroke-linecap="round" stroke-linejoin="round"/>
<path d="M241.709 280.876C241.709 280.876 273.058 257.545 299.662 263.859" stroke="white" stroke-opacity="0.8" stroke-width="11" stroke-linecap="round" stroke-linejoin="round"/>
</g>
</g>
<path d="M395.757 168.87C395.757 168.87 379.497 168.87 374.192 182.904C368.887 196.937 358.355 242.123 358.355 242.123C358.355 242.123 361.356 251.879 372.141 256.842C382.926 261.805 395.756 261.463 395.756 261.463L399.35 253.76C399.35 253.76 403.629 264.886 400.719 280.289C397.808 295.693 392.332 312.637 393.187 312.637H447.958L459.082 168.87H395.757Z" fill="#ED675B"/>
<mask id="mask9_201_43498" style="mask-type:luminance" maskUnits="userSpaceOnUse" x="358" y="168" width="102" height="145">
<path d="M395.757 168.87C395.757 168.87 379.497 168.87 374.192 182.904C368.887 196.937 358.355 242.123 358.355 242.123C358.355 242.123 361.356 251.879 372.141 256.842C382.926 261.805 395.756 261.463 395.756 261.463L399.35 253.76C399.35 253.76 403.629 264.886 400.719 280.289C397.808 295.693 392.332 312.637 393.187 312.637H447.958L459.082 168.87H395.757Z" fill="white"/>
</mask>
<g mask="url(#mask9_201_43498)">
<path d="M382.855 166.187C382.855 166.187 377.426 199.335 389.784 214.003C402.142 228.671 427.899 251.194 426.974 261.241C426.05 271.288 405.723 311.143 406.877 310.674C408.031 310.206 438.062 314.024 439.683 308.826C441.304 303.628 445.689 276.487 445.689 276.487C445.689 276.487 452.734 239.066 437.373 223.242C422.011 207.419 400.298 189.953 398.912 187.137C397.526 184.321 391.174 164.916 391.174 164.916L382.855 166.187Z" fill="#EC3237"/>
<path d="M382.855 166.187C382.855 166.187 377.426 199.335 389.784 214.003C402.142 228.671 427.899 251.194 426.974 261.241C426.05 271.288 405.723 311.143 406.877 310.674C408.031 310.206 438.062 314.024 439.683 308.826C441.304 303.628 445.689 276.487 445.689 276.487C445.689 276.487 452.734 239.066 437.373 223.242C422.011 207.419 400.298 189.953 398.912 187.137C397.526 184.321 391.174 164.916 391.174 164.916L382.855 166.187Z" fill="black" fill-opacity="0.1"/>
<path d="M382.752 263.859C382.752 263.859 394.423 248.308 398.175 233.677L401.928 219.046L402.95 225.405C402.95 225.405 403.294 240.737 399.35 253.761C395.406 266.785 394.943 269.096 394.943 269.096L382.752 263.859Z" fill="#EC3237"/>
<path d="M382.752 263.859C382.752 263.859 394.423 248.308 398.175 233.677L401.928 219.046L402.95 225.405C402.95 225.405 403.294 240.737 399.35 253.761C395.406 266.785 394.943 269.096 394.943 269.096L382.752 263.859Z" fill="black" fill-opacity="0.1"/>
</g>
<path d="M366.832 115.3C366.832 115.3 355.366 120.947 348.263 108.881C348.263 108.881 343.557 111.705 339.192 104.175C334.828 96.6451 343.042 91.8519 343.042 91.8519C343.042 91.8519 338.421 85.7758 343.298 78.93C348.174 72.0842 356.05 73.9709 356.05 73.9709C356.05 73.9709 356.393 70.0342 361.613 69.9487C366.832 69.8631 367.603 71.4026 367.603 71.4026C367.603 71.4026 368.259 64.1866 379.441 64.2428C390.623 64.2989 396.385 63.7322 404.6 66.3541C412.814 68.976 430.715 79.5325 434.437 100.328C438.16 121.123 432.513 137.938 451.253 151.417C469.993 164.895 492.8 184.79 491.431 225.524C490.063 266.258 445.223 265.574 424.339 244.693C403.456 223.812 395.584 215.937 391.137 183.76C386.689 151.584 392.848 145.251 389.083 131.558C385.317 117.865 374.364 111.883 366.832 115.3Z" fill="#181818"/>
<path d="M366.832 115.3C366.832 115.3 355.366 120.947 348.263 108.881C348.263 108.881 343.557 111.705 339.192 104.175C334.828 96.6451 343.042 91.8519 343.042 91.8519C343.042 91.8519 338.421 85.7758 343.298 78.93C348.174 72.0842 356.05 73.9709 356.05 73.9709C356.05 73.9709 356.393 70.0342 361.613 69.9487C366.832 69.8631 367.603 71.4026 367.603 71.4026C367.603 71.4026 368.259 64.1866 379.441 64.2428C390.623 64.2989 396.385 63.7322 404.6 66.3541C412.814 68.976 430.715 79.5325 434.437 100.328C438.16 121.123 432.513 137.938 451.253 151.417C469.993 164.895 492.8 184.79 491.431 225.524C490.063 266.258 445.223 265.574 424.339 244.693C403.456 223.812 395.584 215.937 391.137 183.76C386.689 151.584 392.848 145.251 389.083 131.558C385.317 117.865 374.364 111.883 366.832 115.3Z" fill="white" fill-opacity="0.2"/>
<mask id="mask10_201_43498" style="mask-type:luminance" maskUnits="userSpaceOnUse" x="337" y="64" width="155" height="195">
<path d="M366.832 115.3C366.832 115.3 355.366 120.947 348.263 108.881C348.263 108.881 343.557 111.705 339.192 104.175C334.828 96.6451 343.042 91.8519 343.042 91.8519C343.042 91.8519 338.421 85.7758 343.298 78.93C348.174 72.0842 356.05 73.9709 356.05 73.9709C356.05 73.9709 356.393 70.0342 361.613 69.9487C366.832 69.8631 367.603 71.4026 367.603 71.4026C367.603 71.4026 368.259 64.1866 379.441 64.2428C390.623 64.2989 396.385 63.7322 404.6 66.3541C412.814 68.976 430.715 79.5325 434.437 100.328C438.16 121.123 432.513 137.938 451.253 151.417C469.993 164.895 492.8 184.79 491.431 225.524C490.063 266.258 445.223 265.574 424.339 244.693C403.456 223.812 395.584 215.937 391.137 183.76C386.689 151.584 392.848 145.251 389.083 131.558C385.317 117.865 374.364 111.883 366.832 115.3Z" fill="white"/>
</mask>
<g mask="url(#mask10_201_43498)">
<path d="M447.274 137.359C447.146 139.738 457.159 156.369 438.987 165.608C420.815 174.848 405.416 176.697 400.643 156.062C395.87 135.426 391.6 119.613 385.943 111.106C380.285 102.6 371.229 83.6172 376.157 75.103L373.142 105.363L374.617 130.959C374.617 130.959 382.009 160.063 383.703 167.149C385.396 174.235 387.484 226.926 392.676 232.995C397.869 239.065 421.739 247.689 421.739 247.689C421.739 247.689 455.003 294.195 468.247 285.88C481.49 277.565 498.276 252.616 498.276 252.616C498.276 252.616 504.435 181.47 495.966 171.152C487.496 160.834 447.274 137.359 447.274 137.359Z" fill="#181818"/>
<path d="M447.274 137.359C447.146 139.738 457.159 156.369 438.987 165.608C420.815 174.848 405.416 176.697 400.643 156.062C395.87 135.426 391.6 119.613 385.943 111.106C380.285 102.6 371.229 83.6172 376.157 75.103L373.142 105.363L374.617 130.959C374.617 130.959 382.009 160.063 383.703 167.149C385.396 174.235 387.484 226.926 392.676 232.995C397.869 239.065 421.739 247.689 421.739 247.689C421.739 247.689 455.003 294.195 468.247 285.88C481.49 277.565 498.276 252.616 498.276 252.616C498.276 252.616 504.435 181.47 495.966 171.152C487.496 160.834 447.274 137.359 447.274 137.359Z" fill="white" fill-opacity="0.15"/>
<path d="M335.782 99.5437C335.893 99.1429 338.924 106.161 343.432 105.432C347.941 104.703 352.673 101.375 354.29 102.694C355.907 104.013 362.219 102.311 363.453 97.3878C364.686 92.4643 366.228 84.2221 366.644 87.532C367.06 90.8419 371.686 107.318 371.686 107.318C371.686 107.318 370.762 114.324 368.298 117.712C365.834 121.1 361.981 126.441 355.669 123.073C349.356 119.706 344.464 112.781 342.366 111.395C340.269 110.008 335.292 101.315 335.782 99.5437Z" fill="#181818"/>
<path d="M335.782 99.5437C335.893 99.1429 338.924 106.161 343.432 105.432C347.941 104.703 352.673 101.375 354.29 102.694C355.907 104.013 362.219 102.311 363.453 97.3878C364.686 92.4643 366.228 84.2221 366.644 87.532C367.06 90.8419 371.686 107.318 371.686 107.318C371.686 107.318 370.762 114.324 368.298 117.712C365.834 121.1 361.981 126.441 355.669 123.073C349.356 119.706 344.464 112.781 342.366 111.395C340.269 110.008 335.292 101.315 335.782 99.5437Z" fill="white" fill-opacity="0.15"/>
</g>
<path d="M369.615 111.106C369.615 111.106 361.143 96.6014 366.406 82.0954C371.669 67.5895 380.523 64.2425 380.523 64.2425C380.523 64.2425 387.288 60.6811 393.879 64.2425C393.879 64.2425 368.719 75.2497 375.823 110.593L369.615 111.106Z" fill="#F1A069"/>
<mask id="mask11_201_43498" style="mask-type:luminance" maskUnits="userSpaceOnUse" x="364" y="62" width="30" height="50">
<path d="M369.615 111.106C369.615 111.106 361.143 96.6014 366.406 82.0954C371.669 67.5895 380.523 64.2425 380.523 64.2425C380.523 64.2425 387.288 60.6811 393.879 64.2425C393.879 64.2425 368.719 75.2497 375.823 110.593L369.615 111.106Z" fill="white"/>
</mask>
<g mask="url(#mask11_201_43498)">
<path d="M389.435 59.6069C389.435 59.6069 390.435 61.7629 387.741 63.6917C385.046 65.6205 377.962 68.4657 373.881 84.3274C369.8 100.189 371.865 107.658 371.865 107.658C371.865 107.658 377.268 113.823 378.12 108.47C378.971 103.116 377.427 91.7118 382.508 83.0151C387.59 74.3184 391.671 68.3892 391.671 68.3892C391.671 68.3892 397.445 65.0907 397.907 63.467C398.369 61.8433 397.369 60.3039 397.369 60.3039L389.435 59.6069Z" fill="#EC3237"/>
<path d="M389.435 59.6069C389.435 59.6069 390.435 61.7629 387.741 63.6917C385.046 65.6205 377.962 68.4657 373.881 84.3274C369.8 100.189 371.865 107.658 371.865 107.658C371.865 107.658 377.268 113.823 378.12 108.47C378.971 103.116 377.427 91.7118 382.508 83.0151C387.59 74.3184 391.671 68.3892 391.671 68.3892C391.671 68.3892 397.445 65.0907 397.907 63.467C398.369 61.8433 397.369 60.3039 397.369 60.3039L389.435 59.6069Z" fill="black" fill-opacity="0.15"/>
</g>
<path d="M372.304 127.99C380.008 127.99 386.253 121.745 386.253 114.041C386.253 106.337 380.008 100.091 372.304 100.091C364.6 100.091 358.354 106.337 358.354 114.041C358.354 121.745 364.6 127.99 372.304 127.99Z" fill="#EC3237"/>
<path d="M372.304 127.99C380.008 127.99 386.253 121.745 386.253 114.041C386.253 106.337 380.008 100.091 372.304 100.091C364.6 100.091 358.354 106.337 358.354 114.041C358.354 121.745 364.6 127.99 372.304 127.99Z" fill="white" fill-opacity="0.4"/>
<mask id="mask12_201_43498" style="mask-type:luminance" maskUnits="userSpaceOnUse" x="358" y="100" width="29" height="28">
<path d="M372.304 127.99C380.008 127.99 386.253 121.745 386.253 114.041C386.253 106.337 380.008 100.091 372.304 100.091C364.6 100.091 358.354 106.337 358.354 114.041C358.354 121.745 364.6 127.99 372.304 127.99Z" fill="white"/>
</mask>
<g mask="url(#mask12_201_43498)">
<path d="M369.579 127.229C377.283 127.229 383.529 120.984 383.529 113.28C383.529 105.576 377.283 99.3306 369.579 99.3306C361.875 99.3306 355.63 105.576 355.63 113.28C355.63 120.984 361.875 127.229 369.579 127.229Z" fill="#EC3237"/>
<path d="M369.579 127.229C377.283 127.229 383.529 120.984 383.529 113.28C383.529 105.576 377.283 99.3306 369.579 99.3306C361.875 99.3306 355.63 105.576 355.63 113.28C355.63 120.984 361.875 127.229 369.579 127.229Z" fill="black" fill-opacity="0.2"/>
</g>
<path d="M372.304 122.257C376.841 122.257 380.519 118.578 380.519 114.041C380.519 109.504 376.841 105.826 372.304 105.826C367.767 105.826 364.088 109.504 364.088 114.041C364.088 118.578 367.767 122.257 372.304 122.257Z" fill="#EC3237"/>
<path d="M372.304 122.257C376.841 122.257 380.519 118.578 380.519 114.041C380.519 109.504 376.841 105.826 372.304 105.826C367.767 105.826 364.088 109.504 364.088 114.041C364.088 118.578 367.767 122.257 372.304 122.257Z" fill="white" fill-opacity="0.4"/>
<mask id="mask13_201_43498" style="mask-type:luminance" maskUnits="userSpaceOnUse" x="364" y="105" width="17" height="18">
<path d="M372.304 122.257C376.841 122.257 380.519 118.578 380.519 114.041C380.519 109.504 376.841 105.826 372.304 105.826C367.767 105.826 364.088 109.504 364.088 114.041C364.088 118.578 367.767 122.257 372.304 122.257Z" fill="white"/>
</mask>
<g mask="url(#mask13_201_43498)">
<path d="M371.065 122.257C375.602 122.257 379.28 118.578 379.28 114.041C379.28 109.504 375.602 105.826 371.065 105.826C366.527 105.826 362.849 109.504 362.849 114.041C362.849 118.578 366.527 122.257 371.065 122.257Z" fill="#EC3237"/>
<path d="M371.065 122.257C375.602 122.257 379.28 118.578 379.28 114.041C379.28 109.504 375.602 105.826 371.065 105.826C366.527 105.826 362.849 109.504 362.849 114.041C362.849 118.578 366.527 122.257 371.065 122.257Z" fill="white" fill-opacity="0.2"/>
</g>
<path d="M250.922 282.942C250.825 279.797 254.516 275.469 256.056 272.702C257.595 269.934 262.09 256.328 265.426 255.852C268.763 255.376 270.433 258.548 269.021 265.351C267.609 272.153 269.32 276.176 270.818 280.285C272.317 284.394 273.471 290.939 266.753 291.796C260.035 292.652 251.049 287.092 250.922 282.942Z" fill="#F8BFAB"/>
<path d="M429.132 307.673C429.132 307.673 435.131 294.868 438.636 254.375C442.142 213.882 441.797 177.085 449.157 160.141C456.517 143.197 472.365 137.024 489.857 137.372C507.348 137.721 488.179 246.743 488.179 246.743L466.272 311.867L429.132 307.673Z" fill="#3E4095"/>
<path d="M447.274 309.556C448.423 303.266 455.49 265.57 456.174 214.909C456.858 164.248 468.428 134.344 495.538 137.554C522.648 140.765 528.058 209.096 523.608 251.198C519.158 293.301 513.681 313.491 513.681 313.491L447.274 309.556Z" fill="url(#paint9_linear_201_43498)"/>
<mask id="mask14_201_43498" style="mask-type:luminance" maskUnits="userSpaceOnUse" x="447" y="137" width="79" height="177">
<path d="M447.274 309.556C448.423 303.266 455.49 265.57 456.174 214.909C456.858 164.248 468.428 134.344 495.538 137.554C522.648 140.765 528.058 209.096 523.608 251.198C519.158 293.301 513.681 313.491 513.681 313.491L447.274 309.556Z" fill="white"/>
</mask>
<g mask="url(#mask14_201_43498)">
<path d="M468.026 127.989C468.026 127.989 453.537 256.428 472.939 273.849C492.342 291.271 529.846 276.487 529.846 276.487C529.846 276.487 520.528 304.206 522.372 315.755C524.217 327.305 542.238 347.171 513.595 337.007C484.952 326.844 471.961 322.868 452.125 319.311C432.288 315.755 423.315 344.398 427.339 298.2C431.364 252.001 468.026 127.989 468.026 127.989Z" fill="url(#paint10_linear_201_43498)"/>
</g>
<path d="M510.022 319.312H89.3145C87.3401 319.312 85.4466 318.527 84.0505 317.131C82.6544 315.735 81.8701 313.842 81.8701 311.867C81.8699 310.889 82.0623 309.921 82.4364 309.018C82.8104 308.115 83.3587 307.294 84.05 306.602C84.7413 305.911 85.5621 305.362 86.4654 304.988C87.3686 304.614 88.3368 304.421 89.3145 304.421H510.022C511.997 304.421 513.891 305.206 515.287 306.602C516.684 307.999 517.468 309.892 517.468 311.867C517.468 313.842 516.683 315.735 515.287 317.131C513.891 318.527 511.997 319.312 510.022 319.312Z" fill="#181818"/>
<path d="M510.022 319.312H89.3145C87.3401 319.312 85.4466 318.527 84.0505 317.131C82.6544 315.735 81.8701 313.842 81.8701 311.867C81.8699 310.889 82.0623 309.921 82.4364 309.018C82.8104 308.115 83.3587 307.294 84.05 306.602C84.7413 305.911 85.5621 305.362 86.4654 304.988C87.3686 304.614 88.3368 304.421 89.3145 304.421H510.022C511.997 304.421 513.891 305.206 515.287 306.602C516.684 307.999 517.468 309.892 517.468 311.867C517.468 313.842 516.683 315.735 515.287 317.131C513.891 318.527 511.997 319.312 510.022 319.312Z" fill="white" fill-opacity="0.2"/>
<path d="M318.434 178.138C314.947 188.881 301.979 228.036 300.691 231.937C300.621 232.144 300.576 232.358 300.554 232.575L299.661 241.832L306.398 234.44L324.058 179.92C324.175 179.545 324.215 179.15 324.177 178.758C324.139 178.367 324.023 177.987 323.836 177.642C323.649 177.296 323.395 176.991 323.088 176.745C322.782 176.498 322.429 176.316 322.051 176.208C321.316 175.998 320.527 176.081 319.852 176.441C319.177 176.801 318.669 177.41 318.434 178.138Z" fill="#5EB5BC"/>
<mask id="mask15_201_43498" style="mask-type:luminance" maskUnits="userSpaceOnUse" x="299" y="176" width="26" height="66">
<path d="M318.434 178.138C314.947 188.881 301.979 228.036 300.691 231.937C300.621 232.144 300.576 232.358 300.554 232.575L299.661 241.832L306.398 234.44L324.058 179.92C324.175 179.545 324.215 179.15 324.177 178.758C324.139 178.367 324.023 177.987 323.836 177.642C323.649 177.296 323.395 176.991 323.088 176.745C322.782 176.498 322.429 176.316 322.051 176.208C321.316 175.998 320.527 176.081 319.852 176.441C319.177 176.801 318.669 177.41 318.434 178.138Z" fill="white"/>
</mask>
<g mask="url(#mask15_201_43498)">
<path d="M323.135 172.848L299.658 241.838L300.852 246.72L313.634 241.838L330.028 174.85L323.135 172.848Z" fill="#C6E6F4"/>
<path d="M298.594 238.553C298.8 238.553 304.651 240.753 304.651 240.753L299.659 243.121L298.594 238.553Z" fill="#0D3F4C"/>
</g>
<path d="M318.64 210.999C318.64 210.999 312.865 213.078 307.668 212.847C302.472 212.616 303.626 218.847 310.787 222.434C317.948 226.021 324.993 229.595 328.804 228.323C332.616 227.052 327.071 213.424 318.64 210.999Z" fill="#F8BFAB"/>
<path d="M115.957 204.264H42.1968C37.6704 204.264 32.6232 200.69 30.928 196.285L5.55912 130.392C3.86267 125.985 6.15651 122.414 10.6829 122.414H84.4434C88.9698 122.414 94.017 125.988 95.7122 130.393L121.081 196.28C122.778 200.693 120.484 204.264 115.957 204.264Z" stroke="#5EB5BC" stroke-width="9" stroke-miterlimit="10"/>
<g opacity="0.76">
<path d="M118.876 201.097H45.1157C40.5893 201.097 35.5421 197.523 33.8482 193.118L8.47805 127.23C6.7816 122.823 9.07545 119.25 13.6019 119.25H87.3636C91.89 119.25 96.9373 122.825 98.6312 127.23L124 193.117C125.696 197.526 123.403 201.099 118.876 201.097Z" fill="#79C7D1"/>
</g>
<path d="M74.6744 154.741C77.9814 150.447 75.5791 143.051 69.3088 138.223C63.0385 133.394 55.2746 132.96 51.9677 137.255C48.6608 141.549 51.063 148.944 57.3333 153.773C63.6036 158.602 71.3675 159.035 74.6744 154.741Z" fill="#FDFFFE"/>
<path d="M66.6562 154.671C75.5074 154.607 86.9307 163.323 94.1684 175.35C96.7417 179.624 94.9623 183.647 90.4755 183.647H64.8909C60.45 183.647 55.5853 179.69 54.8258 175.455C53.2966 166.917 53.4446 154.772 66.6562 154.671Z" fill="#FDFFFE"/>
<path opacity="0.69" d="M470.761 134.085C464.293 139.631 450.126 137.772 455.362 124.225C458.808 115.303 477.229 128.542 470.761 134.085Z" fill="white"/>
<path opacity="0.69" d="M139.956 49.6498C155.234 38.8457 180.611 38.9363 173.974 51.5314C167.338 64.1265 153.168 66.7854 143.622 64.2235C134.076 61.6616 133.247 54.3945 139.956 49.6498Z" fill="white"/>
<path d="M112.25 239.632H65.1684V263.371H112.25V239.632Z" fill="#ED675B"/>
<mask id="mask16_201_43498" style="mask-type:luminance" maskUnits="userSpaceOnUse" x="65" y="239" width="48" height="25">
<path d="M112.25 239.632H65.1684V263.371H112.25V239.632Z" fill="white"/>
</mask>
<g mask="url(#mask16_201_43498)">
<path opacity="0.61" d="M74.143 257.39C76.4729 257.39 78.3618 254.588 78.3618 251.13C78.3618 247.673 76.4729 244.871 74.143 244.871C71.813 244.871 69.9242 247.673 69.9242 251.13C69.9242 254.588 71.813 257.39 74.143 257.39Z" fill="white"/>
</g>
<path d="M181.709 239.632H112.284V263.371H181.709V239.632Z" fill="#BC3A33"/>
<mask id="mask17_201_43498" style="mask-type:luminance" maskUnits="userSpaceOnUse" x="112" y="239" width="70" height="25">
<path d="M181.709 239.632H112.284V263.371H181.709V239.632Z" fill="white"/>
</mask>
<g mask="url(#mask17_201_43498)">
<path d="M183.07 242.897H115.577V259.77H183.07V242.897Z" fill="#C1D0DB"/>
<mask id="mask18_201_43498" style="mask-type:luminance" maskUnits="userSpaceOnUse" x="115" y="242" width="69" height="18">
<path d="M183.07 242.897H115.577V259.77H183.07V242.897Z" fill="white"/>
</mask>
<g mask="url(#mask18_201_43498)">
<path d="M183.069 242.286H116.853V258.717H183.069V242.286Z" fill="white"/>
</g>
<path opacity="0.5" d="M147.469 245.194H122.466C122.1 245.194 121.803 245.491 121.803 245.857C121.803 246.223 122.1 246.52 122.466 246.52H147.469C147.836 246.52 148.133 246.223 148.133 245.857C148.133 245.491 147.836 245.194 147.469 245.194Z" fill="#94D2DA"/>
<path opacity="0.5" d="M152.725 250.174H127.722C127.356 250.174 127.059 250.471 127.059 250.837C127.059 251.204 127.356 251.501 127.722 251.501H152.725C153.091 251.501 153.389 251.204 153.389 250.837C153.389 250.471 153.091 250.174 152.725 250.174Z" fill="#94D2DA"/>
<path opacity="0.5" d="M175.432 248.235H161.962C161.595 248.235 161.298 248.532 161.298 248.898C161.298 249.265 161.595 249.562 161.962 249.562H175.432C175.799 249.562 176.096 249.265 176.096 248.898C176.096 248.532 175.799 248.235 175.432 248.235Z" fill="#94D2DA"/>
<path opacity="0.5" d="M170.533 255.155H145.53C145.163 255.155 144.866 255.452 144.866 255.818C144.866 256.185 145.163 256.482 145.53 256.482H170.533C170.899 256.482 171.196 256.185 171.196 255.818C171.196 255.452 170.899 255.155 170.533 255.155Z" fill="#94D2DA"/>
</g>
<defs>
<linearGradient id="paint0_linear_201_43498" x1="59.659" y1="100.641" x2="213.267" y2="100.641" gradientUnits="userSpaceOnUse">
<stop stop-color="#3E4095"/>
<stop offset="1" stop-color="#A1A2E4"/>
</linearGradient>
<linearGradient id="paint1_linear_201_43498" x1="25.3646" y1="257.274" x2="74.5894" y2="257.274" gradientUnits="userSpaceOnUse">
<stop stop-color="#3E4095"/>
<stop offset="1" stop-color="#A1A2E4"/>
</linearGradient>
<linearGradient id="paint2_linear_201_43498" x1="329.067" y1="37.4598" x2="380.942" y2="37.4598" gradientUnits="userSpaceOnUse">
<stop stop-color="#3E4095"/>
<stop offset="1" stop-color="#A1A2E4"/>
</linearGradient>
<linearGradient id="paint3_linear_201_43498" x1="53.8894" y1="207.248" x2="583.849" y2="207.248" gradientUnits="userSpaceOnUse">
<stop stop-color="#3E4095"/>
<stop offset="1" stop-color="#A1A2E4"/>
</linearGradient>
<linearGradient id="paint4_linear_201_43498" x1="226.976" y1="79.5708" x2="256.168" y2="79.5708" gradientUnits="userSpaceOnUse">
<stop stop-color="#3E4095"/>
<stop offset="1" stop-color="#A1A2E4"/>
</linearGradient>
<linearGradient id="paint5_linear_201_43498" x1="238.393" y1="71.2192" x2="246.291" y2="71.2192" gradientUnits="userSpaceOnUse">
<stop stop-color="#3E4095"/>
<stop offset="1" stop-color="#A1A2E4"/>
</linearGradient>
<linearGradient id="paint6_linear_201_43498" x1="232.031" y1="71.2432" x2="241.733" y2="71.2432" gradientUnits="userSpaceOnUse">
<stop stop-color="#3E4095"/>
<stop offset="1" stop-color="#A1A2E4"/>
</linearGradient>
<linearGradient id="paint7_linear_201_43498" x1="228.879" y1="60.4086" x2="237.788" y2="60.4086" gradientUnits="userSpaceOnUse">
<stop stop-color="#3E4095"/>
<stop offset="1" stop-color="#A1A2E4"/>
</linearGradient>
<linearGradient id="paint8_linear_201_43498" x1="233.668" y1="60.4036" x2="244.367" y2="60.4036" gradientUnits="userSpaceOnUse">
<stop stop-color="#3E4095"/>
<stop offset="1" stop-color="#A1A2E4"/>
</linearGradient>
<linearGradient id="paint9_linear_201_43498" x1="447.274" y1="251.831" x2="536.626" y2="251.831" gradientUnits="userSpaceOnUse">
<stop stop-color="#3E4095"/>
<stop offset="1" stop-color="#A1A2E4"/>
</linearGradient>
<linearGradient id="paint10_linear_201_43498" x1="426.397" y1="265.674" x2="545.32" y2="265.674" gradientUnits="userSpaceOnUse">
<stop stop-color="#3E4095"/>
<stop offset="1" stop-color="#A1A2E4"/>
</linearGradient>
</defs>
</svg>
