<svg width="28" height="27" viewBox="0 0 28 27" fill="none" xmlns="http://www.w3.org/2000/svg">
<path d="M23 8.75C22.7862 5.7575 20.5 6.25 20.5 6.25C21 4 19 4 19 4C19 4 16.25 4 14.25 4C12.25 4 11.75 2.5 11.75 2.5C11.75 2.5 8.99999 6.25 13 9C14 9.5 16.2512 9.93575 18.5 7.5C16.587 8.97775 16.0702 11.104 17.75 14.25L21 14.5C21 14.5 23.25 12.25 23 8.75Z" fill="#464045"/>
<path d="M20.5 12.25V20.5L17 21.25V13L20.5 12.25Z" fill="#FCCAB1"/>
<g opacity="0.6">
<path d="M20.5 12.25V15.3175C20.2175 15.47 20 15.5 20 15.5L19.5 17.25C18.535 18.02 17.7025 18.5275 17 18.855V13L20.5 12.25Z" fill="#EA9E7D"/>
</g>
<g opacity="0.6">
<path d="M20.5 12.25V20.5L19.5 20.715V12.465L20.5 12.25Z" fill="#EA9E7D"/>
</g>
<g opacity="0.6">
<path d="M21 14.5L20.2725 14.445C21.78 11.0675 20.86 7.1025 17.97 4C18.59 4 19 4 19 4C19 4 21 4 20.5 6.25C20.5 6.25 22.7875 5.7575 23 8.75C23.25 12.25 21 14.5 21 14.5Z" fill="#282628"/>
</g>
<path d="M18.5 7.5C18.2325 7.79 17.9675 8.0375 17.7025 8.2475C17.9325 7.9825 18.2 7.7325 18.5 7.5Z" fill="#464045"/>
<path d="M25 26.75L20.1275 26.8725L19.625 26.885L15 27C14 22.75 16.5 20.5 16.5 20.5C18.1675 20.2725 19.64 19.6075 20.75 18.5C26 18.25 25 26.75 25 26.75Z" fill="#3E4095"/>
<path d="M25 26.75L20.1275 26.8725L19.625 26.885L15 27C14 22.75 16.5 20.5 16.5 20.5C18.1675 20.2725 19.64 19.6075 20.75 18.5C26 18.25 25 26.75 25 26.75Z" fill="white" fill-opacity="0.16"/>
<g opacity="0.6">
<path d="M24.9999 26.75L22.5174 26.8125C22.6124 25.7525 22.9199 20.4975 20.0674 19.0925C20.3074 18.9125 20.5349 18.715 20.7499 18.5C25.9999 18.25 24.9999 26.75 24.9999 26.75Z" fill="#3E4095"/>
</g>
<g opacity="0.6">
<path d="M20.2425 23.3075C19.965 24.5075 19.925 25.6625 20.125 26.835C20.1275 26.8475 20.1275 26.86 20.1275 26.8725L19.625 26.885C19.42 25.655 19.465 24.4475 19.7575 23.1925C19.7875 23.0575 19.9225 22.975 20.0575 23.0075C20.19 23.0375 20.275 23.1725 20.2425 23.3075Z" fill="#3E4095"/>
<path d="M20.2425 23.3075C19.965 24.5075 19.925 25.6625 20.125 26.835C20.1275 26.8475 20.1275 26.86 20.1275 26.8725L19.625 26.885C19.42 25.655 19.465 24.4475 19.7575 23.1925C19.7875 23.0575 19.9225 22.975 20.0575 23.0075C20.19 23.0375 20.275 23.1725 20.2425 23.3075Z" fill="black" fill-opacity="0.2"/>
</g>
<path d="M21.25 12.25C21.25 14.75 19.5 15 19.5 15L19 16.75C17.325 18.09 16.0475 18.6325 15.1475 18.8225C14.2975 19 13.5 18.34 13.5 17.47V14H12.5L13.25 12.5L13.5 9.25V6.5L14 5.75L16.5 5.5L17.75 7.75L17.9725 11.3175C17.9875 11.56 18.19 11.75 18.4325 11.75H19.25C19.25 11.75 21.25 9.75 21.25 12.25Z" fill="#FCCAB1"/>
<g opacity="0.6">
<path d="M21.25 12.25C21.25 14.75 19.5 15 19.5 15L19 16.75C18.035 17.52 17.2025 18.0275 16.5 18.355C16.5 17.6678 16.8393 17.029 17.4025 16.6353C17.6725 16.4465 17.955 16.2353 18.25 16L18.75 14.25C18.75 14.25 20.5 14 20.5 11.5C20.5 11.31 20.4875 11.145 20.465 11.0025C20.8825 10.935 21.25 11.18 21.25 12.25Z" fill="#EA9E7D"/>
</g>
<path d="M9.76473 21.8823C9.74373 21.8823 9.72273 21.8795 9.70148 21.874C9.56798 21.8393 9.48798 21.7028 9.52248 21.569L10.0262 19.6335C10.0612 19.4998 10.1975 19.4198 10.3312 19.4545C10.4647 19.4893 10.5447 19.6258 10.5102 19.7595L10.0065 21.695C9.97698 21.8075 9.87573 21.8823 9.76473 21.8823Z" fill="#EC3237"/>
<path d="M9.76473 21.8823C9.74373 21.8823 9.72273 21.8795 9.70148 21.874C9.56798 21.8393 9.48798 21.7028 9.52248 21.569L10.0262 19.6335C10.0612 19.4998 10.1975 19.4198 10.3312 19.4545C10.4647 19.4893 10.5447 19.6258 10.5102 19.7595L10.0065 21.695C9.97698 21.8075 9.87573 21.8823 9.76473 21.8823Z" fill="black" fill-opacity="0.1"/>
<path d="M10.9842 21.1665C10.9632 21.1665 10.9422 21.1638 10.921 21.1583L8.98548 20.6545C8.85198 20.6198 8.77198 20.4833 8.80648 20.3495C8.84148 20.2158 8.97748 20.1355 9.11148 20.1705L11.047 20.6743C11.1805 20.709 11.2607 20.8455 11.226 20.9793C11.1967 21.0918 11.0955 21.1665 10.9842 21.1665Z" fill="#3E4095"/>
<path d="M7.74449 1.72302C7.69049 2.20327 7.25724 2.54852 6.77699 2.49452C6.29674 2.44052 5.95124 2.00727 6.00549 1.52702C6.05974 1.04677 6.49274 0.701266 6.97299 0.755516C7.45324 0.809766 7.79874 1.24277 7.74449 1.72302Z" fill="#FEDF89"/>
<path d="M20.5 6.25L19.86 6.65L18.5 7.5C16.2525 9.935 14 9.5 13 9C8.99999 6.25 11.75 2.5 11.75 2.5C11.75 2.5 12.25 4 14.25 4H17.97C18.59 4 19 4 19 4C19 4 21 4 20.5 6.25Z" fill="#464045"/>
<path d="M6.87397 2.75001C6.83372 2.75001 6.79322 2.74801 6.75197 2.74376C6.13447 2.67301 5.68922 2.11526 5.75647 1.50026C5.82747 0.884765 6.38447 0.439015 6.99972 0.506515C7.58222 0.573265 8.01997 1.08202 7.99747 1.66452C7.99222 1.80277 7.86797 1.91026 7.73822 1.90476C7.60022 1.89951 7.49272 1.78326 7.49797 1.64526C7.51022 1.32226 7.26697 1.04026 6.94397 1.00326C6.60347 0.964015 6.29297 1.21376 6.25322 1.55576C6.21622 1.89676 6.46397 2.20701 6.80622 2.24626C6.87322 2.25326 6.94022 2.24976 7.00722 2.23526C7.14197 2.20726 7.27522 2.29176 7.30447 2.42676C7.33347 2.56151 7.24772 2.69476 7.11297 2.72401C7.03347 2.74151 6.95447 2.75001 6.87397 2.75001Z" fill="#3E4095"/>
<path d="M14.2497 11.5C14.1975 11.5 14.145 11.4838 14.1 11.45C13.9895 11.3673 13.967 11.2105 14.05 11.1C14.361 10.685 15.2007 10.0878 16.1497 10.8C16.2602 10.8828 16.2827 11.0395 16.1997 11.15C16.1172 11.2603 15.9605 11.2833 15.85 11.2C15.0577 10.6063 14.4745 11.3673 14.4497 11.4C14.4007 11.4655 14.326 11.5 14.2497 11.5Z" fill="#464045"/>
<path d="M15.125 13C15.3321 13 15.5 12.6642 15.5 12.25C15.5 11.8358 15.3321 11.5 15.125 11.5C14.9179 11.5 14.75 11.8358 14.75 12.25C14.75 12.6642 14.9179 13 15.125 13Z" fill="#464045"/>
<g opacity="0.6">
<path d="M20.5 6.25L19.86 6.65C19.3775 5.7225 18.745 4.83 17.97 4C18.59 4 19 4 19 4C19 4 21 4 20.5 6.25Z" fill="#282628"/>
</g>
<path d="M24.2467 4.25701C24.2087 4.12426 24.2857 3.98576 24.4185 3.94801C25.015 3.77751 25.3615 3.15351 25.191 2.55726C25.153 2.42451 25.23 2.28626 25.3627 2.24826C25.4955 2.21026 25.634 2.28726 25.6717 2.42001C25.8422 3.01651 26.4662 3.36301 27.0625 3.19251C27.1952 3.15451 27.3337 3.23151 27.3715 3.36426C27.4095 3.49701 27.3325 3.63551 27.1997 3.67326C26.6032 3.84376 26.2567 4.46776 26.4272 5.06426C26.4652 5.19701 26.3882 5.33526 26.2555 5.37326C26.1227 5.41126 25.9845 5.33426 25.9465 5.20151C25.776 4.60501 25.152 4.25851 24.5557 4.42901C24.423 4.46651 24.2845 4.38976 24.2467 4.25701Z" fill="#FEDF89"/>
<path d="M26.2512 4.45152C26.2179 4.45152 26.1842 4.44477 26.1522 4.43077C26.0255 4.37602 25.9672 4.22877 26.0219 4.10202C26.0912 3.94202 26.1847 3.79652 26.298 3.66952C26.0652 3.60127 25.85 3.48127 25.6687 3.31952C25.6285 3.45802 25.5695 3.59152 25.4922 3.71602C25.4192 3.83327 25.2657 3.86977 25.148 3.79702C25.0305 3.72427 24.9944 3.57027 25.0669 3.45277C25.2347 3.18177 25.279 2.86352 25.191 2.55652C25.1532 2.42377 25.23 2.28552 25.363 2.24752C25.4947 2.21027 25.634 2.28627 25.672 2.41927C25.8427 3.01577 26.467 3.36177 27.0624 3.19202H27.0629C27.1957 3.15377 27.3339 3.23102 27.3719 3.36352C27.4097 3.49627 27.333 3.63477 27.2 3.67252C26.8755 3.76527 26.6132 3.99427 26.481 4.30027C26.44 4.39502 26.3479 4.45152 26.2512 4.45152Z" fill="#EC3237"/>
<path d="M26.2512 4.45152C26.2179 4.45152 26.1842 4.44477 26.1522 4.43077C26.0255 4.37602 25.9672 4.22877 26.0219 4.10202C26.0912 3.94202 26.1847 3.79652 26.298 3.66952C26.0652 3.60127 25.85 3.48127 25.6687 3.31952C25.6285 3.45802 25.5695 3.59152 25.4922 3.71602C25.4192 3.83327 25.2657 3.86977 25.148 3.79702C25.0305 3.72427 24.9944 3.57027 25.0669 3.45277C25.2347 3.18177 25.279 2.86352 25.191 2.55652C25.1532 2.42377 25.23 2.28552 25.363 2.24752C25.4947 2.21027 25.634 2.28627 25.672 2.41927C25.8427 3.01577 26.467 3.36177 27.0624 3.19202H27.0629C27.1957 3.15377 27.3339 3.23102 27.3719 3.36352C27.4097 3.49627 27.333 3.63477 27.2 3.67252C26.8755 3.76527 26.6132 3.99427 26.481 4.30027C26.44 4.39502 26.3479 4.45152 26.2512 4.45152Z" fill="black" fill-opacity="0.1"/>
<path d="M4.25025 8.75002C4.156 8.75002 4.066 8.69677 4.0235 8.60577L3.531 7.55077C3.47275 7.42577 3.5265 7.27702 3.65175 7.21852C3.77675 7.15977 3.92575 7.21427 3.984 7.33927L4.4765 8.39427C4.53475 8.51927 4.48075 8.66802 4.35575 8.72652C4.3215 8.74252 4.28575 8.75002 4.25025 8.75002Z" fill="#3E4095"/>
<path d="M3.47774 7.09253C3.38349 7.09253 3.29349 7.03928 3.25099 6.94828L2.27349 4.85578C2.21524 4.73078 2.26899 4.58178 2.39424 4.52328C2.51949 4.46528 2.66799 4.51903 2.72649 4.64403L3.70399 6.73653C3.76224 6.86153 3.70849 7.01053 3.58324 7.06903C3.54899 7.08503 3.51324 7.09253 3.47774 7.09253Z" fill="#FEDF89"/>
<path d="M5.75023 8.25002C5.74198 8.25002 5.73373 8.24977 5.72498 8.24877C5.58748 8.23502 5.48748 8.11252 5.50098 7.97502L5.75098 5.47502C5.76498 5.33777 5.88598 5.23802 6.02473 5.25127C6.16223 5.26502 6.26223 5.38752 6.24873 5.52502L5.99873 8.02502C5.98573 8.15377 5.87723 8.25002 5.75023 8.25002Z" fill="#3E4095"/>
<path d="M2.74972 9C2.69747 9 2.64497 8.98375 2.59997 8.95L0.599973 7.45C0.489473 7.36725 0.466973 7.21051 0.549973 7.10001C0.632723 6.98976 0.789723 6.96726 0.899723 7.05001L2.89972 8.55001C3.01022 8.63276 3.03272 8.7895 2.94972 8.9C2.90072 8.9655 2.82597 9 2.74972 9Z" fill="#3E4095"/>
<path d="M24.4997 18.25C24.4485 18.25 24.3967 18.2343 24.3522 18.2018C24.241 18.1203 24.2167 17.9638 24.2982 17.8525L25.2082 16.61C25.2895 16.4985 25.4465 16.4745 25.5575 16.556C25.6687 16.6375 25.693 16.794 25.6115 16.9053L24.7015 18.1478C24.6527 18.2145 24.5767 18.25 24.4997 18.25Z" fill="#3E4095"/>
<path d="M25.8747 16.375C25.8235 16.375 25.7717 16.3593 25.727 16.3268C25.6157 16.245 25.5917 16.0885 25.6732 15.9773L27.0482 14.1023C27.13 13.991 27.2862 13.967 27.3977 14.0485C27.509 14.1303 27.533 14.2868 27.4515 14.398L26.0765 16.273C26.0275 16.3395 25.9517 16.375 25.8747 16.375Z" fill="#FEDF89"/>
<path d="M25.4997 18.75C25.3755 18.75 25.2677 18.6575 25.252 18.531C25.235 18.394 25.332 18.269 25.469 18.252L27.469 18.002C27.606 17.9848 27.7307 18.0823 27.748 18.219C27.765 18.356 27.668 18.481 27.531 18.498L25.531 18.748C25.5205 18.7495 25.51 18.75 25.4997 18.75Z" fill="#3E4095"/>
<path d="M23.5 17.5C23.3618 17.5 23.25 17.388 23.25 17.25V14.5C23.25 14.362 23.3618 14.25 23.5 14.25C23.6382 14.25 23.75 14.362 23.75 14.5V17.25C23.75 17.388 23.6382 17.5 23.5 17.5Z" fill="#3E4095"/>
<path d="M4.48673 21.8688C4.96923 21.8688 4.97023 21.1188 4.48673 21.1188C4.00423 21.1188 4.00348 21.8688 4.48673 21.8688Z" fill="#FEDF89"/>
</svg>
