<svg width="30" height="26" viewBox="0 0 30 26" fill="none" xmlns="http://www.w3.org/2000/svg">
<path d="M25.25 7.86V19.89C25.25 20.365 24.865 20.75 24.39 20.75H5.61C5.135 20.75 4.75 20.365 4.75 19.89V7.86C4.75 7.385 5.135 7 5.61 7H24.39C24.865 7 25.25 7.385 25.25 7.86Z" fill="#FEC84B"/>
<g opacity="0.6">
<path d="M25.25 7.86V19.89C25.25 20.365 24.865 20.75 24.39 20.75H12.5V17.75H22.5V7H24.39C24.865 7 25.25 7.385 25.25 7.86Z" fill="#FDB022"/>
</g>
<path d="M24 10.25V17.5225C23.91 17.5075 23.815 17.5 23.7175 17.5C22.755 17.5 21.975 18.2275 21.975 19.125C21.975 19.255 21.99 19.38 22.0225 19.5H7.71C7.74 19.38 7.7575 19.255 7.7575 19.125C7.7575 18.2275 6.9775 17.5 6.0125 17.5H6V10.2275C6.09 10.2425 6.185 10.25 6.2825 10.25C7.245 10.25 8.025 9.5225 8.025 8.625C8.025 8.495 8.01 8.37 7.9775 8.25H22.29C22.26 8.37 22.2425 8.495 22.2425 8.625C22.2425 8.9375 22.335 9.2275 22.5 9.4725C22.805 9.94 23.3575 10.25 23.9875 10.25H24Z" fill="white"/>
<g opacity="0.6">
<path d="M24 10.25V17.5225C23.91 17.5075 23.815 17.5 23.7175 17.5C22.755 17.5 21.975 18.2275 21.975 19.125C21.975 19.255 21.99 19.38 22.0225 19.5H12.5V17.75H20.598C21.6485 17.75 22.5 16.8985 22.5 15.848V9.4725C22.805 9.94 23.3575 10.25 23.9875 10.25H24Z" fill="#181818"/>
<path d="M24 10.25V17.5225C23.91 17.5075 23.815 17.5 23.7175 17.5C22.755 17.5 21.975 18.2275 21.975 19.125C21.975 19.255 21.99 19.38 22.0225 19.5H12.5V17.75H20.598C21.6485 17.75 22.5 16.8985 22.5 15.848V9.4725C22.805 9.94 23.3575 10.25 23.9875 10.25H24Z" fill="white" fill-opacity="0.8"/>
</g>
<path d="M3.841 4.39899C3.8265 4.39899 3.81175 4.39774 3.79675 4.39499C3.66075 4.37074 3.5705 4.24099 3.5945 4.10499L3.9455 2.13599C3.9695 2.00024 4.09725 1.90899 4.2355 1.93374C4.3715 1.95799 4.46175 2.08774 4.43775 2.22374L4.08675 4.19274C4.0655 4.31374 3.96 4.39899 3.841 4.39899Z" fill="#3E4095"/>
<path d="M5.00097 3.58998C4.98647 3.58998 4.97172 3.58873 4.95672 3.58598L2.98772 3.23498C2.85197 3.21073 2.76147 3.08098 2.78547 2.94498C2.80947 2.80923 2.93722 2.71773 3.07547 2.74273L5.04447 3.09373C5.18022 3.11798 5.27072 3.24773 5.24672 3.38373C5.22522 3.50498 5.11972 3.58998 5.00097 3.58998Z" fill="#EC3237"/>
<path d="M5.00097 3.58998C4.98647 3.58998 4.97172 3.58873 4.95672 3.58598L2.98772 3.23498C2.85197 3.21073 2.76147 3.08098 2.78547 2.94498C2.80947 2.80923 2.93722 2.71773 3.07547 2.74273L5.04447 3.09373C5.18022 3.11798 5.27072 3.24773 5.24672 3.38373C5.22522 3.50498 5.11972 3.58998 5.00097 3.58998Z" fill="black" fill-opacity="0.05"/>
<path d="M25.7445 23.723C25.6905 24.2032 25.2573 24.5487 24.777 24.4945C24.2968 24.4405 23.9515 24.0072 24.0055 23.527C24.0595 23.0467 24.4928 22.7012 24.973 22.7555C25.4533 22.8097 25.7988 23.2427 25.7445 23.723Z" fill="#FEDF89"/>
<path d="M24.8732 24.7502C24.8325 24.7502 24.7917 24.748 24.7505 24.7435C24.1345 24.6727 23.6892 24.1152 23.7562 23.5002L23.7627 23.4515C23.7777 23.3145 23.9 23.2045 24.0397 23.218C24.1772 23.233 24.278 23.3445 24.2632 23.4817L24.2532 23.5542C24.216 23.897 24.4637 24.2075 24.806 24.2467C25.1445 24.284 25.457 24.0362 25.4967 23.6942C25.5337 23.3532 25.286 23.043 24.9437 23.0037C24.9267 23.0025 24.9007 23.0002 24.875 23.0002C24.7367 23.0002 24.625 22.8882 24.625 22.7502C24.625 22.6122 24.7367 22.5002 24.875 22.5002C24.914 22.5002 24.953 22.503 24.9922 22.506C25.6155 22.5775 26.0607 23.135 25.9937 23.75C25.9275 24.3242 25.4377 24.7502 24.8732 24.7502Z" fill="#3E4095"/>
<path d="M12 20.5V22.605C11.5775 23.005 11.005 23.25 10.375 23.25C10.065 23.25 9.77 23.1925 9.5 23.0825V20.5H12Z" fill="#1364D8"/>
<path d="M9.5 20.5V25.5L10.125 24.8055L10.75 24.111L11.375 24.8055L12 25.5V20.5H9.5Z" fill="#4A66F4"/>
<path d="M12 20.5V22.49C11.7125 22.9475 11.205 23.25 10.625 23.25C10.1875 23.25 9.7925 23.0775 9.5 22.7975V20.5H12Z" fill="#0189EF"/>
<g opacity="0.6">
<path d="M12 20.5V22.605C11.5775 23.005 11.005 23.25 10.375 23.25C10.065 23.25 9.77 23.1925 9.5 23.0825V20.5H12Z" fill="#9EACF2"/>
</g>
<path d="M14.25 19.125C14.25 18.62 13.915 18.1978 13.457 18.0555C13.6802 17.631 13.6185 17.0955 13.2615 16.7385C12.9045 16.3815 12.369 16.3197 11.9445 16.543C11.8022 16.085 11.38 15.75 10.875 15.75C10.37 15.75 9.94775 16.085 9.8055 16.543C9.381 16.3197 8.8455 16.3815 8.4885 16.7385C8.1315 17.0955 8.06975 17.631 8.293 18.0555C7.835 18.1978 7.5 18.62 7.5 19.125C7.5 19.63 7.835 20.0522 8.293 20.1945C8.06975 20.619 8.1315 21.1545 8.4885 21.5115C8.8455 21.8685 9.381 21.9303 9.8055 21.707C9.94775 22.165 10.37 22.5 10.875 22.5C11.38 22.5 11.8022 22.165 11.9445 21.707C12.369 21.9303 12.9045 21.8685 13.2615 21.5115C13.6185 21.1545 13.6802 20.619 13.457 20.1945C13.915 20.0522 14.25 19.63 14.25 19.125Z" fill="#EC3237"/>
<path d="M14.25 19.125C14.25 18.62 13.915 18.1978 13.457 18.0555C13.6802 17.631 13.6185 17.0955 13.2615 16.7385C12.9045 16.3815 12.369 16.3197 11.9445 16.543C11.8022 16.085 11.38 15.75 10.875 15.75C10.37 15.75 9.94775 16.085 9.8055 16.543C9.381 16.3197 8.8455 16.3815 8.4885 16.7385C8.1315 17.0955 8.06975 17.631 8.293 18.0555C7.835 18.1978 7.5 18.62 7.5 19.125C7.5 19.63 7.835 20.0522 8.293 20.1945C8.06975 20.619 8.1315 21.1545 8.4885 21.5115C8.8455 21.8685 9.381 21.9303 9.8055 21.707C9.94775 22.165 10.37 22.5 10.875 22.5C11.38 22.5 11.8022 22.165 11.9445 21.707C12.369 21.9303 12.9045 21.8685 13.2615 21.5115C13.6185 21.1545 13.6802 20.619 13.457 20.1945C13.915 20.0522 14.25 19.63 14.25 19.125Z" fill="black" fill-opacity="0.1"/>
<g opacity="0.6">
<path d="M14.25 19.125C14.25 18.7725 14.0875 18.46 13.8325 18.255C13.35 19.845 11.8725 21 10.125 21C9.42001 21 8.76001 20.8125 8.19001 20.48C8.11001 20.84 8.20751 21.2325 8.48751 21.5125C8.84501 21.8675 9.38001 21.93 9.80501 21.7075C9.94751 22.165 10.37 22.5 10.875 22.5C11.38 22.5 11.8025 22.165 11.945 21.7075C12.37 21.93 12.905 21.8675 13.2625 21.5125C13.6175 21.155 13.68 20.62 13.4575 20.195C13.915 20.0525 14.25 19.63 14.25 19.125Z" fill="#EC3237"/>
<path d="M14.25 19.125C14.25 18.7725 14.0875 18.46 13.8325 18.255C13.35 19.845 11.8725 21 10.125 21C9.42001 21 8.76001 20.8125 8.19001 20.48C8.11001 20.84 8.20751 21.2325 8.48751 21.5125C8.84501 21.8675 9.38001 21.93 9.80501 21.7075C9.94751 22.165 10.37 22.5 10.875 22.5C11.38 22.5 11.8025 22.165 11.945 21.7075C12.37 21.93 12.905 21.8675 13.2625 21.5125C13.6175 21.155 13.68 20.62 13.4575 20.195C13.915 20.0525 14.25 19.63 14.25 19.125Z" fill="white" fill-opacity="0.2"/>
</g>
<path d="M10.875 20.75C11.7725 20.75 12.5 20.0225 12.5 19.125C12.5 18.2275 11.7725 17.5 10.875 17.5C9.97754 17.5 9.25 18.2275 9.25 19.125C9.25 20.0225 9.97754 20.75 10.875 20.75Z" fill="white"/>
<path d="M16.75 10.5H13.25C13.1118 10.5 13 10.388 13 10.25C13 10.112 13.1118 10 13.25 10H16.75C16.8882 10 17 10.112 17 10.25C17 10.388 16.8882 10.5 16.75 10.5Z" fill="#3E4095"/>
<path d="M16.75 10.5H13.25C13.1118 10.5 13 10.388 13 10.25C13 10.112 13.1118 10 13.25 10H16.75C16.8882 10 17 10.112 17 10.25C17 10.388 16.8882 10.5 16.75 10.5Z" fill="white" fill-opacity="0.1"/>
<path d="M18.75 12H11.25C11.1118 12 11 11.888 11 11.75C11 11.612 11.1118 11.5 11.25 11.5H18.75C18.8882 11.5 19 11.612 19 11.75C19 11.888 18.8882 12 18.75 12Z" fill="#3E4095"/>
<path d="M18.75 12H11.25C11.1118 12 11 11.888 11 11.75C11 11.612 11.1118 11.5 11.25 11.5H18.75C18.8882 11.5 19 11.612 19 11.75C19 11.888 18.8882 12 18.75 12Z" fill="white" fill-opacity="0.1"/>
<path d="M20.25 13.25H9.75V14.5H20.25V13.25Z" fill="#3E4095"/>
<path d="M15.5 17.5C15.3618 17.5 15.25 17.388 15.25 17.25C15.25 17.1387 15.25 16.9865 16.2045 16.3815C16.7698 16.0232 17.3195 15.743 17.6755 15.6317C17.8035 15.5915 18.1932 15.4697 18.3762 15.733C18.4157 15.79 18.4388 15.8522 18.444 15.9225C18.81 15.714 19.081 15.672 19.2535 15.7972C19.4018 15.905 19.4365 16.0747 19.4115 16.2692C19.9013 16.064 20.6452 15.8415 21.3105 16.0077C21.4445 16.0412 21.526 16.177 21.4925 16.311C21.459 16.4447 21.3225 16.5265 21.1895 16.493C20.302 16.2715 19.1402 16.958 19.1285 16.965C19.035 17.021 18.917 17.0097 18.8355 16.9387C18.754 16.8675 18.7275 16.7517 18.7703 16.6522C18.8563 16.452 18.8928 16.325 18.9083 16.2485C18.6963 16.3335 18.2807 16.6187 17.9145 16.939C17.8175 17.0237 17.672 17.021 17.5783 16.9325C17.4845 16.844 17.4735 16.699 17.5525 16.5972C17.7505 16.3425 17.8482 16.181 17.8962 16.0837C17.3757 16.213 15.9593 17.078 15.7323 17.343C15.6958 17.4345 15.6055 17.5 15.5 17.5Z" fill="#3E4095"/>
<path d="M15.5 17.5C15.3618 17.5 15.25 17.388 15.25 17.25C15.25 17.1387 15.25 16.9865 16.2045 16.3815C16.7698 16.0232 17.3195 15.743 17.6755 15.6317C17.8035 15.5915 18.1932 15.4697 18.3762 15.733C18.4157 15.79 18.4388 15.8522 18.444 15.9225C18.81 15.714 19.081 15.672 19.2535 15.7972C19.4018 15.905 19.4365 16.0747 19.4115 16.2692C19.9013 16.064 20.6452 15.8415 21.3105 16.0077C21.4445 16.0412 21.526 16.177 21.4925 16.311C21.459 16.4447 21.3225 16.5265 21.1895 16.493C20.302 16.2715 19.1402 16.958 19.1285 16.965C19.035 17.021 18.917 17.0097 18.8355 16.9387C18.754 16.8675 18.7275 16.7517 18.7703 16.6522C18.8563 16.452 18.8928 16.325 18.9083 16.2485C18.6963 16.3335 18.2807 16.6187 17.9145 16.939C17.8175 17.0237 17.672 17.021 17.5783 16.9325C17.4845 16.844 17.4735 16.699 17.5525 16.5972C17.7505 16.3425 17.8482 16.181 17.8962 16.0837C17.3757 16.213 15.9593 17.078 15.7323 17.343C15.6958 17.4345 15.6055 17.5 15.5 17.5Z" fill="white" fill-opacity="0.1"/>
<path d="M27.8777 11.145C27.806 11.145 27.735 11.1145 27.6855 11.0552C27.597 10.9492 27.6112 10.7915 27.7172 10.703L29.0897 9.55798C29.1965 9.46948 29.354 9.48398 29.4417 9.58998C29.5302 9.69598 29.516 9.85373 29.41 9.94223L28.0375 11.0872C27.9907 11.126 27.934 11.145 27.8777 11.145Z" fill="#FEDF89"/>
<path d="M26.2502 12.5C26.1785 12.5 26.1075 12.4692 26.0577 12.41C25.9692 12.304 25.9837 12.1462 26.09 12.0577L27.1225 11.1977C27.2287 11.1092 27.386 11.124 27.4745 11.2297C27.563 11.3357 27.5485 11.4935 27.4422 11.582L26.4097 12.442C26.3632 12.481 26.3067 12.5 26.2502 12.5Z" fill="#3E4095"/>
<path d="M26.2497 11.25C26.2122 11.25 26.174 11.2415 26.1382 11.2238C26.0147 11.162 25.9647 11.0118 26.0265 10.8883L27.0265 8.88825C27.0885 8.76475 27.2385 8.715 27.362 8.7765C27.4855 8.83825 27.5355 8.9885 27.4737 9.112L26.4737 11.112C26.4297 11.1995 26.3415 11.25 26.2497 11.25Z" fill="#3E4095"/>
<path d="M0.750226 21.5C0.672726 21.5 0.596726 21.4642 0.547726 21.397C0.466476 21.2852 0.490976 21.129 0.602976 21.0477L1.76798 20.2002C1.87898 20.119 2.03598 20.1435 2.11698 20.2552C2.19823 20.367 2.17373 20.5232 2.06173 20.6045L0.896726 21.452C0.852726 21.4845 0.801226 21.5 0.750226 21.5Z" fill="#FEDF89"/>
<path d="M2.61271 20.145C2.53521 20.145 2.45921 20.1092 2.41021 20.042C2.32896 19.9302 2.35346 19.774 2.46546 19.6928L3.35296 19.0477C3.46471 18.9667 3.62121 18.9915 3.70221 19.103C3.78346 19.2148 3.75896 19.371 3.64696 19.4522L2.75946 20.0972C2.71496 20.1295 2.66371 20.145 2.61271 20.145Z" fill="#3E4095"/>
<path d="M3.49998 18.5C3.23048 18.5 2.03173 18.1075 1.67098 17.9872C1.54023 17.9435 1.46923 17.802 1.51298 17.671C1.55673 17.5402 1.69698 17.4687 1.82923 17.513C2.52073 17.7435 3.35648 17.9952 3.50123 18.0002C3.63748 18.005 3.74848 18.118 3.74648 18.2545C3.74398 18.3905 3.63648 18.5 3.49998 18.5Z" fill="#3E4095"/>
<path d="M2.74971 22.25C2.71221 22.25 2.67396 22.2415 2.63821 22.2237C2.51471 22.162 2.46471 22.0117 2.52646 21.8882L3.27646 20.3882C3.33846 20.2645 3.48846 20.2145 3.61196 20.2765C3.73546 20.3382 3.78546 20.4885 3.72371 20.612L2.97371 22.112C2.92971 22.1995 2.84146 22.25 2.74971 22.25Z" fill="#3E4095"/>
<path d="M26.2497 13.5C26.1329 13.5 26.0284 13.4178 26.0047 13.299C25.9777 13.1635 26.0654 13.032 26.2007 13.0048L28.7007 12.5048C28.8379 12.4775 28.9679 12.5658 28.9949 12.7008C29.0219 12.8363 28.9342 12.9678 28.7989 12.995L26.2989 13.495C26.2824 13.4985 26.2657 13.5 26.2497 13.5Z" fill="#3E4095"/>
<path d="M14.6637 3.397C15.1462 3.397 15.1472 2.647 14.6637 2.647C14.1812 2.647 14.1802 3.397 14.6637 3.397Z" fill="#FEDF89"/>
<path d="M21.0542 2.66733C21.0432 2.52958 21.146 2.40933 21.2837 2.39833C21.9022 2.34933 22.3652 1.80658 22.3165 1.18808C22.3055 1.05033 22.4082 0.930081 22.546 0.919081C22.6837 0.908081 22.804 1.01083 22.815 1.14858C22.864 1.76708 23.4067 2.23008 24.0252 2.18133C24.163 2.17033 24.2832 2.27308 24.2942 2.41083C24.3052 2.54858 24.2025 2.66883 24.0647 2.67983C23.4462 2.72883 22.983 3.27158 23.032 3.89008C23.043 4.02783 22.9402 4.14808 22.8025 4.15908C22.6647 4.17008 22.5445 4.06733 22.5335 3.92958C22.4845 3.31108 21.9415 2.84808 21.3232 2.89683C21.1855 2.90758 21.065 2.80483 21.0542 2.66733Z" fill="#FEDF89"/>
<path d="M23.0295 3.25974C22.9802 3.25974 22.9305 3.24524 22.887 3.21499C22.7737 3.13599 22.7455 2.98024 22.8247 2.86699C22.9237 2.72424 23.044 2.60049 23.1797 2.49874C23.0742 2.44299 22.9742 2.37524 22.8812 2.29599C22.788 2.21624 22.7047 2.12749 22.633 2.03149C22.566 2.15849 22.482 2.27724 22.382 2.38399C22.2872 2.48424 22.129 2.48949 22.0285 2.39524C21.928 2.30074 21.9227 2.14249 22.0172 2.04174C22.2355 1.80924 22.3417 1.50624 22.3162 1.18799C22.3055 1.05024 22.408 0.929992 22.5457 0.918992C22.6807 0.907742 22.8037 1.01074 22.8147 1.14824C22.8147 1.14874 22.8147 1.14924 22.8147 1.14974C22.839 1.44899 22.9775 1.72099 23.2057 1.91549C23.434 2.11049 23.7232 2.20524 24.0247 2.18099C24.166 2.17224 24.2827 2.27299 24.2937 2.41049C24.3047 2.54824 24.202 2.66849 24.0642 2.67949H24.0635C23.7272 2.70649 23.4252 2.87874 23.2347 3.15249C23.1862 3.22249 23.1087 3.25974 23.0295 3.25974Z" fill="#EC3237"/>
<path d="M23.0295 3.25974C22.9802 3.25974 22.9305 3.24524 22.887 3.21499C22.7737 3.13599 22.7455 2.98024 22.8247 2.86699C22.9237 2.72424 23.044 2.60049 23.1797 2.49874C23.0742 2.44299 22.9742 2.37524 22.8812 2.29599C22.788 2.21624 22.7047 2.12749 22.633 2.03149C22.566 2.15849 22.482 2.27724 22.382 2.38399C22.2872 2.48424 22.129 2.48949 22.0285 2.39524C21.928 2.30074 21.9227 2.14249 22.0172 2.04174C22.2355 1.80924 22.3417 1.50624 22.3162 1.18799C22.3055 1.05024 22.408 0.929992 22.5457 0.918992C22.6807 0.907742 22.8037 1.01074 22.8147 1.14824C22.8147 1.14874 22.8147 1.14924 22.8147 1.14974C22.839 1.44899 22.9775 1.72099 23.2057 1.91549C23.434 2.11049 23.7232 2.20524 24.0247 2.18099C24.166 2.17224 24.2827 2.27299 24.2937 2.41049C24.3047 2.54824 24.202 2.66849 24.0642 2.67949H24.0635C23.7272 2.70649 23.4252 2.87874 23.2347 3.15249C23.1862 3.22249 23.1087 3.25974 23.0295 3.25974Z" fill="black" fill-opacity="0.05"/>
</svg>
