<svg width="20" height="21" viewBox="0 0 20 21" fill="none" xmlns="http://www.w3.org/2000/svg">
<g clip-path="url(#clip0_465_7565)">
<path d="M8.25 3.56267C8.82361 3.4284 9.41089 3.36129 10 3.36267C15.8333 3.36267 19.1667 10.0293 19.1667 10.0293C18.6608 10.9757 18.0575 11.8666 17.3667 12.6877M11.7667 11.796C11.5378 12.0416 11.2618 12.2386 10.9551 12.3753C10.6485 12.5119 10.3174 12.5854 9.98174 12.5913C9.64607 12.5972 9.31264 12.5355 9.00134 12.4097C8.69005 12.284 8.40727 12.0969 8.16987 11.8595C7.93248 11.6221 7.74533 11.3393 7.61959 11.028C7.49386 10.7167 7.43211 10.3833 7.43803 10.0476C7.44395 9.71192 7.51743 9.38087 7.65407 9.07421C7.79071 8.76755 7.98771 8.49154 8.23334 8.26267M0.833336 0.862671L19.1667 19.196M14.95 14.9793C13.5255 16.0652 11.7909 16.6667 10 16.696C4.16667 16.696 0.833336 10.0293 0.833336 10.0293C1.86991 8.09758 3.30762 6.40984 5.05 5.07934L14.95 14.9793Z" stroke="#181818" stroke-width="1.66667" stroke-linecap="round" stroke-linejoin="round"/>
<path d="M8.25 3.56267C8.82361 3.4284 9.41089 3.36129 10 3.36267C15.8333 3.36267 19.1667 10.0293 19.1667 10.0293C18.6608 10.9757 18.0575 11.8666 17.3667 12.6877M11.7667 11.796C11.5378 12.0416 11.2618 12.2386 10.9551 12.3753C10.6485 12.5119 10.3174 12.5854 9.98174 12.5913C9.64607 12.5972 9.31264 12.5355 9.00134 12.4097C8.69005 12.284 8.40727 12.0969 8.16987 11.8595C7.93248 11.6221 7.74533 11.3393 7.61959 11.028C7.49386 10.7167 7.43211 10.3833 7.43803 10.0476C7.44395 9.71192 7.51743 9.38087 7.65407 9.07421C7.79071 8.76755 7.98771 8.49154 8.23334 8.26267M0.833336 0.862671L19.1667 19.196M14.95 14.9793C13.5255 16.0652 11.7909 16.6667 10 16.696C4.16667 16.696 0.833336 10.0293 0.833336 10.0293C1.86991 8.09758 3.30762 6.40984 5.05 5.07934L14.95 14.9793Z" stroke="white" stroke-opacity="0.6" stroke-width="1.66667" stroke-linecap="round" stroke-linejoin="round"/>
</g>
<defs>
<clipPath id="clip0_465_7565">
<rect width="20" height="20" fill="white" transform="translate(0 0.0292969)"/>
</clipPath>
</defs>
</svg>
