<svg width="24" height="25" viewBox="0 0 24 25" fill="none" xmlns="http://www.w3.org/2000/svg">
<g clip-path="url(#clip0_189_36198)">
<path d="M24.0001 12.5C24.0001 5.87258 18.6275 0.5 12.0001 0.5C5.37264 0.5 6.10352e-05 5.87258 6.10352e-05 12.5C6.10352e-05 18.4895 4.38826 23.454 10.1251 24.3542V15.9688H7.07819V12.5H10.1251V9.85625C10.1251 6.84875 11.9166 5.1875 14.6576 5.1875C15.9701 5.1875 17.3438 5.42188 17.3438 5.42188V8.375H15.8307C14.3401 8.375 13.8751 9.30008 13.8751 10.25V12.5H17.2032L16.6712 15.9688H13.8751V24.3542C19.6119 23.454 24.0001 18.4895 24.0001 12.5Z" fill="#1877F2"/>
<path d="M16.6712 15.9688L17.2032 12.5H13.8751V10.25C13.8751 9.30102 14.3401 8.375 15.8307 8.375H17.3438V5.42188C17.3438 5.42188 15.9706 5.1875 14.6576 5.1875C11.9166 5.1875 10.1251 6.84875 10.1251 9.85625V12.5H7.07819V15.9688H10.1251V24.3542C11.3675 24.5486 12.6326 24.5486 13.8751 24.3542V15.9688H16.6712Z" fill="white"/>
</g>
<defs>
<clipPath id="clip0_189_36198">
<rect width="24" height="24" fill="white" transform="translate(6.10352e-05 0.5)"/>
</clipPath>
</defs>
</svg>
