<svg width="26" height="24" viewBox="0 0 26 24" fill="none" xmlns="http://www.w3.org/2000/svg">
<path d="M1.75 9L13 3L24.25 9L13 15L1.75 9Z" stroke="#3E4095" stroke-width="2" stroke-linecap="round" stroke-linejoin="round"/>
<path d="M1.75 9L13 3L24.25 9L13 15L1.75 9Z" stroke="white" stroke-opacity="0.1" stroke-width="2" stroke-linecap="round" stroke-linejoin="round"/>
<path d="M18.625 22.5V12L13 9" stroke="#3E4095" stroke-width="2" stroke-linecap="round" stroke-linejoin="round"/>
<path d="M18.625 22.5V12L13 9" stroke="white" stroke-opacity="0.1" stroke-width="2" stroke-linecap="round" stroke-linejoin="round"/>
<path d="M21.625 10.397V15.5157C21.6243 15.675 21.5717 15.8297 21.475 15.9563C20.8469 16.8001 18.1844 19.8751 13 19.8751C7.81563 19.8751 5.15312 16.8001 4.525 15.9563C4.42834 15.8297 4.37567 15.675 4.375 15.5157V10.397" stroke="#3E4095" stroke-width="2" stroke-linecap="round" stroke-linejoin="round"/>
<path d="M21.625 10.397V15.5157C21.6243 15.675 21.5717 15.8297 21.475 15.9563C20.8469 16.8001 18.1844 19.8751 13 19.8751C7.81563 19.8751 5.15312 16.8001 4.525 15.9563C4.42834 15.8297 4.37567 15.675 4.375 15.5157V10.397" stroke="white" stroke-opacity="0.1" stroke-width="2" stroke-linecap="round" stroke-linejoin="round"/>
</svg>
