<svg width="50" height="49" viewBox="0 0 50 49" fill="none" xmlns="http://www.w3.org/2000/svg">
<path d="M26.8125 9.9375H9.975C9.43594 9.9375 9 10.3734 9 10.9125V41.775C9 42.3141 9.43594 42.75 9.975 42.75H32.4C32.9391 42.75 33.375 42.3141 33.375 41.775V16.5L26.8125 9.9375Z" fill="#3E4095"/>
<path d="M26.8125 9.9375H9.975C9.43594 9.9375 9 10.3734 9 10.9125V41.775C9 42.3141 9.43594 42.75 9.975 42.75H32.4C32.9391 42.75 33.375 42.3141 33.375 41.775V16.5L26.8125 9.9375Z" fill="white" fill-opacity="0.7"/>
<g opacity="0.6">
<path d="M33.3749 16.5V41.775C33.3749 42.3141 32.939 42.75 32.3999 42.75H28.9546C29.0812 42.5438 29.1562 42.2813 29.1562 42.0047V12.2812L33.3749 16.5Z" fill="#3E4095"/>
<path d="M33.3749 16.5V41.775C33.3749 42.3141 32.939 42.75 32.3999 42.75H28.9546C29.0812 42.5438 29.1562 42.2813 29.1562 42.0047V12.2812L33.3749 16.5Z" fill="white" fill-opacity="0.16"/>
</g>
<path d="M14.1562 21.1875C14.0001 21.1875 13.8534 21.1097 13.7662 20.9789L12.8287 19.5727C12.6853 19.3575 12.7434 19.0659 12.9585 18.9225C13.1737 18.7781 13.4648 18.8372 13.6087 19.0523L14.0981 19.7864L15.6117 16.7587C15.7274 16.5272 16.0087 16.4334 16.2407 16.5492C16.4723 16.665 16.566 16.9467 16.4503 17.1783L14.5753 20.9283C14.5003 21.0778 14.3521 21.1762 14.1853 21.1866C14.1754 21.1875 14.1656 21.1875 14.1562 21.1875Z" fill="white"/>
<path d="M29.1562 19.7812H17.9062C17.6475 19.7812 17.4375 19.5712 17.4375 19.3125C17.4375 19.0538 17.6475 18.8438 17.9062 18.8438H29.1562C29.4155 18.8438 29.625 19.0538 29.625 19.3125C29.625 19.5712 29.4155 19.7812 29.1562 19.7812Z" fill="white"/>
<path d="M14.5716 25.875H13.7409C13.1944 25.875 12.75 25.4306 12.75 24.8841V24.0534C12.75 23.5069 13.1944 23.0625 13.7409 23.0625H14.5716C15.1181 23.0625 15.5625 23.5069 15.5625 24.0534V24.8841C15.5625 25.4306 15.1181 25.875 14.5716 25.875ZM13.7409 24C13.7114 24 13.6875 24.0239 13.6875 24.0534V24.8841C13.6875 24.9136 13.7114 24.9375 13.7409 24.9375H14.5716C14.6011 24.9375 14.625 24.9136 14.625 24.8841V24.0534C14.625 24.0239 14.6011 24 14.5716 24H13.7409Z" fill="white"/>
<path d="M29.1562 24.9375H17.9062C17.6475 24.9375 17.4375 24.7275 17.4375 24.4688C17.4375 24.21 17.6475 24 17.9062 24H29.1562C29.4155 24 29.625 24.21 29.625 24.4688C29.625 24.7275 29.4155 24.9375 29.1562 24.9375Z" fill="white"/>
<path d="M14.5716 31.0312H13.7409C13.1944 31.0312 12.75 30.5869 12.75 30.0403V29.2097C12.75 28.6631 13.1944 28.2188 13.7409 28.2188H14.5716C15.1181 28.2188 15.5625 28.6631 15.5625 29.2097V30.0403C15.5625 30.5869 15.1181 31.0312 14.5716 31.0312ZM13.7409 29.1562C13.7114 29.1562 13.6875 29.1802 13.6875 29.2097V30.0403C13.6875 30.0698 13.7114 30.0938 13.7409 30.0938H14.5716C14.6011 30.0938 14.625 30.0698 14.625 30.0403V29.2097C14.625 29.1802 14.6011 29.1562 14.5716 29.1562H13.7409Z" fill="white"/>
<path d="M29.1562 30.0938H17.9062C17.6475 30.0938 17.4375 29.8837 17.4375 29.625C17.4375 29.3663 17.6475 29.1562 17.9062 29.1562H29.1562C29.4155 29.1562 29.625 29.3663 29.625 29.625C29.625 29.8837 29.4155 30.0938 29.1562 30.0938Z" fill="white"/>
<path d="M29.1562 33.8438H20.7188C20.46 33.8438 20.25 33.6337 20.25 33.375C20.25 33.1163 20.46 32.9062 20.7188 32.9062H29.1562C29.4155 32.9062 29.625 33.1163 29.625 33.375C29.625 33.6337 29.4155 33.8438 29.1562 33.8438Z" fill="white"/>
<path d="M29.1562 37.125H20.7188C20.46 37.125 20.25 36.915 20.25 36.6562C20.25 36.3975 20.46 36.1875 20.7188 36.1875H29.1562C29.4155 36.1875 29.625 36.3975 29.625 36.6562C29.625 36.915 29.4155 37.125 29.1562 37.125Z" fill="white"/>
<path d="M27.8672 48.1425L26.6667 47.7839L27.8016 42.8929L29.6021 43.4311L27.8672 48.1425Z" fill="#3E4095"/>
<path d="M27.8672 48.1425L26.6667 47.7839L27.8016 42.8929L29.6021 43.4311L27.8672 48.1425Z" fill="white" fill-opacity="0.35"/>
<path d="M34.1809 48.1425L35.3814 47.7839L34.2465 42.8929L32.446 43.4311L34.1809 48.1425Z" fill="#3E4095"/>
<path d="M34.1809 48.1425L35.3814 47.7839L34.2465 42.8929L32.446 43.4311L34.1809 48.1425Z" fill="black" fill-opacity="0.2"/>
<path d="M31.0312 44.625C34.7851 44.625 37.8281 41.5819 37.8281 37.8281C37.8281 34.0743 34.7851 31.0312 31.0312 31.0312C27.2774 31.0312 24.2344 34.0743 24.2344 37.8281C24.2344 41.5819 27.2774 44.625 31.0312 44.625Z" fill="#FF4200"/>
<path d="M37.8282 37.8281C37.8282 41.5828 34.786 44.625 31.0313 44.625C28.786 44.625 26.7985 43.5375 25.561 41.8594C26.5501 42.4266 27.6985 42.75 28.922 42.75C32.6767 42.75 35.7188 39.7078 35.7188 35.9531C35.7188 34.4437 35.2267 33.0469 34.3923 31.9219C36.4454 33.0891 37.8282 35.2969 37.8282 37.8281Z" fill="#C62F00"/>
<path d="M31.0312 41.8125C33.2318 41.8125 35.0156 40.0286 35.0156 37.8281C35.0156 35.6276 33.2318 33.8438 31.0312 33.8438C28.8307 33.8438 27.0469 35.6276 27.0469 37.8281C27.0469 40.0286 28.8307 41.8125 31.0312 41.8125Z" fill="white"/>
<path d="M31.0312 39.4688C31.9373 39.4688 32.6719 38.7342 32.6719 37.8281C32.6719 36.922 31.9373 36.1875 31.0312 36.1875C30.1252 36.1875 29.3906 36.922 29.3906 37.8281C29.3906 38.7342 30.1252 39.4688 31.0312 39.4688Z" fill="#FF4200"/>
<path d="M39.7417 31.9458L41.8792 32.5851L44.3908 30.728L42.2533 30.0891L39.7417 31.9458Z" fill="#3E4095"/>
<path d="M39.7417 31.9458L41.8792 32.5851L44.3908 30.728L42.2533 30.0891L39.7417 31.9458Z" fill="black" fill-opacity="0.2"/>
<path d="M33.7111 36.4908L32.895 35.3869L40.8985 29.4684C41.2031 29.243 41.633 29.3072 41.8585 29.6123C42.0839 29.917 42.0197 30.3469 41.7146 30.5723L33.7111 36.4908Z" fill="#FFB90B"/>
<path d="M38.9663 30.8972L38.9813 28.6664L41.4929 26.8092L41.4779 29.04L38.9663 30.8972Z" fill="#3E4095"/>
<path d="M38.9663 30.8972L38.9813 28.6664L41.4929 26.8092L41.4779 29.04L38.9663 30.8972Z" fill="black" fill-opacity="0.2"/>
<path d="M31.3037 37.417L32.0345 35.7375L32.7657 34.0575L33.8551 35.5308L34.944 37.0036L33.1239 37.2103L31.3037 37.417Z" fill="#3E4095"/>
<path d="M31.3037 37.417L32.0345 35.7375L32.7657 34.0575L33.8551 35.5308L34.944 37.0036L33.1239 37.2103L31.3037 37.417Z" fill="white" fill-opacity="0.25"/>
<path d="M26.8125 9.9375V16.5H33.375L26.8125 9.9375Z" fill="#3E4095"/>
<path d="M2.13925 37.4044C2.11207 37.4044 2.08441 37.402 2.05675 37.3969C1.80175 37.3514 1.63206 37.1081 1.67753 36.8531L2.33566 33.1613C2.38113 32.9063 2.623 32.7342 2.87941 32.782C3.13441 32.8275 3.3041 33.0708 3.25863 33.3258L2.6005 37.0177C2.55972 37.2445 2.36238 37.4044 2.13925 37.4044Z" fill="#0C4E92"/>
<path d="M4.31428 35.8875C4.28709 35.8875 4.25944 35.8852 4.23178 35.88L0.539907 35.2219C0.284907 35.1764 0.115219 34.9331 0.160688 34.6781C0.206157 34.4231 0.449438 34.252 0.704438 34.2989L4.39631 34.957C4.65131 35.0025 4.821 35.2458 4.77553 35.5008C4.73475 35.7281 4.53741 35.8875 4.31428 35.8875Z" fill="#EC3237"/>
<path d="M4.31428 35.8875C4.28709 35.8875 4.25944 35.8852 4.23178 35.88L0.539907 35.2219C0.284907 35.1764 0.115219 34.9331 0.160688 34.6781C0.206157 34.4231 0.449438 34.252 0.704438 34.2989L4.39631 34.957C4.65131 35.0025 4.821 35.2458 4.77553 35.5008C4.73475 35.7281 4.53741 35.8875 4.31428 35.8875Z" fill="black" fill-opacity="0.1"/>
<path d="M45.5521 20.6681C45.4508 21.5686 44.6385 22.216 43.738 22.1147C42.8375 22.0135 42.1902 21.2011 42.2914 20.3006C42.3927 19.4002 43.205 18.7524 44.1055 18.8541C45.006 18.9558 45.6538 19.7677 45.5521 20.6681Z" fill="#FEDF89"/>
<path d="M43.9185 22.5942C43.8425 22.5942 43.7657 22.59 43.6883 22.5816C42.9027 22.4878 42.2399 21.9764 41.953 21.2461C41.9314 21.1912 41.9207 21.1331 41.9207 21.0745C41.9207 20.8158 42.1302 20.6034 42.3894 20.6034C42.5999 20.6034 42.7785 20.7408 42.8375 20.932C43.0039 21.3248 43.3682 21.5991 43.7947 21.6497C44.4308 21.72 45.0139 21.255 45.088 20.6133C45.1574 19.9739 44.6928 19.3917 44.0511 19.3186C43.8547 19.297 43.6564 19.3256 43.468 19.4058C43.2299 19.5075 42.9547 19.3964 42.853 19.1583C42.7513 18.9202 42.8624 18.645 43.1005 18.5437C43.4403 18.3994 43.7961 18.3469 44.1571 18.3877C45.3102 18.5198 46.145 19.5656 46.0194 20.7187C45.8952 21.7955 44.9769 22.5942 43.9185 22.5942Z" fill="#3E4095"/>
<path d="M7.59401 8.53127C7.44261 8.53127 7.29401 8.45814 7.20354 8.32267L5.55354 5.84767C5.41011 5.63205 5.46823 5.34096 5.68339 5.19752C5.89854 5.05361 6.18964 5.11174 6.33354 5.32736L7.98354 7.80236C8.12698 8.01799 8.06886 8.30908 7.8537 8.45252C7.77354 8.50596 7.68307 8.53127 7.59401 8.53127Z" fill="#3E4095"/>
<path d="M7.59401 8.53127C7.44261 8.53127 7.29401 8.45814 7.20354 8.32267L5.55354 5.84767C5.41011 5.63205 5.46823 5.34096 5.68339 5.19752C5.89854 5.05361 6.18964 5.11174 6.33354 5.32736L7.98354 7.80236C8.12698 8.01799 8.06886 8.30908 7.8537 8.45252C7.77354 8.50596 7.68307 8.53127 7.59401 8.53127Z" fill="white" fill-opacity="0.1"/>
<path d="M4.91747 4.51407C4.76607 4.51407 4.61747 4.44095 4.52701 4.30548L2.51607 1.29142C2.37263 1.07626 2.43029 0.784697 2.64591 0.641259C2.86154 0.497353 3.15263 0.555478 3.29607 0.771103L5.30701 3.78517C5.45044 4.00032 5.39279 4.29188 5.17716 4.43532C5.09701 4.48876 5.00654 4.51407 4.91747 4.51407Z" fill="#FEDF89"/>
<path d="M9.93687 7.59376C9.69687 7.59376 9.49249 7.41095 9.47046 7.1672L9.00171 2.01095C8.97827 1.75313 9.16812 1.52532 9.4264 1.50188C9.68515 1.48173 9.91249 1.66876 9.93546 1.92657L10.4042 7.08282C10.4276 7.34063 10.2378 7.56845 9.97952 7.59188C9.96546 7.59329 9.95093 7.59376 9.93687 7.59376Z" fill="#3E4095"/>
<path d="M9.93687 7.59376C9.69687 7.59376 9.49249 7.41095 9.47046 7.1672L9.00171 2.01095C8.97827 1.75313 9.16812 1.52532 9.4264 1.50188C9.68515 1.48173 9.91249 1.66876 9.93546 1.92657L10.4042 7.08282C10.4276 7.34063 10.2378 7.56845 9.97952 7.59188C9.96546 7.59329 9.95093 7.59376 9.93687 7.59376Z" fill="white" fill-opacity="0.1"/>
<path d="M5.7181 10.4063C5.62904 10.4063 5.53857 10.381 5.45841 10.3275L1.23966 7.51502C1.02404 7.37158 0.96638 7.08049 1.10982 6.86486C1.25326 6.64924 1.54388 6.59064 1.75997 6.73502L5.97872 9.54752C6.19435 9.69095 6.25201 9.98205 6.10857 10.1977C6.0181 10.3331 5.86951 10.4063 5.7181 10.4063Z" fill="#3E4095"/>
<path d="M5.7181 10.4063C5.62904 10.4063 5.53857 10.381 5.45841 10.3275L1.23966 7.51502C1.02404 7.37158 0.96638 7.08049 1.10982 6.86486C1.25326 6.64924 1.54388 6.59064 1.75997 6.73502L5.97872 9.54752C6.19435 9.69095 6.25201 9.98205 6.10857 10.1977C6.0181 10.3331 5.86951 10.4063 5.7181 10.4063Z" fill="white" fill-opacity="0.1"/>
<path d="M33.4766 3.6886C33.456 3.43032 33.6486 3.20485 33.9069 3.18423C35.0666 3.09235 35.9347 2.07469 35.8433 0.915007C35.8227 0.656726 36.0154 0.431257 36.2736 0.410632C36.5319 0.390007 36.7574 0.582663 36.778 0.840944C36.8699 2.00063 37.8875 2.86876 39.0472 2.77735C39.3055 2.75673 39.531 2.94938 39.5516 3.20766C39.5722 3.46594 39.3796 3.69141 39.1213 3.71204C37.9616 3.80391 37.093 4.82157 37.1849 5.98126C37.2055 6.23954 37.0129 6.46501 36.7546 6.48563C36.4963 6.50626 36.2708 6.3136 36.2502 6.05532C36.1583 4.89563 35.1402 4.02751 33.981 4.11891C33.7227 4.13907 33.4968 3.94641 33.4766 3.6886Z" fill="#FEDF89"/>
<path d="M37.1803 4.79954C37.0879 4.79954 36.9947 4.77235 36.9131 4.71563C36.7008 4.56751 36.6478 4.27547 36.7964 4.06313C36.982 3.79547 37.2075 3.56344 37.462 3.37266C37.2642 3.26813 37.0767 3.1411 36.9023 2.99251C36.7275 2.84297 36.5714 2.67657 36.4369 2.49657C36.3112 2.73469 36.1537 2.95735 35.9662 3.15751C35.7886 3.34547 35.4923 3.35532 35.3034 3.1786C35.115 3.00141 35.1051 2.70469 35.2823 2.51579C35.6915 2.07985 35.8908 1.51172 35.843 0.915006C35.8228 0.656725 36.015 0.431256 36.2733 0.410631C36.5259 0.390474 36.757 0.582662 36.7776 0.840475C36.7776 0.841412 36.7776 0.84235 36.7776 0.843287C36.8231 1.40438 37.0828 1.91438 37.5108 2.27907C37.9387 2.64469 38.4806 2.82329 39.0464 2.77688C39.3108 2.75626 39.5301 2.94938 39.5508 3.20719C39.5714 3.46547 39.3787 3.69094 39.1205 3.71157H39.119C38.4886 3.76219 37.9223 4.08516 37.5651 4.59844C37.4742 4.72969 37.3289 4.79954 37.1803 4.79954Z" fill="#EC3237"/>
<path d="M37.1803 4.79954C37.0879 4.79954 36.9947 4.77235 36.9131 4.71563C36.7008 4.56751 36.6478 4.27547 36.7964 4.06313C36.982 3.79547 37.2075 3.56344 37.462 3.37266C37.2642 3.26813 37.0767 3.1411 36.9023 2.99251C36.7275 2.84297 36.5714 2.67657 36.4369 2.49657C36.3112 2.73469 36.1537 2.95735 35.9662 3.15751C35.7886 3.34547 35.4923 3.35532 35.3034 3.1786C35.115 3.00141 35.1051 2.70469 35.2823 2.51579C35.6915 2.07985 35.8908 1.51172 35.843 0.915006C35.8228 0.656725 36.015 0.431256 36.2733 0.410631C36.5259 0.390474 36.757 0.582662 36.7776 0.840475C36.7776 0.841412 36.7776 0.84235 36.7776 0.843287C36.8231 1.40438 37.0828 1.91438 37.5108 2.27907C37.9387 2.64469 38.4806 2.82329 39.0464 2.77688C39.3108 2.75626 39.5301 2.94938 39.5508 3.20719C39.5714 3.46547 39.3787 3.69094 39.1205 3.71157H39.119C38.4886 3.76219 37.9223 4.08516 37.5651 4.59844C37.4742 4.72969 37.3289 4.79954 37.1803 4.79954Z" fill="black" fill-opacity="0.1"/>
<path d="M43.6868 41.5875C43.6169 41.5875 43.5452 41.5715 43.4787 41.5383L41.463 40.5351C41.231 40.4198 41.1368 40.1386 41.2521 39.9065C41.3674 39.6755 41.6505 39.5808 41.8807 39.6961L43.8963 40.6992C44.1283 40.8145 44.2226 41.0958 44.1072 41.3278C44.0252 41.4923 43.8588 41.5875 43.6868 41.5875Z" fill="#3E4095"/>
<path d="M43.6868 41.5875C43.6169 41.5875 43.5452 41.5715 43.4787 41.5383L41.463 40.5351C41.231 40.4198 41.1368 40.1386 41.2521 39.9065C41.3674 39.6755 41.6505 39.5808 41.8807 39.6961L43.8963 40.6992C44.1283 40.8145 44.2226 41.0958 44.1072 41.3278C44.0252 41.4923 43.8588 41.5875 43.6868 41.5875Z" fill="white" fill-opacity="0.1"/>
<path d="M49.2415 44.3437C49.1717 44.3437 49.1004 44.3283 49.0339 44.295L44.7078 42.1481C44.4758 42.0328 44.3811 41.7516 44.4964 41.52C44.6112 41.288 44.8934 41.1933 45.1245 41.3081L49.4506 43.455C49.6826 43.5703 49.7773 43.8516 49.662 44.0831C49.5795 44.2481 49.414 44.3437 49.2415 44.3437Z" fill="#FEDF89"/>
<path d="M43.0854 46.8023C42.9298 46.8023 42.7775 46.725 42.6884 46.5834L39.5623 41.6222C39.424 41.4033 39.4901 41.1136 39.7086 40.9758C39.9279 40.8389 40.2176 40.9036 40.355 41.1225L43.4811 46.0842C43.6194 46.3031 43.5533 46.5928 43.3348 46.7306C43.257 46.7789 43.1708 46.8023 43.0854 46.8023Z" fill="#3E4095"/>
<path d="M43.0854 46.8023C42.9298 46.8023 42.7775 46.725 42.6884 46.5834L39.5623 41.6222C39.424 41.4033 39.4901 41.1136 39.7086 40.9758C39.9279 40.8389 40.2176 40.9036 40.355 41.1225L43.4811 46.0842C43.6194 46.3031 43.5533 46.5928 43.3348 46.7306C43.257 46.7789 43.1708 46.8023 43.0854 46.8023Z" fill="white" fill-opacity="0.1"/>
<path d="M41.8681 38.5795C41.6178 38.5795 41.4101 38.3817 41.4003 38.1295C41.39 37.8708 41.5911 37.6528 41.8503 37.6425L47.4036 37.4227C47.6478 37.4166 47.8803 37.6134 47.8901 37.8722C47.9009 38.1309 47.6993 38.3489 47.4401 38.3592L41.8868 38.5791C41.8807 38.5795 41.8747 38.5795 41.8681 38.5795Z" fill="#3E4095"/>
<path d="M41.8681 38.5795C41.6178 38.5795 41.4101 38.3817 41.4003 38.1295C41.39 37.8708 41.5911 37.6528 41.8503 37.6425L47.4036 37.4227C47.6478 37.4166 47.8803 37.6134 47.8901 37.8722C47.9009 38.1309 47.6993 38.3489 47.4401 38.3592L41.8868 38.5791C41.8807 38.5795 41.8747 38.5795 41.8681 38.5795Z" fill="white" fill-opacity="0.1"/>
</svg>
