<svg width="33" height="31" viewBox="0 0 33 31" fill="none" xmlns="http://www.w3.org/2000/svg">
<path d="M28.5625 24.8125H26.0625V25.75H28.5625V24.8125Z" fill="#0189EF"/>
<path d="M32.9375 28.35V30.75H22V28.35C22 26.5687 23.4438 25.125 25.225 25.125H29.7125C31.4938 25.125 32.9375 26.5687 32.9375 28.35Z" fill="#7CE0F7"/>
<g opacity="0.6">
<path d="M32.9374 28.35V30.75H31.0624V28.35C31.0624 26.5687 29.6187 25.125 27.8374 25.125H29.7124C31.4937 25.125 32.9374 26.5687 32.9374 28.35Z" fill="#49BBCE"/>
</g>
<path d="M28.25 23.25H26.375V26.6875H28.25V23.25Z" fill="#FCCAB1"/>
<path d="M30.1251 15.4375C30.1251 15.4375 32.9376 17.625 30.7501 20.4375L29.1876 21.375L24.1876 22.3125C24.1876 22.3125 22.3126 19.5 22.9376 16.6875C23.5626 13.875 25.7501 15.4375 25.7501 15.4375C26.3751 14.1875 28.2501 13.875 30.1251 15.4375Z" fill="#464045"/>
<g opacity="0.6">
<path d="M30.7499 20.4375L29.1874 21.375L28.5468 21.4937C29.1468 20.7281 29.4999 19.7625 29.4999 18.7187C29.4999 16.8406 28.3562 15.2281 26.728 14.5437C27.6093 14.1843 28.8655 14.3875 30.1249 15.4375C30.1249 15.4375 32.9374 17.625 30.7499 20.4375Z" fill="#282628"/>
</g>
<path d="M28.2078 23.875H26.4172C25.0131 23.875 23.875 22.7369 23.875 21.3328V17H30.75V21.3328C30.75 22.7369 29.6119 23.875 28.2078 23.875Z" fill="#FCCAB1"/>
<g opacity="0.6">
<path d="M30.7499 17V21.3344C30.7499 22.7375 29.6124 23.875 28.2092 23.875H26.9592C28.3624 23.875 29.4999 22.7375 29.4999 21.3344V17H30.7499Z" fill="#EA9E7D"/>
</g>
<path d="M6.0625 16.0625C6.0625 16.0625 3.5625 16.0625 3.5625 18.5625C4.5 23.875 2.3125 26.375 2.3125 26.375C4.61406 29.876 9.8125 29.5 13.25 26.0625C11.5809 24.1013 11.1381 21.8744 11.375 19.5C12 17.3125 11.7916 16.1666 10.125 15.4375C8.875 14.8125 7.48219 14.6888 6.0625 16.0625Z" fill="#464045"/>
<g opacity="0.6">
<path d="M13.25 26.0625C10.1594 29.1531 5.64375 29.7688 3.09375 27.3125H4.875C7.775 27.3125 10.125 24.9625 10.125 22.0625V15.4375C11.7906 16.1656 12 17.3125 11.375 19.5C11.1375 21.875 11.5812 24.1 13.25 26.0625Z" fill="#282628"/>
</g>
<path d="M20.4293 4.8125H9.50801C9.00582 4.8125 8.59863 5.21969 8.59863 5.72187V10.455C8.59863 10.9572 9.00582 11.3644 9.50801 11.3644H10.8736L11.0177 13.0941C11.0633 13.6409 11.758 13.8456 12.0927 13.4106L13.6668 11.3644H20.4296C20.9318 11.3644 21.3389 10.9572 21.3389 10.455V5.72187C21.3386 5.21969 20.9314 4.8125 20.4293 4.8125Z" fill="#D5FBFF"/>
<g opacity="0.6">
<path d="M21.3375 5.72187V10.4563C21.3375 10.9563 20.9313 11.3656 20.4281 11.3656H19.1875V4.8125H20.4281C20.9313 4.8125 21.3375 5.21875 21.3375 5.72187Z" fill="#64D7DD"/>
</g>
<path d="M16.6875 6.84003H11.6875C11.5147 6.84003 11.375 6.70034 11.375 6.52753C11.375 6.35471 11.5147 6.21503 11.6875 6.21503H16.6875C16.8603 6.21503 17 6.35471 17 6.52753C17 6.70034 16.8603 6.84003 16.6875 6.84003Z" fill="#2E84AF"/>
<path d="M18.25 8.71503H11.6875C11.5147 8.71503 11.375 8.57534 11.375 8.40253C11.375 8.22971 11.5147 8.09003 11.6875 8.09003H18.25C18.4228 8.09003 18.5625 8.22971 18.5625 8.40253C18.5625 8.57534 18.4228 8.71503 18.25 8.71503Z" fill="#2E84AF"/>
<path d="M23.5906 7.9375H13.8469C13.3447 7.9375 12.9375 8.34469 12.9375 8.84687V12.6531C12.9375 13.1553 13.3447 13.5625 13.8469 13.5625H20.4616L21.8128 15.3191C22.1 15.6925 22.6966 15.5169 22.7356 15.0475L22.8594 13.5625H23.5906C24.0928 13.5625 24.5 13.1553 24.5 12.6531V8.84687C24.5 8.34469 24.0928 7.9375 23.5906 7.9375Z" fill="#EC3237"/>
<path d="M23.5906 7.9375H13.8469C13.3447 7.9375 12.9375 8.34469 12.9375 8.84687V12.6531C12.9375 13.1553 13.3447 13.5625 13.8469 13.5625H20.4616L21.8128 15.3191C22.1 15.6925 22.6966 15.5169 22.7356 15.0475L22.8594 13.5625H23.5906C24.0928 13.5625 24.5 13.1553 24.5 12.6531V8.84687C24.5 8.34469 24.0928 7.9375 23.5906 7.9375Z" fill="white" fill-opacity="0.2"/>
<g opacity="0.6">
<path d="M23.5906 7.9375H22.0281C22.5312 7.9375 22.9375 8.34375 22.9375 8.84687V12.6531V13.25V13.5625H23.5906C24.0937 13.5625 24.5 13.1563 24.5 12.6531V8.84687C24.5 8.34375 24.0937 7.9375 23.5906 7.9375Z" fill="#EC3237"/>
<path d="M23.5906 7.9375H22.0281C22.5312 7.9375 22.9375 8.34375 22.9375 8.84687V12.6531V13.25V13.5625H23.5906C24.0937 13.5625 24.5 13.1563 24.5 12.6531V8.84687C24.5 8.34375 24.0937 7.9375 23.5906 7.9375Z" fill="black" fill-opacity="0.05"/>
</g>
<path d="M20.4374 10.111H15.4374C15.2727 10.111 15.1389 9.97722 15.1389 9.81254C15.1389 9.64785 15.2727 9.5141 15.4374 9.5141H20.4374C20.602 9.5141 20.7358 9.64785 20.7358 9.81254C20.7358 9.97722 20.602 10.111 20.4374 10.111Z" fill="white"/>
<path d="M21.9999 11.986H19.1874C19.0227 11.986 18.8889 11.8522 18.8889 11.6875C18.8889 11.5228 19.0227 11.3891 19.1874 11.3891H21.9999C22.1645 11.3891 22.2983 11.5228 22.2983 11.6875C22.2983 11.8522 22.1645 11.986 21.9999 11.986Z" fill="white"/>
<path d="M17.9374 11.986H15.4374C15.2727 11.986 15.1389 11.8522 15.1389 11.6875C15.1389 11.5228 15.2727 11.3891 15.4374 11.3891H17.9374C18.102 11.3891 18.2358 11.5228 18.2358 11.6875C18.2358 11.8522 18.102 11.986 17.9374 11.986Z" fill="white"/>
<path d="M27.3123 22.9366C27.0236 22.9366 26.7351 22.8022 26.4664 22.5335C26.3442 22.4113 26.3442 22.2138 26.4664 22.0916C26.5886 21.9694 26.7861 21.9694 26.9083 22.0916C27.203 22.3856 27.4217 22.3856 27.7164 22.0916C27.8386 21.9694 28.0361 21.9694 28.1583 22.0916C28.2805 22.2138 28.2805 22.4113 28.1583 22.5335C27.8895 22.8022 27.6011 22.9366 27.3123 22.9366Z" fill="#464045"/>
<path d="M25.75 20.75C25.5772 20.75 25.4375 20.6103 25.4375 20.4375V19.8125C25.4375 19.6397 25.5772 19.5 25.75 19.5C25.9228 19.5 26.0625 19.6397 26.0625 19.8125V20.4375C26.0625 20.6103 25.9228 20.75 25.75 20.75Z" fill="#464045"/>
<path d="M25.1246 19.5C24.9846 19.5 24.8574 19.4053 24.8218 19.2631C24.7796 19.0959 24.8815 18.9262 25.0493 18.8843C25.1149 18.8678 25.1805 18.8487 25.2462 18.8293C25.6227 18.7193 26.0905 18.5834 26.5624 18.9375C26.7005 19.0409 26.7287 19.2368 26.6249 19.3747C26.5215 19.5131 26.3255 19.5406 26.1877 19.4372C25.9755 19.2784 25.7687 19.3278 25.4212 19.4293C25.3477 19.4509 25.2743 19.4722 25.2008 19.4903C25.1752 19.4968 25.1496 19.5 25.1246 19.5Z" fill="#464045"/>
<path d="M28.875 20.75C28.7022 20.75 28.5625 20.6103 28.5625 20.4375V19.8125C28.5625 19.6397 28.7022 19.5 28.875 19.5C29.0478 19.5 29.1875 19.6397 29.1875 19.8125V20.4375C29.1875 20.6103 29.0478 20.75 28.875 20.75Z" fill="#464045"/>
<path d="M29.5004 19.5C29.4754 19.5 29.4497 19.4969 29.4244 19.4906C29.351 19.4722 29.2776 19.4512 29.2041 19.4297C28.8563 19.3284 28.6497 19.279 28.4376 19.4375C28.2994 19.5409 28.1035 19.5131 28.0004 19.375C27.8966 19.2372 27.9247 19.0412 28.0629 18.9378C28.5338 18.5834 29.0029 18.7203 29.3791 18.8297C29.4447 18.849 29.5104 18.8681 29.576 18.8847C29.7435 18.9265 29.8454 19.0962 29.8035 19.2634C29.7676 19.4053 29.6404 19.5 29.5004 19.5Z" fill="#464045"/>
<path d="M27.3125 27L28.5625 24.8125L29.1875 27C28.7269 26.4878 28.0413 26.6769 27.3125 27Z" fill="#0189EF"/>
<path d="M27.3125 27L26.0625 24.8125L25.4375 27C25.8981 26.4878 26.5837 26.6769 27.3125 27Z" fill="#0189EF"/>
<path d="M30.75 29.1428V30.75H30.125V29.1428C30.125 28.9956 30.2656 28.875 30.4375 28.875C30.6094 28.875 30.75 28.9956 30.75 29.1428Z" fill="#208489"/>
<path d="M25.125 29.1428V30.75H24.5V29.1428C24.5 28.9956 24.6406 28.875 24.8125 28.875C24.9844 28.875 25.125 28.9956 25.125 29.1428Z" fill="#208489"/>
<path d="M13.5625 29.45V30.75H2.3125V29.45C2.3125 27.425 3.81562 25.7469 5.76875 25.4781C5.95 25.45 6.1375 25.4375 6.325 25.4375H9.55C9.84375 25.4375 10.1312 25.4688 10.4094 25.5313C12.2125 25.9219 13.5625 27.5281 13.5625 29.45Z" fill="#EC3237"/>
<path d="M13.5625 29.45V30.75H2.3125V29.45C2.3125 27.425 3.81562 25.7469 5.76875 25.4781C5.95 25.45 6.1375 25.4375 6.325 25.4375H9.55C9.84375 25.4375 10.1312 25.4688 10.4094 25.5313C12.2125 25.9219 13.5625 27.5281 13.5625 29.45Z" fill="white" fill-opacity="0.2"/>
<g opacity="0.6">
<path d="M13.5625 29.45V30.75H12V29.45C12 27.2344 10.2032 25.4375 7.98755 25.4375H9.55005C11.7657 25.4375 13.5625 27.2344 13.5625 29.45Z" fill="#EC3237"/>
<path d="M13.5625 29.45V30.75H12V29.45C12 27.2344 10.2032 25.4375 7.98755 25.4375H9.55005C11.7657 25.4375 13.5625 27.2344 13.5625 29.45Z" fill="black" fill-opacity="0.05"/>
</g>
<path d="M17.6859 23.9494C17.6596 23.9494 17.6334 23.9463 17.6068 23.9394C17.4399 23.896 17.3399 23.725 17.3831 23.5581L18.0128 21.1388C18.0565 20.9716 18.2268 20.871 18.394 20.915C18.5609 20.9585 18.6609 21.1294 18.6178 21.2963L17.9881 23.7156C17.9515 23.8563 17.8249 23.9494 17.6859 23.9494Z" fill="#0C4E92"/>
<path d="M19.2105 23.0544C19.1842 23.0544 19.158 23.0513 19.1314 23.0444L16.712 22.4147C16.5452 22.3713 16.4452 22.2004 16.4883 22.0335C16.532 21.8663 16.7024 21.7657 16.8695 21.8097L19.2889 22.4394C19.4558 22.4829 19.5558 22.6535 19.5127 22.8207C19.4761 22.9613 19.3495 23.0544 19.2105 23.0544Z" fill="#0C4E92"/>
<path d="M6.83742 1.96627C6.7746 2.56658 6.27179 2.99814 5.7146 2.93064C5.1571 2.86314 4.75617 2.32158 4.81898 1.72127C4.88179 1.12095 5.3846 0.689392 5.9421 0.756892C6.49929 0.824704 6.90023 1.36595 6.83742 1.96627Z" fill="#EFC206"/>
<path d="M5.9016 3.2503C5.85066 3.2503 5.80035 3.24748 5.75066 3.24217C4.98066 3.15373 4.4241 2.45655 4.50785 1.68811C4.5966 0.917796 5.29598 0.364358 6.06191 0.445296C6.48285 0.496233 6.85254 0.724671 7.08035 1.07248C7.17504 1.21686 7.13441 1.41061 6.99004 1.5053C6.84566 1.59998 6.65191 1.55936 6.55723 1.41498C6.43098 1.22186 6.22441 1.09467 5.99035 1.06655C5.56254 1.01592 5.17816 1.3303 5.12879 1.7578C5.08254 2.18373 5.39223 2.57186 5.82004 2.62123C5.89473 2.62873 5.97348 2.62623 6.05848 2.61123C6.23129 2.58155 6.39035 2.69561 6.42035 2.86498C6.45004 3.03498 6.3366 3.19686 6.1666 3.22686C6.07754 3.24248 5.98879 3.2503 5.9016 3.2503Z" fill="#BA4B1A"/>
<path d="M10.4094 25.5313C10.2407 26.3625 9.26567 27 8.0938 27C6.89692 27 5.9063 26.3344 5.7688 25.4781C5.95005 25.45 6.13755 25.4375 6.32505 25.4375H9.55005C9.8438 25.4375 10.1313 25.4688 10.4094 25.5313Z" fill="#FCCAB1"/>
<path d="M30.2091 8.3719C30.1666 8.3719 30.1235 8.36346 30.0826 8.34502C29.9247 8.27471 29.8541 8.09033 29.9238 7.93252L31.0894 5.31065C31.1601 5.15283 31.3444 5.08221 31.5019 5.1519C31.6597 5.22221 31.7304 5.4069 31.6607 5.5644L30.4951 8.18627C30.4432 8.30283 30.3288 8.3719 30.2091 8.3719Z" fill="#0C4E92"/>
<path d="M28.8746 11.375C28.8324 11.375 28.7896 11.3666 28.7483 11.3481C28.5905 11.2781 28.5196 11.0937 28.5893 10.9359L29.3643 9.18906C29.4343 9.03156 29.618 8.95968 29.7765 9.02999C29.9343 9.09999 30.0052 9.28437 29.9355 9.44218L29.1605 11.1891C29.109 11.3056 28.9946 11.375 28.8746 11.375Z" fill="#0C4E92"/>
<path d="M30.125 12C30.0381 12 29.9515 11.9641 29.8897 11.8931C29.7762 11.7634 29.7893 11.5659 29.9193 11.4522L32.4193 9.26468C32.5487 9.15093 32.7462 9.16375 32.8603 9.29437C32.9737 9.42406 32.9606 9.62156 32.8306 9.73531L30.3306 11.9228C30.2715 11.9747 30.1981 12 30.125 12Z" fill="#0C4E92"/>
<path d="M27 11.0625C26.8272 11.0625 26.6875 10.9228 26.6875 10.75V7C26.6875 6.82719 26.8272 6.6875 27 6.6875C27.1728 6.6875 27.3125 6.82719 27.3125 7V10.75C27.3125 10.9228 27.1728 11.0625 27 11.0625Z" fill="#0C4E92"/>
<path d="M2.83454 8.33126C2.71454 8.33126 2.60047 8.2622 2.5486 8.14563L1.40172 5.56438C1.33172 5.40657 1.40266 5.22188 1.56047 5.15188C1.71891 5.08126 1.90297 5.15313 1.97297 5.31063L3.11985 7.89188C3.18985 8.0497 3.11891 8.23438 2.9611 8.30438C2.91985 8.32251 2.87672 8.33126 2.83454 8.33126Z" fill="#0C4E92"/>
<path d="M4.18781 11.375C4.06781 11.375 3.95375 11.306 3.90187 11.1894L3.0675 9.31441C2.9975 9.15691 3.06843 8.97191 3.22625 8.90191C3.38406 8.83191 3.56875 8.90285 3.63875 9.06066L4.47312 10.9357C4.54312 11.0932 4.47218 11.2782 4.31437 11.3482C4.27312 11.3666 4.23031 11.375 4.18781 11.375Z" fill="#0C4E92"/>
<path d="M2.93746 12C2.86434 12 2.7909 11.9747 2.73184 11.9228L0.231838 9.73531C0.101838 9.62156 0.0887128 9.42406 0.20215 9.29437C0.3159 9.16375 0.5134 9.15093 0.643088 9.26468L3.14309 11.4522C3.27309 11.5659 3.28621 11.7634 3.17278 11.8931C3.1109 11.9641 3.02434 12 2.93746 12Z" fill="#0C4E92"/>
<path d="M6.0625 11.0625C5.88969 11.0625 5.75 10.9228 5.75 10.75V7C5.75 6.82719 5.88969 6.6875 6.0625 6.6875C6.23531 6.6875 6.375 6.82719 6.375 7V10.75C6.375 10.9228 6.23531 11.0625 6.0625 11.0625Z" fill="#0C4E92"/>
<path d="M8.875 24.5H7.3125V26.0625H8.875V24.5Z" fill="#FCCAB1"/>
<path d="M8.875 24.5H7.3125V26.0625H8.875V24.5Z" fill="#FCCAB1"/>
<path d="M8.83281 24.8125H7.04219C5.63812 24.8125 4.5 23.6744 4.5 22.2703V18.9681C4.5 17.7084 5.52094 16.6875 6.78063 16.6875H9.09469C10.3541 16.6875 11.375 17.7084 11.375 18.9681V22.2703C11.375 23.6744 10.2369 24.8125 8.83281 24.8125Z" fill="#FCCAB1"/>
<g opacity="0.6">
<path d="M11.3749 18.9688V22.2719C11.3749 23.675 10.2374 24.8125 8.83428 24.8125H8.80615C9.59053 24.3813 10.1249 23.5438 10.1249 22.5844V19.2813C10.1249 18.0219 9.10303 17 7.84365 17H5.63428C5.96865 16.8 6.3624 16.6875 6.78115 16.6875H9.09365C10.353 16.6875 11.3749 17.7094 11.3749 18.9688Z" fill="#EA9E7D"/>
</g>
<path d="M7 21.375C6.82719 21.375 6.6875 21.2353 6.6875 21.0625V20.4375C6.6875 20.2647 6.82719 20.125 7 20.125C7.17281 20.125 7.3125 20.2647 7.3125 20.4375V21.0625C7.3125 21.2353 7.17281 21.375 7 21.375Z" fill="#464045"/>
<path d="M9.1875 21.375C9.01469 21.375 8.875 21.2353 8.875 21.0625V20.4375C8.875 20.2647 9.01469 20.125 9.1875 20.125C9.36031 20.125 9.5 20.2647 9.5 20.4375V21.0625C9.5 21.2353 9.36031 21.375 9.1875 21.375Z" fill="#464045"/>
<path d="M7.93758 23.5616C7.64883 23.5616 7.36039 23.4272 7.09164 23.1585C6.96945 23.0363 6.96945 22.8388 7.09164 22.7166C7.21383 22.5944 7.41133 22.5944 7.53352 22.7166C7.8282 23.0106 8.04695 23.0106 8.34164 22.7166C8.46383 22.5944 8.66133 22.5944 8.78352 22.7166C8.9057 22.8388 8.9057 23.0363 8.78352 23.1585C8.51477 23.4272 8.22633 23.5616 7.93758 23.5616Z" fill="#464045"/>
<path d="M11.6875 17.9375L10.4375 16.375L6.6875 16.0625L4.8125 17L4.1875 18.25L3.875 20.4375C6.0625 20.4375 5.75 18.875 5.75 18.875C5.75 17.3125 7 17.9375 7 17.9375C7.83438 17.1041 8.66562 17.1041 9.5 17.9375C9.99375 18.9219 10.3656 19.6469 11.3625 19.6562C11.6312 19.6562 11.9406 19.6094 12.3125 19.5C12.0281 19.0719 11.8563 18.7406 11.6875 17.9375Z" fill="#464045"/>
<path d="M12.3125 19.5C11.9406 19.6094 11.6312 19.6563 11.3625 19.6563C10.7906 19.65 10.425 19.4094 10.125 19.0219V16.35L10.4375 16.375L11.6875 17.9375C11.8563 18.7407 12.0281 19.0719 12.3125 19.5Z" fill="#464045"/>
<g opacity="0.6">
<path d="M12.3125 19.5C11.9406 19.6094 11.6312 19.6563 11.3625 19.6563C10.7906 19.65 10.425 19.4094 10.125 19.0219V16.35L10.4375 16.375L11.6875 17.9375C11.8563 18.7407 12.0281 19.0719 12.3125 19.5Z" fill="#282628"/>
</g>
<path d="M7.62464 19.8125C7.5562 19.8125 7.48745 19.7903 7.42964 19.7441C7.02432 19.42 6.66307 19.42 6.25776 19.7441C6.12245 19.8519 5.92589 19.8291 5.81839 19.6953C5.71057 19.5603 5.73276 19.3634 5.86714 19.2559C6.5062 18.745 7.1812 18.745 7.82026 19.2559C7.95495 19.3638 7.97682 19.5606 7.86901 19.6953C7.80745 19.7722 7.71651 19.8125 7.62464 19.8125Z" fill="#464045"/>
<path d="M10.1246 19.8125C10.0562 19.8125 9.98745 19.7903 9.92964 19.7441C9.52432 19.42 9.16307 19.42 8.75776 19.7441C8.62245 19.8519 8.4262 19.8291 8.31839 19.6953C8.21057 19.5603 8.23276 19.3634 8.36714 19.2559C9.0062 18.745 9.6812 18.745 10.3203 19.2559C10.4549 19.3638 10.4768 19.5606 10.369 19.6953C10.3074 19.7722 10.2165 19.8125 10.1246 19.8125Z" fill="#464045"/>
<path d="M22.8501 18.5844C23.5751 19.0906 24.6313 18.7656 25.4376 17.3125C26.9845 18.6531 28.8751 19.5 30.4376 18.5625C30.7532 18.4031 31.1501 18.1125 31.5438 17.7719C31.9313 17.4344 32.3157 17.0469 32.6251 16.6875C31.497 16.3125 30.772 15.9375 30.2876 15.5781C30.2845 15.5781 30.2845 15.575 30.2813 15.575C30.1501 15.4812 30.0345 15.3844 29.9376 15.2875C29.9345 15.2844 29.9345 15.2844 29.9313 15.2812L29.6563 15.5937C26.2973 15.8897 23.0663 16.2081 23.4063 17.1562C23.2501 17.9375 23.6757 18.5828 22.8501 18.5844Z" fill="#464045"/>
<g opacity="0.6">
<path d="M32.625 16.6875C32.3156 17.0469 31.9312 17.4344 31.5437 17.7719C31.15 18.1125 30.7531 18.4031 30.4375 18.5625C30.1343 18.7437 29.8187 18.8594 29.4937 18.9156C29.5 18.85 29.5 18.7844 29.5 18.7187C29.5 17.5656 29.0687 16.5094 28.3562 15.7094C28.7812 15.6719 29.2187 15.6312 29.6562 15.5937L29.9312 15.2812C29.9343 15.2844 29.9343 15.2844 29.9375 15.2875C30.0343 15.3844 30.15 15.4812 30.2812 15.575C30.2843 15.575 30.2843 15.5781 30.2875 15.5781C30.7718 15.9375 31.4968 16.3125 32.625 16.6875Z" fill="#282628"/>
</g>
<path d="M24.721 2.83815C24.6538 2.67909 24.7285 2.49596 24.8875 2.42878C25.6019 2.12753 25.9382 1.30096 25.6366 0.58659C25.5694 0.427527 25.6441 0.244402 25.8032 0.177215C25.9622 0.110027 26.1454 0.184715 26.2125 0.343777C26.5138 1.05815 27.3404 1.3944 28.0547 1.09315C28.2138 1.02596 28.3969 1.10065 28.4641 1.25971C28.5313 1.41878 28.4566 1.6019 28.2975 1.66909C27.5832 1.97034 27.2469 2.7969 27.5485 3.51128C27.6157 3.67034 27.541 3.85346 27.3819 3.92065C27.2229 3.98784 27.0397 3.91315 26.9725 3.75409C26.6713 3.03972 25.8447 2.70346 25.1304 3.00471C24.9713 3.07159 24.7882 2.9969 24.721 2.83815Z" fill="#A8E900"/>
<path d="M27.1999 2.7797C27.1706 2.7797 27.1412 2.77564 27.1115 2.76689C26.9459 2.71814 26.8515 2.54407 26.9003 2.37876C26.9621 2.1697 27.0562 1.97501 27.1778 1.80064C26.8787 1.75064 26.5934 1.63439 26.3443 1.46095C26.3149 1.63876 26.2618 1.81345 26.1846 1.9797C26.1121 2.13626 25.9265 2.20532 25.7699 2.13189C25.6134 2.0597 25.5449 1.87376 25.6178 1.7172C25.7853 1.35564 25.7921 0.954075 25.6371 0.586575V0.586262C25.5699 0.4272 25.6443 0.243762 25.8034 0.176887C25.9621 0.110012 26.1456 0.184075 26.2128 0.343137C26.5143 1.0572 27.3412 1.39376 28.0553 1.09251C28.214 1.02689 28.3978 1.10001 28.4646 1.25907C28.5315 1.41814 28.4571 1.60157 28.2981 1.66876H28.2974C27.909 1.83282 27.6181 2.15626 27.4999 2.55564C27.4593 2.69189 27.3346 2.7797 27.1999 2.7797Z" fill="#477704"/>
<path d="M16.3268 2.01941C16.93 2.01941 16.9309 1.08191 16.3268 1.08191C15.7237 1.08191 15.7225 2.01941 16.3268 2.01941Z" fill="#0C4E92"/>
</svg>
