<svg width="60" height="53" viewBox="0 0 60 53" fill="none" xmlns="http://www.w3.org/2000/svg">
<path d="M46.6797 8.59141V43.0664C46.6797 43.575 46.4773 44.0617 46.1164 44.4227L42.1242 48.4148L40.1336 50.4055C39.7727 50.7664 39.2859 50.9688 38.7773 50.9688H15.2398C14.1789 50.9688 13.3203 50.1102 13.3203 49.0492V8.59141C13.3203 7.53047 14.1789 6.67188 15.2398 6.67188H44.7602C45.8211 6.67188 46.6797 7.53047 46.6797 8.59141Z" fill="#EC3237"/>
<path d="M46.6797 8.59141V43.0664C46.6797 43.575 46.4773 44.0617 46.1164 44.4227L42.1242 48.4148L40.1336 50.4055C39.7727 50.7664 39.2859 50.9688 38.7773 50.9688H15.2398C14.1789 50.9688 13.3203 50.1102 13.3203 49.0492V8.59141C13.3203 7.53047 14.1789 6.67188 15.2398 6.67188H44.7602C45.8211 6.67188 46.6797 7.53047 46.6797 8.59141Z" fill="black" fill-opacity="0.1"/>
<g opacity="0.6">
<path d="M46.6797 8.59141V43.0664C46.6797 43.575 46.4773 44.0617 46.1164 44.4227L42.1242 48.4148V8.59141C42.1242 7.53047 41.5938 6.67188 40.9375 6.67188H45.493C46.1492 6.67188 46.6797 7.53047 46.6797 8.59141Z" fill="#EC3237"/>
<path d="M46.6797 8.59141V43.0664C46.6797 43.575 46.4773 44.0617 46.1164 44.4227L42.1242 48.4148V8.59141C42.1242 7.53047 41.5938 6.67188 40.9375 6.67188H45.493C46.1492 6.67188 46.6797 7.53047 46.6797 8.59141Z" fill="white" fill-opacity="0.2"/>
</g>
<path d="M27.2656 12.1406H18.5156C18.2138 12.1406 17.9688 11.8962 17.9688 11.5938C17.9688 11.2913 18.2138 11.0469 18.5156 11.0469H27.2656C27.5675 11.0469 27.8125 11.2913 27.8125 11.5938C27.8125 11.8962 27.5675 12.1406 27.2656 12.1406Z" fill="white"/>
<path d="M29.4531 15.4219H18.5156C18.2138 15.4219 17.9688 15.1774 17.9688 14.875C17.9688 14.5726 18.2138 14.3281 18.5156 14.3281H29.4531C29.755 14.3281 30 14.5726 30 14.875C30 15.1774 29.755 15.4219 29.4531 15.4219Z" fill="white"/>
<path d="M8.70408 5.86741C8.65869 5.86741 8.61221 5.86194 8.56627 5.84991C8.27424 5.7739 8.09869 5.47476 8.17471 5.18273L9.27666 0.948819C9.35268 0.656241 9.64908 0.478507 9.94385 0.557257C10.2359 0.633272 10.4114 0.932412 10.3354 1.22444L9.23346 5.45835C9.16893 5.70444 8.94689 5.86741 8.70408 5.86741Z" fill="#3E4095"/>
<path d="M11.3718 4.30122C11.3264 4.30122 11.2799 4.29575 11.234 4.28372L7.00005 3.18177C6.70802 3.10575 6.53247 2.80661 6.60848 2.51458C6.6845 2.22255 6.982 2.04427 7.27567 2.12302L11.5096 3.22497C11.8016 3.30099 11.9772 3.59958 11.9011 3.89216C11.8366 4.13825 11.6146 4.30122 11.3718 4.30122Z" fill="#EC3237"/>
<path d="M11.3718 4.30122C11.3264 4.30122 11.2799 4.29575 11.234 4.28372L7.00005 3.18177C6.70802 3.10575 6.53247 2.80661 6.60848 2.51458C6.6845 2.22255 6.982 2.04427 7.27567 2.12302L11.5096 3.22497C11.8016 3.30099 11.9772 3.59958 11.9011 3.89216C11.8366 4.13825 11.6146 4.30122 11.3718 4.30122Z" fill="black" fill-opacity="0.1"/>
<path d="M54.5973 49.816C54.4792 50.8665 53.5315 51.6223 52.4809 51.5036C51.4304 51.3849 50.6746 50.4377 50.7933 49.3872C50.9119 48.3367 51.8591 47.5814 52.9097 47.6995C53.9602 47.8177 54.716 48.7654 54.5973 49.816Z" fill="#FEDF89"/>
<path d="M52.6915 52.063C52.6024 52.063 52.5132 52.0581 52.4224 52.0488C51.1936 51.9022 50.2557 50.8686 50.2344 49.6442C50.2295 49.3418 50.4701 49.0929 50.772 49.0875C51.0662 49.0924 51.3227 49.3232 51.3281 49.6245C51.3396 50.3054 51.8635 50.8807 52.5466 50.9616C53.2936 51.0426 53.9695 50.5001 54.0549 49.7519C54.1363 49.0065 53.5944 48.3273 52.8463 48.2409C52.7462 48.2305 52.6587 48.23 52.5712 48.2442C52.2704 48.2874 51.9931 48.0856 51.9472 47.787C51.9013 47.4884 52.1058 47.209 52.4044 47.163C52.587 47.134 52.7719 47.1324 52.9699 47.1537C54.3152 47.3085 55.2892 48.5286 55.142 49.8733C54.9977 51.1311 53.9263 52.063 52.6915 52.063Z" fill="#3E4095"/>
<path d="M39.5703 43.8594V50.9688L46.6797 43.8594H39.5703Z" fill="#EC3237"/>
<path d="M39.5703 43.8594V50.9688L46.6797 43.8594H39.5703Z" fill="white" fill-opacity="0.2"/>
<path d="M40.1172 23.625C40.0926 23.625 40.0674 23.6233 40.0423 23.6195C39.8875 23.5982 39.7486 23.5118 39.6622 23.3811L38.5684 21.7404C38.4011 21.4889 38.4689 21.1498 38.7199 20.9819C38.9709 20.8146 39.3105 20.8818 39.4784 21.1334L40.2298 22.2605L43.5893 19.3812C43.8184 19.1838 44.1641 19.21 44.3604 19.4403C44.5567 19.6694 44.5305 20.0145 44.3013 20.2108L40.4732 23.4921C40.3731 23.579 40.2468 23.625 40.1172 23.625Z" fill="white"/>
<path d="M40.1172 31.4634C40.0926 31.4634 40.0674 31.4618 40.0423 31.4579C39.8875 31.4366 39.7486 31.3502 39.6622 31.22L38.5684 29.5794C38.4011 29.3279 38.4689 28.9888 38.7199 28.8209C38.9709 28.6536 39.3105 28.7208 39.4784 28.9724L40.2298 30.0995L43.5893 27.2202C43.8184 27.0228 44.1641 27.049 44.3604 27.2793C44.5567 27.5084 44.5305 27.8535 44.3013 28.0498L40.4732 31.3311C40.3731 31.4175 40.2468 31.4634 40.1172 31.4634Z" fill="white"/>
<path d="M40.1172 39.3023C40.0926 39.3023 40.0674 39.3006 40.0423 39.2968C39.8875 39.2755 39.7486 39.1891 39.6622 39.0584L38.5684 37.4177C38.4011 37.1662 38.4689 36.8271 38.7199 36.6592C38.9709 36.4919 39.3105 36.5591 39.4784 36.8107L40.2298 37.9378L43.5893 35.0585C43.8184 34.8611 44.1641 34.8879 44.3604 35.1176C44.5567 35.3467 44.5305 35.6918 44.3013 35.8881L40.4732 39.1694C40.3731 39.2563 40.2468 39.3023 40.1172 39.3023Z" fill="white"/>
<path d="M29.7266 47.1406H17.6953C17.3934 47.1406 17.1484 46.8962 17.1484 46.5938V43.8594C17.1484 43.557 17.3934 43.3125 17.6953 43.3125H29.7266C30.0284 43.3125 30.2734 43.557 30.2734 43.8594V46.5938C30.2734 46.8962 30.0284 47.1406 29.7266 47.1406ZM18.2422 46.0469H29.1797V44.4062H18.2422V46.0469Z" fill="white"/>
<path d="M35.1953 39.3022H17.6953C17.3934 39.3022 17.1484 39.0578 17.1484 38.7554V36.021C17.1484 35.7186 17.3934 35.4741 17.6953 35.4741H35.1953C35.4972 35.4741 35.7422 35.7186 35.7422 36.021V38.7554C35.7422 39.0578 35.4972 39.3022 35.1953 39.3022ZM18.2422 38.2085H34.6484V36.5679H18.2422V38.2085Z" fill="white"/>
<path d="M35.1953 31.4634H17.6953C17.3934 31.4634 17.1484 31.2189 17.1484 30.9165V28.1821C17.1484 27.8797 17.3934 27.6353 17.6953 27.6353H35.1953C35.4972 27.6353 35.7422 27.8797 35.7422 28.1821V30.9165C35.7422 31.2189 35.4972 31.4634 35.1953 31.4634ZM18.2422 30.3696H34.6484V28.729H18.2422V30.3696Z" fill="white"/>
<path d="M35.1953 23.625H17.6953C17.3934 23.625 17.1484 23.3805 17.1484 23.0781V20.3438C17.1484 20.0413 17.3934 19.7969 17.6953 19.7969H23C23.3019 19.7969 23.5469 20.0413 23.5469 20.3438C23.5469 20.6462 23.3019 20.8906 23 20.8906H18.2422V22.5312H34.6484V20.8906H25.2969C24.995 20.8906 24.75 20.6462 24.75 20.3438C24.75 20.0413 24.995 19.7969 25.2969 19.7969H35.1953C35.4972 19.7969 35.7422 20.0413 35.7422 20.3438V23.0781C35.7422 23.3805 35.4972 23.625 35.1953 23.625Z" fill="white"/>
<path d="M40.232 13.4941L40.1205 13.5045V10.4999C40.1205 10.256 39.9591 10.0417 39.7245 9.9744C39.4888 9.90658 39.2389 10.0028 39.1098 10.2101L36.8666 13.7998L36.3399 13.8479C36.0391 13.8753 35.8171 14.141 35.8445 14.4424C35.8636 14.6518 35.9992 14.8213 36.1813 14.8968L35.5716 15.8724C35.4113 16.1289 35.4895 16.4663 35.7455 16.626C36.0009 16.7874 36.3383 16.7086 36.4991 16.4527L37.5064 14.841L39.0267 14.7027V16.5156C39.0267 16.818 39.2717 17.0624 39.5736 17.0624C39.8755 17.0624 40.1205 16.818 40.1205 16.5156V14.6026L40.331 14.5835C40.6318 14.5561 40.8538 14.2903 40.8265 13.989C40.7991 13.6888 40.5361 13.4646 40.232 13.4941ZM38.2343 13.6751L39.0267 12.4069V13.6035L38.2343 13.6751Z" fill="white"/>
<path d="M54.0904 21.6234C53.9242 21.6234 53.7601 21.5479 53.6524 21.4052C53.4708 21.1634 53.52 20.8205 53.7617 20.6395L58.3828 17.1723C58.6246 16.9919 58.9675 17.0405 59.1485 17.2812C59.3295 17.5229 59.2808 17.8658 59.0391 18.0468L54.418 21.514C54.3196 21.5873 54.2042 21.6234 54.0904 21.6234Z" fill="#FEDF89"/>
<path d="M49.9615 24.7188C49.7947 24.7188 49.6306 24.6428 49.5235 24.5C49.3424 24.2583 49.3917 23.9154 49.6334 23.7344L52.2912 21.7438C52.534 21.5639 52.8764 21.6125 53.0568 21.8537C53.2378 22.0954 53.1886 22.4383 52.9469 22.6193L50.2891 24.6099C50.1901 24.6832 50.0753 24.7188 49.9615 24.7188Z" fill="#3E4095"/>
<path d="M50.5079 28C50.2984 28 50.0988 27.8791 50.008 27.6751C49.885 27.399 50.0097 27.0758 50.2853 26.9533L55.2072 24.7658C55.4828 24.6427 55.8065 24.7669 55.929 25.0436C56.0521 25.3198 55.9274 25.643 55.6518 25.7655L50.7299 27.953C50.6577 27.9852 50.5822 28 50.5079 28Z" fill="#3E4095"/>
<path d="M49.9604 21.4375C49.8368 21.4375 49.7127 21.3959 49.6104 21.3111C49.3785 21.1175 49.3474 20.773 49.5404 20.5406L52.2748 17.2593C52.4684 17.0275 52.8124 16.9963 53.0448 17.1893C53.2767 17.3829 53.3078 17.7275 53.1148 17.9599L50.3804 21.2411C50.2727 21.3708 50.1174 21.4375 49.9604 21.4375Z" fill="#3E4095"/>
<path d="M6.02992 27.1797C5.91617 27.1797 5.80078 27.1442 5.70234 27.0704L0.960932 23.5157C0.71976 23.3346 0.670542 22.9918 0.851557 22.7506C1.03312 22.5089 1.37546 22.4602 1.61718 22.6412L6.35859 26.1959C6.59976 26.3769 6.64898 26.7198 6.46796 26.961C6.36023 27.1043 6.19617 27.1797 6.02992 27.1797Z" fill="#FEDF89"/>
<path d="M10.0385 30.1875C9.92474 30.1875 9.80935 30.152 9.71091 30.0782L7.30466 28.2735C7.06294 28.0925 7.01427 27.7496 7.19529 27.5084C7.3763 27.2667 7.71919 27.218 7.96091 27.399L10.3672 29.2037C10.6089 29.3847 10.6576 29.7276 10.4765 29.9688C10.3693 30.1121 10.2047 30.1875 10.0385 30.1875Z" fill="#3E4095"/>
<path d="M9.49217 33.4688C9.4178 33.4688 9.34287 33.4541 9.27014 33.4218L4.34826 31.2343C4.07264 31.1113 3.94795 30.7886 4.071 30.5124C4.19405 30.2368 4.51616 30.1121 4.79287 30.2346L9.71475 32.4221C9.99037 32.5452 10.1151 32.8678 9.99201 33.144C9.90123 33.3474 9.70108 33.4688 9.49217 33.4688Z" fill="#3E4095"/>
<path d="M10.039 26.9063C9.88208 26.9063 9.72676 26.8396 9.61848 26.7099L6.88411 23.4287C6.69106 23.1963 6.72223 22.8512 6.95411 22.6581C7.18598 22.4651 7.53051 22.4957 7.72411 22.7282L10.4585 26.0094C10.6515 26.2418 10.6204 26.5869 10.3885 26.7799C10.2868 26.8647 10.1626 26.9063 10.039 26.9063Z" fill="#3E4095"/>
<path d="M6.0726 49.5168C7.12806 49.5168 7.13025 47.8762 6.0726 47.8762C5.01658 47.8762 5.01494 49.5168 6.0726 49.5168Z" fill="#FEDF89"/>
<path d="M51.7235 6.31152C51.5288 6.0802 51.5589 5.73566 51.7897 5.54098C52.8277 4.66707 52.9617 3.11176 52.0878 2.07324C51.8931 1.84246 51.9231 1.49738 52.1539 1.3027C52.3853 1.10801 52.7298 1.13809 52.9245 1.36887C53.7984 2.40684 55.3537 2.54082 56.3922 1.66691C56.623 1.47223 56.9681 1.50231 57.1628 1.73309C57.3574 1.96387 57.3274 2.30895 57.0966 2.50363C56.0586 3.37754 55.9246 4.93285 56.7985 5.97137C56.9932 6.20215 56.9631 6.54723 56.7324 6.74192C56.501 6.9366 56.1565 6.90652 55.9618 6.67574C55.0879 5.63777 53.5326 5.50379 52.4941 6.3777C52.2633 6.57238 51.9182 6.54285 51.7235 6.31152Z" fill="#FEDF89"/>
<path d="M55.6753 4.95475C55.3767 4.95475 55.1328 4.71468 55.1289 4.41554C55.124 4.03382 55.1803 3.65976 55.293 3.30483C54.7669 3.37757 54.2304 3.33054 53.724 3.16921C53.7672 3.48202 53.7683 3.8014 53.7256 4.11913C53.6857 4.41827 53.4101 4.62827 53.111 4.58835C52.8118 4.54843 52.6013 4.2728 52.6417 3.97366C52.7342 3.28241 52.5378 2.60811 52.0883 2.07382C51.8942 1.84249 51.9237 1.49741 52.1545 1.30327C52.3847 1.10804 52.7303 1.13812 52.925 1.3689L52.9256 1.36999C53.7995 2.40686 55.3521 2.5403 56.3906 1.66858L56.3928 1.66694C56.623 1.47226 56.9686 1.50179 57.1633 1.73311C57.3574 1.9639 57.3279 2.30897 57.0971 2.50311L57.096 2.50421C56.5311 2.97999 56.2128 3.67124 56.2227 4.40022C56.2265 4.70265 55.9848 4.95038 55.6829 4.95475C55.6802 4.95475 55.678 4.95475 55.6753 4.95475Z" fill="#B5110D"/>
</svg>
