<svg width="40" height="40" viewBox="0 0 40 40" fill="none" xmlns="http://www.w3.org/2000/svg">
<path d="M33.125 11.8719V28.7531C33.125 29.9594 32.1469 30.9375 30.9406 30.9375H9.05936C7.85311 30.9375 6.87498 29.9594 6.87498 28.7531V11.8719C6.87498 10.6656 7.85311 9.6875 9.05936 9.6875H30.9406C32.1469 9.6875 33.125 10.6656 33.125 11.8719Z" fill="#3E4095"/>
<path d="M33.125 11.8719V28.7531C33.125 29.9594 32.1469 30.9375 30.9406 30.9375H9.05936C7.85311 30.9375 6.87498 29.9594 6.87498 28.7531V11.8719C6.87498 10.6656 7.85311 9.6875 9.05936 9.6875H30.9406C32.1469 9.6875 33.125 10.6656 33.125 11.8719Z" fill="white" fill-opacity="0.6"/>
<path d="M28.125 9.6875H22.5V30.9375H28.125V9.6875Z" fill="white"/>
<path d="M33.125 20.3125H6.87498V25.9375H33.125V20.3125Z" fill="white"/>
<g opacity="0.4">
<path d="M33.125 11.8719V28.7531C33.125 29.9594 32.1469 30.9375 30.9406 30.9375H9.05936C7.95936 30.9375 7.04686 30.1219 6.89999 29.0625H28.7531C29.9594 29.0625 30.9375 28.0844 30.9375 26.8781V9.99687C30.9375 9.89062 30.9312 9.7875 30.9125 9.6875H30.9406C32.1469 9.6875 33.125 10.6656 33.125 11.8719Z" fill="#3E4095"/>
<path d="M33.125 11.8719V28.7531C33.125 29.9594 32.1469 30.9375 30.9406 30.9375H9.05936C7.95936 30.9375 7.04686 30.1219 6.89999 29.0625H28.7531C29.9594 29.0625 30.9375 28.0844 30.9375 26.8781V9.99687C30.9375 9.89062 30.9312 9.7875 30.9125 9.6875H30.9406C32.1469 9.6875 33.125 10.6656 33.125 11.8719Z" fill="white" fill-opacity="0.1"/>
</g>
<path d="M12.1875 9.6875H11.5625V30.9375H12.1875V9.6875Z" fill="#3E4095"/>
<path d="M12.1875 9.6875H11.5625V30.9375H12.1875V9.6875Z" fill="black" fill-opacity="0.2"/>
<path d="M17.8125 9.6875H17.1875V30.9375H17.8125V9.6875Z" fill="#3E4095"/>
<path d="M17.8125 9.6875H17.1875V30.9375H17.8125V9.6875Z" fill="black" fill-opacity="0.2"/>
<path d="M22.8125 9.6875H22.1875V30.9375H22.8125V9.6875Z" fill="#3E4095"/>
<path d="M22.8125 9.6875H22.1875V30.9375H22.8125V9.6875Z" fill="black" fill-opacity="0.2"/>
<path d="M28.4375 9.6875H27.8125V30.9375H28.4375V9.6875Z" fill="#3E4095"/>
<path d="M28.4375 9.6875H27.8125V30.9375H28.4375V9.6875Z" fill="black" fill-opacity="0.2"/>
<path d="M33.125 20H6.87498V20.625H33.125V20Z" fill="#3E4095"/>
<path d="M33.125 20H6.87498V20.625H33.125V20Z" fill="black" fill-opacity="0.2"/>
<path d="M33.125 15H6.87498V15.625H33.125V15Z" fill="#3E4095"/>
<path d="M33.125 15H6.87498V15.625H33.125V15Z" fill="black" fill-opacity="0.2"/>
<path d="M33.125 25.625H6.87498V26.25H33.125V25.625Z" fill="#3E4095"/>
<path d="M33.125 25.625H6.87498V26.25H33.125V25.625Z" fill="black" fill-opacity="0.2"/>
<path d="M7.8128 8.75C7.70155 8.75 7.59374 8.69062 7.53749 8.58562L6.94061 7.47625C6.85874 7.32437 6.91561 7.13468 7.0678 7.05312C7.21936 6.97093 7.40936 7.02843 7.49092 7.18031L8.0878 8.28968C8.16967 8.44156 8.1128 8.63125 7.96061 8.71281C7.91342 8.73812 7.8628 8.75 7.8128 8.75Z" fill="#3E4095"/>
<path d="M7.8128 8.75C7.70155 8.75 7.59374 8.69062 7.53749 8.58562L6.94061 7.47625C6.85874 7.32437 6.91561 7.13468 7.0678 7.05312C7.21936 6.97093 7.40936 7.02843 7.49092 7.18031L8.0878 8.28968C8.16967 8.44156 8.1128 8.63125 7.96061 8.71281C7.91342 8.73812 7.8628 8.75 7.8128 8.75Z" fill="white" fill-opacity="0.1"/>
<path d="M6.79405 6.85625C6.6828 6.85625 6.57498 6.79687 6.51873 6.69218L5.34998 4.52343C5.26811 4.37156 5.32498 4.18187 5.47686 4.10031C5.62873 4.01781 5.81842 4.07531 5.9003 4.22687L7.06905 6.39562C7.15092 6.5475 7.09405 6.73718 6.94217 6.81875C6.89498 6.84437 6.84405 6.85625 6.79405 6.85625Z" fill="#FEDF89"/>
<path d="M9.37498 8.4375C9.20248 8.4375 9.06248 8.29781 9.06248 8.125V5.3125C9.06248 5.13969 9.20248 5 9.37498 5C9.54748 5 9.68748 5.13969 9.68748 5.3125V8.125C9.68748 8.29781 9.54748 8.4375 9.37498 8.4375Z" fill="#0C4E92"/>
<path d="M6.54967 9.57406C6.49967 9.57406 6.44873 9.56219 6.40155 9.53656L3.92623 8.20125C3.77436 8.11938 3.7178 7.93 3.79967 7.77813C3.88123 7.62656 4.07092 7.56875 4.2228 7.65156L6.69811 8.98688C6.84998 9.06875 6.90655 9.25813 6.82467 9.41C6.76873 9.51438 6.66092 9.57406 6.54967 9.57406Z" fill="#0C4E92"/>
<path d="M34.8312 22.0594C34.7394 22.0594 34.6484 22.019 34.5865 21.9415C34.479 21.8062 34.5015 21.6097 34.6365 21.5025L35.3553 20.9306C35.4903 20.8228 35.6869 20.8453 35.7944 20.9803C35.9019 21.1156 35.8794 21.3119 35.7444 21.4194L35.0256 21.9912C34.9681 22.0372 34.8997 22.0594 34.8312 22.0594Z" fill="#0C4E92"/>
<path d="M36.25 20.9281C36.1581 20.9281 36.0672 20.8878 36.0053 20.8103C35.8978 20.675 35.9203 20.4787 36.0553 20.3712L37.6178 19.1278C37.7528 19.0203 37.9497 19.0428 38.0569 19.1775C38.1644 19.3128 38.1419 19.5094 38.0069 19.6166L36.4444 20.86C36.3869 20.9056 36.3184 20.9281 36.25 20.9281Z" fill="#0C4E92"/>
<path d="M35.2431 23.3834C35.0906 23.3834 34.9575 23.2719 34.9344 23.1166C34.9094 22.9459 35.0272 22.7869 35.1981 22.7619L37.4222 22.4347C37.5919 22.4072 37.7515 22.5275 37.7769 22.6984C37.8022 22.8691 37.684 23.0281 37.5131 23.0531L35.289 23.3803C35.2737 23.3825 35.2584 23.3834 35.2431 23.3834Z" fill="#EC3237"/>
<path d="M35.2431 23.3834C35.0906 23.3834 34.9575 23.2719 34.9344 23.1166C34.9094 22.9459 35.0272 22.7869 35.1981 22.7619L37.4222 22.4347C37.5919 22.4072 37.7515 22.5275 37.7769 22.6984C37.8022 22.8691 37.684 23.0281 37.5131 23.0531L35.289 23.3803C35.2737 23.3825 35.2584 23.3834 35.2431 23.3834Z" fill="black" fill-opacity="0.1"/>
<path d="M34.0459 21.0584C34.0122 21.0584 33.9778 21.0528 33.9444 21.0412C33.7809 20.985 33.6944 20.8075 33.7503 20.6441L34.5447 18.3356C34.6009 18.1722 34.779 18.0853 34.9419 18.1419C35.105 18.1981 35.1919 18.3756 35.1359 18.5391L34.3415 20.8475C34.2969 20.9772 34.1756 21.0584 34.0459 21.0584Z" fill="#EC3237"/>
<path d="M34.0459 21.0584C34.0122 21.0584 33.9778 21.0528 33.9444 21.0412C33.7809 20.985 33.6944 20.8075 33.7503 20.6441L34.5447 18.3356C34.6009 18.1722 34.779 18.0853 34.9419 18.1419C35.105 18.1981 35.1919 18.3756 35.1359 18.5391L34.3415 20.8475C34.2969 20.9772 34.1756 21.0584 34.0459 21.0584Z" fill="black" fill-opacity="0.1"/>
<path d="M6.62342 35.0744C6.59748 35.0744 6.57092 35.0713 6.54467 35.0644C6.37779 35.0209 6.27748 34.85 6.32092 34.6831L6.95061 32.2638C6.99404 32.0969 7.16373 31.9956 7.33186 32.04C7.49873 32.0834 7.59904 32.2544 7.55561 32.4213L6.92592 34.8406C6.88904 34.9812 6.76248 35.0744 6.62342 35.0744Z" fill="#EC3237"/>
<path d="M6.62342 35.0744C6.59748 35.0744 6.57092 35.0713 6.54467 35.0644C6.37779 35.0209 6.27748 34.85 6.32092 34.6831L6.95061 32.2638C6.99404 32.0969 7.16373 31.9956 7.33186 32.04C7.49873 32.0834 7.59904 32.2544 7.55561 32.4213L6.92592 34.8406C6.88904 34.9812 6.76248 35.0744 6.62342 35.0744Z" fill="black" fill-opacity="0.15"/>
<path d="M8.14811 34.1794C8.12217 34.1794 8.09561 34.1762 8.06936 34.1694L5.64999 33.5397C5.48311 33.4962 5.3828 33.3253 5.42624 33.1584C5.46967 32.9916 5.63905 32.8903 5.80749 32.9347L8.22686 33.5644C8.39374 33.6078 8.49405 33.7784 8.45061 33.9456C8.41374 34.0862 8.28686 34.1794 8.14811 34.1794Z" fill="#0C4E92"/>
<path d="M10.3125 24.6875H9.06248C8.88998 24.6875 8.74998 24.5478 8.74998 24.375V21.5625C8.74998 21.3897 8.88998 21.25 9.06248 21.25C9.23498 21.25 9.37498 21.3897 9.37498 21.5625V24.0625H10.3125C10.485 24.0625 10.625 24.2022 10.625 24.375C10.625 24.5478 10.485 24.6875 10.3125 24.6875Z" fill="#EC3237"/>
<path d="M10.3125 24.6875H9.06248C8.88998 24.6875 8.74998 24.5478 8.74998 24.375V21.5625C8.74998 21.3897 8.88998 21.25 9.06248 21.25C9.23498 21.25 9.37498 21.3897 9.37498 21.5625V24.0625H10.3125C10.485 24.0625 10.625 24.2022 10.625 24.375C10.625 24.5478 10.485 24.6875 10.3125 24.6875Z" fill="black" fill-opacity="0.2"/>
<path d="M15.5312 23.4375H14.125C13.9525 23.4375 13.8125 23.2978 13.8125 23.125C13.8125 22.9522 13.9525 22.8125 14.125 22.8125H15.5312C15.7037 22.8125 15.8437 22.9522 15.8437 23.125C15.8437 23.2978 15.7037 23.4375 15.5312 23.4375Z" fill="#EC3237"/>
<path d="M15.5312 23.4375H14.125C13.9525 23.4375 13.8125 23.2978 13.8125 23.125C13.8125 22.9522 13.9525 22.8125 14.125 22.8125H15.5312C15.7037 22.8125 15.8437 22.9522 15.8437 23.125C15.8437 23.2978 15.7037 23.4375 15.5312 23.4375Z" fill="black" fill-opacity="0.2"/>
<path d="M15.25 24.8438H13.8437C13.6712 24.8438 13.5312 24.7041 13.5312 24.5312V21.7188C13.5312 21.5459 13.6712 21.4062 13.8437 21.4062H15.25C15.4225 21.4062 15.5625 21.5459 15.5625 21.7188C15.5625 21.8916 15.4225 22.0312 15.25 22.0312H14.1562V24.2188H15.25C15.4225 24.2188 15.5625 24.3584 15.5625 24.5312C15.5625 24.7041 15.4225 24.8438 15.25 24.8438Z" fill="#EC3237"/>
<path d="M15.25 24.8438H13.8437C13.6712 24.8438 13.5312 24.7041 13.5312 24.5312V21.7188C13.5312 21.5459 13.6712 21.4062 13.8437 21.4062H15.25C15.4225 21.4062 15.5625 21.5459 15.5625 21.7188C15.5625 21.8916 15.4225 22.0312 15.25 22.0312H14.1562V24.2188H15.25C15.4225 24.2188 15.5625 24.3584 15.5625 24.5312C15.5625 24.7041 15.4225 24.8438 15.25 24.8438Z" fill="black" fill-opacity="0.2"/>
<path d="M20.8128 24.8437C20.6887 24.8437 20.5715 24.7697 20.5225 24.6472L19.6875 22.56L18.8528 24.6472C18.7884 24.8075 18.6072 24.8853 18.4465 24.8216C18.2862 24.7575 18.2084 24.5756 18.2725 24.4153L19.3975 21.6028C19.445 21.4841 19.56 21.4062 19.6878 21.4062C19.8156 21.4062 19.9303 21.4841 19.9781 21.6028L21.1031 24.4153C21.1672 24.5756 21.0894 24.7575 20.929 24.8216C20.8906 24.8369 20.8512 24.8437 20.8128 24.8437Z" fill="#EC3237"/>
<path d="M20.8128 24.8437C20.6887 24.8437 20.5715 24.7697 20.5225 24.6472L19.6875 22.56L18.8528 24.6472C18.7884 24.8075 18.6072 24.8853 18.4465 24.8216C18.2862 24.7575 18.2084 24.5756 18.2725 24.4153L19.3975 21.6028C19.445 21.4841 19.56 21.4062 19.6878 21.4062C19.8156 21.4062 19.9303 21.4841 19.9781 21.6028L21.1031 24.4153C21.1672 24.5756 21.0894 24.7575 20.929 24.8216C20.8906 24.8369 20.8512 24.8437 20.8128 24.8437Z" fill="black" fill-opacity="0.2"/>
<path d="M20.25 23.7188H19.125C18.9525 23.7188 18.8125 23.5791 18.8125 23.4062C18.8125 23.2334 18.9525 23.0938 19.125 23.0938H20.25C20.4225 23.0938 20.5625 23.2334 20.5625 23.4062C20.5625 23.5791 20.4225 23.7188 20.25 23.7188Z" fill="#EC3237"/>
<path d="M20.25 23.7188H19.125C18.9525 23.7188 18.8125 23.5791 18.8125 23.4062C18.8125 23.2334 18.9525 23.0938 19.125 23.0938H20.25C20.4225 23.0938 20.5625 23.2334 20.5625 23.4062C20.5625 23.5791 20.4225 23.7188 20.25 23.7188Z" fill="black" fill-opacity="0.2"/>
<path d="M26.1562 24.8438C26.0762 24.8438 25.9962 24.8131 25.9353 24.7522L24.7812 23.5981V24.5312C24.7812 24.7041 24.6412 24.8438 24.4687 24.8438C24.2962 24.8438 24.1562 24.7041 24.1562 24.5312V21.7188C24.1562 21.5459 24.2962 21.4062 24.4687 21.4062H25.4531C26.0131 21.4062 26.4687 21.8619 26.4687 22.4219C26.4687 22.965 26.04 23.41 25.5031 23.4363L26.3772 24.3103C26.4994 24.4325 26.4994 24.63 26.3772 24.7522C26.3162 24.8131 26.2362 24.8438 26.1562 24.8438ZM24.7812 22.8125H25.4531C25.6684 22.8125 25.8437 22.6372 25.8437 22.4219C25.8437 22.2066 25.6684 22.0312 25.4531 22.0312H24.7812V22.8125Z" fill="#EC3237"/>
<path d="M26.1562 24.8438C26.0762 24.8438 25.9962 24.8131 25.9353 24.7522L24.7812 23.5981V24.5312C24.7812 24.7041 24.6412 24.8438 24.4687 24.8438C24.2962 24.8438 24.1562 24.7041 24.1562 24.5312V21.7188C24.1562 21.5459 24.2962 21.4062 24.4687 21.4062H25.4531C26.0131 21.4062 26.4687 21.8619 26.4687 22.4219C26.4687 22.965 26.04 23.41 25.5031 23.4363L26.3772 24.3103C26.4994 24.4325 26.4994 24.63 26.3772 24.7522C26.3162 24.8131 26.2362 24.8438 26.1562 24.8438ZM24.7812 22.8125H25.4531C25.6684 22.8125 25.8437 22.6372 25.8437 22.4219C25.8437 22.2066 25.6684 22.0312 25.4531 22.0312H24.7812V22.8125Z" fill="black" fill-opacity="0.2"/>
<path d="M31.1719 24.8438C31.0553 24.8438 30.9462 24.7787 30.8922 24.6709L30.0781 23.0425V24.5312C30.0781 24.7041 29.9381 24.8438 29.7656 24.8438C29.5931 24.8438 29.4531 24.7041 29.4531 24.5312V21.7188C29.4531 21.5738 29.5528 21.4481 29.6937 21.4144C29.8359 21.3822 29.9803 21.4491 30.0453 21.5788L30.8594 23.2072V21.7188C30.8594 21.5459 30.9994 21.4062 31.1719 21.4062C31.3444 21.4062 31.4844 21.5459 31.4844 21.7188V24.5312C31.4844 24.6762 31.3847 24.8019 31.2437 24.8356C31.2197 24.8409 31.1956 24.8438 31.1719 24.8438Z" fill="#EC3237"/>
<path d="M31.1719 24.8438C31.0553 24.8438 30.9462 24.7787 30.8922 24.6709L30.0781 23.0425V24.5312C30.0781 24.7041 29.9381 24.8438 29.7656 24.8438C29.5931 24.8438 29.4531 24.7041 29.4531 24.5312V21.7188C29.4531 21.5738 29.5528 21.4481 29.6937 21.4144C29.8359 21.3822 29.9803 21.4491 30.0453 21.5788L30.8594 23.2072V21.7188C30.8594 21.5459 30.9994 21.4062 31.1719 21.4062C31.3444 21.4062 31.4844 21.5459 31.4844 21.7188V24.5312C31.4844 24.6762 31.3847 24.8019 31.2437 24.8356C31.2197 24.8409 31.1956 24.8438 31.1719 24.8438Z" fill="black" fill-opacity="0.2"/>
<path d="M26.25 14.375C26.1684 14.375 26.0887 14.3428 26.029 14.2834L25.3125 13.5669L24.5959 14.2834C24.5112 14.3681 24.3853 14.3975 24.2715 14.3572C24.1581 14.3175 24.0775 14.2162 24.0644 14.0969L23.7519 11.2844C23.7328 11.1128 23.8562 10.9584 24.0278 10.9394C24.1975 10.9219 24.3537 11.0437 24.3728 11.2156L24.6137 13.3819L25.0915 12.9044C25.2137 12.7822 25.4112 12.7822 25.5334 12.9044L26.0112 13.3819L26.2522 11.2156C26.2712 11.0437 26.4259 10.9225 26.5972 10.9394C26.7687 10.9587 26.8922 11.1131 26.8731 11.2844L26.5606 14.0969C26.5475 14.2162 26.4669 14.3175 26.3534 14.3572C26.3197 14.3691 26.2847 14.375 26.25 14.375Z" fill="#EC3237"/>
<path d="M26.25 14.375C26.1684 14.375 26.0887 14.3428 26.029 14.2834L25.3125 13.5669L24.5959 14.2834C24.5112 14.3681 24.3853 14.3975 24.2715 14.3572C24.1581 14.3175 24.0775 14.2162 24.0644 14.0969L23.7519 11.2844C23.7328 11.1128 23.8562 10.9584 24.0278 10.9394C24.1975 10.9219 24.3537 11.0437 24.3728 11.2156L24.6137 13.3819L25.0915 12.9044C25.2137 12.7822 25.4112 12.7822 25.5334 12.9044L26.0112 13.3819L26.2522 11.2156C26.2712 11.0437 26.4259 10.9225 26.5972 10.9394C26.7687 10.9587 26.8922 11.1131 26.8731 11.2844L26.5606 14.0969C26.5475 14.2162 26.4669 14.3175 26.3534 14.3572C26.3197 14.3691 26.2847 14.375 26.25 14.375Z" fill="black" fill-opacity="0.2"/>
<path d="M25.3125 19.375C24.4509 19.375 23.75 18.6037 23.75 17.6562C23.75 16.7088 24.4509 15.9375 25.3125 15.9375C26.174 15.9375 26.875 16.7088 26.875 17.6562C26.875 18.6037 26.174 19.375 25.3125 19.375ZM25.3125 16.5625C24.7956 16.5625 24.375 17.0531 24.375 17.6562C24.375 18.2594 24.7956 18.75 25.3125 18.75C25.8294 18.75 26.25 18.2594 26.25 17.6562C26.25 17.0531 25.8294 16.5625 25.3125 16.5625Z" fill="#EC3237"/>
<path d="M25.3125 19.375C24.4509 19.375 23.75 18.6037 23.75 17.6562C23.75 16.7088 24.4509 15.9375 25.3125 15.9375C26.174 15.9375 26.875 16.7088 26.875 17.6562C26.875 18.6037 26.174 19.375 25.3125 19.375ZM25.3125 16.5625C24.7956 16.5625 24.375 17.0531 24.375 17.6562C24.375 18.2594 24.7956 18.75 25.3125 18.75C25.8294 18.75 26.25 18.2594 26.25 17.6562C26.25 17.0531 25.8294 16.5625 25.3125 16.5625Z" fill="black" fill-opacity="0.2"/>
<path d="M24.8437 30.1562H24.375C24.2025 30.1562 24.0625 30.0166 24.0625 29.8438V27.0312C24.0625 26.8584 24.2025 26.7188 24.375 26.7188H24.8437C25.9722 26.7188 26.5625 27.5834 26.5625 28.4375C26.5625 28.8825 26.4097 29.2997 26.1322 29.6119C25.8153 29.9678 25.37 30.1562 24.8437 30.1562ZM24.6875 29.5312H24.8437C25.1862 29.5312 25.4703 29.4156 25.6647 29.1969C25.8381 29.0019 25.9375 28.725 25.9375 28.4375C25.9375 27.8931 25.5994 27.3438 24.8437 27.3438H24.6875V29.5312Z" fill="#EC3237"/>
<path d="M24.8437 30.1562H24.375C24.2025 30.1562 24.0625 30.0166 24.0625 29.8438V27.0312C24.0625 26.8584 24.2025 26.7188 24.375 26.7188H24.8437C25.9722 26.7188 26.5625 27.5834 26.5625 28.4375C26.5625 28.8825 26.4097 29.2997 26.1322 29.6119C25.8153 29.9678 25.37 30.1562 24.8437 30.1562ZM24.6875 29.5312H24.8437C25.1862 29.5312 25.4703 29.4156 25.6647 29.1969C25.8381 29.0019 25.9375 28.725 25.9375 28.4375C25.9375 27.8931 25.5994 27.3438 24.8437 27.3438H24.6875V29.5312Z" fill="black" fill-opacity="0.2"/>
<path d="M32.4134 7.60667C32.3022 7.47448 32.3194 7.27761 32.4512 7.16636C33.0444 6.66698 33.1209 5.77823 32.6215 5.18479C32.5103 5.05292 32.5275 4.85573 32.6594 4.74448C32.7915 4.63323 32.9884 4.65042 33.0997 4.78229C33.599 5.37542 34.4878 5.45198 35.0812 4.95261C35.2131 4.84136 35.4103 4.85854 35.5215 4.99042C35.6328 5.12229 35.6156 5.31948 35.4837 5.43073C34.8906 5.93011 34.814 6.81886 35.3134 7.41229C35.4247 7.54417 35.4075 7.74136 35.2756 7.85261C35.1434 7.96386 34.9465 7.94667 34.8353 7.81479C34.3359 7.22167 33.4472 7.14511 32.8537 7.64448C32.7219 7.75573 32.5247 7.73886 32.4134 7.60667Z" fill="#FEDF89"/>
<path d="M34.6715 6.83125C34.5009 6.83125 34.3615 6.69407 34.3594 6.52313C34.3565 6.305 34.3887 6.09125 34.4531 5.88844C34.1525 5.93 33.8459 5.90344 33.5565 5.81094C33.5812 5.98969 33.5819 6.17219 33.5575 6.35375C33.5347 6.52469 33.3772 6.64563 33.2062 6.62188C33.0353 6.59907 32.915 6.44156 32.9381 6.27063C32.9909 5.87563 32.8787 5.49031 32.6219 5.185C32.5109 5.05281 32.5278 4.85563 32.6597 4.74469C32.7912 4.63313 32.9887 4.65 33.1 4.78219L33.1003 4.78281C33.5997 5.37469 34.4869 5.45156 35.0803 4.95344L35.0815 4.9525C35.2131 4.84125 35.4106 4.8575 35.5219 4.99031C35.6328 5.12219 35.6159 5.31938 35.484 5.43032L35.4834 5.43094C35.1606 5.70281 34.9787 6.09782 34.9844 6.51438C34.9865 6.68719 34.8484 6.82875 34.6759 6.83125C34.6744 6.83125 34.6731 6.83125 34.6715 6.83125Z" fill="#EC3237"/>
<path d="M34.6715 6.83125C34.5009 6.83125 34.3615 6.69407 34.3594 6.52313C34.3565 6.305 34.3887 6.09125 34.4531 5.88844C34.1525 5.93 33.8459 5.90344 33.5565 5.81094C33.5812 5.98969 33.5819 6.17219 33.5575 6.35375C33.5347 6.52469 33.3772 6.64563 33.2062 6.62188C33.0353 6.59907 32.915 6.44156 32.9381 6.27063C32.9909 5.87563 32.8787 5.49031 32.6219 5.185C32.5109 5.05281 32.5278 4.85563 32.6597 4.74469C32.7912 4.63313 32.9887 4.65 33.1 4.78219L33.1003 4.78281C33.5997 5.37469 34.4869 5.45156 35.0803 4.95344L35.0815 4.9525C35.2131 4.84125 35.4106 4.8575 35.5219 4.99031C35.6328 5.12219 35.6159 5.31938 35.484 5.43032L35.4834 5.43094C35.1606 5.70281 34.9787 6.09782 34.9844 6.51438C34.9865 6.68719 34.8484 6.82875 34.6759 6.83125C34.6744 6.83125 34.6731 6.83125 34.6715 6.83125Z" fill="black" fill-opacity="0.05"/>
<path d="M35.3056 33.4037C35.2381 34.0041 34.6965 34.4359 34.0962 34.3681C33.4959 34.3003 33.064 33.7591 33.1319 33.1588C33.1997 32.5584 33.7409 32.1269 34.3412 32.1944C34.9415 32.2619 35.3734 32.8034 35.3056 33.4037Z" fill="#F2E593"/>
<path d="M34.2165 34.6878C34.1656 34.6878 34.1147 34.685 34.0628 34.6797C33.4772 34.6091 32.9922 34.1816 32.8528 33.6156C32.8115 33.4481 32.914 33.2787 33.0815 33.2375C33.25 33.195 33.4187 33.2984 33.46 33.4659C33.5375 33.7812 33.8087 34.0194 34.1344 34.0584C34.5575 34.1056 34.9469 33.7953 34.9959 33.3672C35.0425 32.9412 34.7328 32.5531 34.3053 32.5037C34.2878 32.5025 34.2628 32.4997 34.2378 32.4997C34.0653 32.4997 33.9253 32.36 33.9253 32.1872C33.9253 32.0144 34.0653 31.8747 34.2378 31.8747C34.2812 31.8747 34.3244 31.8781 34.3681 31.8819C35.1447 31.9709 35.7012 32.6681 35.6172 33.4366C35.5344 34.1553 34.9222 34.6878 34.2165 34.6878Z" fill="#3E4095"/>
<path d="M34.2165 34.6878C34.1656 34.6878 34.1147 34.685 34.0628 34.6797C33.4772 34.6091 32.9922 34.1816 32.8528 33.6156C32.8115 33.4481 32.914 33.2787 33.0815 33.2375C33.25 33.195 33.4187 33.2984 33.46 33.4659C33.5375 33.7812 33.8087 34.0194 34.1344 34.0584C34.5575 34.1056 34.9469 33.7953 34.9959 33.3672C35.0425 32.9412 34.7328 32.5531 34.3053 32.5037C34.2878 32.5025 34.2628 32.4997 34.2378 32.4997C34.0653 32.4997 33.9253 32.36 33.9253 32.1872C33.9253 32.0144 34.0653 31.8747 34.2378 31.8747C34.2812 31.8747 34.3244 31.8781 34.3681 31.8819C35.1447 31.9709 35.7012 32.6681 35.6172 33.4366C35.5344 34.1553 34.9222 34.6878 34.2165 34.6878Z" fill="black" fill-opacity="0.2"/>
</svg>
