<svg width="55" height="64" viewBox="0 0 55 64" fill="none" xmlns="http://www.w3.org/2000/svg">
<path d="M14.6094 9.57812V53.3281H11.3281V12.8594C11.3281 11.9516 11.6945 11.1313 12.2906 10.5406C12.8812 9.94453 13.7016 9.57812 14.6094 9.57812Z" fill="#3E4095"/>
<path d="M14.6094 9.57812V53.3281H11.3281V12.8594C11.3281 11.9516 11.6945 11.1313 12.2906 10.5406C12.8812 9.94453 13.7016 9.57812 14.6094 9.57812Z" fill="black" fill-opacity="0.2"/>
<path d="M42.5 50.0469H14.6094C12.797 50.0469 11.3281 51.5158 11.3281 53.3281C11.3281 55.1405 12.797 56.6094 14.6094 56.6094H42.5V50.0469Z" fill="#181818"/>
<path d="M42.5 50.0469H14.6094C12.797 50.0469 11.3281 51.5158 11.3281 53.3281C11.3281 55.1405 12.797 56.6094 14.6094 56.6094H42.5V50.0469Z" fill="white" fill-opacity="0.8"/>
<path d="M42.5 50.0469V53.3281H21.7188C19.9064 53.3281 18.4375 51.8592 18.4375 50.0469H42.5Z" fill="#181818"/>
<path d="M42.5 50.0469V53.3281H21.7188C19.9064 53.3281 18.4375 51.8592 18.4375 50.0469H42.5Z" fill="white" fill-opacity="0.75"/>
<path d="M46.1553 21.6094H42.1259C41.7284 21.6094 41.4062 21.2873 41.4062 20.8897V15.7666C41.4062 15.369 41.7284 15.0469 42.1259 15.0469H46.1553C46.5529 15.0469 46.875 15.369 46.875 15.7666V20.8897C46.875 21.2873 46.5529 21.6094 46.1553 21.6094Z" fill="#FEC84B"/>
<path d="M46.1553 46.2188H42.1259C41.7284 46.2188 41.4062 45.8966 41.4062 45.4991V40.9228C41.4062 40.5252 41.7284 40.2031 42.1259 40.2031H46.1553C46.5529 40.2031 46.875 40.5252 46.875 40.9228V45.4991C46.875 45.8966 46.5529 46.2188 46.1553 46.2188Z" fill="#039855"/>
<path d="M46.1553 34.1875H42.1259C41.7284 34.1875 41.4062 33.8654 41.4062 33.4678V28.8916C41.4062 28.494 41.7284 28.1719 42.1259 28.1719H46.1553C46.5529 28.1719 46.875 28.494 46.875 28.8916V33.4678C46.875 33.8654 46.5529 34.1875 46.1553 34.1875Z" fill="#4A66F4"/>
<path d="M42.1062 50.0469H14.6094V9.57812H40.8616C42.6723 9.57812 44.1406 11.0459 44.1406 12.8572V48.0125C44.1406 49.1363 43.2301 50.0469 42.1062 50.0469Z" fill="#EC3237"/>
<path d="M42.1062 50.0469H14.6094V9.57812H40.8616C42.6723 9.57812 44.1406 11.0459 44.1406 12.8572V48.0125C44.1406 49.1363 43.2301 50.0469 42.1062 50.0469Z" fill="black" fill-opacity="0.1"/>
<g opacity="0.7">
<path d="M44.1406 14.5V48.0125C44.1406 49.1314 43.2252 50.0469 42.1062 50.0469H18.4375C18.4375 47.9327 20.1514 46.2188 22.2656 46.2188H37.7312C38.8502 46.2188 39.7656 45.3033 39.7656 44.1844V18.875C39.7656 16.4589 41.7245 14.5 44.1406 14.5Z" fill="#EC3237"/>
<path d="M44.1406 14.5V48.0125C44.1406 49.1314 43.2252 50.0469 42.1062 50.0469H18.4375C18.4375 47.9327 20.1514 46.2188 22.2656 46.2188H37.7312C38.8502 46.2188 39.7656 45.3033 39.7656 44.1844V18.875C39.7656 16.4589 41.7245 14.5 44.1406 14.5Z" fill="white" fill-opacity="0.4"/>
</g>
<path d="M17.8906 53.3281V62.0781L19.2578 60.863L20.625 59.6478L21.9922 60.863L23.3594 62.0781V53.3281H17.8906Z" fill="#4A66F4"/>
<path d="M40.3125 53.875H15.7031C15.4013 53.875 15.1562 53.63 15.1562 53.3281C15.1562 53.0263 15.4013 52.7812 15.7031 52.7812H40.3125C40.6144 52.7812 40.8594 53.0263 40.8594 53.3281C40.8594 53.63 40.6144 53.875 40.3125 53.875Z" fill="white"/>
<path d="M29.3094 16.6875H36.5391C38.0211 16.6875 39.2188 17.8852 39.2188 19.3672V27.6797C39.2188 29.1617 38.0211 30.3594 36.5391 30.3594H21.1172C19.6352 30.3594 18.4375 29.1617 18.4375 27.6797V19.3672C18.4375 17.8852 19.6352 16.6875 21.1172 16.6875H26.575H29.3094Z" fill="white"/>
<g opacity="0.6">
<path d="M26.6406 30.3594C26.6406 28.8495 27.8651 27.625 29.375 27.625H33.8047C35.2845 27.625 36.4844 26.4252 36.4844 24.9453V24.3438C36.4844 22.8338 37.7088 21.6094 39.2188 21.6094V27.6797C39.2188 29.1595 38.0189 30.3594 36.5391 30.3594H26.6406Z" fill="#EC3237"/>
<path d="M26.6406 30.3594C26.6406 28.8495 27.8651 27.625 29.375 27.625H33.8047C35.2845 27.625 36.4844 26.4252 36.4844 24.9453V24.3438C36.4844 22.8338 37.7088 21.6094 39.2188 21.6094V27.6797C39.2188 29.1595 38.0189 30.3594 36.5391 30.3594H26.6406Z" fill="white" fill-opacity="0.4"/>
</g>
<path d="M9.1406 9.57815C8.97872 9.57815 8.81794 9.50651 8.71021 9.36925L6.99302 7.18175C6.80654 6.94386 6.8481 6.60042 7.08544 6.41393C7.32279 6.228 7.66677 6.26901 7.85326 6.50636L9.57044 8.69386C9.75693 8.93175 9.71536 9.27518 9.47802 9.46167C9.37849 9.53987 9.25927 9.57815 9.1406 9.57815Z" fill="#3E4095"/>
<path d="M6.37943 6.06176C6.21756 6.06176 6.05732 5.99012 5.94904 5.85285L2.69514 1.71301C2.50865 1.47512 2.54967 1.13168 2.78701 0.945197C3.0249 0.759259 3.36834 0.799181 3.55482 1.03707L6.80873 5.17692C6.99522 5.41426 6.9542 5.75824 6.71686 5.94473C6.61678 6.02348 6.49756 6.06176 6.37943 6.06176Z" fill="#FEDF89"/>
<path d="M11.8745 7.93751C11.5999 7.93751 11.3626 7.7308 11.332 7.4508L10.7851 2.52892C10.7517 2.22869 10.9677 1.95853 11.268 1.92517C11.5649 1.88908 11.8384 2.10728 11.8717 2.40806L12.4186 7.32994C12.452 7.63017 12.2359 7.90033 11.9357 7.93369C11.9149 7.93642 11.8947 7.93751 11.8745 7.93751Z" fill="#3E4095"/>
<path d="M7.50054 11.7656C7.48031 11.7656 7.46007 11.7645 7.43929 11.7623L2.51742 11.2155C2.21718 11.1821 2.00117 10.9119 2.03453 10.6117C2.06789 10.3115 2.34078 10.0938 2.63828 10.1288L7.56015 10.6757C7.86038 10.7091 8.0764 10.9792 8.04304 11.2794C8.01241 11.5589 7.77562 11.7656 7.50054 11.7656Z" fill="#3E4095"/>
<path d="M48.8596 58.6546C48.7371 58.6546 48.6135 58.6136 48.5118 58.5299L46.2642 56.676C46.0312 56.4835 45.9978 56.139 46.1903 55.906C46.3828 55.6731 46.7279 55.6397 46.9603 55.8322L49.208 57.6861C49.441 57.8786 49.4743 58.2231 49.2818 58.4561C49.1741 58.5868 49.0177 58.6546 48.8596 58.6546Z" fill="#3E4095"/>
<path d="M54.1206 63.0023C53.9975 63.0023 53.8745 62.9613 53.7722 62.8771L50.0206 59.7763C49.7877 59.5838 49.7554 59.2393 49.9474 59.0063C50.1399 58.7733 50.4844 58.7416 50.7174 58.933L54.4689 62.0338C54.7019 62.2263 54.7342 62.5709 54.5422 62.8038C54.4345 62.9345 54.2781 63.0023 54.1206 63.0023Z" fill="#FEDF89"/>
<path d="M45.871 63.6766C45.6424 63.6766 45.4296 63.5322 45.3525 63.3041L43.771 58.6114C43.6747 58.3254 43.8284 58.0148 44.1144 57.9185C44.3999 57.8223 44.7105 57.9754 44.8073 58.262L46.3888 62.9547C46.4851 63.2413 46.3314 63.5513 46.0454 63.6476C45.9874 63.6673 45.9289 63.6766 45.871 63.6766Z" fill="#3E4095"/>
<path d="M47.7494 54.3119C47.4727 54.3119 47.2354 54.103 47.2058 53.8219C47.1747 53.5217 47.3929 53.2526 47.6931 53.2215L52.6188 52.7085C52.9201 52.6768 53.1876 52.8955 53.2193 53.1958C53.2505 53.496 53.0322 53.7651 52.732 53.7962L47.8063 54.3092C47.7877 54.3108 47.768 54.3119 47.7494 54.3119Z" fill="#3E4095"/>
<path d="M3.60733 52.3558C3.40827 52.3558 3.21632 52.247 3.11952 52.0572L1.13382 48.1591C0.9971 47.89 1.10374 47.5608 1.3728 47.4235C1.64187 47.2857 1.97109 47.3935 2.10835 47.6625L4.09405 51.5607C4.23077 51.8297 4.12413 52.1589 3.85507 52.2962C3.77577 52.3372 3.69046 52.3558 3.60733 52.3558Z" fill="#EC3237"/>
<path d="M3.60733 52.3558C3.40827 52.3558 3.21632 52.247 3.11952 52.0572L1.13382 48.1591C0.9971 47.89 1.10374 47.5608 1.3728 47.4235C1.64187 47.2857 1.97109 47.3935 2.10835 47.6625L4.09405 51.5607C4.23077 51.8297 4.12413 52.1589 3.85507 52.2962C3.77577 52.3372 3.69046 52.3558 3.60733 52.3558Z" fill="black" fill-opacity="0.1"/>
<path d="M0.665149 51.3999C0.466087 51.3999 0.274134 51.2911 0.177337 51.1013C0.0406181 50.8323 0.147259 50.503 0.416321 50.3658L4.31445 48.3801C4.58405 48.2423 4.91273 48.3494 5.04999 48.6191C5.18671 48.8881 5.08007 49.2173 4.81101 49.3546L0.912883 51.3403C0.833586 51.3808 0.748274 51.3999 0.665149 51.3999Z" fill="#3E4095"/>
<path d="M4.75358 23.7378C4.63546 24.7883 3.68773 25.5436 2.63718 25.4255C1.58663 25.3073 0.83085 24.3596 0.949522 23.3091C1.06765 22.2585 2.01538 21.5027 3.06593 21.6214C4.11648 21.7401 4.87226 22.6873 4.75358 23.7378Z" fill="#FEDF89"/>
<path d="M2.85811 25.9855C2.76569 25.9855 2.67217 25.9806 2.57811 25.9696C1.23225 25.8154 0.257717 24.5954 0.404826 23.25C0.553029 21.9337 1.69928 20.9821 3.02654 21.0686C3.32787 21.0899 3.55483 21.3507 3.53404 21.6521C3.51272 21.9529 3.25131 22.1749 2.95053 22.1596C2.21936 22.1114 1.57459 22.6403 1.49201 23.3704C1.41053 24.1174 1.95248 24.7966 2.70061 24.8825C3.44217 24.9667 4.10006 24.4521 4.20233 23.7154C4.24444 23.4163 4.52006 23.2063 4.8192 23.2489C5.11834 23.2905 5.32725 23.5672 5.28569 23.8658C5.11397 25.1007 4.07436 25.9855 2.85811 25.9855Z" fill="#3E4095"/>
<path d="M25.2647 26.5307C25.0394 26.522 24.813 26.2573 24.5855 25.7361C24.4345 25.4004 24.3049 25.0126 24.1966 24.574C23.9856 24.6057 23.641 24.6369 23.1625 24.6681C22.7124 24.6998 22.3679 24.7365 22.1284 24.7791C21.9971 25.0925 21.7696 25.5639 21.4448 26.1933C21.3195 26.3984 21.1456 26.5007 20.9236 26.5007C20.7666 26.5007 20.6256 26.4471 20.5003 26.3404C20.3751 26.2338 20.3122 26.0976 20.3122 25.9325C20.3122 25.787 20.52 25.2943 20.9362 24.4543C20.8963 24.3662 20.8793 24.2836 20.8848 24.2065C20.8963 24.0698 21.0341 23.9632 21.2993 23.8861C21.7034 23.1855 22.1535 22.4593 22.6495 21.7073C23.3616 20.6278 23.8002 20.088 23.9653 20.088C24.2787 20.088 24.4876 20.2778 24.5931 20.6562C24.65 20.9614 24.7397 21.4186 24.8622 22.0278C25.0356 22.8481 25.2483 23.7865 25.4988 24.8436C25.5184 24.9235 25.5912 25.1116 25.7164 25.4075C25.8192 25.6525 25.8701 25.8362 25.8701 25.9587C25.8701 26.1239 25.8083 26.2622 25.6841 26.3732C25.5616 26.4837 25.4216 26.5362 25.2647 26.5307ZM23.6711 22.147C23.4491 22.5287 23.1428 23.0482 22.7523 23.7067C22.8803 23.6782 23.0799 23.6553 23.3506 23.6383C23.6695 23.6186 23.8702 23.6028 23.9527 23.5913C23.8849 23.2211 23.7909 22.7398 23.6711 22.147Z" fill="#3E4095"/>
<path d="M25.2647 26.5307C25.0394 26.522 24.813 26.2573 24.5855 25.7361C24.4345 25.4004 24.3049 25.0126 24.1966 24.574C23.9856 24.6057 23.641 24.6369 23.1625 24.6681C22.7124 24.6998 22.3679 24.7365 22.1284 24.7791C21.9971 25.0925 21.7696 25.5639 21.4448 26.1933C21.3195 26.3984 21.1456 26.5007 20.9236 26.5007C20.7666 26.5007 20.6256 26.4471 20.5003 26.3404C20.3751 26.2338 20.3122 26.0976 20.3122 25.9325C20.3122 25.787 20.52 25.2943 20.9362 24.4543C20.8963 24.3662 20.8793 24.2836 20.8848 24.2065C20.8963 24.0698 21.0341 23.9632 21.2993 23.8861C21.7034 23.1855 22.1535 22.4593 22.6495 21.7073C23.3616 20.6278 23.8002 20.088 23.9653 20.088C24.2787 20.088 24.4876 20.2778 24.5931 20.6562C24.65 20.9614 24.7397 21.4186 24.8622 22.0278C25.0356 22.8481 25.2483 23.7865 25.4988 24.8436C25.5184 24.9235 25.5912 25.1116 25.7164 25.4075C25.8192 25.6525 25.8701 25.8362 25.8701 25.9587C25.8701 26.1239 25.8083 26.2622 25.6841 26.3732C25.5616 26.4837 25.4216 26.5362 25.2647 26.5307ZM23.6711 22.147C23.4491 22.5287 23.1428 23.0482 22.7523 23.7067C22.8803 23.6782 23.0799 23.6553 23.3506 23.6383C23.6695 23.6186 23.8702 23.6028 23.9527 23.5913C23.8849 23.2211 23.7909 22.7398 23.6711 22.147Z" fill="white" fill-opacity="0.1"/>
<path d="M30.0586 24.5608C29.6654 24.5893 28.966 24.6035 27.9608 24.6035C27.7842 24.6035 27.6288 24.5636 27.4949 24.4837C27.3379 24.3869 27.2597 24.2557 27.2597 24.0905C27.2597 23.9254 27.3379 23.7941 27.4949 23.6973C27.6288 23.6148 27.7836 23.5732 27.9608 23.5732C28.1856 23.5732 28.523 23.5666 28.9736 23.5541C29.4237 23.5415 29.7611 23.5349 29.9864 23.5349C30.1631 23.5349 30.3178 23.5705 30.4518 23.6416C30.6224 23.7329 30.7083 23.868 30.7083 24.0473C30.7083 24.3591 30.4912 24.5297 30.0586 24.5608Z" fill="#3E4095"/>
<path d="M30.0586 24.5608C29.6654 24.5893 28.966 24.6035 27.9608 24.6035C27.7842 24.6035 27.6288 24.5636 27.4949 24.4837C27.3379 24.3869 27.2597 24.2557 27.2597 24.0905C27.2597 23.9254 27.3379 23.7941 27.4949 23.6973C27.6288 23.6148 27.7836 23.5732 27.9608 23.5732C28.1856 23.5732 28.523 23.5666 28.9736 23.5541C29.4237 23.5415 29.7611 23.5349 29.9864 23.5349C30.1631 23.5349 30.3178 23.5705 30.4518 23.6416C30.6224 23.7329 30.7083 23.868 30.7083 24.0473C30.7083 24.3591 30.4912 24.5297 30.0586 24.5608Z" fill="white" fill-opacity="0.1"/>
<path d="M37.1084 21.2971C36.9514 21.3939 36.7595 21.5181 36.5314 21.669C36.0502 22.025 35.4803 22.6375 34.8224 23.5059C34.3182 24.1841 33.814 24.8633 33.3098 25.5441L33.2928 25.5655C33.5006 25.56 34.0021 25.5398 34.7967 25.5059C35.4207 25.4774 35.9173 25.4632 36.2881 25.4632C36.6955 25.4632 36.9717 25.4791 37.1171 25.5102C37.4589 25.5846 37.6356 25.7481 37.6471 26.0013C37.6558 26.1895 37.5902 26.3377 37.4507 26.4454C37.331 26.5395 37.1871 26.5865 37.0192 26.5865C36.9367 26.5865 36.8125 26.5816 36.6474 26.5717C36.4822 26.5613 36.3581 26.557 36.2755 26.557C35.8424 26.557 35.1927 26.5679 34.3253 26.5892C33.458 26.6105 32.8078 26.6215 32.3752 26.6215C32.1898 26.6215 32.0378 26.5745 31.918 26.4804C31.784 26.3776 31.7173 26.2343 31.7173 26.0489C31.7173 25.8438 31.807 25.6005 31.9864 25.3183C32.0432 25.2302 32.204 25.0148 32.4692 24.673C32.9363 24.049 33.4049 23.4272 33.8747 22.8059C34.4331 22.0884 34.9559 21.5071 35.4426 21.0625C34.9985 21.0942 34.6589 21.1095 34.426 21.1095H32.7C32.6683 21.1095 32.6229 21.1117 32.5633 21.1161C32.5037 21.1205 32.4578 21.1227 32.4266 21.1227C32.2581 21.1227 32.116 21.0745 31.9995 20.9772C31.8682 20.8689 31.8031 20.724 31.8031 20.5413C31.8031 20.1514 32.0919 19.9562 32.6705 19.9562C32.8668 19.9562 33.1605 19.9682 33.5504 19.9923C33.9403 20.0163 34.234 20.0284 34.4303 20.0284C34.6496 20.0284 34.9778 20.0229 35.4153 20.0114C35.8522 19.9999 36.1803 19.9945 36.4002 19.9945C37.2489 19.9945 37.6733 20.1798 37.6733 20.5501C37.6722 20.7858 37.4841 21.0352 37.1084 21.2971Z" fill="#3E4095"/>
<path d="M37.1084 21.2971C36.9514 21.3939 36.7595 21.5181 36.5314 21.669C36.0502 22.025 35.4803 22.6375 34.8224 23.5059C34.3182 24.1841 33.814 24.8633 33.3098 25.5441L33.2928 25.5655C33.5006 25.56 34.0021 25.5398 34.7967 25.5059C35.4207 25.4774 35.9173 25.4632 36.2881 25.4632C36.6955 25.4632 36.9717 25.4791 37.1171 25.5102C37.4589 25.5846 37.6356 25.7481 37.6471 26.0013C37.6558 26.1895 37.5902 26.3377 37.4507 26.4454C37.331 26.5395 37.1871 26.5865 37.0192 26.5865C36.9367 26.5865 36.8125 26.5816 36.6474 26.5717C36.4822 26.5613 36.3581 26.557 36.2755 26.557C35.8424 26.557 35.1927 26.5679 34.3253 26.5892C33.458 26.6105 32.8078 26.6215 32.3752 26.6215C32.1898 26.6215 32.0378 26.5745 31.918 26.4804C31.784 26.3776 31.7173 26.2343 31.7173 26.0489C31.7173 25.8438 31.807 25.6005 31.9864 25.3183C32.0432 25.2302 32.204 25.0148 32.4692 24.673C32.9363 24.049 33.4049 23.4272 33.8747 22.8059C34.4331 22.0884 34.9559 21.5071 35.4426 21.0625C34.9985 21.0942 34.6589 21.1095 34.426 21.1095H32.7C32.6683 21.1095 32.6229 21.1117 32.5633 21.1161C32.5037 21.1205 32.4578 21.1227 32.4266 21.1227C32.2581 21.1227 32.116 21.0745 31.9995 20.9772C31.8682 20.8689 31.8031 20.724 31.8031 20.5413C31.8031 20.1514 32.0919 19.9562 32.6705 19.9562C32.8668 19.9562 33.1605 19.9682 33.5504 19.9923C33.9403 20.0163 34.234 20.0284 34.4303 20.0284C34.6496 20.0284 34.9778 20.0229 35.4153 20.0114C35.8522 19.9999 36.1803 19.9945 36.4002 19.9945C37.2489 19.9945 37.6733 20.1798 37.6733 20.5501C37.6722 20.7858 37.4841 21.0352 37.1084 21.2971Z" fill="white" fill-opacity="0.1"/>
<path d="M35.5219 40.2031H22.6812C21.8478 40.2031 21.1719 39.5272 21.1719 38.6937V37.8844C21.1719 37.0509 21.8478 36.375 22.6812 36.375H35.5219C36.3553 36.375 37.0312 37.0509 37.0312 37.8844V38.6937C37.0312 39.5272 36.3553 40.2031 35.5219 40.2031Z" fill="#FFFBB0"/>
<path d="M35.4289 5.12988C36.4843 5.12988 36.4865 3.48926 35.4289 3.48926C34.3734 3.48926 34.3718 5.12988 35.4289 5.12988Z" fill="#FEDF89"/>
<path d="M52.4799 12.1309C52.1933 12.2261 51.8838 12.0713 51.7887 11.7848C51.3605 10.4969 49.9648 9.79741 48.6769 10.2256C48.3904 10.3208 48.0808 10.166 47.9857 9.87944C47.8905 9.59288 48.0453 9.28335 48.3319 9.18819C49.6198 8.75999 50.3192 7.36437 49.891 6.07648C49.7958 5.78991 49.9506 5.48038 50.2372 5.38523C50.5237 5.29007 50.8333 5.44483 50.9284 5.7314C51.3566 7.01929 52.7522 7.71874 54.0401 7.29054C54.3267 7.19538 54.6362 7.35015 54.7314 7.63671C54.8265 7.92327 54.6712 8.2328 54.3852 8.32796C53.0973 8.75616 52.3979 10.1518 52.8261 11.4397C52.9218 11.7262 52.7665 12.0358 52.4799 12.1309Z" fill="#FEDF89"/>
<path d="M50.9148 10.4838C50.824 10.4838 50.7321 10.4614 50.6473 10.4138C50.0392 10.072 49.3392 10.0058 48.6769 10.2257C48.3909 10.3225 48.0808 10.1661 47.9857 9.8795C47.8905 9.59294 48.0453 9.28341 48.3319 9.18825C48.9564 8.98044 49.4623 8.54294 49.7565 7.95559C50.0507 7.36934 50.0983 6.7027 49.8915 6.07872L49.8905 6.07653C49.7953 5.78997 49.9506 5.48044 50.2372 5.38528C50.5237 5.28903 50.8333 5.44489 50.9284 5.73145C50.929 5.73255 50.929 5.73364 50.9295 5.73473C51.163 6.43419 51.6869 6.98489 52.3673 7.2452C52.6494 7.35348 52.7905 7.66958 52.6828 7.95176C52.5745 8.2345 52.2584 8.37505 51.9762 8.26731C51.6208 8.13114 51.2948 7.94083 51.0077 7.70622C50.9448 7.95942 50.8535 8.2077 50.7337 8.44669C50.6134 8.68731 50.4685 8.90989 50.3017 9.11278C50.6069 9.18825 50.9033 9.30473 51.1816 9.46114C51.4447 9.6088 51.5387 9.94239 51.3905 10.206C51.2916 10.3832 51.1056 10.4838 50.9148 10.4838Z" fill="#EC3237"/>
<path d="M50.9148 10.4838C50.824 10.4838 50.7321 10.4614 50.6473 10.4138C50.0392 10.072 49.3392 10.0058 48.6769 10.2257C48.3909 10.3225 48.0808 10.1661 47.9857 9.8795C47.8905 9.59294 48.0453 9.28341 48.3319 9.18825C48.9564 8.98044 49.4623 8.54294 49.7565 7.95559C50.0507 7.36934 50.0983 6.7027 49.8915 6.07872L49.8905 6.07653C49.7953 5.78997 49.9506 5.48044 50.2372 5.38528C50.5237 5.28903 50.8333 5.44489 50.9284 5.73145C50.929 5.73255 50.929 5.73364 50.9295 5.73473C51.163 6.43419 51.6869 6.98489 52.3673 7.2452C52.6494 7.35348 52.7905 7.66958 52.6828 7.95176C52.5745 8.2345 52.2584 8.37505 51.9762 8.26731C51.6208 8.13114 51.2948 7.94083 51.0077 7.70622C50.9448 7.95942 50.8535 8.2077 50.7337 8.44669C50.6134 8.68731 50.4685 8.90989 50.3017 9.11278C50.6069 9.18825 50.9033 9.30473 51.1816 9.46114C51.4447 9.6088 51.5387 9.94239 51.3905 10.206C51.2916 10.3832 51.1056 10.4838 50.9148 10.4838Z" fill="black" fill-opacity="0.1"/>
</svg>
