<svg width="18" height="20" viewBox="0 0 18 20" fill="none" xmlns="http://www.w3.org/2000/svg">
<path d="M16.5 8.3335C16.5 14.1668 9 19.1668 9 19.1668C9 19.1668 1.5 14.1668 1.5 8.3335C1.5 6.34437 2.29018 4.43672 3.6967 3.03019C5.10322 1.62367 7.01088 0.833496 9 0.833496C10.9891 0.833496 12.8968 1.62367 14.3033 3.03019C15.7098 4.43672 16.5 6.34437 16.5 8.3335Z" stroke="#181818" stroke-width="1.66667" stroke-linecap="round" stroke-linejoin="round"/>
<path d="M16.5 8.3335C16.5 14.1668 9 19.1668 9 19.1668C9 19.1668 1.5 14.1668 1.5 8.3335C1.5 6.34437 2.29018 4.43672 3.6967 3.03019C5.10322 1.62367 7.01088 0.833496 9 0.833496C10.9891 0.833496 12.8968 1.62367 14.3033 3.03019C15.7098 4.43672 16.5 6.34437 16.5 8.3335Z" stroke="white" stroke-opacity="0.6" stroke-width="1.66667" stroke-linecap="round" stroke-linejoin="round"/>
<path d="M9 10.8335C10.3807 10.8335 11.5 9.71421 11.5 8.3335C11.5 6.95278 10.3807 5.8335 9 5.8335C7.61929 5.8335 6.5 6.95278 6.5 8.3335C6.5 9.71421 7.61929 10.8335 9 10.8335Z" stroke="#181818" stroke-width="1.66667" stroke-linecap="round" stroke-linejoin="round"/>
<path d="M9 10.8335C10.3807 10.8335 11.5 9.71421 11.5 8.3335C11.5 6.95278 10.3807 5.8335 9 5.8335C7.61929 5.8335 6.5 6.95278 6.5 8.3335C6.5 9.71421 7.61929 10.8335 9 10.8335Z" stroke="white" stroke-opacity="0.6" stroke-width="1.66667" stroke-linecap="round" stroke-linejoin="round"/>
</svg>
