<svg width="32" height="32" viewBox="0 0 32 32" fill="none" xmlns="http://www.w3.org/2000/svg">
<rect width="32" height="32" rx="16" fill="#EC3237"/>
<rect width="32" height="32" rx="16" fill="black" fill-opacity="0.15"/>
<path d="M12.2963 15.2V12C12.2963 10.9391 12.6865 9.92172 13.3811 9.17157C14.0757 8.42143 15.0177 8 16 8C16.9823 8 17.9243 8.42143 18.6189 9.17157C19.3135 9.92172 19.7037 10.9391 19.7037 12V15.2M10.8148 15.2H21.1852C22.0034 15.2 22.6667 15.9163 22.6667 16.8V22.4C22.6667 23.2837 22.0034 24 21.1852 24H10.8148C9.99661 24 9.33333 23.2837 9.33333 22.4V16.8C9.33333 15.9163 9.99661 15.2 10.8148 15.2Z" stroke="#EC3237" stroke-width="2" stroke-linecap="round" stroke-linejoin="round"/>
<path d="M12.2963 15.2V12C12.2963 10.9391 12.6865 9.92172 13.3811 9.17157C14.0757 8.42143 15.0177 8 16 8C16.9823 8 17.9243 8.42143 18.6189 9.17157C19.3135 9.92172 19.7037 10.9391 19.7037 12V15.2M10.8148 15.2H21.1852C22.0034 15.2 22.6667 15.9163 22.6667 16.8V22.4C22.6667 23.2837 22.0034 24 21.1852 24H10.8148C9.99661 24 9.33333 23.2837 9.33333 22.4V16.8C9.33333 15.9163 9.99661 15.2 10.8148 15.2Z" stroke="white" stroke-opacity="0.6" stroke-width="2" stroke-linecap="round" stroke-linejoin="round"/>
</svg>
