<svg width="20" height="21" viewBox="0 0 20 21" fill="none" xmlns="http://www.w3.org/2000/svg">
<path d="M18.3333 5.02934C18.3333 4.11267 17.5833 3.36267 16.6667 3.36267H3.33333C2.41666 3.36267 1.66666 4.11267 1.66666 5.02934M18.3333 5.02934V15.0293C18.3333 15.946 17.5833 16.696 16.6667 16.696H3.33333C2.41666 16.696 1.66666 15.946 1.66666 15.0293V5.02934M18.3333 5.02934L10 10.8627L1.66666 5.02934" stroke="#181818" stroke-width="1.66667" stroke-linecap="round" stroke-linejoin="round"/>
<path d="M18.3333 5.02934C18.3333 4.11267 17.5833 3.36267 16.6667 3.36267H3.33333C2.41666 3.36267 1.66666 4.11267 1.66666 5.02934M18.3333 5.02934V15.0293C18.3333 15.946 17.5833 16.696 16.6667 16.696H3.33333C2.41666 16.696 1.66666 15.946 1.66666 15.0293V5.02934M18.3333 5.02934L10 10.8627L1.66666 5.02934" stroke="white" stroke-opacity="0.6" stroke-width="1.66667" stroke-linecap="round" stroke-linejoin="round"/>
</svg>
