<svg width="45" height="46" viewBox="0 0 45 46" fill="none" xmlns="http://www.w3.org/2000/svg">
<path d="M23.3433 15.9688C23.1262 15.9688 22.9317 15.8174 22.8848 15.5966C22.8314 15.3435 22.9936 15.095 23.2467 15.0411L28.8998 13.8505C29.1525 13.7966 29.4014 13.9597 29.4553 14.2124C29.5087 14.4655 29.3466 14.7139 29.0934 14.7679L23.4403 15.9585C23.408 15.9655 23.3752 15.9688 23.3433 15.9688Z" fill="black"/>
<path d="M22.875 14.5625C22.7494 14.5625 22.6247 14.5129 22.5323 14.4139C22.3556 14.2246 22.3664 13.9279 22.5553 13.7511L27.0366 9.56989C27.2264 9.39317 27.5222 9.40395 27.6994 9.59286C27.8761 9.78223 27.8653 10.0789 27.6764 10.2557L23.1952 14.4369C23.1042 14.5208 22.9894 14.5625 22.875 14.5625Z" fill="black"/>
<path d="M21 13.1563C20.9592 13.1563 20.9175 13.1507 20.8758 13.1399C20.6259 13.0714 20.4792 12.8136 20.5477 12.5638L21.3211 9.73722C21.3895 9.48738 21.6497 9.343 21.8967 9.40863C22.1466 9.47706 22.2938 9.73488 22.2253 9.98425L21.4514 12.8108C21.3952 13.0194 21.2063 13.1563 21 13.1563Z" fill="black"/>
<path d="M19.1255 14.5625C18.9605 14.5625 18.8002 14.4748 18.7148 14.3202L15.4992 8.50297C15.3741 8.27657 15.4561 7.9911 15.6825 7.86641C15.9089 7.74125 16.1948 7.82329 16.3195 8.05016L19.5352 13.8673C19.6608 14.0938 19.5783 14.3792 19.3519 14.5039C19.2802 14.5438 19.2023 14.5625 19.1255 14.5625Z" fill="black"/>
<path d="M18.6567 15.5C18.6314 15.5 18.6052 15.4981 18.5789 15.4934L13.8258 14.7012C13.5708 14.6586 13.3978 14.4172 13.4405 14.1622C13.4831 13.9067 13.7227 13.7318 13.98 13.7768L18.7331 14.569C18.9881 14.6117 19.1606 14.8531 19.1184 15.1081C19.0805 15.3373 18.8817 15.5 18.6567 15.5Z" fill="black"/>
<path d="M12.7969 15.0312C13.4441 15.0312 13.9688 14.5066 13.9688 13.8594C13.9688 13.2122 13.4441 12.6875 12.7969 12.6875C12.1497 12.6875 11.625 13.2122 11.625 13.8594C11.625 14.5066 12.1497 15.0312 12.7969 15.0312Z" fill="#3E4095"/>
<path d="M12.7969 15.0312C13.4441 15.0312 13.9688 14.5066 13.9688 13.8594C13.9688 13.2122 13.4441 12.6875 12.7969 12.6875C12.1497 12.6875 11.625 13.2122 11.625 13.8594C11.625 14.5066 12.1497 15.0312 12.7969 15.0312Z" fill="white" fill-opacity="0.25"/>
<path d="M15.1406 8.46875C16.0467 8.46875 16.7812 7.73422 16.7812 6.82812C16.7812 5.92203 16.0467 5.1875 15.1406 5.1875C14.2345 5.1875 13.5 5.92203 13.5 6.82812C13.5 7.73422 14.2345 8.46875 15.1406 8.46875Z" fill="#32D583"/>
<path d="M17.7188 33.3125C14.093 35.7631 12.1284 39.1864 13.5 44.5625H29.4375C30.2423 37.6091 29.0573 32.9755 25.2188 31.4375L17.7188 33.3125Z" fill="#3E4095"/>
<path d="M17.7188 33.3125C14.093 35.7631 12.1284 39.1864 13.5 44.5625H29.4375C30.2423 37.6091 29.0573 32.9755 25.2188 31.4375L17.7188 33.3125Z" fill="white" fill-opacity="0.35"/>
<g opacity="0.4">
<path d="M29.4375 44.5625H27.0938C27.8391 38.1172 26.8781 33.6641 23.6719 31.8219L25.2188 31.4375C29.0578 32.975 30.2438 37.6109 29.4375 44.5625Z" fill="#3E4095"/>
<path d="M29.4375 44.5625H27.0938C27.8391 38.1172 26.8781 33.6641 23.6719 31.8219L25.2188 31.4375C29.0578 32.975 30.2438 37.6109 29.4375 44.5625Z" fill="white" fill-opacity="0.25"/>
</g>
<path d="M5.91516 39.0865C5.68829 39.0865 5.48907 38.9215 5.45298 38.6899L4.87266 34.9854C4.83282 34.7299 5.00766 34.4899 5.26313 34.4501C5.5186 34.4135 5.75907 34.5846 5.79891 34.841L6.37922 38.5456C6.41907 38.801 6.24422 39.041 5.98876 39.0814C5.96391 39.0846 5.93954 39.0865 5.91516 39.0865Z" fill="#3E4095"/>
<path d="M3.7725 37.5241C3.54563 37.5241 3.34641 37.3587 3.31031 37.1276C3.27047 36.8721 3.44532 36.6321 3.70078 36.5918L7.40579 36.0119C7.66219 35.974 7.90125 36.1469 7.94157 36.4029C7.98188 36.6583 7.80657 36.8983 7.5511 36.9382L3.8461 37.518C3.82125 37.5222 3.79688 37.5241 3.7725 37.5241Z" fill="#0C4E92"/>
<path d="M28.2656 10.3438C28.9128 10.3438 29.4375 9.81908 29.4375 9.17188C29.4375 8.52467 28.9128 8 28.2656 8C27.6184 8 27.0938 8.52467 27.0938 9.17188C27.0938 9.81908 27.6184 10.3438 28.2656 10.3438Z" fill="#FEC84B"/>
<path d="M35.4595 4.28422V3.13484L34.4259 2.92813C34.3706 2.74016 34.297 2.55969 34.2047 2.39094L34.7888 1.51531L33.9759 0.7025L33.1003 1.28656C32.9316 1.19422 32.7511 1.12062 32.5631 1.06531L32.3559 0.03125H31.2066L30.9998 1.06484C30.8119 1.12016 30.6314 1.19375 30.4627 1.28609L29.587 0.702031L28.7742 1.51484L29.3583 2.39047C29.2659 2.55922 29.1923 2.73969 29.137 2.92766L28.1034 3.13438V4.28375L29.137 4.49047C29.1923 4.67844 29.2659 4.85891 29.3583 5.02766L28.7742 5.90328L29.587 6.71609L30.4627 6.13203C30.6314 6.22438 30.8119 6.29797 30.9998 6.35328L31.2066 7.38688H32.3559L32.5627 6.35328C32.7506 6.29797 32.9311 6.22438 33.0998 6.13203L33.9755 6.71609L34.7883 5.90328L34.2047 5.02813C34.297 4.85938 34.3706 4.67891 34.4259 4.49094L35.4595 4.28422Z" fill="#EC3237"/>
<path d="M35.4595 4.28422V3.13484L34.4259 2.92813C34.3706 2.74016 34.297 2.55969 34.2047 2.39094L34.7888 1.51531L33.9759 0.7025L33.1003 1.28656C32.9316 1.19422 32.7511 1.12062 32.5631 1.06531L32.3559 0.03125H31.2066L30.9998 1.06484C30.8119 1.12016 30.6314 1.19375 30.4627 1.28609L29.587 0.702031L28.7742 1.51484L29.3583 2.39047C29.2659 2.55922 29.1923 2.73969 29.137 2.92766L28.1034 3.13438V4.28375L29.137 4.49047C29.1923 4.67844 29.2659 4.85891 29.3583 5.02766L28.7742 5.90328L29.587 6.71609L30.4627 6.13203C30.6314 6.22438 30.8119 6.29797 30.9998 6.35328L31.2066 7.38688H32.3559L32.5627 6.35328C32.7506 6.29797 32.9311 6.22438 33.0998 6.13203L33.9755 6.71609L34.7883 5.90328L34.2047 5.02813C34.297 4.85938 34.3706 4.67891 34.4259 4.49094L35.4595 4.28422Z" fill="black" fill-opacity="0.05"/>
<path d="M31.7813 4.85893C32.416 4.85893 32.9306 4.34434 32.9306 3.70956C32.9306 3.07477 32.416 2.56018 31.7813 2.56018C31.1465 2.56018 30.6319 3.07477 30.6319 3.70956C30.6319 4.34434 31.1465 4.85893 31.7813 4.85893Z" fill="white"/>
<path d="M21.9375 9.875C22.4553 9.875 22.875 9.45527 22.875 8.9375C22.875 8.41973 22.4553 8 21.9375 8C21.4197 8 21 8.41973 21 8.9375C21 9.45527 21.4197 9.875 21.9375 9.875Z" fill="#EC3237"/>
<path d="M21.9375 9.875C22.4553 9.875 22.875 9.45527 22.875 8.9375C22.875 8.41973 22.4553 8 21.9375 8C21.4197 8 21 8.41973 21 8.9375C21 9.45527 21.4197 9.875 21.9375 9.875Z" fill="white" fill-opacity="0.4"/>
<path d="M29.9062 15.0312C30.424 15.0312 30.8438 14.6115 30.8438 14.0938C30.8438 13.576 30.424 13.1562 29.9062 13.1562C29.3885 13.1562 28.9688 13.576 28.9688 14.0938C28.9688 14.6115 29.3885 15.0312 29.9062 15.0312Z" fill="#32D583"/>
<path d="M18.1875 30.5V34.25C20.5411 34.8664 22.7587 34.468 24.75 32.375V23.4688L18.1875 30.5Z" fill="#FCCAB1"/>
<path d="M24.75 23.4688V30.0312C22.7578 32.1219 20.5406 32.5203 18.1875 31.9062V30.5L24.75 23.4688Z" fill="#F7CF9F"/>
<path d="M20.5312 18.3125C22.0846 18.3125 23.3438 17.0533 23.3438 15.5C23.3438 13.9467 22.0846 12.6875 20.5312 12.6875C18.9779 12.6875 17.7188 13.9467 17.7188 15.5C17.7188 17.0533 18.9779 18.3125 20.5312 18.3125Z" fill="#EC3237"/>
<path d="M20.5312 18.3125C22.0846 18.3125 23.3438 17.0533 23.3438 15.5C23.3438 13.9467 22.0846 12.6875 20.5312 12.6875C18.9779 12.6875 17.7188 13.9467 17.7188 15.5C17.7188 17.0533 18.9779 18.3125 20.5312 18.3125Z" fill="black" fill-opacity="0.05"/>
<g opacity="0.6">
<path d="M24.75 23.4688V30.0312C22.7578 32.1219 20.5406 32.5203 18.1875 31.9062V30.5L24.75 23.4688Z" fill="#EA9E7D"/>
</g>
<path d="M13.0312 16.9062H14.8406C14.6766 19.4891 14.2219 22.9109 12.9984 25.5266H11.2453C11.0203 25.5266 10.8891 25.2875 11.0109 25.1047C13.0312 22.2453 13.0312 16.9062 13.0312 16.9062Z" fill="#F7CF9F"/>
<path d="M23.7281 26.0328C23.7281 26.0375 23.7281 26.0422 23.7234 26.0469C23.5594 26.1547 23.4375 26.2297 23.3766 26.2625L23.7281 26.0328Z" fill="#F7CF9F"/>
<path d="M20.5312 16.4375C21.049 16.4375 21.4688 16.0178 21.4688 15.5C21.4688 14.9822 21.049 14.5625 20.5312 14.5625C20.0135 14.5625 19.5938 14.9822 19.5938 15.5C19.5938 16.0178 20.0135 16.4375 20.5312 16.4375Z" fill="white"/>
<path d="M23.8125 28.1562L21.4687 25.0297L15.375 16.9062H28.9687C29.6203 23.4313 26.8453 25.9484 23.8125 28.1562Z" fill="#464045"/>
<g opacity="0.4">
<path d="M23.8125 28.1562L21.4688 25.0297C23.1609 22.4328 24.1781 19.5359 24.7875 16.9062H28.9687C29.6203 23.4313 26.8453 25.9484 23.8125 28.1562Z" fill="#282628"/>
</g>
<path d="M26.4187 22.625C26.4141 22.6766 26.4047 22.7281 26.3953 22.7797C26.3953 22.7844 26.3953 22.7891 26.3906 22.7938C26.3812 22.8453 26.3719 22.8922 26.3578 22.9438C26.3391 23.0328 26.3109 23.1172 26.2781 23.2063C26.2547 23.2719 26.2312 23.3375 26.2031 23.3984C26.1422 23.5484 26.0672 23.6938 25.9781 23.8391C25.95 23.8859 25.9219 23.9328 25.8891 23.9797C25.8187 24.0875 25.7484 24.1906 25.6734 24.2891C25.5984 24.3922 25.5187 24.4859 25.4344 24.5797C25.2609 24.7859 25.0734 24.9734 24.8812 25.1469C24.7219 25.2922 24.5578 25.4281 24.4078 25.55C24.15 25.7563 23.9109 25.925 23.7234 26.0469C23.7234 26.0609 23.7187 26.0797 23.7094 26.0984C23.6859 26.2109 23.6531 26.3187 23.6203 26.4312C23.6062 26.4687 23.5969 26.5063 23.5828 26.5391C23.4 27.0734 23.1187 27.5984 22.7625 28.0906C22.6875 28.1938 22.6125 28.2922 22.5328 28.3906C22.4437 28.5031 22.3453 28.6156 22.2469 28.7281C22.1766 28.8078 22.1016 28.8828 22.0266 28.9578C21.7594 29.2297 21.4687 29.4828 21.1594 29.7078C21.0656 29.7828 20.9672 29.8484 20.8687 29.9141C20.3766 30.2469 19.8469 30.5141 19.3031 30.6969C19.1859 30.7344 19.0687 30.7672 18.9516 30.8C18.5437 30.9125 18.1266 30.9688 17.7187 30.9688H14.2125C13.5984 30.9688 13.0922 30.5141 13.0359 29.9328C13.0312 29.9 13.0312 29.8625 13.0312 29.825V25.5266H11.2453C11.0203 25.5266 10.8891 25.2875 11.0109 25.1047C13.0312 22.2453 13.0312 16.9062 13.0312 16.9062H17.7187C21 16.9062 18.6562 22.5312 22.875 22.5312C22.875 22.5312 24.2812 18.7812 26.1562 21.125C26.4141 21.6453 26.4844 22.1469 26.4187 22.625Z" fill="#FCCAB1"/>
<g opacity="0.4">
<path d="M15.4734 30.9688H16.3031C16.0359 30.9922 15.7594 30.9969 15.4734 30.9688Z" fill="#EA9E7D"/>
</g>
<g opacity="0.4">
<path d="M26.4187 22.6251C26.4141 22.6766 26.4047 22.7282 26.3953 22.7797C26.3953 22.7844 26.3953 22.7891 26.3906 22.7938C26.3812 22.8454 26.3719 22.8922 26.3578 22.9438C26.3391 23.0329 26.3109 23.1172 26.2781 23.2063C26.2547 23.2719 26.2312 23.3376 26.2031 23.3985C26.1422 23.5485 26.0672 23.6938 25.9781 23.8391C25.95 23.886 25.9219 23.9329 25.8891 23.9797C25.8187 24.0876 25.7484 24.1907 25.6734 24.2891C25.5984 24.3922 25.5187 24.486 25.4344 24.5797C25.2609 24.786 25.0734 24.9735 24.8812 25.1469C24.7219 25.2922 24.5578 25.4282 24.4078 25.5501C24.15 25.7563 23.9109 25.9251 23.7234 26.0469C23.7234 26.061 23.7187 26.0797 23.7094 26.0985C23.6859 26.211 23.6531 26.3188 23.6203 26.4313C23.6062 26.4688 23.5969 26.5063 23.5828 26.5391C23.4 27.0735 23.1188 27.5985 22.7625 28.0907C22.6875 28.1938 22.6125 28.2922 22.5328 28.3907C22.4437 28.5032 22.3453 28.6157 22.2469 28.7282C22.1766 28.8079 22.1016 28.8829 22.0266 28.9579C21.7594 29.2297 21.4687 29.4829 21.1594 29.7079C21.0656 29.7829 20.9672 29.8485 20.8688 29.9141C20.3766 30.2469 19.8469 30.5141 19.3031 30.6969C19.1859 30.7344 19.0688 30.7672 18.9516 30.8001C18.5438 30.9126 18.1266 30.9688 17.7187 30.9688H16.3125C20.1141 30.6219 22.2891 25.6579 22.9734 22.3016C23.3156 21.5282 24.5672 19.1422 26.1562 21.1251C26.4141 21.6454 26.4844 22.1469 26.4187 22.6251Z" fill="#EA9E7D"/>
</g>
<path d="M15.7266 28.2781C15.3047 29.5016 14.0156 29.9328 13.0359 29.9328C13.0312 29.9 13.0313 29.8625 13.0313 29.825V29.1922C13.8234 29.1922 14.7516 28.8359 15.0234 28.0344C15.0891 27.8422 15.3 27.7391 15.4969 27.8047C15.6891 27.8703 15.7922 28.0812 15.7266 28.2781Z" fill="#464045"/>
<path d="M32.7188 35.6562C32.6606 35.6562 32.602 35.6459 32.5448 35.6229C32.3044 35.5268 32.1872 35.254 32.2833 35.0136L33.1505 32.8432C33.2466 32.6028 33.5189 32.4856 33.7598 32.5817C34.0003 32.6778 34.1175 32.9506 34.0214 33.1911L33.1542 35.3614C33.0806 35.5446 32.9044 35.6562 32.7188 35.6562Z" fill="#3E4095"/>
<path d="M34.2891 31.7234C34.2309 31.7234 34.1719 31.7131 34.1147 31.6902C33.8742 31.5936 33.7575 31.3208 33.8536 31.0803L36.0333 25.6381C36.1298 25.3977 36.4027 25.2809 36.6431 25.377C36.8836 25.4736 37.0003 25.7464 36.9042 25.9869L34.7245 31.4291C34.6505 31.6123 34.4747 31.7234 34.2891 31.7234Z" fill="#FEDF89"/>
<path d="M34.1255 36.5937C33.9858 36.5937 33.8475 36.5314 33.7552 36.4128C33.5958 36.2079 33.6328 35.9136 33.8372 35.7551L38.0559 32.4739C38.2613 32.3145 38.5552 32.352 38.7136 32.5559C38.873 32.7608 38.8359 33.0551 38.6316 33.2136L34.4128 36.4948C34.3275 36.5619 34.2258 36.5937 34.1255 36.5937Z" fill="#3E4095"/>
<path d="M31.028 34.7797C30.8016 34.7797 30.6023 34.6152 30.5658 34.3846L29.7281 29.1064C29.6873 28.8505 29.8617 28.6105 30.1172 28.5697C30.3769 28.5275 30.6131 28.7033 30.6539 28.9588L31.4916 34.2369C31.5324 34.4929 31.358 34.7333 31.1025 34.7736C31.0767 34.7779 31.0519 34.7797 31.028 34.7797Z" fill="#3E4095"/>
<path d="M7.43438 24.313C7.30922 24.313 7.185 24.2638 7.09266 24.1654L5.49281 22.461C5.31563 22.2721 5.325 21.9754 5.51391 21.7982C5.70281 21.6215 5.99906 21.6304 6.17672 21.8193L7.77656 23.5236C7.95375 23.7126 7.94437 24.0093 7.75547 24.1865C7.665 24.2708 7.54969 24.313 7.43438 24.313Z" fill="#3E4095"/>
<path d="M4.53516 21.2263C4.41 21.2263 4.28531 21.1766 4.19344 21.0782L0.184219 16.8008C0.00703178 16.6124 0.0164068 16.3157 0.205313 16.1385C0.394688 15.9618 0.690938 15.9716 0.867657 16.1601L4.87687 20.4374C5.05406 20.6258 5.04422 20.9226 4.85578 21.0997C4.76531 21.1841 4.65047 21.2263 4.53516 21.2263Z" fill="#FEDF89"/>
<path d="M8.87859 23.4351C8.66484 23.4351 8.47172 23.2879 8.42203 23.0708L7.23375 17.8602C7.17656 17.6076 7.33406 17.3563 7.58672 17.2991C7.8389 17.241 8.09015 17.3994 8.14781 17.6516L9.33609 22.8622C9.39375 23.1149 9.23578 23.3662 8.98312 23.4233C8.94843 23.4313 8.91328 23.4351 8.87859 23.4351Z" fill="#3E4095"/>
<path d="M5.92547 25.4737C5.88281 25.4737 5.83922 25.4676 5.79609 25.4554L0.659061 23.9817C0.410155 23.9104 0.266248 23.6507 0.337498 23.4023C0.408748 23.1529 0.668904 23.0099 0.917342 23.0807L6.05437 24.5549C6.30328 24.6262 6.44718 24.8859 6.37593 25.1343C6.31687 25.3401 6.12937 25.4737 5.92547 25.4737Z" fill="#3E4095"/>
<path d="M16.073 22.0793C15.4856 22.0793 14.8027 21.8018 14.0817 20.9609C13.9134 20.7645 13.9359 20.4687 14.1323 20.3004C14.3283 20.1317 14.625 20.1542 14.7933 20.351C15.7678 21.4878 16.4302 21.1985 16.95 20.7645C17.1488 20.599 17.4441 20.6257 17.61 20.8245C17.7755 21.0237 17.7488 21.3195 17.55 21.485C17.2116 21.7671 16.6959 22.0793 16.073 22.0793Z" fill="#464045"/>
<path d="M22.8745 45.0313C22.6692 45.0313 22.4813 44.8958 22.4231 44.6886C21.7683 42.3345 21.7706 40.25 22.4316 38.3174C22.5155 38.0717 22.7817 37.9433 23.0269 38.0253C23.2716 38.1092 23.4028 38.3755 23.3189 38.6202C22.7217 40.3681 22.7241 42.2708 23.3273 44.4364C23.3962 44.6858 23.2505 44.9445 23.0016 45.0139C22.9589 45.0256 22.9163 45.0313 22.8745 45.0313Z" fill="#3E4095"/>
<path d="M22.8745 45.0313C22.6692 45.0313 22.4813 44.8958 22.4231 44.6886C21.7683 42.3345 21.7706 40.25 22.4316 38.3174C22.5155 38.0717 22.7817 37.9433 23.0269 38.0253C23.2716 38.1092 23.4028 38.3755 23.3189 38.6202C22.7217 40.3681 22.7241 42.2708 23.3273 44.4364C23.3962 44.6858 23.2505 44.9445 23.0016 45.0139C22.9589 45.0256 22.9163 45.0313 22.8745 45.0313Z" fill="white" fill-opacity="0.16"/>
<path d="M38.4947 18.0444C38.4441 17.7903 38.6086 17.5438 38.8627 17.4931C40.0031 17.2653 40.7461 16.1525 40.5183 15.0116C40.4677 14.7575 40.6322 14.5109 40.8863 14.4603C41.1403 14.4097 41.3869 14.5742 41.4375 14.8283C41.6653 15.9688 42.7781 16.7117 43.9191 16.4839C44.1731 16.4333 44.4197 16.5978 44.4703 16.8519C44.5209 17.1059 44.3564 17.3525 44.1023 17.4031C42.9619 17.6309 42.2189 18.7438 42.4467 19.8847C42.4973 20.1388 42.3328 20.3853 42.0788 20.4359C41.8247 20.4866 41.5781 20.322 41.5275 20.068C41.2997 18.9275 40.1869 18.1845 39.0459 18.4124C38.7923 18.463 38.5453 18.298 38.4947 18.0444Z" fill="#FEDF89"/>
<path d="M42.2484 18.7147C42.1744 18.7147 42.0989 18.6969 42.0281 18.6599C41.7998 18.5375 41.7131 18.2539 41.835 18.0252C41.9892 17.7369 42.1861 17.4791 42.4172 17.2592C41.9925 17.0956 41.6077 16.8392 41.2941 16.5088C41.1975 16.7614 41.0667 17.0024 40.9036 17.2231C40.7498 17.4308 40.4564 17.4758 40.2483 17.322C40.0402 17.1683 39.9956 16.8749 40.1494 16.6667C40.5037 16.1867 40.635 15.5989 40.5183 15.0125C40.5183 15.012 40.5183 15.0111 40.5183 15.0106C40.4677 14.7566 40.6322 14.51 40.8863 14.4594C41.1394 14.4064 41.3869 14.5738 41.4375 14.8274C41.5477 15.3805 41.8664 15.8567 42.3347 16.1694C42.8025 16.4816 43.3631 16.5927 43.9172 16.4834C43.9177 16.483 43.9181 16.483 43.9186 16.483C44.1708 16.4305 44.4192 16.5974 44.4703 16.8509C44.5209 17.1045 44.3564 17.3511 44.1028 17.4022C43.4817 17.5264 42.9572 17.9141 42.6628 18.4663C42.578 18.6247 42.4158 18.7147 42.2484 18.7147Z" fill="#EC3237"/>
<path d="M42.2484 18.7147C42.1744 18.7147 42.0989 18.6969 42.0281 18.6599C41.7998 18.5375 41.7131 18.2539 41.835 18.0252C41.9892 17.7369 42.1861 17.4791 42.4172 17.2592C41.9925 17.0956 41.6077 16.8392 41.2941 16.5088C41.1975 16.7614 41.0667 17.0024 40.9036 17.2231C40.7498 17.4308 40.4564 17.4758 40.2483 17.322C40.0402 17.1683 39.9956 16.8749 40.1494 16.6667C40.5037 16.1867 40.635 15.5989 40.5183 15.0125C40.5183 15.012 40.5183 15.0111 40.5183 15.0106C40.4677 14.7566 40.6322 14.51 40.8863 14.4594C41.1394 14.4064 41.3869 14.5738 41.4375 14.8274C41.5477 15.3805 41.8664 15.8567 42.3347 16.1694C42.8025 16.4816 43.3631 16.5927 43.9172 16.4834C43.9177 16.483 43.9181 16.483 43.9186 16.483C44.1708 16.4305 44.4192 16.5974 44.4703 16.8509C44.5209 17.1045 44.3564 17.3511 44.1028 17.4022C43.4817 17.5264 42.9572 17.9141 42.6628 18.4663C42.578 18.6247 42.4158 18.7147 42.2484 18.7147Z" fill="black" fill-opacity="0.05"/>
<path d="M36.9375 45.0312H5.0625C4.80375 45.0312 4.59375 44.8217 4.59375 44.5625C4.59375 44.3033 4.80375 44.0938 5.0625 44.0938H36.9375C37.1967 44.0938 37.4062 44.3033 37.4062 44.5625C37.4062 44.8217 37.1967 45.0312 36.9375 45.0312Z" fill="#181818"/>
<path d="M36.9375 45.0312H5.0625C4.80375 45.0312 4.59375 44.8217 4.59375 44.5625C4.59375 44.3033 4.80375 44.0938 5.0625 44.0938H36.9375C37.1967 44.0938 37.4062 44.3033 37.4062 44.5625C37.4062 44.8217 37.1967 45.0312 36.9375 45.0312Z" fill="white" fill-opacity="0.6"/>
<path d="M5.52094 2.32433C5.41922 3.2248 4.60735 3.87215 3.70688 3.7709C2.80641 3.66965 2.15906 2.8573 2.26032 1.95683C2.36157 1.05636 3.17391 0.408551 4.07438 0.51027C4.97485 0.611988 5.62266 1.42386 5.52094 2.32433Z" fill="#FEDF89"/>
<path d="M3.85781 4.25C3.79594 4.25 3.73969 4.24531 3.67875 4.24016C2.50219 4.10563 1.66734 3.05984 1.79344 1.90766C1.92562 0.752189 2.96578 -0.0803116 4.12453 0.0434384C4.90172 0.13672 5.56219 0.641095 5.85281 1.36063C5.95031 1.60063 5.83453 1.87391 5.59453 1.97094C5.35406 2.0675 5.08125 1.95266 4.98422 1.71219C4.82109 1.31 4.45078 1.02734 4.01719 0.975313C3.3825 0.906876 2.79844 1.37047 2.72484 2.01219C2.655 2.65109 3.11953 3.23328 3.76078 3.30734C3.79453 3.30922 3.82453 3.3125 3.85781 3.3125C4.11656 3.3125 4.32656 3.52203 4.32656 3.78125C4.32656 4.04047 4.11656 4.25 3.85781 4.25Z" fill="#3E4095"/>
</svg>
