<svg width="41" height="40" viewBox="0 0 41 40" fill="none" xmlns="http://www.w3.org/2000/svg">
<path d="M24.7291 30.625V35.625L24.1041 34.9312L23.4791 34.2375L22.8541 34.9312L22.2291 35.625V30.625H24.7291Z" fill="#EC3237"/>
<path d="M24.7291 30.625V35.625L24.1041 34.9312L23.4791 34.2375L22.8541 34.9312L22.2291 35.625V30.625H24.7291Z" fill="black" fill-opacity="0.1"/>
<g opacity="0.4">
<path d="M24.7291 30.625H22.2291V33.75H24.7291V30.625Z" fill="white"/>
</g>
<path d="M19.9729 9.0625H24.4198C26.1448 9.0625 27.5416 10.4594 27.5416 12.1844V29.6906C27.5416 31.4156 26.1448 32.8125 24.4198 32.8125H9.10413V9.0625H18.7135H19.9729Z" fill="#3E4095"/>
<path d="M19.9729 9.0625H24.4198C26.1448 9.0625 27.5416 10.4594 27.5416 12.1844V29.6906C27.5416 31.4156 26.1448 32.8125 24.4198 32.8125H9.10413V9.0625H18.7135H19.9729Z" fill="white" fill-opacity="0.6"/>
<g opacity="0.5">
<path d="M27.5416 12.1844V29.6906C27.5416 31.4156 26.1448 32.8125 24.4198 32.8125H9.10413V30.9375H22.2323C23.9573 30.9375 25.3541 29.5406 25.3541 27.8156V10.3094C25.3541 9.89688 25.2729 9.50313 25.1291 9.14375C26.5135 9.46563 27.5416 10.7031 27.5416 12.1844Z" fill="#3E4095"/>
<path d="M27.5416 12.1844V29.6906C27.5416 31.4156 26.1448 32.8125 24.4198 32.8125H9.10413V30.9375H22.2323C23.9573 30.9375 25.3541 29.5406 25.3541 27.8156V10.3094C25.3541 9.89688 25.2729 9.50313 25.1291 9.14375C26.5135 9.46563 27.5416 10.7031 27.5416 12.1844Z" fill="white" fill-opacity="0.16"/>
</g>
<path d="M12.2291 9.0625H9.10413V32.8125H12.2291V9.0625Z" fill="#3E4095"/>
<g opacity="0.4">
<path d="M12.2291 30.9375H9.10413V32.8125H12.2291V30.9375Z" fill="#3E4095"/>
<path d="M12.2291 30.9375H9.10413V32.8125H12.2291V30.9375Z" fill="black" fill-opacity="0.4"/>
</g>
<path d="M23.1723 19.375H16.286C15.426 19.375 14.7291 18.6781 14.7291 17.8181V15.6191C14.7291 14.7594 15.426 14.0625 16.286 14.0625H23.1726C24.0323 14.0625 24.7291 14.7594 24.7291 15.6194V17.8184C24.7291 18.6781 24.0323 19.375 23.1723 19.375Z" fill="white"/>
<g opacity="0.5">
<path d="M24.7291 15.6187V17.8188C24.7291 18.6781 24.0323 19.375 23.1729 19.375H21.6104C22.4698 19.375 23.1666 18.6781 23.1666 17.8188V15.6187C23.1666 14.7594 22.4698 14.0625 21.6104 14.0625H23.1729C24.0323 14.0625 24.7291 14.7594 24.7291 15.6187Z" fill="#181818"/>
<path d="M24.7291 15.6187V17.8188C24.7291 18.6781 24.0323 19.375 23.1729 19.375H21.6104C22.4698 19.375 23.1666 18.6781 23.1666 17.8188V15.6187C23.1666 14.7594 22.4698 14.0625 21.6104 14.0625H23.1729C24.0323 14.0625 24.7291 14.7594 24.7291 15.6187Z" fill="white" fill-opacity="0.8"/>
</g>
<path d="M10.3541 12.8125H8.16663C7.82131 12.8125 7.54163 12.5328 7.54163 12.1875C7.54163 11.8422 7.82131 11.5625 8.16663 11.5625H10.3541C10.6994 11.5625 10.9791 11.8422 10.9791 12.1875C10.9791 12.5328 10.6994 12.8125 10.3541 12.8125Z" fill="#3E4095"/>
<path d="M10.3541 12.8125H8.16663C7.82131 12.8125 7.54163 12.5328 7.54163 12.1875C7.54163 11.8422 7.82131 11.5625 8.16663 11.5625H10.3541C10.6994 11.5625 10.9791 11.8422 10.9791 12.1875C10.9791 12.5328 10.6994 12.8125 10.3541 12.8125Z" fill="black" fill-opacity="0.2"/>
<path d="M10.3541 17.1875H8.16663C7.82131 17.1875 7.54163 16.9078 7.54163 16.5625C7.54163 16.2172 7.82131 15.9375 8.16663 15.9375H10.3541C10.6994 15.9375 10.9791 16.2172 10.9791 16.5625C10.9791 16.9078 10.6994 17.1875 10.3541 17.1875Z" fill="#3E4095"/>
<path d="M10.3541 17.1875H8.16663C7.82131 17.1875 7.54163 16.9078 7.54163 16.5625C7.54163 16.2172 7.82131 15.9375 8.16663 15.9375H10.3541C10.6994 15.9375 10.9791 16.2172 10.9791 16.5625C10.9791 16.9078 10.6994 17.1875 10.3541 17.1875Z" fill="black" fill-opacity="0.2"/>
<path d="M10.3541 21.5625H8.16663C7.82131 21.5625 7.54163 21.2828 7.54163 20.9375C7.54163 20.5922 7.82131 20.3125 8.16663 20.3125H10.3541C10.6994 20.3125 10.9791 20.5922 10.9791 20.9375C10.9791 21.2828 10.6994 21.5625 10.3541 21.5625Z" fill="#3E4095"/>
<path d="M10.3541 21.5625H8.16663C7.82131 21.5625 7.54163 21.2828 7.54163 20.9375C7.54163 20.5922 7.82131 20.3125 8.16663 20.3125H10.3541C10.6994 20.3125 10.9791 20.5922 10.9791 20.9375C10.9791 21.2828 10.6994 21.5625 10.3541 21.5625Z" fill="black" fill-opacity="0.2"/>
<path d="M10.3541 25.9375H8.16663C7.82131 25.9375 7.54163 25.6578 7.54163 25.3125C7.54163 24.9672 7.82131 24.6875 8.16663 24.6875H10.3541C10.6994 24.6875 10.9791 24.9672 10.9791 25.3125C10.9791 25.6578 10.6994 25.9375 10.3541 25.9375Z" fill="#3E4095"/>
<path d="M10.3541 25.9375H8.16663C7.82131 25.9375 7.54163 25.6578 7.54163 25.3125C7.54163 24.9672 7.82131 24.6875 8.16663 24.6875H10.3541C10.6994 24.6875 10.9791 24.9672 10.9791 25.3125C10.9791 25.6578 10.6994 25.9375 10.3541 25.9375Z" fill="white" fill-opacity="0.1"/>
<path d="M10.3541 30.3125H8.16663C7.82131 30.3125 7.54163 30.0328 7.54163 29.6875C7.54163 29.3422 7.82131 29.0625 8.16663 29.0625H10.3541C10.6994 29.0625 10.9791 29.3422 10.9791 29.6875C10.9791 30.0328 10.6994 30.3125 10.3541 30.3125Z" fill="#3E4095"/>
<path d="M10.3541 30.3125H8.16663C7.82131 30.3125 7.54163 30.0328 7.54163 29.6875C7.54163 29.3422 7.82131 29.0625 8.16663 29.0625H10.3541C10.6994 29.0625 10.9791 29.3422 10.9791 29.6875C10.9791 30.0328 10.6994 30.3125 10.3541 30.3125Z" fill="white" fill-opacity="0.1"/>
<g opacity="0.5">
<path d="M10.9791 16.5625C10.9791 16.7344 10.9104 16.8906 10.7948 17.0031C10.6823 17.1187 10.526 17.1875 10.3541 17.1875H9.41663C9.5885 17.1875 9.74475 17.1187 9.85725 17.0031C9.97288 16.8906 10.0416 16.7344 10.0416 16.5625C10.0416 16.2188 9.76038 15.9375 9.41663 15.9375H10.3541C10.6979 15.9375 10.9791 16.2188 10.9791 16.5625Z" fill="#3E4095"/>
<path d="M10.9791 16.5625C10.9791 16.7344 10.9104 16.8906 10.7948 17.0031C10.6823 17.1187 10.526 17.1875 10.3541 17.1875H9.41663C9.5885 17.1875 9.74475 17.1187 9.85725 17.0031C9.97288 16.8906 10.0416 16.7344 10.0416 16.5625C10.0416 16.2188 9.76038 15.9375 9.41663 15.9375H10.3541C10.6979 15.9375 10.9791 16.2188 10.9791 16.5625Z" fill="white" fill-opacity="0.35"/>
<path d="M10.9791 12.1875C10.9791 12.3594 10.9104 12.5156 10.7948 12.6281C10.6823 12.7437 10.526 12.8125 10.3541 12.8125H9.41663C9.5885 12.8125 9.74475 12.7437 9.85725 12.6281C9.97288 12.5156 10.0416 12.3594 10.0416 12.1875C10.0416 11.8438 9.76038 11.5625 9.41663 11.5625H10.3541C10.6979 11.5625 10.9791 11.8438 10.9791 12.1875Z" fill="#3E4095"/>
<path d="M10.9791 12.1875C10.9791 12.3594 10.9104 12.5156 10.7948 12.6281C10.6823 12.7437 10.526 12.8125 10.3541 12.8125H9.41663C9.5885 12.8125 9.74475 12.7437 9.85725 12.6281C9.97288 12.5156 10.0416 12.3594 10.0416 12.1875C10.0416 11.8438 9.76038 11.5625 9.41663 11.5625H10.3541C10.6979 11.5625 10.9791 11.8438 10.9791 12.1875Z" fill="white" fill-opacity="0.35"/>
<path d="M10.9791 20.9375C10.9791 21.1094 10.9104 21.2656 10.7948 21.3781C10.6823 21.4938 10.526 21.5625 10.3541 21.5625H9.41663C9.5885 21.5625 9.74475 21.4938 9.85725 21.3781C9.97288 21.2656 10.0416 21.1094 10.0416 20.9375C10.0416 20.5938 9.76038 20.3125 9.41663 20.3125H10.3541C10.6979 20.3125 10.9791 20.5938 10.9791 20.9375Z" fill="#3E4095"/>
<path d="M10.9791 20.9375C10.9791 21.1094 10.9104 21.2656 10.7948 21.3781C10.6823 21.4938 10.526 21.5625 10.3541 21.5625H9.41663C9.5885 21.5625 9.74475 21.4938 9.85725 21.3781C9.97288 21.2656 10.0416 21.1094 10.0416 20.9375C10.0416 20.5938 9.76038 20.3125 9.41663 20.3125H10.3541C10.6979 20.3125 10.9791 20.5938 10.9791 20.9375Z" fill="white" fill-opacity="0.35"/>
<path d="M10.9791 25.3125C10.9791 25.4844 10.9104 25.6406 10.7948 25.7531C10.6823 25.8688 10.526 25.9375 10.3541 25.9375H9.41663C9.5885 25.9375 9.74475 25.8688 9.85725 25.7531C9.97288 25.6406 10.0416 25.4844 10.0416 25.3125C10.0416 24.9688 9.76038 24.6875 9.41663 24.6875H10.3541C10.6979 24.6875 10.9791 24.9688 10.9791 25.3125Z" fill="#3E4095"/>
<path d="M10.9791 25.3125C10.9791 25.4844 10.9104 25.6406 10.7948 25.7531C10.6823 25.8688 10.526 25.9375 10.3541 25.9375H9.41663C9.5885 25.9375 9.74475 25.8688 9.85725 25.7531C9.97288 25.6406 10.0416 25.4844 10.0416 25.3125C10.0416 24.9688 9.76038 24.6875 9.41663 24.6875H10.3541C10.6979 24.6875 10.9791 24.9688 10.9791 25.3125Z" fill="white" fill-opacity="0.35"/>
<path d="M10.9791 29.6875C10.9791 29.8594 10.9104 30.0156 10.7948 30.1281C10.6823 30.2438 10.526 30.3125 10.3541 30.3125H9.41663C9.5885 30.3125 9.74475 30.2438 9.85725 30.1281C9.97288 30.0156 10.0416 29.8594 10.0416 29.6875C10.0416 29.3438 9.76038 29.0625 9.41663 29.0625H10.3541C10.6979 29.0625 10.9791 29.3438 10.9791 29.6875Z" fill="#3E4095"/>
<path d="M10.9791 29.6875C10.9791 29.8594 10.9104 30.0156 10.7948 30.1281C10.6823 30.2438 10.526 30.3125 10.3541 30.3125H9.41663C9.5885 30.3125 9.74475 30.2438 9.85725 30.1281C9.97288 30.0156 10.0416 29.8594 10.0416 29.6875C10.0416 29.3438 9.76038 29.0625 9.41663 29.0625H10.3541C10.6979 29.0625 10.9791 29.3438 10.9791 29.6875Z" fill="white" fill-opacity="0.35"/>
</g>
<path d="M17.5416 30.3125H14.7291C14.5566 30.3125 14.4166 30.1728 14.4166 30C14.4166 29.8272 14.5566 29.6875 14.7291 29.6875H17.5416C17.7141 29.6875 17.8541 29.8272 17.8541 30C17.8541 30.1728 17.7141 30.3125 17.5416 30.3125Z" fill="#3E4095"/>
<path d="M17.5416 30.3125H14.7291C14.5566 30.3125 14.4166 30.1728 14.4166 30C14.4166 29.8272 14.5566 29.6875 14.7291 29.6875H17.5416C17.7141 29.6875 17.8541 29.8272 17.8541 30C17.8541 30.1728 17.7141 30.3125 17.5416 30.3125Z" fill="white" fill-opacity="0.35"/>
<path d="M19.7291 28.75H14.7291C14.5566 28.75 14.4166 28.6103 14.4166 28.4375C14.4166 28.2647 14.5566 28.125 14.7291 28.125H19.7291C19.9016 28.125 20.0416 28.2647 20.0416 28.4375C20.0416 28.6103 19.9016 28.75 19.7291 28.75Z" fill="white"/>
<path d="M6.31006 36.4153C6.28413 36.4153 6.25756 36.4122 6.23131 36.4053C6.06444 36.3619 5.96413 36.1909 6.00756 36.024L6.63725 33.6047C6.68069 33.4378 6.85069 33.3362 7.0185 33.3809C7.18538 33.4244 7.28569 33.5953 7.24225 33.7622L6.61256 36.1815C6.57569 36.3222 6.44881 36.4153 6.31006 36.4153Z" fill="#0C4E92"/>
<path d="M7.83445 35.5203C7.80851 35.5203 7.78195 35.5172 7.7557 35.5103L5.33633 34.8806C5.16945 34.8372 5.06914 34.6662 5.11258 34.4994C5.15601 34.3325 5.3257 34.2309 5.49383 34.2756L7.9132 34.9053C8.08008 34.9487 8.18039 35.1194 8.13695 35.2865C8.10008 35.4272 7.9732 35.5203 7.83445 35.5203Z" fill="#EC3237"/>
<path d="M7.83445 35.5203C7.80851 35.5203 7.78195 35.5172 7.7557 35.5103L5.33633 34.8806C5.16945 34.8372 5.06914 34.6662 5.11258 34.4994C5.15601 34.3325 5.3257 34.2309 5.49383 34.2756L7.9132 34.9053C8.08008 34.9487 8.18039 35.1194 8.13695 35.2865C8.10008 35.4272 7.9732 35.5203 7.83445 35.5203Z" fill="black" fill-opacity="0.2"/>
<path d="M17.8473 5.27875C17.7798 5.87906 17.2382 6.31062 16.6379 6.24312C16.0376 6.17562 15.6057 5.63406 15.6735 5.03375C15.7413 4.43343 16.2826 4.00156 16.8829 4.06937C17.4832 4.13718 17.9151 4.67843 17.8473 5.27875Z" fill="#FEDF89"/>
<path d="M16.7823 6.56249C16.7223 6.56249 16.6582 6.56156 16.5982 6.55374C15.8348 6.46624 15.2782 5.76906 15.3623 5.00062C15.4504 4.23031 16.1441 3.67531 16.9163 3.75781C17.4851 3.82499 17.9529 4.21937 18.1104 4.76281C18.1585 4.92843 18.0632 5.10187 17.8973 5.14968C17.7313 5.19812 17.5582 5.10281 17.5101 4.93656C17.4226 4.63499 17.1616 4.41593 16.8457 4.37874C16.4201 4.33218 16.0326 4.64249 15.9835 5.06999C15.9369 5.49593 16.2466 5.88406 16.6741 5.93343C16.7123 5.93874 16.7482 5.93718 16.7823 5.93749C16.9548 5.93749 17.0948 6.07718 17.0948 6.24999C17.0948 6.42281 16.9548 6.56249 16.7823 6.56249Z" fill="#3E4095"/>
<path d="M16.7823 6.56249C16.7223 6.56249 16.6582 6.56156 16.5982 6.55374C15.8348 6.46624 15.2782 5.76906 15.3623 5.00062C15.4504 4.23031 16.1441 3.67531 16.9163 3.75781C17.4851 3.82499 17.9529 4.21937 18.1104 4.76281C18.1585 4.92843 18.0632 5.10187 17.8973 5.14968C17.7313 5.19812 17.5582 5.10281 17.5101 4.93656C17.4226 4.63499 17.1616 4.41593 16.8457 4.37874C16.4201 4.33218 16.0326 4.64249 15.9835 5.06999C15.9369 5.49593 16.2466 5.88406 16.6741 5.93343C16.7123 5.93874 16.7482 5.93718 16.7823 5.93749C16.9548 5.93749 17.0948 6.07718 17.0948 6.24999C17.0948 6.42281 16.9548 6.56249 16.7823 6.56249Z" fill="white" fill-opacity="0.1"/>
<path d="M32.5416 23.75H29.7291V14.8438C29.7291 14.0672 30.3588 13.4375 31.1354 13.4375C31.9119 13.4375 32.5416 14.0672 32.5416 14.8438V23.75Z" fill="#3E4095"/>
<path d="M32.5416 23.75H29.7291V14.8438C29.7291 14.0672 30.3588 13.4375 31.1354 13.4375C31.9119 13.4375 32.5416 14.0672 32.5416 14.8438V23.75Z" fill="white" fill-opacity="0.16"/>
<g opacity="0.4">
<path d="M32.5416 14.8438V23.75H31.2916V14.8438C31.2916 14.4562 31.1354 14.1031 30.8791 13.85C30.7729 13.7406 30.6479 13.6531 30.5104 13.5844C30.6979 13.4906 30.9104 13.4375 31.1354 13.4375C31.5229 13.4375 31.876 13.5937 32.1291 13.85C32.3854 14.1031 32.5416 14.4562 32.5416 14.8438Z" fill="#3E4095"/>
<path d="M32.5416 14.8438V23.75H31.2916V14.8438C31.2916 14.4562 31.1354 14.1031 30.8791 13.85C30.7729 13.7406 30.6479 13.6531 30.5104 13.5844C30.6979 13.4906 30.9104 13.4375 31.1354 13.4375C31.5229 13.4375 31.876 13.5937 32.1291 13.85C32.3854 14.1031 32.5416 14.4562 32.5416 14.8438Z" fill="black" fill-opacity="0.2"/>
</g>
<path d="M32.1291 13.85C31.876 13.5937 31.5229 13.4375 31.1354 13.4375C30.3573 13.4375 29.7291 14.0656 29.7291 14.8438V16.25H32.5416V14.8438C32.5416 14.4562 32.3854 14.1031 32.1291 13.85Z" fill="#EC3237"/>
<path d="M32.1291 13.85C31.876 13.5937 31.5229 13.4375 31.1354 13.4375C30.3573 13.4375 29.7291 14.0656 29.7291 14.8438V16.25H32.5416V14.8438C32.5416 14.4562 32.3854 14.1031 32.1291 13.85Z" fill="white" fill-opacity="0.4"/>
<g opacity="0.4">
<path d="M32.5416 14.8438V16.25H31.2916V14.8438C31.2916 14.4562 31.1354 14.1031 30.8791 13.85C30.7729 13.7406 30.6479 13.6531 30.5104 13.5844C30.6979 13.4906 30.9104 13.4375 31.1354 13.4375C31.5229 13.4375 31.876 13.5937 32.1291 13.85C32.3854 14.1031 32.5416 14.4562 32.5416 14.8438Z" fill="#EC3237"/>
<path d="M32.5416 14.8438V16.25H31.2916V14.8438C31.2916 14.4562 31.1354 14.1031 30.8791 13.85C30.7729 13.7406 30.6479 13.6531 30.5104 13.5844C30.6979 13.4906 30.9104 13.4375 31.1354 13.4375C31.5229 13.4375 31.876 13.5937 32.1291 13.85C32.3854 14.1031 32.5416 14.4562 32.5416 14.8438Z" fill="black" fill-opacity="0.1"/>
</g>
<path d="M31.1354 32.8125C30.9629 32.8125 30.8229 32.6728 30.8229 32.5V29.6875C30.8229 29.5147 30.9629 29.375 31.1354 29.375C31.3079 29.375 31.4479 29.5147 31.4479 29.6875V32.5C31.4479 32.6728 31.3079 32.8125 31.1354 32.8125Z" fill="#EC3237"/>
<path d="M31.1354 32.8125C30.9629 32.8125 30.8229 32.6728 30.8229 32.5V29.6875C30.8229 29.5147 30.9629 29.375 31.1354 29.375C31.3079 29.375 31.4479 29.5147 31.4479 29.6875V32.5C31.4479 32.6728 31.3079 32.8125 31.1354 32.8125Z" fill="black" fill-opacity="0.1"/>
<path d="M32.5416 27.5L31.8385 29.425L31.5073 30.3312C31.4604 30.4562 31.3823 30.5437 31.2916 30.5875C31.101 30.6812 30.8604 30.5969 30.7635 30.3312L30.4323 29.425L29.7291 27.5H32.5416Z" fill="#3E4095"/>
<path d="M32.5416 27.5L31.8385 29.425L31.5073 30.3312C31.4604 30.4562 31.3823 30.5437 31.2916 30.5875C31.101 30.6812 30.8604 30.5969 30.7635 30.3312L30.4323 29.425L29.7291 27.5H32.5416Z" fill="white" fill-opacity="0.16"/>
<g opacity="0.4">
<path d="M32.5416 27.5L31.8385 29.425L31.5073 30.3312C31.4604 30.4562 31.3823 30.5437 31.2916 30.5875V27.5H32.5416Z" fill="#3E4095"/>
<path d="M32.5416 27.5L31.8385 29.425L31.5073 30.3312C31.4604 30.4562 31.3823 30.5437 31.2916 30.5875V27.5H32.5416Z" fill="black" fill-opacity="0.2"/>
</g>
<path d="M32.5416 23.75H29.7291V27.5H32.5416V23.75Z" fill="#EC3237"/>
<path d="M32.5416 23.75H29.7291V27.5H32.5416V23.75Z" fill="white" fill-opacity="0.4"/>
<g opacity="0.4">
<path d="M32.5416 23.75H31.2916V27.5H32.5416V23.75Z" fill="#EC3237"/>
<path d="M32.5416 23.75H31.2916V27.5H32.5416V23.75Z" fill="black" fill-opacity="0.1"/>
</g>
<path d="M33.7916 20.9375C33.6191 20.9375 33.4791 20.7978 33.4791 20.625V16.9062C33.4791 16.7169 33.3247 16.5625 33.1354 16.5625H29.7291C29.5566 16.5625 29.4166 16.4228 29.4166 16.25C29.4166 16.0772 29.5566 15.9375 29.7291 15.9375H33.1354C33.6694 15.9375 34.1041 16.3722 34.1041 16.9062V20.625C34.1041 20.7978 33.9641 20.9375 33.7916 20.9375Z" fill="#EC3237"/>
<path d="M33.7916 20.9375C33.6191 20.9375 33.4791 20.7978 33.4791 20.625V16.9062C33.4791 16.7169 33.3247 16.5625 33.1354 16.5625H29.7291C29.5566 16.5625 29.4166 16.4228 29.4166 16.25C29.4166 16.0772 29.5566 15.9375 29.7291 15.9375H33.1354C33.6694 15.9375 34.1041 16.3722 34.1041 16.9062V20.625C34.1041 20.7978 33.9641 20.9375 33.7916 20.9375Z" fill="black" fill-opacity="0.15"/>
<path d="M6.29164 6.56249C6.20195 6.56249 6.1132 6.52437 6.05132 6.45031L4.48882 4.57531C4.3782 4.44249 4.39632 4.24531 4.52882 4.13499C4.66101 4.02468 4.85851 4.04249 4.96882 4.17499L6.53132 6.04999C6.64164 6.18281 6.62382 6.37999 6.49132 6.49031C6.4332 6.53874 6.36226 6.56249 6.29164 6.56249Z" fill="#0C4E92"/>
<path d="M7.85414 8.43749C7.76445 8.43749 7.6757 8.39937 7.61382 8.32531L6.62945 7.14406C6.51882 7.01124 6.53695 6.81406 6.66945 6.70374C6.80195 6.59312 6.99882 6.61124 7.10945 6.74374L8.09382 7.92499C8.20414 8.05781 8.18632 8.25499 8.05382 8.36531C7.9957 8.41374 7.92476 8.43749 7.85414 8.43749Z" fill="#0C4E92"/>
<path d="M9.10384 7.81249C8.94384 7.81249 8.80759 7.6903 8.7929 7.52842L8.4804 4.09092C8.46477 3.91874 8.59134 3.76686 8.76352 3.75124C8.93665 3.73624 9.08727 3.8628 9.1029 4.03405L9.4154 7.47155C9.43102 7.64374 9.30446 7.79561 9.13227 7.81124C9.1229 7.81218 9.11321 7.81249 9.10384 7.81249Z" fill="#0C4E92"/>
<path d="M7.54195 9.6875C7.52164 9.6875 7.50101 9.68562 7.48039 9.68125L4.35539 9.05625C4.18601 9.0225 4.07633 8.85781 4.11039 8.68843C4.14414 8.51906 4.30851 8.40843 4.4782 8.44343L7.6032 9.06843C7.77258 9.10218 7.88226 9.26687 7.8482 9.43625C7.81851 9.585 7.68789 9.6875 7.54195 9.6875Z" fill="#0C4E92"/>
<path d="M36.9163 36.875C36.8617 36.875 36.806 36.8606 36.7557 36.8303L34.5245 35.4897C34.3767 35.4006 34.3288 35.2087 34.4176 35.0609C34.5067 34.9128 34.6985 34.8653 34.8463 34.9537L37.0776 36.2944C37.2254 36.3834 37.2735 36.5753 37.1845 36.7231C37.1257 36.8209 37.0223 36.875 36.9163 36.875Z" fill="#0C4E92"/>
<path d="M33.6507 34.9156C33.596 34.9156 33.5404 34.9012 33.4901 34.8709L32.0682 34.0178C31.9201 33.9291 31.8723 33.7372 31.961 33.5891C32.0498 33.4406 32.2416 33.3931 32.3898 33.4819L33.8116 34.335C33.9598 34.4237 34.0076 34.6156 33.9188 34.7637C33.8604 34.8619 33.7569 34.9156 33.6507 34.9156Z" fill="#F2E593"/>
<path d="M36.2916 32.8125H32.8541C32.6816 32.8125 32.5416 32.6728 32.5416 32.5C32.5416 32.3272 32.6816 32.1875 32.8541 32.1875H36.2916C36.4641 32.1875 36.6041 32.3272 36.6041 32.5C36.6041 32.6728 36.4641 32.8125 36.2916 32.8125Z" fill="#3E4095"/>
<path d="M36.2916 32.8125H32.8541C32.6816 32.8125 32.5416 32.6728 32.5416 32.5C32.5416 32.3272 32.6816 32.1875 32.8541 32.1875H36.2916C36.4641 32.1875 36.6041 32.3272 36.6041 32.5C36.6041 32.6728 36.4641 32.8125 36.2916 32.8125Z" fill="black" fill-opacity="0.2"/>
<path d="M32.8632 38.0891C32.7501 38.0891 32.641 38.0275 32.5854 37.9203L31.0054 34.8672C30.926 34.7137 30.986 34.525 31.1394 34.4459C31.2929 34.3669 31.4816 34.4266 31.5607 34.5797L33.1407 37.6328C33.2201 37.7862 33.1601 37.975 33.0066 38.0541C32.9604 38.0778 32.9116 38.0891 32.8632 38.0891Z" fill="#0C4E92"/>
<path d="M35.982 25.4619C36.5851 25.4619 36.5863 24.5244 35.982 24.5244C35.3788 24.5244 35.3779 25.4619 35.982 25.4619Z" fill="#0C4E92"/>
<path d="M31.0863 7.03968C31.0498 6.87093 31.1573 6.70468 31.326 6.66843C32.0841 6.50468 32.5676 5.75531 32.4038 4.99718C32.3673 4.82843 32.4748 4.66218 32.6435 4.62562C32.8123 4.58937 32.9785 4.69656 33.0148 4.86531C33.1782 5.62343 33.9279 6.10687 34.686 5.94312C34.8548 5.90687 35.021 6.01406 35.0573 6.18281C35.0938 6.35156 34.9863 6.51781 34.8176 6.55406C34.0595 6.71781 33.576 7.46718 33.7398 8.22531C33.7763 8.39406 33.6688 8.56031 33.5001 8.59656C33.3313 8.63281 33.1651 8.52562 33.1288 8.35687C32.9654 7.59875 32.2157 7.11531 31.4576 7.27906C31.2888 7.31562 31.1226 7.20843 31.0863 7.03968Z" fill="#FEDF89"/>
<path d="M33.5904 7.4478C33.5426 7.4478 33.4935 7.43687 33.4482 7.41343C33.2948 7.33468 33.2338 7.14655 33.3129 6.99249C33.412 6.79937 33.5404 6.62593 33.6917 6.47749C33.5517 6.42593 33.4167 6.35874 33.2882 6.27593C33.1592 6.19249 33.0413 6.09655 32.936 5.98937C32.8742 6.15812 32.7898 6.31937 32.6835 6.4678C32.5829 6.60812 32.3873 6.64062 32.2476 6.54031C32.107 6.4403 32.0745 6.24499 32.1748 6.10437C32.4063 5.7803 32.4876 5.38718 32.4035 4.99749V4.99655C32.3673 4.8278 32.4745 4.66155 32.6432 4.6253C32.812 4.58843 32.9782 4.69624 33.0145 4.86499C33.0938 5.23249 33.311 5.54718 33.6267 5.7503C33.9417 5.95343 34.3163 6.02218 34.6845 5.94312C34.6854 5.9428 34.6857 5.9428 34.6857 5.9428C34.8532 5.90499 35.0204 6.01374 35.057 6.18249C35.0935 6.35124 34.986 6.51718 34.8176 6.55374C34.4048 6.6428 34.0588 6.90687 33.8685 7.2778C33.8135 7.38593 33.7042 7.4478 33.5904 7.4478Z" fill="#EC3237"/>
<path d="M33.5904 7.4478C33.5426 7.4478 33.4935 7.43687 33.4482 7.41343C33.2948 7.33468 33.2338 7.14655 33.3129 6.99249C33.412 6.79937 33.5404 6.62593 33.6917 6.47749C33.5517 6.42593 33.4167 6.35874 33.2882 6.27593C33.1592 6.19249 33.0413 6.09655 32.936 5.98937C32.8742 6.15812 32.7898 6.31937 32.6835 6.4678C32.5829 6.60812 32.3873 6.64062 32.2476 6.54031C32.107 6.4403 32.0745 6.24499 32.1748 6.10437C32.4063 5.7803 32.4876 5.38718 32.4035 4.99749V4.99655C32.3673 4.8278 32.4745 4.66155 32.6432 4.6253C32.812 4.58843 32.9782 4.69624 33.0145 4.86499C33.0938 5.23249 33.311 5.54718 33.6267 5.7503C33.9417 5.95343 34.3163 6.02218 34.6845 5.94312C34.6854 5.9428 34.6857 5.9428 34.6857 5.9428C34.8532 5.90499 35.0204 6.01374 35.057 6.18249C35.0935 6.35124 34.986 6.51718 34.8176 6.55374C34.4048 6.6428 34.0588 6.90687 33.8685 7.2778C33.8135 7.38593 33.7042 7.4478 33.5904 7.4478Z" fill="black" fill-opacity="0.05"/>
</svg>
