<svg width="112" height="112" viewBox="0 0 112 112" fill="none" xmlns="http://www.w3.org/2000/svg">
<path d="M56.875 88.375C59.7745 88.375 62.125 86.6121 62.125 84.4375C62.125 82.2629 59.7745 80.5 56.875 80.5C53.9755 80.5 51.625 82.2629 51.625 84.4375C51.625 86.6121 53.9755 88.375 56.875 88.375Z" fill="#AA0505"/>
<path d="M56.875 84.875H24.7406C21.7087 84.875 19.25 82.4162 19.25 79.3844V35.2406C19.25 32.2088 21.7087 29.75 24.7406 29.75L56.875 32.375V84.875Z" fill="#EC3237"/>
<path d="M56.875 84.875H24.7406C21.7087 84.875 19.25 82.4162 19.25 79.3844V35.2406C19.25 32.2088 21.7087 29.75 24.7406 29.75L56.875 32.375V84.875Z" fill="black" fill-opacity="0.1"/>
<g opacity="0.5">
<path d="M56.875 69.5625V84.875H24.745C21.7088 84.875 19.25 82.4163 19.25 79.38V69.5625H56.875Z" fill="#EC3237"/>
<path d="M56.875 69.5625V84.875H24.745C21.7088 84.875 19.25 82.4163 19.25 79.38V69.5625H56.875Z" fill="black" fill-opacity="0.2"/>
</g>
<path d="M56.875 84.875H89.0094C92.0421 84.875 94.5 82.4162 94.5 79.3844V35.2406C94.5 32.2079 92.0412 29.75 89.0094 29.75L56.875 32.375V84.875Z" fill="#FF4200"/>
<g opacity="0.5">
<path d="M56.875 84.875H89.0094C92.0421 84.875 94.5 82.4162 94.5 79.3844V35.2406C94.5 32.2079 92.0412 29.75 89.0094 29.75L56.875 32.375V84.875Z" fill="#EC3237"/>
<path d="M56.875 84.875H89.0094C92.0421 84.875 94.5 82.4162 94.5 79.3844V35.2406C94.5 32.2079 92.0412 29.75 89.0094 29.75L56.875 32.375V84.875Z" fill="black" fill-opacity="0.1"/>
</g>
<path d="M85.7115 33.25H57.75H57.3125H28.5941C26.0916 33.25 24.0625 35.2257 24.0625 37.6635V76.9606C24.0625 79.3984 26.0916 81.3741 28.5941 81.3741C38.9401 79.2899 48.6658 78.848 57.3125 81.2569V81.375C57.3843 81.354 57.4569 81.3365 57.5286 81.3155C57.6021 81.3365 57.6765 81.354 57.75 81.375V81.2551C66.1693 78.8489 75.6385 79.2925 85.7115 81.375C88.1493 81.375 90.125 79.3993 90.125 76.9615V37.6635C90.125 35.2257 88.1493 33.25 85.7115 33.25Z" fill="#181818"/>
<path d="M85.7115 33.25H57.75H57.3125H28.5941C26.0916 33.25 24.0625 35.2257 24.0625 37.6635V76.9606C24.0625 79.3984 26.0916 81.3741 28.5941 81.3741C38.9401 79.2899 48.6658 78.848 57.3125 81.2569V81.375C57.3843 81.354 57.4569 81.3365 57.5286 81.3155C57.6021 81.3365 57.6765 81.354 57.75 81.375V81.2551C66.1693 78.8489 75.6385 79.2925 85.7115 81.375C88.1493 81.375 90.125 79.3993 90.125 76.9615V37.6635C90.125 35.2257 88.1493 33.25 85.7115 33.25Z" fill="white" fill-opacity="0.8"/>
<path d="M87.3687 32.1213L84.875 77.875C82.1012 71.4088 72.73 72.3188 58.1787 79.0213C57.75 79.2138 57.3125 79.415 56.875 79.625C56.4287 79.415 55.9912 79.205 55.5537 79.0125C41.0112 72.3188 31.6487 71.4088 28.875 77.875L26.3725 31.92C26.2937 30.5988 27.0987 29.3825 28.3412 28.945C37.7912 25.6025 47.075 26.3725 55.5537 30.6075C55.8512 30.7563 56.14 30.905 56.4375 31.0625L56.875 31.5L57.3125 31.0625C57.6012 30.905 57.89 30.7563 58.1787 30.6163C65.0475 27.1688 72.4675 26.0225 80.0625 27.4925C81.7687 27.8163 83.4925 28.28 85.2162 28.875C86.5725 29.3475 87.4475 30.6863 87.3687 32.1213Z" fill="white"/>
<g opacity="0.5">
<path d="M85.2163 28.8752C85.0413 28.8139 84.8575 28.7527 84.6825 28.7002L81.9613 63.4377C81.6288 67.6377 78.1288 70.8752 73.9113 70.8752C69.1758 72.4563 63.8803 73.2438 58.1788 73.4556V30.6164C57.89 30.7564 57.6013 30.9052 57.3125 31.0627L56.875 31.5002L56.4375 31.0627C56.14 30.9052 55.8513 30.7564 55.5538 30.6077V73.5142C47.1923 73.5693 38.031 72.4913 28.49 70.8752L28.875 77.8752C31.7275 71.2164 41.58 72.3802 56.875 79.6252C72.17 72.3802 82.0225 71.2164 84.875 77.8752L87.3688 32.1214C87.4475 30.6864 86.5725 29.3477 85.2163 28.8752Z" fill="#181818"/>
<path d="M85.2163 28.8752C85.0413 28.8139 84.8575 28.7527 84.6825 28.7002L81.9613 63.4377C81.6288 67.6377 78.1288 70.8752 73.9113 70.8752C69.1758 72.4563 63.8803 73.2438 58.1788 73.4556V30.6164C57.89 30.7564 57.6013 30.9052 57.3125 31.0627L56.875 31.5002L56.4375 31.0627C56.14 30.9052 55.8513 30.7564 55.5538 30.6077V73.5142C47.1923 73.5693 38.031 72.4913 28.49 70.8752L28.875 77.8752C31.7275 71.2164 41.58 72.3802 56.875 79.6252C72.17 72.3802 82.0225 71.2164 84.875 77.8752L87.3688 32.1214C87.4475 30.6864 86.5725 29.3477 85.2163 28.8752Z" fill="white" fill-opacity="0.75"/>
</g>
<path d="M47.2062 73.9637C47.0312 74.8125 46.97 75.7838 47.0575 77.0088C47.1362 78.1288 46.6637 79.2225 45.7887 79.9225L42.875 82.25V85.75H31.5C31.2637 84.7962 31.4125 83.8512 31.9462 82.8975C32.1475 82.5387 32.0687 82.0925 31.745 81.83C31.2025 81.4012 30.7562 80.8587 30.3975 80.2112C28.9537 77.6737 28.7612 73.5788 28.875 69.125C28.875 65.625 32.375 65.625 32.375 69.125C32.375 65.625 35.875 65.625 35.875 69.125C35.875 65.625 39.375 65.625 39.375 69.125V56.875C39.375 53.375 43.75 53.375 43.75 56.875V71.75C46.0862 66.2113 49 64.75 50.75 67.375C49.0175 70.2537 47.67 71.6187 47.2062 73.9637Z" fill="#FCCAB1"/>
<path d="M80.255 85.33C79.9312 85.5925 79.8525 86.0387 80.0537 86.3975C80.5875 87.3512 80.7362 88.2962 80.5 89.25H69.125V85.75L66.2112 83.4225C65.7737 83.0725 65.4325 82.6262 65.2225 82.1187C65.0038 81.62 64.9075 81.0688 64.9425 80.5088C65.2575 75.9063 63.6037 74.795 61.25 70.875C63 68.25 65.9137 69.7113 68.25 75.25V60.375C68.25 56.875 72.625 56.875 72.625 60.375V72.625C72.625 69.125 76.125 69.125 76.125 72.625C76.125 69.86 78.3125 69.2737 79.2313 70.8925C79.4762 71.3125 79.625 71.89 79.625 72.625C79.625 69.125 83.125 69.125 83.125 72.625C83.265 78.2162 82.9237 83.23 80.255 85.33Z" fill="#FCCAB1"/>
<g opacity="0.4">
<path d="M47.0575 77.0089C47.1363 78.1289 46.6638 79.2226 45.7888 79.9226L42.875 82.2501V85.7501H31.5C31.2638 84.7964 31.4125 83.8514 31.9463 82.8976C32.1475 82.5389 32.0688 82.0926 31.745 81.8301C31.2025 81.4014 30.7563 80.8589 30.3975 80.2114C37.59 80.0539 43.47 76.7639 47.2063 73.9639C47.0313 74.8126 46.97 75.7839 47.0575 77.0089Z" fill="#EA9E7D"/>
</g>
<g opacity="0.4">
<path d="M80.255 85.33C79.9312 85.5925 79.8525 86.0387 80.0537 86.3975C80.5875 87.3512 80.7362 88.2962 80.5 89.25H69.125V85.75L66.2113 83.4225C65.7738 83.0725 65.4325 82.6262 65.2225 82.1187C73.3075 81.1387 77.4025 74.935 79.2313 70.8925C79.4763 71.3125 79.625 71.89 79.625 72.625C79.625 69.125 83.125 69.125 83.125 72.625C83.265 78.2162 82.9237 83.23 80.255 85.33Z" fill="#EA9E7D"/>
</g>
<path d="M101.481 93.5302C101.291 95.2111 99.7754 96.4203 98.0945 96.2305C96.4136 96.0406 95.2053 94.5251 95.3943 92.8442C95.5833 91.1634 97.0996 89.955 98.7805 90.144C100.461 90.333 101.671 91.8494 101.481 93.5302Z" fill="#FEDF89"/>
<path d="M14.0516 94.088C13.979 94.088 13.9046 94.0792 13.8311 94.06C13.3639 93.9384 13.083 93.4597 13.2046 92.9925L14.9678 86.2182C15.0894 85.751 15.5645 85.4675 16.0353 85.5917C16.5025 85.7134 16.7834 86.192 16.6618 86.6592L14.8986 93.4335C14.7954 93.8272 14.4401 94.088 14.0516 94.088Z" fill="#3E4095"/>
<path d="M14.0516 94.088C13.979 94.088 13.9046 94.0792 13.8311 94.06C13.3639 93.9384 13.083 93.4597 13.2046 92.9925L14.9678 86.2182C15.0894 85.751 15.5645 85.4675 16.0353 85.5917C16.5025 85.7134 16.7834 86.192 16.6618 86.6592L14.8986 93.4335C14.7954 93.8272 14.4401 94.088 14.0516 94.088Z" fill="white" fill-opacity="0.1"/>
<path d="M18.3199 91.5818C18.2473 91.5818 18.1729 91.573 18.0994 91.5538L11.3251 89.7906C10.8579 89.669 10.577 89.1904 10.6986 88.7231C10.8203 88.2559 11.2945 87.9724 11.7661 88.0966L18.5404 89.8598C19.0076 89.9814 19.2885 90.4591 19.1669 90.9273C19.0636 91.321 18.7084 91.5818 18.3199 91.5818Z" fill="#EC3237"/>
<path d="M18.3199 91.5818C18.2473 91.5818 18.1729 91.573 18.0994 91.5538L11.3251 89.7906C10.8579 89.669 10.577 89.1904 10.6986 88.7231C10.8203 88.2559 11.2945 87.9724 11.7661 88.0966L18.5404 89.8598C19.0076 89.9814 19.2885 90.4591 19.1669 90.9273C19.0636 91.321 18.7084 91.5818 18.3199 91.5818Z" fill="black" fill-opacity="0.1"/>
<path d="M98.4314 97.126C98.2888 97.126 98.1461 97.1182 98.0009 97.1033C96.0199 96.8662 94.5551 95.264 94.5088 93.2953C94.4974 92.8114 94.8798 92.4107 95.3628 92.4002C95.8615 92.3652 96.2474 92.772 96.2579 93.255C96.2833 94.3462 97.0996 95.2334 98.2004 95.3647C99.3913 95.4924 100.475 94.627 100.613 93.4292C100.744 92.2532 99.9259 91.197 98.749 91.0264C98.2713 90.9573 97.9396 90.5137 98.0088 90.035C98.0779 89.5564 98.5233 89.2213 99.0001 89.2948C101.116 89.6019 102.589 91.5033 102.351 93.626C102.121 95.635 100.408 97.126 98.4314 97.126Z" fill="#3E4095"/>
<path d="M40.355 23.7167C39.9805 23.7167 39.634 23.4752 39.5194 23.098L35.4638 9.87067C35.322 9.40867 35.5819 8.91954 36.0439 8.77779C36.5068 8.63516 36.995 8.89591 37.1368 9.35791L41.1924 22.5853C41.3341 23.0473 41.0743 23.5364 40.6123 23.6782C40.5265 23.7053 40.4399 23.7167 40.355 23.7167Z" fill="#3E4095"/>
<path d="M40.355 23.7167C39.9805 23.7167 39.634 23.4752 39.5194 23.098L35.4638 9.87067C35.322 9.40867 35.5819 8.91954 36.0439 8.77779C36.5068 8.63516 36.995 8.89591 37.1368 9.35791L41.1924 22.5853C41.3341 23.0473 41.0743 23.5364 40.6123 23.6782C40.5265 23.7053 40.4399 23.7167 40.355 23.7167Z" fill="white" fill-opacity="0.1"/>
<path d="M43.9565 23.944C43.8996 23.944 43.8419 23.9387 43.7841 23.9265C43.3099 23.832 43.0028 23.3708 43.0981 22.8966L44.6521 15.1275C44.7466 14.6532 45.2043 14.3435 45.682 14.4415C46.1563 14.536 46.4634 14.9971 46.368 15.4713L44.814 23.2405C44.7309 23.657 44.3651 23.944 43.9565 23.944Z" fill="#3E4095"/>
<path d="M43.9565 23.944C43.8996 23.944 43.8419 23.9387 43.7841 23.9265C43.3099 23.832 43.0028 23.3708 43.0981 22.8966L44.6521 15.1275C44.7466 14.6532 45.2043 14.3435 45.682 14.4415C46.1563 14.536 46.4634 14.9971 46.368 15.4713L44.814 23.2405C44.7309 23.657 44.3651 23.944 43.9565 23.944Z" fill="white" fill-opacity="0.1"/>
<path d="M36.4893 24.3237C36.2828 24.3237 36.0754 24.2511 35.9091 24.1032L29.4656 18.3798C29.1043 18.0587 29.0719 17.5057 29.393 17.1443C29.7133 16.783 30.2663 16.7497 30.6285 17.0708L37.072 22.7942C37.4334 23.1154 37.4658 23.6683 37.1446 24.0297C36.9714 24.224 36.7308 24.3237 36.4893 24.3237Z" fill="#3E4095"/>
<path d="M36.4893 24.3237C36.2828 24.3237 36.0754 24.2511 35.9091 24.1032L29.4656 18.3798C29.1043 18.0587 29.0719 17.5057 29.393 17.1443C29.7133 16.783 30.2663 16.7497 30.6285 17.0708L37.072 22.7942C37.4334 23.1154 37.4658 23.6683 37.1446 24.0297C36.9714 24.224 36.7308 24.3237 36.4893 24.3237Z" fill="white" fill-opacity="0.1"/>
<path d="M73.7013 22.8418C73.6164 22.8418 73.5298 22.8296 73.444 22.8033C72.982 22.6616 72.7221 22.1725 72.8639 21.7105L76.9195 8.48308C77.0613 8.02108 77.5521 7.76121 78.0124 7.90296C78.4744 8.04471 78.7343 8.53383 78.5925 8.99583L74.5369 22.2232C74.4223 22.6003 74.0758 22.8418 73.7013 22.8418Z" fill="#3E4095"/>
<path d="M73.7013 22.8418C73.6164 22.8418 73.5298 22.8296 73.444 22.8033C72.982 22.6616 72.7221 22.1725 72.8639 21.7105L76.9195 8.48308C77.0613 8.02108 77.5521 7.76121 78.0124 7.90296C78.4744 8.04471 78.7343 8.53383 78.5925 8.99583L74.5369 22.2232C74.4223 22.6003 74.0758 22.8418 73.7013 22.8418Z" fill="white" fill-opacity="0.1"/>
<path d="M70.0998 23.0692C69.6911 23.0692 69.3254 22.7822 69.2431 22.3657L67.6891 14.5966C67.5946 14.1223 67.9018 13.6621 68.3751 13.5667C68.8494 13.4696 69.3105 13.7784 69.405 14.2527L70.959 22.0218C71.0535 22.4961 70.7464 22.9563 70.273 23.0517C70.2144 23.0639 70.1566 23.0692 70.0998 23.0692Z" fill="#3E4095"/>
<path d="M70.0998 23.0692C69.6911 23.0692 69.3254 22.7822 69.2431 22.3657L67.6891 14.5966C67.5946 14.1223 67.9018 13.6621 68.3751 13.5667C68.8494 13.4696 69.3105 13.7784 69.405 14.2527L70.959 22.0218C71.0535 22.4961 70.7464 22.9563 70.273 23.0517C70.2144 23.0639 70.1566 23.0692 70.0998 23.0692Z" fill="white" fill-opacity="0.1"/>
<path d="M77.567 23.4492C77.3255 23.4492 77.0858 23.3503 76.9125 23.1552C76.5914 22.7938 76.6238 22.2408 76.986 21.9197L83.4286 16.1963C83.7909 15.8769 84.3439 15.9093 84.6641 16.2698C84.9853 16.6312 84.9529 17.1842 84.5915 17.5053L78.1489 23.2287C77.9818 23.3766 77.7735 23.4492 77.567 23.4492Z" fill="#3E4095"/>
<path d="M77.567 23.4492C77.3255 23.4492 77.0858 23.3503 76.9125 23.1552C76.5914 22.7938 76.6238 22.2408 76.986 21.9197L83.4286 16.1963C83.7909 15.8769 84.3439 15.9093 84.6641 16.2698C84.9853 16.6312 84.9529 17.1842 84.5915 17.5053L78.1489 23.2287C77.9818 23.3766 77.7735 23.4492 77.567 23.4492Z" fill="white" fill-opacity="0.1"/>
<path d="M33.2684 36.0728C34.9571 36.0728 34.9598 33.4478 33.2684 33.4478C31.5788 33.4478 31.5761 36.0728 33.2684 36.0728Z" fill="#EC3237"/>
<path d="M33.2684 36.0728C34.9571 36.0728 34.9598 33.4478 33.2684 33.4478C31.5788 33.4478 31.5761 36.0728 33.2684 36.0728Z" fill="black" fill-opacity="0.1"/>
<path d="M33.6376 40.9385C35.3264 40.9385 35.3299 38.3135 33.6376 38.3135C31.9489 38.3135 31.9463 40.9385 33.6376 40.9385Z" fill="#EC3237"/>
<path d="M33.6376 40.9385C35.3264 40.9385 35.3299 38.3135 33.6376 38.3135C31.9489 38.3135 31.9463 40.9385 33.6376 40.9385Z" fill="black" fill-opacity="0.1"/>
<path d="M34.0078 45.8857C35.6965 45.8857 35.6991 43.2607 34.0078 43.2607C32.3181 43.2607 32.3155 45.8857 34.0078 45.8857Z" fill="#EC3237"/>
<path d="M34.0078 45.8857C35.6965 45.8857 35.6991 43.2607 34.0078 43.2607C32.3181 43.2607 32.3155 45.8857 34.0078 45.8857Z" fill="black" fill-opacity="0.1"/>
<path d="M39.6121 45.8857C41.3009 45.8857 41.3044 43.2607 39.6121 43.2607C37.9234 43.2607 37.9199 45.8857 39.6121 45.8857Z" fill="#EC3237"/>
<path d="M39.6121 45.8857C41.3009 45.8857 41.3044 43.2607 39.6121 43.2607C37.9234 43.2607 37.9199 45.8857 39.6121 45.8857Z" fill="black" fill-opacity="0.1"/>
<path d="M45.9314 45.8857C47.6201 45.8857 47.6227 43.2607 45.9314 43.2607C44.2426 43.2607 44.2391 45.8857 45.9314 45.8857Z" fill="#EC3237"/>
<path d="M45.9314 45.8857C47.6201 45.8857 47.6227 43.2607 45.9314 43.2607C44.2426 43.2607 44.2391 45.8857 45.9314 45.8857Z" fill="black" fill-opacity="0.1"/>
<path d="M45.9314 49.9922C47.6201 49.9922 47.6227 47.3672 45.9314 47.3672C44.2426 47.3672 44.2391 49.9922 45.9314 49.9922Z" fill="#EC3237"/>
<path d="M45.9314 49.9922C47.6201 49.9922 47.6227 47.3672 45.9314 47.3672C44.2426 47.3672 44.2391 49.9922 45.9314 49.9922Z" fill="black" fill-opacity="0.1"/>
<path d="M45.9314 54.0986C47.6201 54.0986 47.6227 51.4736 45.9314 51.4736C44.2426 51.4736 44.2391 54.0986 45.9314 54.0986Z" fill="#EC3237"/>
<path d="M45.9314 54.0986C47.6201 54.0986 47.6227 51.4736 45.9314 51.4736C44.2426 51.4736 44.2391 54.0986 45.9314 54.0986Z" fill="black" fill-opacity="0.1"/>
<path d="M45.9314 58.2041C47.6201 58.2041 47.6227 55.5791 45.9314 55.5791C44.2426 55.5791 44.2391 58.2041 45.9314 58.2041Z" fill="#EC3237"/>
<path d="M45.9314 58.2041C47.6201 58.2041 47.6227 55.5791 45.9314 55.5791C44.2426 55.5791 44.2391 58.2041 45.9314 58.2041Z" fill="black" fill-opacity="0.1"/>
<path d="M45.9314 62.3105C47.6201 62.3105 47.6227 59.6855 45.9314 59.6855C44.2426 59.6855 44.2391 62.3105 45.9314 62.3105Z" fill="#EC3237"/>
<path d="M45.9314 62.3105C47.6201 62.3105 47.6227 59.6855 45.9314 59.6855C44.2426 59.6855 44.2391 62.3105 45.9314 62.3105Z" fill="black" fill-opacity="0.1"/>
<path d="M32.8983 61.9404C34.587 61.9404 34.5905 59.3154 32.8983 59.3154C31.2095 59.3154 31.2069 61.9404 32.8983 61.9404Z" fill="#EC3237"/>
<path d="M32.8983 61.9404C34.587 61.9404 34.5905 59.3154 32.8983 59.3154C31.2095 59.3154 31.2069 61.9404 32.8983 61.9404Z" fill="black" fill-opacity="0.1"/>
<path d="M61.9824 38.0435C63.6711 38.0435 63.6746 35.4185 61.9824 35.4185C60.2936 35.4185 60.291 38.0435 61.9824 38.0435Z" fill="#EC3237"/>
<path d="M61.9824 38.0435C63.6711 38.0435 63.6746 35.4185 61.9824 35.4185C60.2936 35.4185 60.291 38.0435 61.9824 38.0435Z" fill="black" fill-opacity="0.1"/>
<path d="M66.9095 37.9209C68.5983 37.9209 68.6018 35.2959 66.9095 35.2959C65.2208 35.2959 65.2181 37.9209 66.9095 37.9209Z" fill="#EC3237"/>
<path d="M66.9095 37.9209C68.5983 37.9209 68.6018 35.2959 66.9095 35.2959C65.2208 35.2959 65.2181 37.9209 66.9095 37.9209Z" fill="black" fill-opacity="0.1"/>
<path d="M67.1563 42.2319C68.845 42.2319 68.8476 39.6069 67.1563 39.6069C65.4666 39.6069 65.464 42.2319 67.1563 42.2319Z" fill="#EC3237"/>
<path d="M67.1563 42.2319C68.845 42.2319 68.8476 39.6069 67.1563 39.6069C65.4666 39.6069 65.464 42.2319 67.1563 42.2319Z" fill="black" fill-opacity="0.1"/>
<path d="M75.5326 37.4272C77.2214 37.4272 77.2249 34.8022 75.5326 34.8022C73.8439 34.8022 73.8404 37.4272 75.5326 37.4272Z" fill="#EC3237"/>
<path d="M75.5326 37.4272C77.2214 37.4272 77.2249 34.8022 75.5326 34.8022C73.8439 34.8022 73.8404 37.4272 75.5326 37.4272Z" fill="black" fill-opacity="0.1"/>
<path d="M76.0253 41.8618C77.714 41.8618 77.7175 39.2368 76.0253 39.2368C74.3365 39.2368 74.333 41.8618 76.0253 41.8618Z" fill="#EC3237"/>
<path d="M76.0253 41.8618C77.714 41.8618 77.7175 39.2368 76.0253 39.2368C74.3365 39.2368 74.333 41.8618 76.0253 41.8618Z" fill="black" fill-opacity="0.1"/>
<path d="M71.4674 50.4849C73.1561 50.4849 73.1596 47.8599 71.4674 47.8599C69.7786 47.8599 69.7751 50.4849 71.4674 50.4849Z" fill="#EC3237"/>
<path d="M71.4674 50.4849C73.1561 50.4849 73.1596 47.8599 71.4674 47.8599C69.7786 47.8599 69.7751 50.4849 71.4674 50.4849Z" fill="black" fill-opacity="0.1"/>
<path d="M77.1339 49.9922C78.8226 49.9922 78.8261 47.3672 77.1339 47.3672C75.4451 47.3672 75.4416 49.9922 77.1339 49.9922Z" fill="#EC3237"/>
<path d="M77.1339 49.9922C78.8226 49.9922 78.8261 47.3672 77.1339 47.3672C75.4451 47.3672 75.4416 49.9922 77.1339 49.9922Z" fill="black" fill-opacity="0.1"/>
<path d="M77.5031 55.043C79.1919 55.043 79.1945 52.418 77.5031 52.418C75.8144 52.418 75.8118 55.043 77.5031 55.043Z" fill="#EC3237"/>
<path d="M77.5031 55.043C79.1919 55.043 79.1945 52.418 77.5031 52.418C75.8144 52.418 75.8118 55.043 77.5031 55.043Z" fill="black" fill-opacity="0.1"/>
<path d="M71.7141 55.6587C73.4029 55.6587 73.4064 53.0337 71.7141 53.0337C70.0245 53.0337 70.0219 55.6587 71.7141 55.6587Z" fill="#EC3237"/>
<path d="M71.7141 55.6587C73.4029 55.6587 73.4064 53.0337 71.7141 53.0337C70.0245 53.0337 70.0219 55.6587 71.7141 55.6587Z" fill="black" fill-opacity="0.1"/>
<path d="M79.2278 63.9116C80.9165 63.9116 80.92 61.2866 79.2278 61.2866C77.539 61.2866 77.5364 63.9116 79.2278 63.9116Z" fill="#EC3237"/>
<path d="M79.2278 63.9116C80.9165 63.9116 80.92 61.2866 79.2278 61.2866C77.539 61.2866 77.5364 63.9116 79.2278 63.9116Z" fill="black" fill-opacity="0.1"/>
<path d="M74.3006 63.665C75.9894 63.665 75.9929 61.04 74.3006 61.04C72.6119 61.04 72.6084 63.665 74.3006 63.665Z" fill="#EC3237"/>
<path d="M74.3006 63.665C75.9894 63.665 75.9929 61.04 74.3006 61.04C72.6119 61.04 72.6084 63.665 74.3006 63.665Z" fill="black" fill-opacity="0.1"/>
<path d="M66.2935 62.6797C67.9823 62.6797 67.9858 60.0547 66.2935 60.0547C64.6048 60.0547 64.6021 62.6797 66.2935 62.6797Z" fill="#EC3237"/>
<path d="M66.2935 62.6797C67.9823 62.6797 67.9858 60.0547 66.2935 60.0547C64.6048 60.0547 64.6021 62.6797 66.2935 62.6797Z" fill="black" fill-opacity="0.1"/>
<path d="M61.4898 62.6797C63.1785 62.6797 63.182 60.0547 61.4898 60.0547C59.801 60.0547 59.7975 62.6797 61.4898 62.6797Z" fill="#EC3237"/>
<path d="M61.4898 62.6797C63.1785 62.6797 63.182 60.0547 61.4898 60.0547C59.801 60.0547 59.7975 62.6797 61.4898 62.6797Z" fill="black" fill-opacity="0.1"/>
<path d="M61.859 67.3608C63.5478 67.3608 63.5513 64.7358 61.859 64.7358C60.1703 64.7358 60.1676 67.3608 61.859 67.3608Z" fill="#EC3237"/>
<path d="M61.859 67.3608C63.5478 67.3608 63.5513 64.7358 61.859 64.7358C60.1703 64.7358 60.1676 67.3608 61.859 67.3608Z" fill="black" fill-opacity="0.1"/>
<path d="M90.7585 21.2983C90.447 20.9282 90.4951 20.377 90.8644 20.0655C92.5251 18.6672 92.7395 16.1787 91.3413 14.5171C91.0298 14.1478 91.0779 13.5957 91.4471 13.2842C91.8173 12.9727 92.3685 13.0208 92.68 13.3901C94.0783 15.0508 96.5668 15.2652 98.2284 13.867C98.5985 13.5555 99.1498 13.6036 99.4613 13.9728C99.7728 14.3421 99.7247 14.8942 99.3554 15.2057C97.6947 16.604 97.4803 19.0925 98.8785 20.7541C99.19 21.1233 99.1428 21.6755 98.7727 21.987C98.4025 22.2985 97.8513 22.2503 97.5398 21.8811C96.1415 20.2203 93.653 20.006 91.9914 21.4042C91.6213 21.7157 91.0691 21.6685 90.7585 21.2983Z" fill="#FEDF89"/>
<path d="M97.0804 19.1276C96.6026 19.1276 96.2124 18.7435 96.2054 18.2649C96.1975 17.6541 96.2876 17.0556 96.4679 16.4877C95.6261 16.6041 94.7678 16.5297 93.9575 16.2707C94.0266 16.7712 94.0293 17.2822 93.9601 17.7906C93.8963 18.2692 93.4518 18.6079 92.9766 18.5414C92.498 18.4775 92.1611 18.0365 92.2259 17.5579C92.3738 16.4519 92.0596 15.373 91.3404 14.5181C91.0298 14.148 91.077 13.5959 91.4463 13.2852C91.8146 12.9729 92.3668 13.0201 92.6791 13.3902L92.6809 13.392C94.0783 15.0492 96.5641 15.2645 98.224 13.8697L98.2275 13.8671C98.5959 13.5556 99.1489 13.6011 99.4604 13.973C99.771 14.3422 99.7238 14.8944 99.3545 15.205L99.3528 15.2067C98.4489 15.968 97.9396 17.074 97.9554 18.2404C97.9615 18.7242 97.5748 19.1206 97.0918 19.1276C97.0891 19.1276 97.0848 19.1276 97.0804 19.1276Z" fill="#EC3237"/>
<path d="M97.0804 19.1276C96.6026 19.1276 96.2124 18.7435 96.2054 18.2649C96.1975 17.6541 96.2876 17.0556 96.4679 16.4877C95.6261 16.6041 94.7678 16.5297 93.9575 16.2707C94.0266 16.7712 94.0293 17.2822 93.9601 17.7906C93.8963 18.2692 93.4518 18.6079 92.9766 18.5414C92.498 18.4775 92.1611 18.0365 92.2259 17.5579C92.3738 16.4519 92.0596 15.373 91.3404 14.5181C91.0298 14.148 91.077 13.5959 91.4463 13.2852C91.8146 12.9729 92.3668 13.0201 92.6791 13.3902L92.6809 13.392C94.0783 15.0492 96.5641 15.2645 98.224 13.8697L98.2275 13.8671C98.5959 13.5556 99.1489 13.6011 99.4604 13.973C99.771 14.3422 99.7238 14.8944 99.3545 15.205L99.3528 15.2067C98.4489 15.968 97.9396 17.074 97.9554 18.2404C97.9615 18.7242 97.5748 19.1206 97.0918 19.1276C97.0891 19.1276 97.0848 19.1276 97.0804 19.1276Z" fill="black" fill-opacity="0.1"/>
</svg>
