<svg width="23" height="27" viewBox="0 0 23 27" fill="none" xmlns="http://www.w3.org/2000/svg">
<path d="M19.2595 7.75H3.2405C1.865 7.75 0.75 8.865 0.75 10.2405V22.5H21.75V10.2405C21.75 8.865 20.635 7.75 19.2595 7.75Z" fill="#E0E0F5"/>
<g opacity="0.6">
<path d="M21.75 10.24V22.5H19.75V10.24C19.75 8.865 18.635 7.75 17.26 7.75H19.26C20.635 7.75 21.75 8.865 21.75 10.24Z" fill="#3E4095"/>
<path d="M21.75 10.24V22.5H19.75V10.24C19.75 8.865 18.635 7.75 17.26 7.75H19.26C20.635 7.75 21.75 8.865 21.75 10.24Z" fill="white" fill-opacity="0.35"/>
</g>
<path d="M3.841 26.149C3.8265 26.149 3.81175 26.1477 3.79675 26.145C3.66075 26.1207 3.5705 25.991 3.5945 25.855L3.9455 23.886C3.96975 23.7502 4.09725 23.6585 4.2355 23.6837C4.3715 23.708 4.46175 23.8377 4.43775 23.9737L4.08675 25.9427C4.0655 26.0637 3.96 26.149 3.841 26.149Z" fill="#3E4095"/>
<path d="M5.00097 25.34C4.98647 25.34 4.97172 25.3388 4.95672 25.336L2.98772 24.985C2.85197 24.9608 2.76147 24.831 2.78547 24.695C2.80947 24.559 2.93722 24.4673 3.07547 24.4928L5.04447 24.8438C5.18022 24.868 5.27072 24.9978 5.24672 25.1338C5.22522 25.255 5.11972 25.34 5.00097 25.34Z" fill="#EC3237"/>
<path d="M5.00097 25.34C4.98647 25.34 4.97172 25.3388 4.95672 25.336L2.98772 24.985C2.85197 24.9608 2.76147 24.831 2.78547 24.695C2.80947 24.559 2.93722 24.4673 3.07547 24.4928L5.04447 24.8438C5.18022 24.868 5.27072 24.9978 5.24672 25.1338C5.22522 25.255 5.11972 25.34 5.00097 25.34Z" fill="black" fill-opacity="0.1"/>
<path d="M16.2445 25.473C16.1905 25.9532 15.7572 26.2987 15.277 26.2445C14.7967 26.1902 14.4512 25.7573 14.5055 25.277C14.5595 24.7968 14.9927 24.4515 15.473 24.5055C15.9532 24.5595 16.2987 24.9928 16.2445 25.473Z" fill="#FEDF89"/>
<path d="M15.3732 26.5002C15.3325 26.5002 15.2917 26.498 15.2505 26.4935C14.6695 26.426 14.2402 25.937 14.25 25.3557C14.2527 25.2177 14.377 25.1103 14.5042 25.11C14.6425 25.1125 14.7522 25.2263 14.75 25.3643C14.7442 25.6873 14.9837 25.9592 15.3065 25.9967C15.6452 26.0322 15.9575 25.7863 15.997 25.444C16.034 25.103 15.7862 24.7928 15.444 24.7535C15.4282 24.752 15.411 24.75 15.3925 24.75C15.2542 24.75 15.1425 24.638 15.1425 24.5C15.1425 24.362 15.2542 24.25 15.3925 24.25C15.427 24.25 15.459 24.2528 15.493 24.2558C16.1152 24.327 16.5607 24.8848 16.4935 25.4998C16.4275 26.0743 15.9377 26.5002 15.3732 26.5002Z" fill="#3E4095"/>
<path d="M21.75 10.24V10.245C21.75 10.2475 21.7475 10.25 21.745 10.25H0.755C0.7525 10.25 0.75 10.2475 0.75 10.245C0.75 9.8575 0.8375 9.4925 0.995 9.165C1.055 9.0425 1.125 8.9225 1.2025 8.8125C1.655 8.17 2.4 7.75 3.245 7.75H19.26C20.635 7.75 21.75 8.865 21.75 10.24Z" fill="#3E4095"/>
<path d="M21.75 10.24V10.245C21.75 10.2475 21.7475 10.25 21.745 10.25H0.755C0.7525 10.25 0.75 10.2475 0.75 10.245C0.75 9.8575 0.8375 9.4925 0.995 9.165C1.055 9.0425 1.125 8.9225 1.2025 8.8125C1.655 8.17 2.4 7.75 3.245 7.75H19.26C20.635 7.75 21.75 8.865 21.75 10.24Z" fill="white" fill-opacity="0.35"/>
<g opacity="0.6">
<path d="M21.75 10.24V10.245C21.75 10.2475 21.7475 10.25 21.745 10.25H19.75V10.24C19.75 8.865 18.635 7.75 17.26 7.75H19.26C20.635 7.75 21.75 8.865 21.75 10.24Z" fill="#3E4095"/>
<path d="M21.75 10.24V10.245C21.75 10.2475 21.7475 10.25 21.745 10.25H19.75V10.24C19.75 8.865 18.635 7.75 17.26 7.75H19.26C20.635 7.75 21.75 8.865 21.75 10.24Z" fill="white" fill-opacity="0.16"/>
</g>
<path d="M11.25 15.905V19.935C11.25 20.0775 11.1575 20.195 11.03 20.2325C11.02 20.2375 11.01 20.24 11 20.24C10.98 20.2475 10.9575 20.25 10.935 20.25H5.38751C5.21501 20.25 5.07251 20.11 5.07251 19.935V13.065C5.07251 12.89 5.21501 12.75 5.38751 12.75H8.09501C9.33251 12.75 10.4025 13.4625 10.92 14.5C10.9475 14.5575 10.975 14.615 11 14.6725C11.1625 15.0525 11.25 15.4675 11.25 15.905Z" fill="white"/>
<path d="M11.03 20.08V20.25H5.07251V18.705H9.65501C10.1025 18.705 10.5025 18.92 10.75 19.2525C10.8725 19.4125 10.96 19.5975 11 19.8025C11.02 19.8925 11.03 19.985 11.03 20.08Z" fill="#181818"/>
<path d="M11.03 20.08V20.25H5.07251V18.705H9.65501C10.1025 18.705 10.5025 18.92 10.75 19.2525C10.8725 19.4125 10.96 19.5975 11 19.8025C11.02 19.8925 11.03 19.985 11.03 20.08Z" fill="white" fill-opacity="0.75"/>
<path d="M9.04426 14.544H6.17651C6.03826 14.544 5.92651 14.432 5.92651 14.294C5.92651 14.156 6.03826 14.044 6.17651 14.044H9.04426C9.18251 14.044 9.29426 14.156 9.29426 14.294C9.29426 14.4323 9.18226 14.544 9.04426 14.544Z" fill="#EC3237"/>
<path d="M9.04426 14.544H6.17651C6.03826 14.544 5.92651 14.432 5.92651 14.294C5.92651 14.156 6.03826 14.044 6.17651 14.044H9.04426C9.18251 14.044 9.29426 14.156 9.29426 14.294C9.29426 14.4323 9.18226 14.544 9.04426 14.544Z" fill="black" fill-opacity="0.1"/>
<path d="M8.82351 16.0883H6.17651C6.03826 16.0883 5.92651 15.9763 5.92651 15.8383C5.92651 15.7003 6.03826 15.5883 6.17651 15.5883H8.82351C8.96176 15.5883 9.07351 15.7003 9.07351 15.8383C9.07351 15.9763 8.96176 16.0883 8.82351 16.0883Z" fill="#EC3237"/>
<path d="M8.82351 16.0883H6.17651C6.03826 16.0883 5.92651 15.9763 5.92651 15.8383C5.92651 15.7003 6.03826 15.5883 6.17651 15.5883H8.82351C8.96176 15.5883 9.07351 15.7003 9.07351 15.8383C9.07351 15.9763 8.96176 16.0883 8.82351 16.0883Z" fill="black" fill-opacity="0.1"/>
<path d="M9.70576 17.4117H6.17651C6.03826 17.4117 5.92651 17.2997 5.92651 17.1617C5.92651 17.0237 6.03826 16.9117 6.17651 16.9117H9.70576C9.84401 16.9117 9.95576 17.0237 9.95576 17.1617C9.95576 17.2997 9.84401 17.4117 9.70576 17.4117Z" fill="#EC3237"/>
<path d="M9.70576 17.4117H6.17651C6.03826 17.4117 5.92651 17.2997 5.92651 17.1617C5.92651 17.0237 6.03826 16.9117 6.17651 16.9117H9.70576C9.84401 16.9117 9.95576 17.0237 9.95576 17.1617C9.95576 17.2997 9.84401 17.4117 9.70576 17.4117Z" fill="black" fill-opacity="0.1"/>
<path d="M17.4275 13.065V19.935C17.4275 20.11 17.285 20.25 17.1125 20.25H11.565C11.5425 20.25 11.5225 20.2475 11.5 20.2425C11.3575 20.215 11.25 20.0875 11.25 19.935V15.905C11.25 15.4675 11.3375 15.0525 11.5 14.6725C11.525 14.615 11.5525 14.5575 11.58 14.5C12.0975 13.4625 13.1675 12.75 14.405 12.75H17.1125C17.285 12.75 17.4275 12.89 17.4275 13.065Z" fill="white"/>
<g opacity="0.6">
<path d="M17.4275 13.065V19.935C17.4275 20.11 17.285 20.25 17.1125 20.25H15.3625C15.535 20.25 15.6775 20.11 15.6775 19.935V13.065C15.6775 12.89 15.535 12.75 15.3625 12.75H17.1125C17.285 12.75 17.4275 12.89 17.4275 13.065Z" fill="#181818"/>
<path d="M17.4275 13.065V19.935C17.4275 20.11 17.285 20.25 17.1125 20.25H15.3625C15.535 20.25 15.6775 20.11 15.6775 19.935V13.065C15.6775 12.89 15.535 12.75 15.3625 12.75H17.1125C17.285 12.75 17.4275 12.89 17.4275 13.065Z" fill="white" fill-opacity="0.8"/>
</g>
<path d="M11.4705 20.25H17.4265V18.706H12.8455C12.086 18.706 11.4705 19.3217 11.4705 20.081V20.25Z" fill="#FBE7CA"/>
<path d="M11.4705 20.25H17.4265V18.706H12.8455C12.086 18.706 11.4705 19.3217 11.4705 20.081V20.25Z" fill="#181818"/>
<path d="M11.4705 20.25H17.4265V18.706H12.8455C12.086 18.706 11.4705 19.3217 11.4705 20.081V20.25Z" fill="white" fill-opacity="0.75"/>
<g opacity="0.6">
<path d="M17.4275 18.705H15.6775V20.25H17.4275V18.705Z" fill="#A57830"/>
</g>
<path d="M16.3235 14.544H13.4557C13.3175 14.544 13.2057 14.432 13.2057 14.294C13.2057 14.156 13.3175 14.044 13.4557 14.044H16.3235C16.4617 14.044 16.5735 14.156 16.5735 14.294C16.5735 14.4323 16.4617 14.544 16.3235 14.544Z" fill="#EC3237"/>
<path d="M16.3235 14.544H13.4557C13.3175 14.544 13.2057 14.432 13.2057 14.294C13.2057 14.156 13.3175 14.044 13.4557 14.044H16.3235C16.4617 14.044 16.5735 14.156 16.5735 14.294C16.5735 14.4323 16.4617 14.544 16.3235 14.544Z" fill="black" fill-opacity="0.1"/>
<path d="M16.3235 16.0883H13.6765C13.5383 16.0883 13.4265 15.9763 13.4265 15.8383C13.4265 15.7003 13.5383 15.5883 13.6765 15.5883H16.3235C16.4618 15.5883 16.5735 15.7003 16.5735 15.8383C16.5735 15.9763 16.4618 16.0883 16.3235 16.0883Z" fill="#EC3237"/>
<path d="M16.3235 16.0883H13.6765C13.5383 16.0883 13.4265 15.9763 13.4265 15.8383C13.4265 15.7003 13.5383 15.5883 13.6765 15.5883H16.3235C16.4618 15.5883 16.5735 15.7003 16.5735 15.8383C16.5735 15.9763 16.4618 16.0883 16.3235 16.0883Z" fill="black" fill-opacity="0.1"/>
<path d="M16.3235 17.4117H12.7943C12.656 17.4117 12.5443 17.2997 12.5443 17.1617C12.5443 17.0237 12.656 16.9117 12.7943 16.9117H16.3235C16.4617 16.9117 16.5735 17.0237 16.5735 17.1617C16.5735 17.2997 16.4617 17.4117 16.3235 17.4117Z" fill="#EC3237"/>
<path d="M16.3235 17.4117H12.7943C12.656 17.4117 12.5443 17.2997 12.5443 17.1617C12.5443 17.0237 12.656 16.9117 12.7943 16.9117H16.3235C16.4617 16.9117 16.5735 17.0237 16.5735 17.1617C16.5735 17.2997 16.4617 17.4117 16.3235 17.4117Z" fill="black" fill-opacity="0.1"/>
<path d="M22.4602 22.1358L20.661 20.459L21.586 19.4663L19.3742 18.9563L17.1622 18.4463L17.8265 20.6168L18.4907 22.7873L19.416 21.7948L21.2152 23.4715L22.4602 22.1358Z" fill="#EC3237"/>
<path d="M22.4602 22.1358L20.661 20.459L21.586 19.4663L19.3742 18.9563L17.1622 18.4463L17.8265 20.6168L18.4907 22.7873L19.416 21.7948L21.2152 23.4715L22.4602 22.1358Z" fill="black" fill-opacity="0.1"/>
<g opacity="0.6">
<path d="M22.46 22.135L21.215 23.4725L19.415 21.795L18.49 22.7875L18.0975 21.5H18.6525C19.26 21.5 19.75 21.01 19.75 20.4025V19.0425L21.585 19.465L20.66 20.46L22.46 22.135Z" fill="#EC3237"/>
<path d="M22.46 22.135L21.215 23.4725L19.415 21.795L18.49 22.7875L18.0975 21.5H18.6525C19.26 21.5 19.75 21.01 19.75 20.4025V19.0425L21.585 19.465L20.66 20.46L22.46 22.135Z" fill="black" fill-opacity="0.2"/>
</g>
<path d="M17.0002 5.99999C16.9772 5.99999 16.9542 5.99674 16.9315 5.99024C16.7987 5.95224 16.7217 5.81399 16.7595 5.68124L17.2595 3.93124C17.2975 3.79824 17.437 3.72149 17.5685 3.75974C17.7012 3.79774 17.7782 3.93599 17.7405 4.06874L17.2405 5.81874C17.209 5.92849 17.1087 5.99999 17.0002 5.99999Z" fill="#3E4095"/>
<path d="M17.8003 3.2C17.7773 3.2 17.7543 3.19675 17.7315 3.19025C17.5988 3.15225 17.5218 3.014 17.5595 2.88125L18.2595 0.431254C18.2975 0.298504 18.4373 0.221754 18.5685 0.259754C18.7013 0.297754 18.7783 0.436004 18.7405 0.568754L18.0405 3.01875C18.009 3.1285 17.909 3.2 17.8003 3.2Z" fill="#FEDF89"/>
<path d="M18.4997 6.25001C18.445 6.25001 18.39 6.23201 18.3437 6.19526C18.236 6.10901 18.2185 5.95176 18.3047 5.84401L20.3047 3.34401C20.3915 3.23651 20.5482 3.21876 20.6562 3.30501C20.764 3.39126 20.7815 3.54851 20.6952 3.65626L18.6952 6.15626C18.6457 6.21801 18.5732 6.25001 18.4997 6.25001Z" fill="#3E4095"/>
<path d="M15.8823 6.09526C15.7535 6.09526 15.6443 5.99651 15.6335 5.86601L15.3683 2.67551C15.3568 2.53776 15.459 2.41701 15.5965 2.40551C15.7368 2.39426 15.8548 2.49651 15.8663 2.63376L16.1315 5.82426C16.143 5.96201 16.0408 6.08276 15.9033 6.09426C15.8963 6.09501 15.8893 6.09526 15.8823 6.09526Z" fill="#3E4095"/>
<path d="M5.11727 6.00002C5.00852 6.00002 4.90852 5.92827 4.87702 5.81852L4.41452 4.19852C4.37677 4.06577 4.45352 3.92752 4.58652 3.88952C4.71827 3.85177 4.85752 3.92827 4.89552 4.06127L5.35802 5.68127C5.39577 5.81402 5.31902 5.95252 5.18602 5.99027C5.16302 5.99702 5.14002 6.00002 5.11727 6.00002Z" fill="#3E4095"/>
<path d="M4.44973 3.66526C4.34098 3.66526 4.24098 3.59351 4.20948 3.48376L3.37698 0.568755C3.33923 0.436005 3.41598 0.297755 3.54898 0.259755C3.68023 0.222005 3.81998 0.298505 3.85798 0.431505L4.69048 3.34651C4.72823 3.47926 4.65148 3.61751 4.51848 3.65551C4.49548 3.66201 4.47273 3.66526 4.44973 3.66526Z" fill="#FEDF89"/>
<path d="M3.61776 6.25001C3.54426 6.25001 3.47176 6.21801 3.42226 6.15626L1.42226 3.65626C1.33601 3.54851 1.35376 3.39101 1.46126 3.30501C1.56951 3.21876 1.72651 3.23651 1.81276 3.34401L3.81276 5.84401C3.89901 5.95176 3.88126 6.10926 3.77376 6.19526C3.72751 6.23201 3.67226 6.25001 3.61776 6.25001Z" fill="#3E4095"/>
<path d="M6.23475 6.09526C6.228 6.09526 6.22075 6.09501 6.21375 6.09426C6.07625 6.08276 5.974 5.96201 5.9855 5.82426L6.251 2.63376C6.2625 2.49626 6.3805 2.39426 6.52075 2.40551C6.65825 2.41701 6.7605 2.53776 6.749 2.67551L6.48375 5.86601C6.473 5.99651 6.3635 6.09526 6.23475 6.09526Z" fill="#3E4095"/>
<path d="M18.7052 9.36252C19.1877 9.36252 19.1885 8.61252 18.7052 8.61252C18.2225 8.61252 18.2217 9.36252 18.7052 9.36252Z" fill="#DF65E5"/>
<path d="M17.138 9.36252C17.6205 9.36252 17.6215 8.61252 17.138 8.61252C16.6555 8.61252 16.6547 9.36252 17.138 9.36252Z" fill="#EFC206"/>
<path d="M15.571 9.36252C16.0535 9.36252 16.0545 8.61252 15.571 8.61252C15.0883 8.61252 15.0875 9.36252 15.571 9.36252Z" fill="#FF8500"/>
<g opacity="0.6">
<path d="M5.4375 9C5.4375 9.1025 5.355 9.1875 5.25 9.1875H1.0825C1.05 9.1875 1.02 9.18 0.994995 9.165C1.055 9.0425 1.125 8.9225 1.2025 8.8125H5.25C5.355 8.8125 5.4375 8.8975 5.4375 9Z" fill="#052FA5"/>
</g>
<path d="M9.84652 2.7261C9.76702 2.61335 9.79377 2.45735 9.90652 2.3776C10.4133 2.01985 10.5345 1.3166 10.1768 0.809854C10.097 0.697104 10.124 0.541104 10.2368 0.461354C10.3495 0.381854 10.5055 0.408604 10.5853 0.521354C10.943 1.0281 11.6463 1.14935 12.153 0.791604C12.2658 0.712104 12.4218 0.738854 12.5015 0.851604C12.581 0.964354 12.5543 1.12035 12.4415 1.2001C11.9348 1.55785 11.8135 2.2611 12.1713 2.76785C12.2508 2.8806 12.224 3.0366 12.1113 3.11635C11.9985 3.1961 11.8425 3.1691 11.7628 3.05635C11.405 2.5496 10.7018 2.42835 10.195 2.7861C10.0823 2.86585 9.92627 2.83885 9.84652 2.7261Z" fill="#FEDF89"/>
<path d="M11.7208 2.26224C11.7148 2.26224 11.7085 2.26199 11.7025 2.26174C11.5648 2.25174 11.4613 2.13199 11.4713 1.99449C11.4838 1.82099 11.5238 1.65324 11.5885 1.49649C11.4688 1.50274 11.3488 1.49524 11.2285 1.47449C11.1075 1.45374 10.9908 1.41974 10.8798 1.37374C10.887 1.51724 10.875 1.66249 10.8435 1.80524C10.8135 1.94024 10.68 2.02574 10.5453 1.99499C10.4105 1.96499 10.3255 1.83149 10.3553 1.69674C10.4243 1.38549 10.361 1.07074 10.1768 0.809741C10.0973 0.696991 10.124 0.540991 10.2368 0.461241C10.35 0.381491 10.5058 0.408741 10.5855 0.521241L10.586 0.521991C10.7593 0.767241 11.0175 0.930491 11.3133 0.981491C11.6095 1.03224 11.907 0.964991 12.1523 0.792241L12.153 0.791741C12.2663 0.712241 12.422 0.739241 12.5018 0.851741C12.5813 0.964491 12.5545 1.12049 12.4418 1.20024C12.1658 1.39499 11.9938 1.69749 11.9698 2.03024C11.9605 2.16174 11.8505 2.26224 11.7208 2.26224Z" fill="#EC3237"/>
<path d="M11.7208 2.26224C11.7148 2.26224 11.7085 2.26199 11.7025 2.26174C11.5648 2.25174 11.4613 2.13199 11.4713 1.99449C11.4838 1.82099 11.5238 1.65324 11.5885 1.49649C11.4688 1.50274 11.3488 1.49524 11.2285 1.47449C11.1075 1.45374 10.9908 1.41974 10.8798 1.37374C10.887 1.51724 10.875 1.66249 10.8435 1.80524C10.8135 1.94024 10.68 2.02574 10.5453 1.99499C10.4105 1.96499 10.3255 1.83149 10.3553 1.69674C10.4243 1.38549 10.361 1.07074 10.1768 0.809741C10.0973 0.696991 10.124 0.540991 10.2368 0.461241C10.35 0.381491 10.5058 0.408741 10.5855 0.521241L10.586 0.521991C10.7593 0.767241 11.0175 0.930491 11.3133 0.981491C11.6095 1.03224 11.907 0.964991 12.1523 0.792241L12.153 0.791741C12.2663 0.712241 12.422 0.739241 12.5018 0.851741C12.5813 0.964491 12.5545 1.12049 12.4418 1.20024C12.1658 1.39499 11.9938 1.69749 11.9698 2.03024C11.9605 2.16174 11.8505 2.26224 11.7208 2.26224Z" fill="black" fill-opacity="0.1"/>
<path d="M11.5 14.6725V20.2425C11.3575 20.215 11.25 20.0875 11.25 19.935C11.25 20.0775 11.1575 20.195 11.03 20.2325V20.25H11V14.6725C11.1625 15.0525 11.25 15.4675 11.25 15.905C11.25 15.4675 11.3375 15.0525 11.5 14.6725Z" fill="#181818"/>
<path d="M11.5 14.6725V20.2425C11.3575 20.215 11.25 20.0875 11.25 19.935C11.25 20.0775 11.1575 20.195 11.03 20.2325V20.25H11V14.6725C11.1625 15.0525 11.25 15.4675 11.25 15.905C11.25 15.4675 11.3375 15.0525 11.5 14.6725Z" fill="white" fill-opacity="0.75"/>
</svg>
