<svg width="40" height="40" viewBox="0 0 40 40" fill="none" xmlns="http://www.w3.org/2000/svg">
<path fill-rule="evenodd" clip-rule="evenodd" d="M16.6293 22.4719C24.8205 22.4719 31.4608 18.2463 31.4608 13.0337C31.4608 7.82115 24.8205 3.59552 16.6293 3.59552C8.43812 3.59552 1.79785 7.82115 1.79785 13.0337C1.79785 14.9714 2.71547 16.7728 4.28925 18.2713L2.69672 27.232L10.1856 21.537C12.1342 22.1361 14.3201 22.4719 16.6293 22.4719Z" fill="#84C6F8"/>
<g filter="url(#filter0_d_652_11470)">
<path fill-rule="evenodd" clip-rule="evenodd" d="M35.013 31.7104C37.0065 30.1659 38.2023 28.1925 38.2023 26.0422C38.2023 21.0918 31.8639 17.0787 24.045 17.0787C16.2261 17.0787 9.8877 21.0918 9.8877 26.0422C9.8877 30.9927 16.2261 35.0058 24.045 35.0058C26.9899 35.0058 29.7248 34.4365 31.9901 33.4623L35.8179 36.4045L35.013 31.7104Z" fill="#FFE785"/>
</g>
<path d="M19.2121 12.8046C19.2121 13.1383 19.186 13.4442 19.1336 13.7222C19.0813 14.0003 19.0012 14.2538 18.8933 14.4828C18.7887 14.7118 18.6611 14.9114 18.5107 15.0815C18.3636 15.2516 18.1952 15.3972 18.0055 15.5182C18.0546 15.6851 18.1298 15.8028 18.2311 15.8715C18.3358 15.9402 18.5009 15.9746 18.7265 15.9746H19.3102C19.4705 15.9746 19.5506 16.0269 19.5506 16.1316V16.6763C19.5506 16.7679 19.5342 16.8333 19.5015 16.8726C19.4721 16.9118 19.4149 16.9429 19.3298 16.9658C19.0486 17.0411 18.7576 17.0787 18.4568 17.0787C17.4692 17.0787 16.8774 16.6959 16.6812 15.9304C16.606 15.937 16.4948 15.9402 16.3476 15.9402C15.7852 15.9402 15.2882 15.8306 14.8565 15.6115C14.4249 15.3923 14.0881 15.0488 13.8461 14.581C13.6041 14.1099 13.4832 13.5178 13.4832 12.8046V11.4503C13.4832 10.7371 13.6041 10.1466 13.8461 9.6788C14.0881 9.20772 14.4249 8.86259 14.8565 8.64341C15.2882 8.42423 15.7852 8.31464 16.3476 8.31464C16.9101 8.31464 17.4071 8.42423 17.8387 8.64341C18.2704 8.86259 18.6072 9.20772 18.8492 9.6788C19.0911 10.1466 19.2121 10.7371 19.2121 11.4503V12.8046ZM17.8044 12.8046V11.4503C17.8044 10.7894 17.6851 10.3053 17.4463 9.99776C17.2109 9.68698 16.8447 9.53159 16.3476 9.53159C15.8506 9.53159 15.4827 9.68698 15.244 9.99776C15.0086 10.3053 14.8909 10.7894 14.8909 11.4503V12.8046C14.8909 13.4622 15.0086 13.948 15.244 14.262C15.4827 14.5728 15.8506 14.7282 16.3476 14.7282C16.8447 14.7282 17.2109 14.5728 17.4463 14.262C17.6851 13.948 17.8044 13.4622 17.8044 12.8046Z" fill="#FFE785"/>
<path d="M27.1911 29.7086C27.1911 29.7632 27.1725 29.8075 27.1355 29.8416C27.1018 29.8723 27.058 29.8876 27.0041 29.8876H25.9074C25.8636 29.8876 25.8214 29.8706 25.781 29.8365C25.744 29.799 25.7204 29.7564 25.7103 29.7086L25.2352 27.7193H22.8548L22.3797 29.7086C22.3696 29.7564 22.3443 29.799 22.3039 29.8365C22.2669 29.8706 22.2264 29.8876 22.1826 29.8876H21.0859C21.032 29.8876 20.9865 29.8723 20.9495 29.8416C20.9158 29.8075 20.8989 29.7632 20.8989 29.7086C20.9023 29.7018 20.904 29.695 20.904 29.6882C20.9073 29.6814 20.909 29.6711 20.909 29.6575L22.6072 23.0913C22.7891 22.3787 23.2675 22.0225 24.0425 22.0225C24.8208 22.0225 25.3009 22.3787 25.4828 23.0913L27.181 29.6575C27.1843 29.6677 27.186 29.6763 27.186 29.6831C27.1894 29.6899 27.1911 29.6984 27.1911 29.7086ZM24.9572 26.5278L24.2092 23.4134C24.1924 23.3487 24.1722 23.306 24.1486 23.2856C24.1284 23.2617 24.093 23.2498 24.0425 23.2498C23.9953 23.2498 23.9599 23.2617 23.9363 23.2856C23.9161 23.306 23.8976 23.3487 23.8807 23.4134L23.1328 26.5278H24.9572Z" fill="#84C6F8"/>
<defs>
<filter id="filter0_d_652_11470" x="-12.1123" y="-4.92133" width="68.3147" height="59.3259" filterUnits="userSpaceOnUse" color-interpolation-filters="sRGB">
<feFlood flood-opacity="0" result="BackgroundImageFix"/>
<feColorMatrix in="SourceAlpha" type="matrix" values="0 0 0 0 0 0 0 0 0 0 0 0 0 0 0 0 0 0 127 0" result="hardAlpha"/>
<feOffset dx="-2" dy="-2"/>
<feGaussianBlur stdDeviation="10"/>
<feComposite in2="hardAlpha" operator="out"/>
<feColorMatrix type="matrix" values="0 0 0 0 0 0 0 0 0 0 0 0 0 0 0 0 0 0 0.1 0"/>
<feBlend mode="normal" in2="BackgroundImageFix" result="effect1_dropShadow_652_11470"/>
<feBlend mode="normal" in="SourceGraphic" in2="effect1_dropShadow_652_11470" result="shape"/>
</filter>
</defs>
</svg>
