<svg width="41" height="40" viewBox="0 0 41 40" fill="none" xmlns="http://www.w3.org/2000/svg">
<path d="M29.3958 30.625C30.604 30.625 31.5833 29.1559 31.5833 27.3438C31.5833 25.5316 30.604 24.0625 29.3958 24.0625C28.1877 24.0625 27.2083 25.5316 27.2083 27.3438C27.2083 29.1559 28.1877 30.625 29.3958 30.625Z" fill="#EC3237"/>
<path d="M29.3958 30.625C30.604 30.625 31.5833 29.1559 31.5833 27.3438C31.5833 25.5316 30.604 24.0625 29.3958 24.0625C28.1877 24.0625 27.2083 25.5316 27.2083 27.3438C27.2083 29.1559 28.1877 30.625 29.3958 30.625Z" fill="white" fill-opacity="0.4"/>
<path d="M26.8958 14.375C26.7302 15.6906 26.4865 16.5156 26.149 17.1688C25.849 17.7563 25.474 18.2063 25.0208 18.75L15.3333 18.125C15.3333 18.125 14.6021 17.3938 14.1302 15.625C13.8458 14.5625 13.6521 13.1281 13.7708 11.25C13.7708 10.625 14.3958 10.3125 15.0208 10.625C15.3333 10.1813 15.7021 9.775 16.1271 9.42188C17.3958 8.36875 19.1708 7.7875 21.4458 8.15313C22.3521 8.29688 23.3365 8.59063 24.3958 9.0625C26.7521 10.2063 27.1615 12.15 26.8958 14.375Z" fill="#464045"/>
<path d="M26.8958 14.375C26.7302 15.6906 26.4865 16.5156 26.149 17.1687C24.5021 17.1875 23.1458 17.1875 23.1458 17.1875C24.4115 12.4875 23.6958 9.8375 21.4458 8.15312C22.3521 8.29687 23.3365 8.59062 24.3958 9.0625C26.7521 10.2062 27.1615 12.15 26.8958 14.375Z" fill="#282628"/>
<path d="M11.2708 30.625C12.479 30.625 13.4583 29.1559 13.4583 27.3438C13.4583 25.5316 12.479 24.0625 11.2708 24.0625C10.0627 24.0625 9.08333 25.5316 9.08333 27.3438C9.08333 29.1559 10.0627 30.625 11.2708 30.625Z" fill="#EC3237"/>
<path d="M11.2708 30.625C12.479 30.625 13.4583 29.1559 13.4583 27.3438C13.4583 25.5316 12.479 24.0625 11.2708 24.0625C10.0627 24.0625 9.08333 25.5316 9.08333 27.3438C9.08333 29.1559 10.0627 30.625 11.2708 30.625Z" fill="white" fill-opacity="0.4"/>
<path d="M25.0715 18.4378C25.7924 19.0253 26.4108 17.545 26.4108 16.8753C26.1877 14.8663 24.8483 16.6522 24.8483 16.6522L25.0715 18.4378Z" fill="#F7CF9F"/>
<path d="M15.5627 18.4378C14.8418 19.0253 14.2233 17.545 14.2233 16.8753C14.4465 14.8663 15.7858 16.6522 15.7858 16.6522L15.5627 18.4378Z" fill="#F7CF9F"/>
<path d="M20.5552 22.8125H19.9493C17.483 22.8125 15.4836 20.8131 15.4836 18.3469V14.2044C15.4836 14.1259 15.5471 14.0625 15.6255 14.0625H24.879C24.9574 14.0625 25.0208 14.1259 25.0208 14.2044V18.3469C25.0208 20.8131 23.0215 22.8125 20.5552 22.8125Z" fill="#FCCAB1"/>
<g opacity="0.6">
<path d="M25.0208 14.2031V18.3469C25.0208 20.8125 23.0208 22.8125 20.5552 22.8125H19.949C19.1021 22.8125 18.3115 22.5781 17.6365 22.1656C17.7802 22.1813 17.9271 22.1875 18.074 22.1875H18.6802C21.1458 22.1875 23.1458 20.1875 23.1458 17.7219V14.0625H24.8802C24.9583 14.0625 25.0208 14.125 25.0208 14.2031Z" fill="#EA9E7D"/>
</g>
<path d="M18.3021 18.4375C18.561 18.4375 18.7708 18.1577 18.7708 17.8125C18.7708 17.4673 18.561 17.1875 18.3021 17.1875C18.0432 17.1875 17.8333 17.4673 17.8333 17.8125C17.8333 18.1577 18.0432 18.4375 18.3021 18.4375Z" fill="#464045"/>
<path d="M19.0836 16.875C18.9886 16.875 18.8946 16.8319 18.8333 16.75C18.6046 16.445 18.3724 16.2984 18.1368 16.3056C17.8349 16.3184 17.563 16.5919 17.4949 16.6878C17.4465 16.7978 17.3365 16.875 17.2083 16.875C17.0358 16.875 16.8958 16.735 16.8958 16.5625C16.8958 16.3119 17.3549 15.8837 17.7727 15.7444C18.0974 15.6356 18.7324 15.5737 19.3333 16.375C19.4371 16.5131 19.409 16.7091 19.2708 16.8125C19.2146 16.8547 19.1486 16.875 19.0836 16.875Z" fill="#464045"/>
<path d="M22.0521 18.4375C22.311 18.4375 22.5208 18.1577 22.5208 17.8125C22.5208 17.4673 22.311 17.1875 22.0521 17.1875C21.7932 17.1875 21.5833 17.4673 21.5833 17.8125C21.5833 18.1577 21.7932 18.4375 22.0521 18.4375Z" fill="#464045"/>
<path d="M23.1461 16.875C23.0508 16.875 22.9571 16.8319 22.8958 16.75C22.6674 16.445 22.434 16.2984 22.1993 16.3056C21.8971 16.3184 21.6252 16.5919 21.5571 16.6878C21.509 16.7978 21.399 16.875 21.2708 16.875C21.098 16.875 20.9583 16.735 20.9583 16.5625C20.9583 16.3119 21.4174 15.8837 21.8352 15.7444C22.1611 15.6356 22.7955 15.5741 23.3958 16.375C23.4996 16.5131 23.4715 16.7091 23.3333 16.8125C23.2771 16.8547 23.2115 16.875 23.1461 16.875Z" fill="#464045"/>
<path d="M26.2708 14.6875C25.2615 15.1063 24.3458 15.4 23.5146 15.5875C19.949 16.4125 17.9458 15.3688 16.8521 14.2281C15.9115 13.2438 15.6458 12.1875 15.6458 12.1875C16.2708 12.05 16.8896 11.9188 17.499 11.8C19.8083 11.3375 21.9396 11.0344 23.5333 11.1938C25.549 11.4 26.7052 12.3531 26.2708 14.6875Z" fill="#464045"/>
<path d="M26.2708 14.6875C25.2614 15.1063 24.3458 15.4 23.5146 15.5875C23.8521 13.8094 23.8458 12.3719 23.5333 11.1938C25.5489 11.4 26.7052 12.3531 26.2708 14.6875Z" fill="#282628"/>
<path d="M19.3958 24.0625L11.5671 19.29C12.2824 18.0509 13.7093 17.5353 14.754 18.1384L19.9208 21.1216L19.3958 24.0625Z" fill="#FBE7CA"/>
<path d="M29.2958 19.2906L28.0177 20.0688L26.774 20.8281L21.4677 24.0625L20.9427 21.1219L25.4615 18.5094L25.699 18.375L26.1083 18.1375C26.4052 17.9656 26.7302 17.8844 27.0646 17.8844C27.9052 17.8844 28.7833 18.4031 29.2958 19.2906Z" fill="#FBE7CA"/>
<g opacity="0.6">
<path d="M29.2958 19.2906L28.0177 20.0688C27.2615 18.7281 26.324 18.4125 25.699 18.375L26.1083 18.1375C26.4052 17.9656 26.7302 17.8844 27.0646 17.8844C27.9052 17.8844 28.7833 18.4031 29.2958 19.2906Z" fill="#E2AA61"/>
</g>
<path d="M15.5427 34.3031L11.2115 32.3031C11.0583 32.2344 10.9583 32.0781 10.9583 31.9094V30.6156V30.5906V26.8844V24.0969V23.0219V21.4375V19.4781C10.9583 19.15 11.3083 18.9406 11.599 19.0969L18.0646 22.5875L18.0771 22.5938L18.9333 23.0563L19.0833 23.1375V35.9375L16.8802 34.9188L15.5427 34.3031Z" fill="#3E4095"/>
<path d="M15.5427 34.3031L11.2115 32.3031C11.0583 32.2344 10.9583 32.0781 10.9583 31.9094V30.6156V30.5906V26.8844V24.0969V23.0219V21.4375V19.4781C10.9583 19.15 11.3083 18.9406 11.599 19.0969L18.0646 22.5875L18.0771 22.5938L18.9333 23.0563L19.0833 23.1375V35.9375L16.8802 34.9188L15.5427 34.3031Z" fill="white" fill-opacity="0.6"/>
<path d="M21.5833 35.9375L29.5102 32.2791C29.6311 32.2234 29.7083 32.1022 29.7083 31.9691V19.3222C29.7083 19.0638 29.4324 18.8991 29.2049 19.0219L21.5833 23.1359V35.9375Z" fill="#3E4095"/>
<path d="M21.5833 35.9375L29.5102 32.2791C29.6311 32.2234 29.7083 32.1022 29.7083 31.9691V19.3222C29.7083 19.0638 29.4324 18.8991 29.2049 19.0219L21.5833 23.1359V35.9375Z" fill="white" fill-opacity="0.6"/>
<g opacity="0.6">
<path d="M29.7083 19.3219V31.9688C29.7083 32.1031 29.6302 32.2219 29.5115 32.2781L21.5833 35.9375V33.5094L27.6365 30.7156C27.7552 30.6594 27.8333 30.5406 27.8333 30.4063V19.7625L29.2052 19.0219C29.4333 18.9 29.7083 19.0625 29.7083 19.3219Z" fill="#3E4095"/>
<path d="M29.7083 19.3219V31.9688C29.7083 32.1031 29.6302 32.2219 29.5115 32.2781L21.5833 35.9375V33.5094L27.6365 30.7156C27.7552 30.6594 27.8333 30.5406 27.8333 30.4063V19.7625L29.2052 19.0219C29.4333 18.9 29.7083 19.0625 29.7083 19.3219Z" fill="white" fill-opacity="0.16"/>
</g>
<path d="M20.9583 20.9375H19.7083L19.0833 23.125H21.5833L20.9583 20.9375Z" fill="#CCB079"/>
<path d="M21.5833 23.125H19.0833V35.9375H21.5833V23.125Z" fill="#3E4095"/>
<path d="M21.5833 23.125H19.0833V35.9375H21.5833V23.125Z" fill="black" fill-opacity="0.4"/>
<path d="M11.1146 30.625C12.0638 30.625 12.8333 29.7855 12.8333 28.75C12.8333 27.7145 12.0638 26.875 11.1146 26.875C10.1653 26.875 9.39583 27.7145 9.39583 28.75C9.39583 29.7855 10.1653 30.625 11.1146 30.625Z" fill="#FCCAB1"/>
<path d="M29.5521 30.625C30.5013 30.625 31.2708 29.7855 31.2708 28.75C31.2708 27.7145 30.5013 26.875 29.5521 26.875C28.6028 26.875 27.8333 27.7145 27.8333 28.75C27.8333 29.7855 28.6028 30.625 29.5521 30.625Z" fill="#FCCAB1"/>
<g opacity="0.6">
<path d="M31.2708 28.75C31.2708 29.7844 30.5021 30.625 29.5521 30.625C29.2708 30.625 29.0052 30.5531 28.7708 30.4187C29.3271 30.1094 29.7083 29.4781 29.7083 28.75C29.7083 28.0219 29.3271 27.3906 28.7708 27.0813C29.0052 26.9469 29.2708 26.875 29.5521 26.875C30.5021 26.875 31.2708 27.7156 31.2708 28.75Z" fill="#EA9E7D"/>
</g>
<path d="M29.848 9.04437C29.8005 8.87843 29.8968 8.70531 30.0627 8.65812C30.8083 8.44499 31.2415 7.66499 31.0283 6.91968C30.9808 6.75374 31.0771 6.58062 31.243 6.53343C31.409 6.48593 31.5821 6.58218 31.6293 6.74812C31.8424 7.49374 32.6221 7.92687 33.3677 7.71374C33.5336 7.66624 33.7068 7.76249 33.754 7.92843C33.8015 8.09437 33.7052 8.26749 33.5393 8.31468C32.7936 8.52781 32.3605 9.3078 32.5736 10.0531C32.6211 10.2191 32.5249 10.3922 32.359 10.4394C32.193 10.4869 32.0199 10.3906 31.9727 10.2247C31.7596 9.47906 30.9796 9.04593 30.2343 9.25906C30.0683 9.30624 29.8952 9.21031 29.848 9.04437Z" fill="#FEDF89"/>
<path d="M32.3533 9.2875C32.3121 9.2875 32.2699 9.27906 32.2299 9.26156C32.0715 9.19313 31.9986 9.00906 32.0668 8.85063C32.1533 8.65063 32.2702 8.46875 32.4118 8.31031C32.1208 8.22469 31.8515 8.075 31.6252 7.87281C31.5749 8.04594 31.5012 8.21281 31.4046 8.36844C31.3137 8.51531 31.1212 8.56031 30.9743 8.46969C30.8274 8.37875 30.7824 8.18625 30.873 8.03969C31.0827 7.70094 31.138 7.30313 31.028 6.91938C30.9808 6.75344 31.0768 6.58063 31.243 6.53313C31.408 6.48625 31.5818 6.58156 31.6293 6.74781C31.8427 7.49344 32.6224 7.92625 33.3674 7.71375H33.368C33.5324 7.66688 33.7068 7.76219 33.7543 7.92844C33.8015 8.09438 33.7055 8.26719 33.5393 8.31469C33.1337 8.43063 32.8058 8.71688 32.6405 9.09938C32.5896 9.21688 32.4746 9.2875 32.3533 9.2875Z" fill="#EC3237"/>
<path d="M32.3533 9.2875C32.3121 9.2875 32.2699 9.27906 32.2299 9.26156C32.0715 9.19313 31.9986 9.00906 32.0668 8.85063C32.1533 8.65063 32.2702 8.46875 32.4118 8.31031C32.1208 8.22469 31.8515 8.075 31.6252 7.87281C31.5749 8.04594 31.5012 8.21281 31.4046 8.36844C31.3137 8.51531 31.1212 8.56031 30.9743 8.46969C30.8274 8.37875 30.7824 8.18625 30.873 8.03969C31.0827 7.70094 31.138 7.30313 31.028 6.91938C30.9808 6.75344 31.0768 6.58063 31.243 6.53313C31.408 6.48625 31.5818 6.58156 31.6293 6.74781C31.8427 7.49344 32.6224 7.92625 33.3674 7.71375H33.368C33.5324 7.66688 33.7068 7.76219 33.7543 7.92844C33.8015 8.09438 33.7055 8.26719 33.5393 8.31469C33.1337 8.43063 32.8058 8.71688 32.6405 9.09938C32.5896 9.21688 32.4746 9.2875 32.3533 9.2875Z" fill="black" fill-opacity="0.2"/>
<path d="M33.1074 29.5141C33.0083 29.5141 32.9112 29.4675 32.8505 29.38C32.7521 29.2381 32.7871 29.0434 32.9287 28.945C33.4768 28.5637 33.8436 27.9916 33.9618 27.3344C34.0799 26.6769 33.9346 26.0131 33.553 25.4653C33.4546 25.3234 33.4896 25.1287 33.6312 25.0303C33.7727 24.9316 33.9677 24.9662 34.0665 25.1081C34.543 25.7934 34.7243 26.6231 34.5771 27.4447C34.4296 28.2662 33.9711 28.9812 33.2858 29.4578C33.2311 29.4959 33.169 29.5141 33.1074 29.5141Z" fill="#EC3237"/>
<path d="M33.1074 29.5141C33.0083 29.5141 32.9112 29.4675 32.8505 29.38C32.7521 29.2381 32.7871 29.0434 32.9287 28.945C33.4768 28.5637 33.8436 27.9916 33.9618 27.3344C34.0799 26.6769 33.9346 26.0131 33.553 25.4653C33.4546 25.3234 33.4896 25.1287 33.6312 25.0303C33.7727 24.9316 33.9677 24.9662 34.0665 25.1081C34.543 25.7934 34.7243 26.6231 34.5771 27.4447C34.4296 28.2662 33.9711 28.9812 33.2858 29.4578C33.2311 29.4959 33.169 29.5141 33.1074 29.5141Z" fill="black" fill-opacity="0.1"/>
<path d="M35.0389 30.9394C34.9402 30.9394 34.8427 30.8928 34.7821 30.8053C34.6833 30.6637 34.7186 30.4691 34.8602 30.3703C35.8574 29.6766 36.5249 28.6359 36.7399 27.4403C36.9543 26.2444 36.6908 25.0369 35.9968 24.0397C35.8983 23.8978 35.9333 23.7031 36.0749 23.6047C36.2164 23.5062 36.4114 23.5409 36.5102 23.6828C37.2989 24.8169 37.5989 26.1906 37.3549 27.5506C37.1108 28.9109 36.3518 30.0944 35.2174 30.8834C35.1627 30.9212 35.1005 30.9394 35.0389 30.9394Z" fill="#EC3237"/>
<path d="M35.0389 30.9394C34.9402 30.9394 34.8427 30.8928 34.7821 30.8053C34.6833 30.6637 34.7186 30.4691 34.8602 30.3703C35.8574 29.6766 36.5249 28.6359 36.7399 27.4403C36.9543 26.2444 36.6908 25.0369 35.9968 24.0397C35.8983 23.8978 35.9333 23.7031 36.0749 23.6047C36.2164 23.5062 36.4114 23.5409 36.5102 23.6828C37.2989 24.8169 37.5989 26.1906 37.3549 27.5506C37.1108 28.9109 36.3518 30.0944 35.2174 30.8834C35.1627 30.9212 35.1005 30.9394 35.0389 30.9394Z" fill="black" fill-opacity="0.1"/>
<path d="M7.74865 30.7641C7.68709 30.7641 7.6249 30.7459 7.57053 30.7081C6.88553 30.2316 6.42678 29.5166 6.27928 28.695C6.13178 27.8734 6.31303 27.0437 6.7899 26.3584C6.88834 26.2169 7.08303 26.1822 7.2249 26.2806C7.36646 26.3791 7.40146 26.5737 7.30303 26.7156C6.92178 27.2637 6.77678 27.9275 6.89459 28.5847C7.0124 29.2419 7.37928 29.8141 7.92771 30.1953C8.06928 30.2937 8.10428 30.4884 8.00584 30.6303C7.94459 30.7172 7.8474 30.7641 7.74865 30.7641Z" fill="#EC3237"/>
<path d="M7.74865 30.7641C7.68709 30.7641 7.6249 30.7459 7.57053 30.7081C6.88553 30.2316 6.42678 29.5166 6.27928 28.695C6.13178 27.8734 6.31303 27.0437 6.7899 26.3584C6.88834 26.2169 7.08303 26.1822 7.2249 26.2806C7.36646 26.3791 7.40146 26.5737 7.30303 26.7156C6.92178 27.2637 6.77678 27.9275 6.89459 28.5847C7.0124 29.2419 7.37928 29.8141 7.92771 30.1953C8.06928 30.2937 8.10428 30.4884 8.00584 30.6303C7.94459 30.7172 7.8474 30.7641 7.74865 30.7641Z" fill="black" fill-opacity="0.1"/>
<path d="M5.81708 32.1894C5.75552 32.1894 5.69333 32.1712 5.63896 32.1334C4.5049 31.3444 3.74552 30.1609 3.50146 28.8006C3.2574 27.4406 3.5574 26.0669 4.34677 24.9325C4.44521 24.7909 4.64021 24.7563 4.78177 24.8547C4.92333 24.9531 4.95833 25.1478 4.8599 25.2897C4.16615 26.2869 3.90208 27.4947 4.11708 28.6903C4.33177 29.8859 4.99927 30.9266 5.99646 31.6203C6.13833 31.7187 6.17333 31.9134 6.07458 32.0553C6.01302 32.1428 5.91583 32.1894 5.81708 32.1894Z" fill="#EC3237"/>
<path d="M5.81708 32.1894C5.75552 32.1894 5.69333 32.1712 5.63896 32.1334C4.5049 31.3444 3.74552 30.1609 3.50146 28.8006C3.2574 27.4406 3.5574 26.0669 4.34677 24.9325C4.44521 24.7909 4.64021 24.7563 4.78177 24.8547C4.92333 24.9531 4.95833 25.1478 4.8599 25.2897C4.16615 26.2869 3.90208 27.4947 4.11708 28.6903C4.33177 29.8859 4.99927 30.9266 5.99646 31.6203C6.13833 31.7187 6.17333 31.9134 6.07458 32.0553C6.01302 32.1428 5.91583 32.1894 5.81708 32.1894Z" fill="black" fill-opacity="0.1"/>
<path d="M7.79646 11.0069C7.68271 11.0069 7.57302 10.9447 7.51771 10.8363L6.38302 8.60875C6.3049 8.455 6.36583 8.26688 6.51958 8.18844C6.67365 8.10938 6.86146 8.17125 6.9399 8.325L8.07458 10.5525C8.15271 10.7063 8.09177 10.8944 7.93802 10.9728C7.8924 10.9963 7.84396 11.0069 7.79646 11.0069Z" fill="#3E4095"/>
<path d="M7.79646 11.0069C7.68271 11.0069 7.57302 10.9447 7.51771 10.8363L6.38302 8.60875C6.3049 8.455 6.36583 8.26688 6.51958 8.18844C6.67365 8.10938 6.86146 8.17125 6.9399 8.325L8.07458 10.5525C8.15271 10.7063 8.09177 10.8944 7.93802 10.9728C7.8924 10.9963 7.84396 11.0069 7.79646 11.0069Z" fill="white" fill-opacity="0.1"/>
<path d="M6.1152 10.4606C6.00145 10.4606 5.89176 10.3984 5.83645 10.29C5.75833 10.1363 5.81926 9.94814 5.97301 9.8697L8.20051 8.73501C8.35458 8.65595 8.54239 8.71782 8.62083 8.87157C8.69926 9.02532 8.63801 9.21345 8.48426 9.29189L6.25676 10.4266C6.21145 10.4497 6.1627 10.4606 6.1152 10.4606Z" fill="#3E4095"/>
<path d="M6.1152 10.4606C6.00145 10.4606 5.89176 10.3984 5.83645 10.29C5.75833 10.1363 5.81926 9.94814 5.97301 9.8697L8.20051 8.73501C8.35458 8.65595 8.54239 8.71782 8.62083 8.87157C8.69926 9.02532 8.63801 9.21345 8.48426 9.29189L6.25676 10.4266C6.21145 10.4497 6.1627 10.4606 6.1152 10.4606Z" fill="white" fill-opacity="0.1"/>
<path d="M15.3265 4.65375C15.259 5.25406 14.7174 5.68563 14.1171 5.61813C13.5168 5.55063 13.0849 5.00906 13.1527 4.40875C13.2205 3.80844 13.7618 3.37688 14.3621 3.44438C14.9624 3.51219 15.3943 4.05344 15.3265 4.65375Z" fill="#F2E593"/>
<path d="M14.2396 5.9375C14.1908 5.9375 14.1421 5.93406 14.093 5.93031C13.314 5.84094 12.7571 5.14406 12.8415 4.37531C12.9296 3.60562 13.6233 3.0475 14.3955 3.13312C15.094 3.21312 15.618 3.77937 15.6427 4.47969C15.649 4.65219 15.514 4.79687 15.3415 4.80312C15.168 4.81312 15.0243 4.67437 15.018 4.50187C15.0043 4.11312 14.7133 3.79875 14.3261 3.75437C13.8996 3.70562 13.5118 4.0175 13.4627 4.445C13.4161 4.87125 13.7258 5.25937 14.1533 5.30844C14.1746 5.30969 14.2071 5.3125 14.2396 5.3125C14.4121 5.3125 14.5521 5.4525 14.5521 5.625C14.5521 5.7975 14.4121 5.9375 14.2396 5.9375Z" fill="#EC3237"/>
<path d="M14.2396 5.9375C14.1908 5.9375 14.1421 5.93406 14.093 5.93031C13.314 5.84094 12.7571 5.14406 12.8415 4.37531C12.9296 3.60562 13.6233 3.0475 14.3955 3.13312C15.094 3.21312 15.618 3.77937 15.6427 4.47969C15.649 4.65219 15.514 4.79687 15.3415 4.80312C15.168 4.81312 15.0243 4.67437 15.018 4.50187C15.0043 4.11312 14.7133 3.79875 14.3261 3.75437C13.8996 3.70562 13.5118 4.0175 13.4627 4.445C13.4161 4.87125 13.7258 5.25937 14.1533 5.30844C14.1746 5.30969 14.2071 5.3125 14.2396 5.3125C14.4121 5.3125 14.5521 5.4525 14.5521 5.625C14.5521 5.7975 14.4121 5.9375 14.2396 5.9375Z" fill="black" fill-opacity="0.1"/>
<path d="M34.224 18.7656C34.1399 18.7656 34.0561 18.7319 33.9946 18.6653C33.8774 18.5384 33.8852 18.3406 34.0121 18.2237L36.059 16.3331C36.1852 16.2162 36.3827 16.2234 36.5005 16.3506C36.6177 16.4775 36.6099 16.6753 36.483 16.7922L34.4361 18.6828C34.3758 18.7381 34.2999 18.7656 34.224 18.7656Z" fill="#FEDF89"/>
<path d="M32.2083 20.625C32.124 20.625 32.0402 20.5912 31.9786 20.5244C31.8618 20.3975 31.8696 20.2 31.9968 20.0828L33.2436 18.9328C33.3708 18.8156 33.568 18.8237 33.6852 18.9506C33.8021 19.0775 33.7943 19.2753 33.6671 19.3922L32.4202 20.5422C32.3599 20.5978 32.284 20.625 32.2083 20.625Z" fill="#3E4095"/>
<path d="M32.2083 20.625C32.124 20.625 32.0402 20.5912 31.9786 20.5244C31.8618 20.3975 31.8696 20.2 31.9968 20.0828L33.2436 18.9328C33.3708 18.8156 33.568 18.8237 33.6852 18.9506C33.8021 19.0775 33.7943 19.2753 33.6671 19.3922L32.4202 20.5422C32.3599 20.5978 32.284 20.625 32.2083 20.625Z" fill="white" fill-opacity="0.1"/>
<path d="M30.9583 19.6875C30.9196 19.6875 30.8802 19.6803 30.8424 19.665C30.6821 19.6006 30.604 19.4191 30.668 19.2587L31.918 16.1337C31.9821 15.9734 32.1655 15.8959 32.3243 15.9597C32.4846 16.0241 32.5627 16.2056 32.4986 16.3659L31.2486 19.4909C31.1996 19.6131 31.0821 19.6875 30.9583 19.6875Z" fill="#3E4095"/>
<path d="M30.9583 19.6875C30.9196 19.6875 30.8802 19.6803 30.8424 19.665C30.6821 19.6006 30.604 19.4191 30.668 19.2587L31.918 16.1337C31.9821 15.9734 32.1655 15.8959 32.3243 15.9597C32.4846 16.0241 32.5627 16.2056 32.4986 16.3659L31.2486 19.4909C31.1996 19.6131 31.0821 19.6875 30.9583 19.6875Z" fill="white" fill-opacity="0.1"/>
<path d="M33.1458 22.1878C33.0218 22.1878 32.9043 22.1134 32.8555 21.9912C32.7915 21.8309 32.8696 21.6491 33.0299 21.585L36.1549 20.335C36.3136 20.2716 36.4971 20.3487 36.5611 20.5091C36.6252 20.6694 36.5471 20.8512 36.3868 20.9153L33.2618 22.1653C33.224 22.1803 33.1846 22.1878 33.1458 22.1878Z" fill="#3E4095"/>
<path d="M33.1458 22.1878C33.0218 22.1878 32.9043 22.1134 32.8555 21.9912C32.7915 21.8309 32.8696 21.6491 33.0299 21.585L36.1549 20.335C36.3136 20.2716 36.4971 20.3487 36.5611 20.5091C36.6252 20.6694 36.5471 20.8512 36.3868 20.9153L33.2618 22.1653C33.224 22.1803 33.1846 22.1878 33.1458 22.1878Z" fill="white" fill-opacity="0.1"/>
<path d="M5.74553 19.3875C5.6699 19.3875 5.59396 19.36 5.53365 19.3047L3.8274 17.7297C3.70053 17.6125 3.69271 17.415 3.80959 17.2881C3.92646 17.1616 4.12428 17.1537 4.25115 17.2703L5.9574 18.8453C6.08428 18.9625 6.09209 19.16 5.97521 19.2869C5.91365 19.3537 5.8299 19.3875 5.74553 19.3875Z" fill="#FEDF89"/>
<path d="M8.10178 21.5625C8.02616 21.5625 7.95022 21.5353 7.88991 21.4797L6.31803 20.0297C6.19116 19.9125 6.18335 19.715 6.30022 19.5881C6.4171 19.4616 6.61491 19.4531 6.74178 19.5703L8.31366 21.0203C8.44053 21.1375 8.44835 21.335 8.33147 21.4619C8.27022 21.5288 8.18616 21.5625 8.10178 21.5625Z" fill="#3E4095"/>
<path d="M8.10178 21.5625C8.02616 21.5625 7.95022 21.5353 7.88991 21.4797L6.31803 20.0297C6.19116 19.9125 6.18335 19.715 6.30022 19.5881C6.4171 19.4616 6.61491 19.4531 6.74178 19.5703L8.31366 21.0203C8.44053 21.1375 8.44835 21.335 8.33147 21.4619C8.27022 21.5288 8.18616 21.5625 8.10178 21.5625Z" fill="white" fill-opacity="0.1"/>
<path d="M9.3524 20.6253C9.22834 20.6253 9.11115 20.5509 9.06209 20.4288L7.81209 17.3038C7.74803 17.1434 7.82584 16.9616 7.98615 16.8975C8.14709 16.8341 8.32834 16.9116 8.3924 17.0716L9.6424 20.1966C9.70647 20.3569 9.62834 20.5388 9.46834 20.6028C9.43022 20.6178 9.39115 20.6253 9.3524 20.6253Z" fill="#3E4095"/>
<path d="M9.3524 20.6253C9.22834 20.6253 9.11115 20.5509 9.06209 20.4288L7.81209 17.3038C7.74803 17.1434 7.82584 16.9616 7.98615 16.8975C8.14709 16.8341 8.32834 16.9116 8.3924 17.0716L9.6424 20.1966C9.70647 20.3569 9.62834 20.5388 9.46834 20.6028C9.43022 20.6178 9.39115 20.6253 9.3524 20.6253Z" fill="white" fill-opacity="0.1"/>
<path d="M7.16459 23.1253C7.12584 23.1253 7.08678 23.1181 7.04865 23.1028L3.92365 21.8528C3.76334 21.7884 3.68553 21.6069 3.74959 21.4466C3.81365 21.2863 3.99521 21.2088 4.15584 21.2725L7.28084 22.5225C7.44115 22.5869 7.51896 22.7684 7.4549 22.9288C7.40615 23.0506 7.28865 23.1253 7.16459 23.1253Z" fill="#3E4095"/>
<path d="M7.16459 23.1253C7.12584 23.1253 7.08678 23.1181 7.04865 23.1028L3.92365 21.8528C3.76334 21.7884 3.68553 21.6069 3.74959 21.4466C3.81365 21.2863 3.99521 21.2088 4.15584 21.2725L7.28084 22.5225C7.44115 22.5869 7.51896 22.7684 7.4549 22.9288C7.40615 23.0506 7.28865 23.1253 7.16459 23.1253Z" fill="white" fill-opacity="0.1"/>
<path d="M24.9946 4.46968C25.5977 4.46968 25.599 3.53218 24.9946 3.53218C24.3915 3.53218 24.3905 4.46968 24.9946 4.46968Z" fill="#3E4095"/>
<path d="M24.9946 4.46968C25.5977 4.46968 25.599 3.53218 24.9946 3.53218C24.3915 3.53218 24.3905 4.46968 24.9946 4.46968Z" fill="white" fill-opacity="0.1"/>
</svg>
