<svg width="200" height="200" viewBox="0 0 200 200" fill="none" xmlns="http://www.w3.org/2000/svg">
<path d="M182.957 63.4528C180.894 62.378 178.542 61.5025 176.268 60.656C175.173 60.2486 173.474 59.6158 172.157 59.0437C170.704 56.3414 169.109 53.7181 167.378 51.1849C166.491 49.3791 165.581 47.4866 164.697 45.6491C162.385 40.8413 160.21 36.2994 158.103 32.6473C156.992 30.6363 155.7 28.7302 154.243 26.9526C150.308 22.3124 146.055 21.3387 143.183 21.3387C140.685 21.3464 138.244 22.0813 136.157 23.4536C131.543 20.9915 126.728 18.9259 121.765 17.2793C113.321 14.474 104.483 13.0353 95.5853 13.0176C78.709 13.0176 62.1766 18.2472 47.7736 28.14C34.0203 37.592 23.117 50.6286 16.2458 65.8364C9.66112 80.5024 7.32947 96.4252 9.5051 111.886C10.6975 120.245 13.1454 128.377 16.7658 136.005C20.7503 144.338 25.907 152.057 32.079 158.929L32.1426 158.998C36.223 163.503 40.7965 167.534 45.7771 171.018C50.684 174.448 55.9375 177.353 61.4514 179.685C72.4281 184.303 84.2142 186.69 96.1227 186.706C110.615 186.706 124.727 183.127 136.905 176.357C154.16 167.285 167.941 151.96 175.722 133.188C181.732 118.684 183.752 103.105 181.691 88.1908C184.628 87.4121 187.233 85.7017 189.114 83.3165C190.706 81.2625 191.566 78.7355 191.558 76.1367C191.542 74.3313 191.158 72.5482 190.431 70.8957C189.704 69.2432 188.648 67.7558 187.328 66.5241C186.025 65.297 184.553 64.2628 182.957 63.4528Z" fill="white"/>
<path d="M95.7151 175.065C137.157 175.065 170.753 141.47 170.753 100.028C170.753 58.5861 137.157 24.9907 95.7151 24.9907C54.2731 24.9907 20.6777 58.5861 20.6777 100.028C20.6777 141.47 54.2731 175.065 95.7151 175.065Z" fill="#84C6F8"/>
<path d="M142.302 108.046C142.302 108.046 151.577 109.976 151.242 107.436C150.93 105.076 146.148 100.308 146.148 100.308C146.148 100.308 142.597 106.107 142.302 108.046Z" fill="#3E4095"/>
<path d="M142.302 108.046C142.302 108.046 151.577 109.976 151.242 107.436C150.93 105.076 146.148 100.308 146.148 100.308C146.148 100.308 142.597 106.107 142.302 108.046Z" fill="black" fill-opacity="0.2"/>
<path d="M164.177 68.1305C158.895 65.1835 145.082 25.3692 141.929 34.1035C138.777 42.8378 142.842 71.6843 142.842 71.6843C137.197 77.33 126.584 81.8806 109.879 81.6494C103.291 62.0977 109.59 35.0165 97.4548 42.2311C87.114 48.3679 76.2619 68.2519 72.2516 76.1367C42.6972 73.0914 24.1221 88.081 24.1221 92.8107C24.1221 121.452 58.0451 147.453 102.026 138.718C146.006 129.984 153.01 80.826 153.721 80.0112C154.431 79.1964 180.331 78.3875 179.926 75.9489C179.522 73.5104 169.45 71.0747 164.177 68.1305Z" fill="#3E4095"/>
<path d="M151.99 86.645C140.045 115.925 116.98 115.289 101 110.889C85.0191 106.489 89.015 88.6791 76.9609 83.2617C64.9069 77.8443 54.0085 85.9718 54.0085 85.9718C42.0903 82.5191 30.0882 85.6598 30.0882 85.6598C26.1992 88.4855 24.1074 91.2245 24.1074 92.8107C24.1074 121.452 58.0304 147.453 102.011 138.718C136.301 131.908 148.112 100.528 151.995 86.645H151.99Z" fill="#3E4095"/>
<path d="M151.99 86.645C140.045 115.925 116.98 115.289 101 110.889C85.0191 106.489 89.015 88.6791 76.9609 83.2617C64.9069 77.8443 54.0085 85.9718 54.0085 85.9718C42.0903 82.5191 30.0882 85.6598 30.0882 85.6598C26.1992 88.4855 24.1074 91.2245 24.1074 92.8107C24.1074 121.452 58.0304 147.453 102.011 138.718C136.301 131.908 148.112 100.528 151.995 86.645H151.99Z" fill="white" fill-opacity="0.1"/>
<path d="M82.1214 136.052C82.1214 136.052 80.3878 141.128 79.8562 148.577C79.3477 155.673 76.4584 157.571 68.877 150.354C64.832 146.499 58.961 136.106 59.1459 127.43C59.1401 127.43 71.0757 126.046 82.1214 136.052Z" fill="#3E4095"/>
<path d="M82.1214 136.052C82.1214 136.052 80.3878 141.128 79.8562 148.577C79.3477 155.673 76.4584 157.571 68.877 150.354C64.832 146.499 58.961 136.106 59.1459 127.43C59.1401 127.43 71.0757 126.046 82.1214 136.052Z" fill="black" fill-opacity="0.2"/>
<path d="M102.011 138.718C119.656 135.214 131.349 125.202 139.069 114.42C121.184 129.733 97.7782 136.089 97.7782 136.089C87.7553 132.229 80.7835 116.587 63.312 103.995C45.8406 91.4036 24.1074 92.8223 24.1074 92.8223C24.1074 121.455 58.0304 147.458 102.011 138.718Z" fill="#FFFAF3"/>
<path d="M31.1688 97.474C31.0631 97.4566 30.9621 97.4176 30.8721 97.3594C30.7822 97.3013 30.7051 97.2252 30.6459 97.1359L29.9466 96.0785C29.8317 95.9061 29.79 95.695 29.8306 95.4919C29.8712 95.2887 29.9909 95.1099 30.1633 94.995C30.3358 94.8801 30.5468 94.8383 30.75 94.8789C30.9532 94.9196 31.1319 95.0393 31.2468 95.2117L31.946 96.2692C32.0299 96.3955 32.075 96.5436 32.0757 96.6952C32.0764 96.8468 32.0328 96.9953 31.9502 97.1225C31.8676 97.2496 31.7496 97.3498 31.6108 97.4107C31.4719 97.4716 31.3183 97.4906 31.1688 97.4653V97.474Z" fill="#273E70"/>
<path d="M26.5519 97.737C26.4613 97.68 26.3831 97.6054 26.322 97.5175C26.2609 97.4296 26.2183 97.3303 26.1965 97.2256L25.9509 95.9803C25.9295 95.785 25.9826 95.5889 26.0995 95.4311C26.2164 95.2732 26.3885 95.1653 26.5815 95.1288C26.7745 95.0923 26.9741 95.13 27.1406 95.2343C27.307 95.3385 27.428 95.5018 27.4793 95.6913L27.7249 96.9337C27.7649 97.1364 27.7229 97.3466 27.608 97.5183C27.4932 97.69 27.315 97.8092 27.1124 97.8496C26.9181 97.8826 26.7184 97.8425 26.5519 97.737Z" fill="#273E70"/>
<path d="M99.2462 139.218C95.2879 139.435 74.2858 139.975 56.7912 119.233C39.3689 98.5777 26.0782 103.966 25.876 104.053C33.1598 127.193 62.4253 145.378 99.2462 139.218Z" fill="#FFEFD9"/>
<path d="M124.608 122.975C124.608 122.975 126.902 129.909 132.447 138.403C137.728 146.493 136.159 150.934 122.019 149.348C114.464 148.501 99.5725 142.07 92.6411 132.521C92.6411 132.521 104.429 121.215 124.608 122.975Z" fill="#3E4095"/>
<path d="M124.608 122.975C124.608 122.975 126.902 129.909 132.447 138.403C137.728 146.493 136.159 150.934 122.019 149.348C114.464 148.501 99.5725 142.07 92.6411 132.521C92.6411 132.521 104.429 121.215 124.608 122.975Z" fill="white" fill-opacity="0.1"/>
<path opacity="0.1" d="M133.172 77.876C127.341 80.2799 119.656 81.7852 109.875 81.6494C103.288 62.0977 109.587 35.0165 97.4516 42.231C97.0413 42.4708 96.6339 42.7366 96.2236 43.0227C96.3248 42.9967 100.269 42.1154 101.182 48.2234C101.887 52.9444 101.508 64.6691 101.078 74.2268C100.789 80.355 97.232 84.2526 101.485 86.1104C107.07 88.5461 109.916 86.6478 116.009 90.9846C125.792 97.9478 124.966 87.532 131.21 82.9958C132.712 81.8892 133.302 79.9476 133.172 77.876Z" fill="#FFFEFF"/>
<path d="M177.383 77.2491C179.01 76.8792 179.984 76.4545 179.912 75.9633C179.504 73.5277 169.45 71.0891 164.168 68.145C158.886 65.2008 145.073 25.3837 141.92 34.118C141.479 35.4658 141.189 36.8582 141.054 38.2699C141.054 38.2699 143.114 33.5141 145.044 39.2984C146.974 45.0828 153.486 68.4339 158.554 71.1816C163.622 73.9293 181.801 73.3428 177.383 77.2491Z" fill="#3E4095"/>
<path d="M177.383 77.2491C179.01 76.8792 179.984 76.4545 179.912 75.9633C179.504 73.5277 169.45 71.0891 164.168 68.145C158.886 65.2008 145.073 25.3837 141.92 34.118C141.479 35.4658 141.189 36.8582 141.054 38.2699C141.054 38.2699 143.114 33.5141 145.044 39.2984C146.974 45.0828 153.486 68.4339 158.554 71.1816C163.622 73.9293 181.801 73.3428 177.383 77.2491Z" fill="white" fill-opacity="0.1"/>
<path d="M145.298 102.097C145.298 102.097 154.897 101.386 162.16 98.3407C169.424 95.2954 150.924 90.2074 150.924 90.2074L145.298 102.097Z" fill="#3E4095"/>
<path d="M145.298 102.097C145.298 102.097 154.897 101.386 162.16 98.3407C169.424 95.2954 150.924 90.2074 150.924 90.2074L145.298 102.097Z" fill="white" fill-opacity="0.1"/>
<path d="M133.522 79.7396C133.522 79.7396 132.843 74.5013 134.042 70.1472C135.241 65.793 140.959 74.8914 140.959 74.8914L133.522 79.7396Z" fill="#3E4095"/>
<path d="M133.522 79.7396C133.522 79.7396 132.843 74.5013 134.042 70.1472C135.241 65.793 140.959 74.8914 140.959 74.8914L133.522 79.7396Z" fill="white" fill-opacity="0.1"/>
<path d="M71.5954 86.3214C71.5954 86.3214 68.9344 82.3977 65.684 81.9094C60.5642 81.1409 55.7969 87.0061 55.7969 87.0061C55.7969 87.0061 58.1083 78.8497 65.5655 79.8205C71.5694 80.6035 71.5954 86.3214 71.5954 86.3214Z" fill="#181818"/>
<path d="M71.5954 86.3214C71.5954 86.3214 68.9344 82.3977 65.684 81.9094C60.5642 81.1409 55.7969 87.0061 55.7969 87.0061C55.7969 87.0061 58.1083 78.8497 65.5655 79.8205C71.5694 80.6035 71.5954 86.3214 71.5954 86.3214Z" fill="white" fill-opacity="0.1"/>
<path d="M56.791 90.4993C56.791 90.4993 66.2707 96.6592 75.1061 92.8107C75.1061 92.8107 77.4436 95.1828 79.9139 94.6078C79.9139 94.6078 77.6458 96.4801 74.4965 94.6974C74.4965 94.6974 75.6147 96.535 77.4754 97.2804C77.4754 97.2804 75.2766 97.89 72.8034 95.4862C73.0816 96.267 73.4824 96.9985 73.9909 97.6531C73.9909 97.6531 72.526 97.3497 71.3501 95.6884C71.3501 95.6769 62.2749 99.9096 56.791 90.4993Z" fill="#181818"/>
<path d="M56.791 90.4993C56.791 90.4993 66.2707 96.6592 75.1061 92.8107C75.1061 92.8107 77.4436 95.1828 79.9139 94.6078C79.9139 94.6078 77.6458 96.4801 74.4965 94.6974C74.4965 94.6974 75.6147 96.535 77.4754 97.2804C77.4754 97.2804 75.2766 97.89 72.8034 95.4862C73.0816 96.267 73.4824 96.9985 73.9909 97.6531C73.9909 97.6531 72.526 97.3497 71.3501 95.6884C71.3501 95.6769 62.2749 99.9096 56.791 90.4993Z" fill="white" fill-opacity="0.1"/>
<path d="M46.1438 116.121C44.2452 116.123 42.3514 115.929 40.4924 115.543C35.5113 114.506 32.622 112.452 32.5007 112.365C32.3425 112.241 32.2385 112.06 32.2103 111.861C32.1822 111.662 32.232 111.46 32.3494 111.296C32.4669 111.133 32.6428 111.022 32.8406 110.985C33.0383 110.948 33.2426 110.989 33.4108 111.1C33.4483 111.126 36.2134 113.076 40.8882 114.035C45.199 114.919 52.0755 115.116 60.3388 111.036C60.4304 110.991 60.5301 110.964 60.6321 110.957C60.7341 110.95 60.8365 110.964 60.9334 110.996C61.0302 111.029 61.1197 111.081 61.1966 111.148C61.2736 111.215 61.3365 111.297 61.3818 111.389C61.4272 111.48 61.4541 111.58 61.4609 111.682C61.4677 111.784 61.4544 111.886 61.4216 111.983C61.3889 112.08 61.3374 112.17 61.2701 112.246C61.2028 112.323 61.121 112.386 61.0294 112.432C55.3375 115.249 50.2552 116.121 46.1438 116.121Z" fill="#EC3237"/>
<path d="M46.1438 116.121C44.2452 116.123 42.3514 115.929 40.4924 115.543C35.5113 114.506 32.622 112.452 32.5007 112.365C32.3425 112.241 32.2385 112.06 32.2103 111.861C32.1822 111.662 32.232 111.46 32.3494 111.296C32.4669 111.133 32.6428 111.022 32.8406 110.985C33.0383 110.948 33.2426 110.989 33.4108 111.1C33.4483 111.126 36.2134 113.076 40.8882 114.035C45.199 114.919 52.0755 115.116 60.3388 111.036C60.4304 110.991 60.5301 110.964 60.6321 110.957C60.7341 110.95 60.8365 110.964 60.9334 110.996C61.0302 111.029 61.1197 111.081 61.1966 111.148C61.2736 111.215 61.3365 111.297 61.3818 111.389C61.4272 111.48 61.4541 111.58 61.4609 111.682C61.4677 111.784 61.4544 111.886 61.4216 111.983C61.3889 112.08 61.3374 112.17 61.2701 112.246C61.2028 112.323 61.121 112.386 61.0294 112.432C55.3375 115.249 50.2552 116.121 46.1438 116.121Z" fill="black" fill-opacity="0.1"/>
<path d="M95.1923 116.208C95.2469 116.188 95.2977 116.158 95.3426 116.121C102.277 110.146 99.6765 101.233 99.6505 101.146C99.6338 101.081 99.6039 101.019 99.5627 100.965C99.5215 100.911 99.4699 100.866 99.4109 100.833C99.3518 100.799 99.2867 100.778 99.2193 100.771C99.1519 100.763 99.0837 100.769 99.0188 100.789C98.9538 100.808 98.8935 100.841 98.8414 100.884C98.7893 100.928 98.7466 100.981 98.7157 101.042C98.6849 101.102 98.6665 101.168 98.6618 101.236C98.6571 101.303 98.6661 101.371 98.6884 101.435C98.7115 101.519 101.127 109.814 94.6838 115.353C94.6336 115.396 94.5924 115.449 94.5626 115.508C94.5328 115.567 94.515 115.631 94.5101 115.697C94.5053 115.763 94.5136 115.83 94.5345 115.893C94.5553 115.955 94.5884 116.014 94.6318 116.064C94.6985 116.143 94.7884 116.2 94.8889 116.226C94.9894 116.252 95.0955 116.246 95.1923 116.208Z" fill="#273E70"/>
<path d="M101.843 115.344C101.897 115.323 101.947 115.293 101.991 115.255C106.801 111.12 104.993 104.951 104.975 104.888C104.961 104.819 104.933 104.754 104.892 104.697C104.852 104.64 104.8 104.592 104.739 104.556C104.679 104.52 104.612 104.497 104.543 104.488C104.473 104.479 104.402 104.485 104.335 104.505C104.268 104.525 104.206 104.559 104.152 104.605C104.099 104.65 104.056 104.706 104.025 104.77C103.994 104.833 103.977 104.902 103.975 104.972C103.972 105.042 103.984 105.112 104.01 105.177C104.08 105.402 105.637 110.785 101.335 114.486C101.284 114.529 101.243 114.581 101.213 114.64C101.183 114.7 101.165 114.764 101.16 114.83C101.155 114.896 101.163 114.962 101.183 115.025C101.204 115.088 101.237 115.147 101.28 115.197C101.348 115.276 101.438 115.333 101.539 115.359C101.639 115.385 101.746 115.38 101.843 115.344Z" fill="#273E70"/>
<path d="M107.905 115.965C107.96 115.944 108.011 115.914 108.055 115.876C111.852 112.611 110.471 107.893 110.41 107.693C110.372 107.565 110.284 107.458 110.167 107.394C110.049 107.331 109.911 107.317 109.783 107.355C109.655 107.394 109.548 107.481 109.484 107.599C109.421 107.716 109.407 107.854 109.445 107.982C109.497 108.158 110.687 112.279 107.397 115.11C107.297 115.185 107.228 115.293 107.204 115.415C107.179 115.537 107.2 115.664 107.263 115.771C107.326 115.878 107.426 115.958 107.545 115.996C107.663 116.034 107.791 116.027 107.905 115.977V115.965Z" fill="#273E70"/>
</svg>
