<svg width="30" height="33" viewBox="0 0 30 33" fill="none" xmlns="http://www.w3.org/2000/svg">
<path d="M14.5625 27.75H12.6875V29.9375H14.5625V27.75Z" fill="#6ECFFF"/>
<g opacity="0.6">
<path d="M14.5625 27.75H13.625V29.9375H14.5625V27.75Z" fill="#49BBCE"/>
</g>
<path d="M13.8281 28.0625H13.4219C10.6044 28.0625 8.3125 25.7706 8.3125 22.9531V21.5C8.3125 21.3272 8.45219 21.1875 8.625 21.1875C8.79781 21.1875 8.9375 21.3272 8.9375 21.5V22.9531C8.9375 25.4256 10.9491 27.4375 13.4219 27.4375H13.8284C16.3006 27.4375 18.3125 25.4256 18.3125 22.9531V21.5C18.3125 21.3272 18.4522 21.1875 18.625 21.1875C18.7978 21.1875 18.9375 21.3272 18.9375 21.5V22.9531C18.9375 25.7706 16.6456 28.0625 13.8281 28.0625Z" fill="#BA4B1A"/>
<path d="M23.9375 32.125H3.3125C3.13969 32.125 3 31.9853 3 31.8125C3 31.6397 3.13969 31.5 3.3125 31.5H23.9375C24.1103 31.5 24.25 31.6397 24.25 31.8125C24.25 31.9853 24.1103 32.125 23.9375 32.125Z" fill="#0C4E92"/>
<path d="M17.0093 31.3375V31.8125H10.1343V31.3375C10.1343 30.5656 10.7624 29.9375 11.5374 29.9375H15.6093C16.3843 29.9375 17.0093 30.5656 17.0093 31.3375Z" fill="#478FFF"/>
<g opacity="0.6">
<path d="M17.0094 31.3375V31.8125H13.625V29.9375H15.6094C16.3844 29.9375 17.0094 30.5656 17.0094 31.3375Z" fill="#1364D8"/>
</g>
<path d="M16.75 15.6437V23.2937C16.75 24.8937 15.4562 26.1875 13.8562 26.1875H13.3938C11.7938 26.1875 10.5 24.8937 10.5 23.2937V15.6437C10.5 14.2719 11.45 13.125 12.7281 12.8281C12.9406 12.7781 13.1656 12.75 13.3938 12.75H13.8562C15.4562 12.75 16.75 14.0437 16.75 15.6437Z" fill="#FFB90B"/>
<g opacity="0.4">
<path d="M16.75 15.6438V23.2938C16.75 24.8938 15.4562 26.1875 13.8562 26.1875H13.3937C11.9281 26.1875 10.7187 25.1 10.5281 23.6875H12.2375C13.35 23.6875 14.25 22.7875 14.25 21.675V13.2C14.25 13.0531 14.2343 12.9094 14.2031 12.7719C15.6406 12.9406 16.75 14.1625 16.75 15.6438Z" fill="#E06A0A"/>
</g>
<path d="M28.6925 12.8235C28.5541 12.8235 28.4272 12.7306 28.3906 12.5903L27.7563 10.1725C27.7122 10.0056 27.8122 9.8347 27.9791 9.79095C28.1456 9.74689 28.3169 9.84689 28.3606 10.0138L28.995 12.4316C29.0391 12.5985 28.9391 12.7694 28.7722 12.8131C28.7456 12.8203 28.7188 12.8235 28.6925 12.8235Z" fill="#0C4E92"/>
<path d="M27.1663 11.9319C27.0278 11.9319 26.901 11.8391 26.8644 11.6988C26.8203 11.5319 26.9203 11.3609 27.0872 11.3172L29.5053 10.6828C29.6716 10.6391 29.8435 10.7388 29.8869 10.9056C29.931 11.0725 29.831 11.2434 29.6641 11.2872L27.246 11.9216C27.2194 11.9284 27.1925 11.9319 27.1663 11.9319Z" fill="#0C4E92"/>
<path d="M25.1875 6.9125V10.4625C25.1875 11.2063 24.5813 11.8125 23.8375 11.8125H22.3781L22.375 11.8156L22.0625 12.1313L19.0938 15.1156C18.7281 15.4844 18.1969 15.0406 18.3344 14.4813L19 11.8125H15.9125C15.1687 11.8125 14.5625 11.2063 14.5625 10.4625V6.9125C14.5625 6.16875 15.1687 5.5625 15.9125 5.5625H23.8375C24.0469 5.5625 24.2438 5.60938 24.4188 5.69688C24.8719 5.9125 25.1875 6.37812 25.1875 6.9125Z" fill="#F95E4E"/>
<g opacity="0.4">
<path d="M25.1876 6.9125V10.4625C25.1876 11.2063 24.5813 11.8125 23.8376 11.8125H22.3782L22.3751 11.8156L22.0626 12.1313L19.0938 15.1156C18.7282 15.4844 18.197 15.0406 18.3345 14.4813L19.0001 11.8125H18.4032C20.4032 9.97813 21.8063 7.43438 22.6501 5.5625H23.8376C24.047 5.5625 24.2438 5.60938 24.4188 5.69688C24.872 5.9125 25.1876 6.37812 25.1876 6.9125Z" fill="#CE2219"/>
</g>
<path d="M5.8125 23.0625C5.63969 23.0625 5.5 22.9228 5.5 22.75V17.125C5.5 16.9522 5.63969 16.8125 5.8125 16.8125C5.98531 16.8125 6.125 16.9522 6.125 17.125V22.75C6.125 22.9228 5.98531 23.0625 5.8125 23.0625Z" fill="#0C4E92"/>
<path d="M0.5 22.4375C0.327188 22.4375 0.1875 22.2978 0.1875 22.125V17.75C0.1875 17.5772 0.327188 17.4375 0.5 17.4375C0.672812 17.4375 0.8125 17.5772 0.8125 17.75V22.125C0.8125 22.2978 0.672812 22.4375 0.5 22.4375Z" fill="#0C4E92"/>
<path d="M3.3125 24.625C3.13969 24.625 3 24.4853 3 24.3125V14.9375C3 14.7647 3.13969 14.625 3.3125 14.625C3.48531 14.625 3.625 14.7647 3.625 14.9375V24.3125C3.625 24.4853 3.48531 24.625 3.3125 24.625Z" fill="#0C4E92"/>
<path d="M21.125 23.0625C20.9522 23.0625 20.8125 22.9228 20.8125 22.75V17.125C20.8125 16.9522 20.9522 16.8125 21.125 16.8125C21.2978 16.8125 21.4375 16.9522 21.4375 17.125V22.75C21.4375 22.9228 21.2978 23.0625 21.125 23.0625Z" fill="#0C4E92"/>
<path d="M26.4375 22.4375C26.2647 22.4375 26.125 22.2978 26.125 22.125V17.75C26.125 17.5772 26.2647 17.4375 26.4375 17.4375C26.6103 17.4375 26.75 17.5772 26.75 17.75V22.125C26.75 22.2978 26.6103 22.4375 26.4375 22.4375Z" fill="#0C4E92"/>
<path d="M23.625 24.625C23.4522 24.625 23.3125 24.4853 23.3125 24.3125V14.9375C23.3125 14.7647 23.4522 14.625 23.625 14.625C23.7978 14.625 23.9375 14.7647 23.9375 14.9375V24.3125C23.9375 24.4853 23.7978 24.625 23.625 24.625Z" fill="#0C4E92"/>
<path d="M25.1871 4.625C25.1252 4.625 25.063 4.60656 25.0083 4.56844C24.8668 4.46969 24.8327 4.27469 24.9314 4.13344L27.1189 1.00844C27.2177 0.866877 27.4124 0.832815 27.5543 0.931565C27.6958 1.03031 27.7299 1.22531 27.6311 1.36688L25.4436 4.49188C25.3827 4.57875 25.2855 4.625 25.1871 4.625Z" fill="#0C4E92"/>
<path d="M26.1251 5.25001C26.0039 5.25001 25.8886 5.17908 25.8379 5.06064C25.7698 4.9022 25.8432 4.71845 26.002 4.65064L28.1895 3.71314C28.347 3.64439 28.5317 3.71845 28.5995 3.8772C28.6676 4.03564 28.5939 4.21939 28.4354 4.2872L26.2479 5.2247C26.2082 5.2422 26.1664 5.25001 26.1251 5.25001Z" fill="#0C4E92"/>
<path d="M23.9371 4.31251C23.7871 4.31251 23.6546 4.20407 23.6293 4.05126L23.3168 2.17626C23.2884 2.00626 23.4034 1.84501 23.5737 1.81689C23.7434 1.7872 23.9053 1.90345 23.9331 2.07376L24.2456 3.94876C24.274 4.11876 24.159 4.28001 23.9887 4.30814C23.9712 4.31126 23.9543 4.31251 23.9371 4.31251Z" fill="#0C4E92"/>
<path d="M17.375 18.9031V19.7219C17.375 20.0125 17.1375 20.25 16.8469 20.25H10.4031C10.1125 20.25 9.875 20.0125 9.875 19.7219V18.9031C9.875 18.6125 10.1125 18.375 10.4031 18.375H16.8469C17.1375 18.375 17.375 18.6125 17.375 18.9031Z" fill="#BA4B1A"/>
<path d="M17.375 18.9031V19.7219C17.375 20.0125 17.1375 20.25 16.8469 20.25H14.25V18.375H16.8469C17.1375 18.375 17.375 18.6125 17.375 18.9031Z" fill="#9B2C12"/>
<path d="M15.1875 17.125H12.0625C11.8897 17.125 11.75 16.9853 11.75 16.8125C11.75 16.6397 11.8897 16.5 12.0625 16.5H15.1875C15.3603 16.5 15.5 16.6397 15.5 16.8125C15.5 16.9853 15.3603 17.125 15.1875 17.125Z" fill="#BA4B1A"/>
<path d="M14.6666 15.5625H12.5835C12.4107 15.5625 12.271 15.4228 12.271 15.25C12.271 15.0772 12.4107 14.9375 12.5835 14.9375H14.6666C14.8394 14.9375 14.9791 15.0772 14.9791 15.25C14.9791 15.4228 14.8394 15.5625 14.6666 15.5625Z" fill="#BA4B1A"/>
<path d="M15.1875 22.4375H12.0625C11.8897 22.4375 11.75 22.2978 11.75 22.125C11.75 21.9522 11.8897 21.8125 12.0625 21.8125H15.1875C15.3603 21.8125 15.5 21.9522 15.5 22.125C15.5 22.2978 15.3603 22.4375 15.1875 22.4375Z" fill="#BA4B1A"/>
<path d="M14.6666 24H12.5835C12.4107 24 12.271 23.8603 12.271 23.6875C12.271 23.5147 12.4107 23.375 12.5835 23.375H14.6666C14.8394 23.375 14.9791 23.5147 14.9791 23.6875C14.9791 23.8603 14.8394 24 14.6666 24Z" fill="#BA4B1A"/>
<path d="M16.9062 9.625C17.3377 9.625 17.6875 9.27522 17.6875 8.84375C17.6875 8.41228 17.3377 8.0625 16.9062 8.0625C16.4748 8.0625 16.125 8.41228 16.125 8.84375C16.125 9.27522 16.4748 9.625 16.9062 9.625Z" fill="#F0FDFF"/>
<path d="M19.875 9.625C20.3065 9.625 20.6562 9.27522 20.6562 8.84375C20.6562 8.41228 20.3065 8.0625 19.875 8.0625C19.4435 8.0625 19.0938 8.41228 19.0938 8.84375C19.0938 9.27522 19.4435 9.625 19.875 9.625Z" fill="#F0FDFF"/>
<path d="M22.8438 9.625C23.2752 9.625 23.625 9.27522 23.625 8.84375C23.625 8.41228 23.2752 8.0625 22.8438 8.0625C22.4123 8.0625 22.0625 8.41228 22.0625 8.84375C22.0625 9.27522 22.4123 9.625 22.8438 9.625Z" fill="#F0FDFF"/>
<path d="M2.9932 11.4663C2.9257 12.0666 2.38414 12.4981 1.78383 12.4306C1.18352 12.3631 0.751953 11.8216 0.819453 11.2213C0.886953 10.621 1.42852 10.1891 2.02883 10.2569C2.62914 10.3247 3.06102 10.8659 2.9932 11.4663Z" fill="#CB4BCF"/>
<path d="M1.90395 12.7503C1.85302 12.7503 1.80208 12.7475 1.75052 12.7422C1.01802 12.6581 0.470829 12.0191 0.503329 11.2866C0.510829 11.1141 0.660829 10.9784 0.829266 10.9881C1.00177 10.9956 1.1352 11.1416 1.1277 11.3141C1.10958 11.7203 1.41395 12.0747 1.8202 12.1213C2.24427 12.1669 2.63395 11.8578 2.68364 11.43C2.7302 11.01 2.43802 10.6328 2.0177 10.5719C1.84677 10.5472 1.72833 10.3888 1.75333 10.2178C1.7777 10.0469 1.9352 9.9247 2.10739 9.95345C2.86333 10.0628 3.38895 10.7422 3.30458 11.5003C3.22177 12.2178 2.60958 12.7503 1.90395 12.7503Z" fill="#7F0A89"/>
<path d="M6.71758 6.83937C6.54539 6.85249 6.39539 6.72343 6.38227 6.55124C6.32352 5.77812 5.64695 5.19687 4.87383 5.25531C4.70164 5.26843 4.55164 5.13937 4.53852 4.96749C4.52539 4.79531 4.65445 4.64531 4.82664 4.63218C5.59977 4.57343 6.18102 3.89687 6.12258 3.12343C6.10945 2.95124 6.23852 2.80124 6.4107 2.78812C6.58289 2.77499 6.73289 2.90406 6.74602 3.07624C6.80477 3.84937 7.48133 4.43062 8.25477 4.37218C8.42695 4.35906 8.57695 4.48812 8.59008 4.65999C8.6032 4.83218 8.47414 4.98218 8.30195 4.99531C7.52883 5.05406 6.94758 5.73062 7.00602 6.50374C7.01883 6.67624 6.88977 6.82624 6.71758 6.83937Z" fill="#A8E900"/>
<path d="M6.15445 5.71844C6.07727 5.71844 6.00039 5.69 5.93977 5.63313C5.65039 5.36 5.27008 5.22531 4.87352 5.25563C4.70539 5.27188 4.55164 5.14 4.53852 4.9675C4.52539 4.79532 4.65445 4.64563 4.82664 4.6325C5.20133 4.60406 5.54258 4.43188 5.78727 4.14688C6.03164 3.8625 6.1507 3.49938 6.12227 3.12469V3.12375C6.10914 2.95156 6.23789 2.80156 6.41008 2.78844C6.58664 2.77406 6.73227 2.90406 6.74539 3.07625C6.77727 3.4975 6.99164 3.87625 7.3332 4.115C7.47477 4.21375 7.50883 4.40875 7.41008 4.55C7.31133 4.69156 7.11664 4.72563 6.97477 4.62688C6.79664 4.50219 6.64258 4.35156 6.5157 4.18125C6.44539 4.31313 6.36039 4.43781 6.2607 4.55375C6.1607 4.67 6.04945 4.77375 5.92914 4.86313C6.08789 4.94719 6.2357 5.05281 6.36852 5.17844C6.49383 5.29688 6.49977 5.49469 6.38102 5.62C6.32008 5.68563 6.23727 5.71844 6.15445 5.71844Z" fill="#477704"/>
</svg>
