<svg width="200" height="200" viewBox="0 0 200 200" fill="none" xmlns="http://www.w3.org/2000/svg">
<path d="M185.31 48.72C183.14 46.9977 180.397 45.5762 176.919 44.3728C173.014 43.0231 168.711 42.1344 165.451 41.5382C158.523 34.3288 149.801 28.3724 139.997 24.1881C129.171 19.5946 117.532 17.221 105.772 17.2078C91.8358 17.2078 78.5293 20.5999 67.2818 27.02C55.2753 33.4179 44.878 42.99 37.2214 54.7288C32.0206 62.6714 28.2201 71.4469 25.985 80.6739C25.2765 80.6224 24.5865 80.5957 23.9149 80.5938C21.7506 80.5568 19.5965 80.8987 17.5501 81.604C13.6335 83.0062 10.6718 85.954 9.41875 89.6939C8.59072 92.156 7.82892 97.1104 11.9663 102.6C13.4927 104.626 15.6594 106.691 18.5906 108.91C19.4601 109.594 20.3626 110.29 21.2348 110.952C22.4741 111.899 23.7355 112.865 24.9168 113.826C25.7976 119.069 27.1841 124.215 29.057 129.191C28.9852 130.571 28.919 131.951 28.8941 133.301C28.7258 140.229 30.1279 144.976 33.3103 148.244C34.4534 149.43 35.8217 150.376 37.3351 151.025C38.8485 151.675 40.4764 152.016 42.1234 152.028C48.7772 160.226 56.9326 167.08 66.1529 172.224C78.5017 179.124 92.2829 182.79 106.012 182.79H107.096C120.372 182.81 133.447 179.551 145.161 173.303C156.338 167.308 166.017 158.868 173.48 148.613C180.942 138.357 185.994 126.55 188.26 114.071C190.328 102.506 189.845 90.6287 186.847 79.269C189.055 74.3008 191.062 68.3113 191.324 61.7312C191.719 56.7878 189.552 52.0818 185.31 48.72Z" fill="white"/>
<path d="M107.32 172.713C146.909 172.713 179.003 140.619 179.003 101.03C179.003 61.4402 146.909 29.3467 107.32 29.3467C67.7306 29.3467 35.6371 61.4402 35.6371 101.03C35.6371 140.619 67.7306 172.713 107.32 172.713Z" fill="#84C6F8"/>
<path d="M145.837 105.979C145.837 105.979 154.145 109.567 162.1 108.449C170.055 107.331 156.988 99.9616 154.225 92.6169C154.225 92.6169 144.733 92.9371 145.837 105.979Z" fill="#3E4095"/>
<path d="M145.837 105.979C145.837 105.979 154.145 109.567 162.1 108.449C170.055 107.331 156.988 99.9616 154.225 92.6169C154.225 92.6169 144.733 92.9371 145.837 105.979Z" fill="black" fill-opacity="0.2"/>
<path d="M78.9488 111.369C78.9488 111.369 78.7446 116.727 78.0104 119.197C77.2762 121.667 71.8222 113.644 71.7918 108.902C71.7615 104.16 78.9488 111.369 78.9488 111.369Z" fill="#3E4095"/>
<path d="M78.9488 111.369C78.9488 111.369 78.7446 116.727 78.0104 119.197C77.2762 121.667 71.8222 113.644 71.7918 108.902C71.7615 104.16 78.9488 111.369 78.9488 111.369Z" fill="black" fill-opacity="0.2"/>
<path d="M179.715 58.6536C176.328 53.655 146.318 46.7078 119.255 53.5584C92.1918 60.409 81.8055 79.2275 68.3997 93.8782C54.9938 108.529 30.2272 88.8327 21.7261 91.9185C13.2249 95.0043 36.1173 104.944 39.3218 113.409C42.5263 121.874 37.7817 137.866 41.6983 140.814C44.0278 142.567 52.2778 128.987 56.073 119.757C59.8681 110.527 71.2895 113.809 78.2257 115.051C89.0922 116.983 111.739 118.319 134.93 110.985C174.236 98.5594 182.431 62.6668 179.715 58.6536Z" fill="#3E4095"/>
<path d="M179.715 58.6536C176.328 53.655 146.318 46.7078 119.255 53.5584C92.1918 60.409 81.8055 79.2275 68.3997 93.8782C54.9938 108.529 30.2272 88.8327 21.7261 91.9185C13.2249 95.0043 36.1173 104.944 39.3218 113.409C42.5263 121.874 37.7817 137.866 41.6983 140.814C44.0278 142.567 52.2778 128.987 56.073 119.757C59.8681 110.527 71.2895 113.809 78.2257 115.051C89.0922 116.983 111.739 118.319 134.93 110.985C174.236 98.5594 182.431 62.6668 179.715 58.6536Z" fill="white" fill-opacity="0.1"/>
<path d="M169.704 53.9008C169.66 53.9008 159.74 54.301 154.435 58.0796C149.13 61.8582 146.362 56.8624 139.594 57.8036C132.826 58.7448 131.488 70.4339 131.747 80.4558C131.747 80.4558 126.652 115.691 71.7918 113.884C71.7918 113.884 80.7263 115.225 90.5606 116.409C101.173 116.961 115.162 116.34 129.705 112.506C130.19 109.619 130.041 108.623 130.041 108.623C130.041 108.623 167.579 75.9845 179.955 63.9089C180.347 61.2813 180.231 59.41 179.712 58.6647C178.652 57.097 175.026 55.3526 169.704 53.9008Z" fill="#3E4095"/>
<path d="M145.749 68.6647C145.749 68.6647 143.872 73.1333 136.147 72.8048L133.759 73.8123C133.759 73.8123 135.658 71.0329 137.234 70.5995C137.234 70.6023 141.921 70.9859 145.749 68.6647Z" fill="#273E70"/>
<path d="M120.988 54.7896C120.988 54.7896 109.589 46.7549 96.1774 41.8502C82.766 36.9455 78.6038 38.262 84.0909 46.3851C89.578 54.5081 92.1753 71.6374 92.1753 71.6374C92.1753 71.6374 112.644 61.1048 120.988 54.7896Z" fill="#3E4095"/>
<path d="M120.988 54.7896C120.988 54.7896 109.589 46.7549 96.1774 41.8502C82.766 36.9455 78.6038 38.262 84.0909 46.3851C89.578 54.5081 92.1753 71.6374 92.1753 71.6374C92.1753 71.6374 112.644 61.1048 120.988 54.7896Z" fill="white" fill-opacity="0.16"/>
<path d="M143.958 80.9969C132.71 105.639 110.754 116.166 77.1326 114.844L78.2367 115.048C89.1033 116.981 111.75 118.316 134.941 110.983C174.236 98.5622 182.442 62.6642 179.726 58.651C179.715 58.6537 155.191 56.3546 143.958 80.9969Z" fill="#FFFAF3"/>
<path d="M174.846 61.2068C174.834 61.1052 174.844 61.0022 174.874 60.9043C174.904 60.8064 174.953 60.7158 175.02 60.6383L175.804 59.7136C175.865 59.6327 175.943 59.5651 176.031 59.515C176.119 59.465 176.217 59.4335 176.318 59.4226C176.419 59.4116 176.521 59.4214 176.618 59.4513C176.715 59.4813 176.805 59.5307 176.882 59.5967C176.959 59.6626 177.022 59.7436 177.067 59.8347C177.112 59.9258 177.138 60.0252 177.143 60.1266C177.148 60.228 177.132 60.3294 177.096 60.4245C177.061 60.5196 177.006 60.6064 176.936 60.6797L176.152 61.6015C176.089 61.676 176.011 61.7372 175.924 61.7817C175.837 61.8262 175.742 61.8531 175.645 61.8608C175.547 61.8685 175.449 61.8568 175.356 61.8266C175.263 61.7963 175.177 61.748 175.103 61.6843C174.96 61.5636 174.868 61.3928 174.846 61.2068Z" fill="#273E70"/>
<path d="M134.929 110.985C169.395 100.086 179.944 71.1321 180.182 61.4745C175.947 62.6713 171.929 64.5347 168.28 66.9947C162.208 71.0963 158.948 75.9265 152.658 88.4657C146.367 101.005 120.155 120.066 77.1326 114.847L78.2367 115.051C89.0922 116.994 111.739 118.319 134.929 110.985Z" fill="#FFEFD9"/>
<path d="M112.258 110.483C112.258 110.483 117.717 120.552 117.842 127.044C117.98 134.297 122.007 135.048 126.837 129.473C131.071 124.585 137.687 112.131 135.299 94.8554C135.299 94.8498 120.894 101.576 112.258 110.483Z" fill="#2D70B7"/>
<path d="M112.258 110.483C112.258 110.483 117.717 120.552 117.842 127.044C117.98 134.297 122.007 135.048 126.837 129.473C131.071 124.585 137.687 112.131 135.299 94.8554C135.299 94.8498 120.894 101.576 112.258 110.483Z" fill="#3E4095"/>
<path d="M164.3 78.3416C159.781 79.168 155.135 78.9899 150.692 77.8199C150.62 77.8006 150.552 77.7671 150.492 77.7214C150.433 77.6758 150.383 77.6188 150.345 77.5539C150.308 77.4889 150.283 77.4171 150.274 77.3427C150.264 77.2684 150.269 77.1928 150.288 77.1203C150.307 77.0478 150.341 76.9798 150.387 76.9202C150.432 76.8607 150.489 76.8107 150.554 76.7732C150.619 76.7356 150.691 76.7112 150.765 76.7014C150.84 76.6916 150.915 76.6965 150.988 76.7159C163.96 80.2516 175.429 73.1774 175.553 73.1057C175.616 73.0663 175.685 73.0398 175.758 73.0274C175.831 73.0151 175.906 73.0172 175.978 73.0338C176.05 73.0503 176.119 73.0809 176.179 73.1238C176.239 73.1666 176.29 73.221 176.33 73.2837C176.369 73.3464 176.396 73.4162 176.408 73.4892C176.42 73.5622 176.418 73.6369 176.402 73.7091C176.385 73.7812 176.355 73.8494 176.312 73.9097C176.269 73.9701 176.214 74.0213 176.152 74.0607C176.03 74.138 173.116 75.9486 168.528 77.3286C167.14 77.7507 165.728 78.089 164.3 78.3416Z" fill="#EC3237"/>
<path d="M164.3 78.3416C159.781 79.168 155.135 78.9899 150.692 77.8199C150.62 77.8006 150.552 77.7671 150.492 77.7214C150.433 77.6758 150.383 77.6188 150.345 77.5539C150.308 77.4889 150.283 77.4171 150.274 77.3427C150.264 77.2684 150.269 77.1928 150.288 77.1203C150.307 77.0478 150.341 76.9798 150.387 76.9202C150.432 76.8607 150.489 76.8107 150.554 76.7732C150.619 76.7356 150.691 76.7112 150.765 76.7014C150.84 76.6916 150.915 76.6965 150.988 76.7159C163.96 80.2516 175.429 73.1774 175.553 73.1057C175.616 73.0663 175.685 73.0398 175.758 73.0274C175.831 73.0151 175.906 73.0172 175.978 73.0338C176.05 73.0503 176.119 73.0809 176.179 73.1238C176.239 73.1666 176.29 73.221 176.33 73.2837C176.369 73.3464 176.396 73.4162 176.408 73.4892C176.42 73.5622 176.418 73.6369 176.402 73.7091C176.385 73.7812 176.355 73.8494 176.312 73.9097C176.269 73.9701 176.214 74.0213 176.152 74.0607C176.03 74.138 173.116 75.9486 168.528 77.3286C167.14 77.7507 165.728 78.089 164.3 78.3416Z" fill="black" fill-opacity="0.1"/>
<path d="M145.749 68.6647C145.749 68.6647 144.885 58.3943 139.569 59.421C136.034 60.1111 135.47 67.671 136.917 71.7808C136.917 71.7891 142.053 72.929 145.749 68.6647Z" fill="white"/>
<path d="M139.699 59.421L139.569 59.4403C137.215 59.8985 136.18 63.4039 136.177 66.9065C137.005 69.5948 138.835 71.4027 140.571 71.0742C142.531 70.7071 143.621 67.7621 143.006 64.5024C142.534 61.9796 141.187 60.0117 139.699 59.421Z" fill="#273E70"/>
<path d="M141.471 64.7784C141.123 62.9291 139.939 61.5987 138.83 61.8085C137.72 62.0183 137.099 63.6881 137.449 65.5374C137.8 67.3867 138.981 68.7171 140.094 68.5101C141.206 68.3031 141.821 66.6304 141.471 64.7784Z" fill="#1B2C4F"/>
<path d="M141.391 62.6917C141.372 62.5405 141.309 62.3983 141.21 62.2829C141.11 62.1676 140.979 62.0843 140.832 62.0436C140.686 62.0029 140.53 62.0067 140.385 62.0544C140.241 62.1021 140.114 62.1916 140.02 62.3116C139.926 62.4316 139.87 62.5767 139.859 62.7285C139.847 62.8804 139.881 63.0322 139.956 63.1648C140.031 63.2973 140.144 63.4047 140.28 63.4733C140.416 63.5419 140.569 63.5686 140.72 63.5501C140.821 63.5378 140.918 63.5058 141.006 63.456C141.094 63.4062 141.171 63.3395 141.233 63.2598C141.296 63.1801 141.342 63.0889 141.369 62.9914C141.396 62.8939 141.403 62.7921 141.391 62.6917Z" fill="white"/>
<path d="M134.444 59.6667C134.444 59.6667 136.067 56.1089 138.286 55.8329C141.78 55.3885 145.39 61.1848 145.39 61.1848C145.39 61.1848 143.345 53.3571 138.253 53.8677C134.148 54.2707 134.444 59.6667 134.444 59.6667Z" fill="#273E70"/>
<path d="M128.233 97.5492C127.262 97.494 124.438 98.2696 121.043 100.776C118.394 102.735 113.66 107.287 112.258 110.486C112.258 110.486 117.717 120.555 117.842 127.047C117.919 131.151 119.244 133.174 121.253 133.146C132.125 121.355 128.233 97.5492 128.233 97.5492Z" fill="#3E4095"/>
<path d="M128.233 97.5492C127.262 97.494 124.438 98.2696 121.043 100.776C118.394 102.735 113.66 107.287 112.258 110.486C112.258 110.486 117.717 120.555 117.842 127.047C117.919 131.151 119.244 133.174 121.253 133.146C132.125 121.355 128.233 97.5492 128.233 97.5492Z" fill="white" fill-opacity="0.1"/>
<path opacity="0.1" d="M142.382 50.7018C134.888 50.7791 126.953 51.6098 119.255 53.5585L119.18 53.5778C115.454 51.1461 106.401 45.59 96.1775 41.8501C94.5904 41.2677 93.1414 40.7792 91.811 40.3734C91.9656 40.47 105.59 48.847 107.726 54.933C109.862 61.0191 109.824 64.2374 109.614 70.1992C109.404 76.1611 115.333 71.4468 120.282 61.3475C125.106 51.4829 141.623 50.7294 142.382 50.7018Z" fill="#FFFEFF"/>
<path d="M43.6028 111.204C39.493 105.324 25.4081 100.08 25.4081 100.078C30.5502 104.127 37.6437 108.971 39.3219 113.409C42.5264 121.874 37.7817 137.866 41.6983 140.814C42.8548 141.681 45.4659 138.78 48.2674 134.51C48.2674 134.51 43.7105 137.905 43.2744 134.642C42.8383 131.38 47.7126 117.083 43.6028 111.204Z" fill="#3E4095"/>
<path d="M133.483 90.6324C133.428 90.642 133.372 90.642 133.318 90.6324C124.778 88.7003 122.989 80.017 122.97 79.9286C122.945 79.8035 122.972 79.6737 123.043 79.5678C123.114 79.462 123.224 79.3887 123.349 79.3642C123.475 79.3397 123.604 79.3659 123.71 79.4371C123.816 79.5082 123.889 79.6185 123.914 79.7437C123.93 79.8265 125.614 87.9081 133.53 89.6801C133.642 89.7041 133.741 89.7669 133.81 89.8572C133.879 89.9476 133.914 90.0596 133.909 90.1734C133.903 90.2872 133.857 90.3953 133.779 90.4783C133.701 90.5614 133.596 90.614 133.483 90.6269V90.6324Z" fill="#273E70"/>
<path d="M127.485 92.882C127.431 92.8903 127.375 92.8903 127.32 92.882C121.408 91.5489 120.168 85.5346 120.157 85.4738C120.133 85.3483 120.159 85.2183 120.231 85.1122C120.302 85.0062 120.413 84.9327 120.538 84.908C120.662 84.8862 120.789 84.914 120.892 84.9852C120.996 85.0565 121.067 85.1656 121.09 85.2889C121.134 85.5097 122.23 90.7484 127.521 91.9436C127.633 91.9675 127.732 92.0303 127.801 92.1206C127.871 92.211 127.906 92.3231 127.9 92.4369C127.894 92.5506 127.848 92.6587 127.771 92.7417C127.693 92.8248 127.588 92.8775 127.474 92.8903L127.485 92.882Z" fill="#273E70"/>
<path d="M122.644 96.1306C122.59 96.1416 122.533 96.1416 122.479 96.1306C117.814 95.079 116.865 90.4779 116.826 90.2847C116.814 90.2227 116.814 90.159 116.826 90.0971C116.839 90.0352 116.864 89.9763 116.899 89.9239C116.934 89.8715 116.979 89.8265 117.032 89.7916C117.084 89.7566 117.143 89.7324 117.205 89.7203C117.267 89.7081 117.331 89.7083 117.393 89.7208C117.455 89.7333 117.514 89.7579 117.566 89.7931C117.619 89.8284 117.664 89.8736 117.699 89.9262C117.734 89.9788 117.758 90.0378 117.77 90.0998C117.803 90.2682 118.648 94.2814 122.691 95.1922C122.803 95.2162 122.902 95.2789 122.971 95.3693C123.04 95.4596 123.075 95.5717 123.07 95.6855C123.064 95.7993 123.018 95.9073 122.94 95.9904C122.862 96.0734 122.757 96.1261 122.644 96.1389V96.1306Z" fill="#273E70"/>
<path d="M40.5777 96.3872C40.5777 96.3872 48.9905 102.081 60.1994 100.29C71.4082 98.4987 75.1344 90.2653 80.558 84.6457C85.9816 79.0261 91.1844 79.694 91.9987 77.0857C92.8129 74.4774 91.557 68.1899 91.5543 68.1788C82.4763 76.1694 75.9099 85.6862 68.3997 93.8893C61.0302 101.927 50.2271 99.6 40.5777 96.3872Z" fill="#3E4095"/>
<path d="M40.5777 96.3872C40.5777 96.3872 48.9905 102.081 60.1994 100.29C71.4082 98.4987 75.1344 90.2653 80.558 84.6457C85.9816 79.0261 91.1844 79.694 91.9987 77.0857C92.8129 74.4774 91.557 68.1899 91.5543 68.1788C82.4763 76.1694 75.9099 85.6862 68.3997 93.8893C61.0302 101.927 50.2271 99.6 40.5777 96.3872Z" fill="black" fill-opacity="0.2"/>
<path d="M65.6147 112.777C65.6147 112.777 64.2015 117.947 64.1574 120.524C64.1132 123.102 71.7284 117.085 73.1829 112.573C74.6375 108.06 65.6147 112.777 65.6147 112.777Z" fill="#3E4095"/>
<path d="M65.6147 112.777C65.6147 112.777 64.2015 117.947 64.1574 120.524C64.1132 123.102 71.7284 117.085 73.1829 112.573C74.6375 108.06 65.6147 112.777 65.6147 112.777Z" fill="white" fill-opacity="0.1"/>
<path d="M67.74 95.9153C67.74 95.9153 65.3442 92.3272 64.4637 88.8356C63.793 86.1694 70.5222 88.5403 72.7303 90.6352C73.9144 91.7613 67.74 95.9153 67.74 95.9153Z" fill="#3E4095"/>
</svg>
