<svg width="177" height="196" viewBox="0 0 177 196" fill="none" xmlns="http://www.w3.org/2000/svg">
<g filter="url(#filter0_d_105_10243)">
<path d="M24.1514 62.2913C26.4759 59.5019 30.3565 57.1896 35.6863 55.423C38.8435 54.3662 42.1076 53.6602 45.4194 53.3178C45.5948 53.1424 45.7545 52.9669 45.9246 52.7915C48.3058 50.1455 50.9943 47.7932 53.9332 45.7846C56.8691 43.7793 60.0137 42.0982 63.3119 40.7707C69.9033 38.1415 76.9361 36.7952 84.0325 36.8041C90.5392 36.7785 96.9976 37.9212 103.101 40.1777C109.453 42.5479 114.986 46.0302 119.549 50.5284C119.709 50.6757 119.872 50.8284 120.042 50.9898C126.733 57.3022 131.652 65.2589 134.308 74.066C136.963 82.873 137.263 92.2226 135.177 101.182C133.795 107.146 131.375 112.88 128.177 117.764C123.56 125.018 117.032 131.097 109.293 135.374C101.523 139.66 92.8639 141.926 84.2518 141.926H83.8641C78.8112 141.919 73.7852 141.191 68.9381 139.763C67.4627 142.072 66.2101 143.884 65.1066 145.314C64.0032 146.744 63.0277 147.819 62.0699 148.647C60.1734 150.296 58.1261 151.131 55.9875 151.131C54.8825 151.129 53.7902 150.895 52.7806 150.446C51.7709 149.997 50.8663 149.342 50.1245 148.523C47.7649 145.921 47.4123 142.396 47.607 137.551C47.7105 134.96 47.9895 131.762 48.3404 128.109C44.6284 124.717 41.4236 120.809 38.8248 116.504C38.4015 116.15 38.017 115.752 37.6775 115.316C36.7803 114.161 36.2188 112.781 36.0547 111.327C33.3407 105.562 31.7179 98.9694 31.3478 92.138C31.0724 87.2637 31.4649 82.3747 32.5144 77.6067C32.2968 77.5822 31.9671 77.5664 31.6688 77.5523C30.0899 77.4751 27.4689 77.3488 24.8269 75.6541C24.0116 75.1291 23.3124 74.4426 22.7727 73.637C22.2329 72.8314 21.8638 71.9237 21.6883 70.97C21.1269 67.9473 22.0041 64.8649 24.1514 62.2913Z" fill="white"/>
<path d="M83.8887 134.832C58.7254 134.832 38.3265 114.433 38.3265 89.2697C38.3265 64.1064 58.7254 43.7075 83.8887 43.7075C109.052 43.7075 129.451 64.1064 129.451 89.2697C129.451 114.433 109.052 134.832 83.8887 134.832Z" fill="#84C6F8"/>
<path d="M42.3001 60.9141C46.5971 60.1876 50.9801 60.1243 55.2963 60.7264C60.4804 56.2002 67.1873 53.0073 75.3573 52.0792C97.1462 49.6126 108.66 63.179 108.413 64.1667C101.586 91.3012 70.917 94.4256 70.917 94.4256C66.7224 104.375 64.1733 116.792 64.1733 116.792C64.1733 116.792 83.0588 122.295 82.6746 126C82.3869 128.776 74.8344 124.655 69.3135 127.542C65.3048 129.648 58.3664 145.507 55.684 144.247C52.97 142.974 56.5261 122.711 55.8682 121.315C55.2103 119.918 42.3931 104.697 42.3018 90.0678C42.2869 85.775 42.9725 81.5086 44.3316 77.4366C43.4878 75.7647 42.0931 73.7226 39.9458 72.4998C34.7055 69.5174 28.4758 71.2262 28.4758 69.1666C28.4758 66.0473 36.1879 61.972 42.3001 60.9141Z" fill="#3E4095"/>
<path d="M67.1522 103.131C67.1522 103.131 71.3626 106.606 70.8065 108.032C70.2504 109.459 63.4593 108.045 63.4593 108.045C63.4593 108.045 62.8523 104.785 67.1522 103.131Z" fill="#3E4095"/>
<path d="M67.1522 103.131C67.1522 103.131 71.3626 106.606 70.8065 108.032C70.2504 109.459 63.4593 108.045 63.4593 108.045C63.4593 108.045 62.8523 104.785 67.1522 103.131Z" fill="black" fill-opacity="0.2"/>
<path d="M87.6535 80.5471C87.6535 80.5471 87.1447 85.2716 89.1429 89.6995C91.1411 94.1275 92.6516 97.6853 88.1587 96.8274C83.6658 95.9696 77.9449 90.1609 77.9449 90.1609C77.9449 90.1609 79.48 80.7962 87.6535 80.5471Z" fill="#3E4095"/>
<path d="M87.6535 80.5471C87.6535 80.5471 87.1447 85.2716 89.1429 89.6995C91.1411 94.1275 92.6516 97.6853 88.1587 96.8274C83.6658 95.9696 77.9449 90.1609 77.9449 90.1609C77.9449 90.1609 79.48 80.7962 87.6535 80.5471Z" fill="black" fill-opacity="0.2"/>
<path d="M69.8573 68.2631C71.7696 46.3478 87.2026 59.9949 87.2026 59.9949C97.3322 58.0932 105.892 61.0106 105.892 61.0106C107.63 62.6299 108.481 63.8895 108.413 64.1685C107.975 65.9118 107.417 67.6223 106.741 69.2877L95.8831 69.8684L79.8483 73.2595L72.0169 77.5155L75.9642 84.2996L79.3185 92.545C74.4186 94.0643 70.917 94.4222 70.917 94.4222C70.3275 95.8257 69.7714 97.2642 69.2503 98.7186L68.2381 97.3958C69.9468 96.9905 70.0433 94.5888 65.4803 92.0029C60.9172 89.417 63.5329 79.1085 64.4277 77.7734C65.9118 75.6015 69.8573 68.2631 69.8573 68.2631Z" fill="#3E4095"/>
<path d="M69.8573 68.2631C71.7696 46.3478 87.2026 59.9949 87.2026 59.9949C97.3322 58.0932 105.892 61.0106 105.892 61.0106C107.63 62.6299 108.481 63.8895 108.413 64.1685C107.975 65.9118 107.417 67.6223 106.741 69.2877L95.8831 69.8684L79.8483 73.2595L72.0169 77.5155L75.9642 84.2996L79.3185 92.545C74.4186 94.0643 70.917 94.4222 70.917 94.4222C70.3275 95.8257 69.7714 97.2642 69.2503 98.7186L68.2381 97.3958C69.9468 96.9905 70.0433 94.5888 65.4803 92.0029C60.9172 89.417 63.5329 79.1085 64.4277 77.7734C65.9118 75.6015 69.8573 68.2631 69.8573 68.2631Z" fill="white" fill-opacity="0.1"/>
<path d="M80.0012 62.6399C79.2654 62.6107 78.7035 61.7151 78.7461 60.6395C78.7888 59.5639 79.4198 58.7156 80.1556 58.7448C80.8914 58.774 81.4533 59.6696 81.4107 60.7452C81.368 61.8208 80.737 62.6691 80.0012 62.6399Z" fill="#1B2C4F"/>
<path d="M108.413 64.1667C101.586 91.3012 70.917 94.4257 70.917 94.4257C68.3013 100.631 66.3259 107.797 65.2084 112.32C63.2575 113.436 59.2278 108.666 58.8173 98.0571C58.4155 87.696 60.8734 82.4979 60.8734 82.4979C77.0713 59.3808 108.413 64.1667 108.413 64.1667Z" fill="#FFFAF3"/>
<path d="M103.702 66.3299C103.767 66.3323 103.831 66.3214 103.892 66.2978C103.952 66.2743 104.007 66.2386 104.053 66.193L104.599 65.6527C104.646 65.6098 104.684 65.5577 104.711 65.4997C104.737 65.4416 104.752 65.3788 104.754 65.315C104.755 65.2511 104.744 65.1876 104.721 65.1282C104.697 65.0688 104.662 65.0148 104.617 64.9693C104.572 64.9239 104.519 64.8879 104.46 64.8637C104.401 64.8395 104.337 64.8275 104.273 64.8284C104.21 64.8293 104.147 64.8431 104.088 64.869C104.03 64.8949 103.977 64.9323 103.934 64.979L103.388 65.5211C103.323 65.586 103.278 65.6683 103.259 65.7582C103.24 65.8481 103.247 65.9416 103.281 66.0273C103.314 66.113 103.371 66.1873 103.446 66.241C103.52 66.2947 103.609 66.3256 103.7 66.3299H103.702Z" fill="#273E70"/>
<path d="M106.411 67.0649C106.472 67.043 106.528 67.0086 106.576 66.9639C106.623 66.9192 106.661 66.8652 106.686 66.8052L106.986 66.1035C107.036 65.9872 107.036 65.8561 106.989 65.7392C106.941 65.6222 106.849 65.5289 106.733 65.4798C106.617 65.4308 106.486 65.4299 106.369 65.4774C106.252 65.525 106.158 65.617 106.109 65.7333L105.809 66.4351C105.785 66.4922 105.772 66.5536 105.771 66.6158C105.77 66.678 105.782 66.7397 105.805 66.7974C105.828 66.8551 105.862 66.9077 105.906 66.9521C105.949 66.9965 106.001 67.0318 106.058 67.0561C106.171 67.1036 106.297 67.1068 106.411 67.0649Z" fill="#273E70"/>
<path d="M70.917 94.4256C68.4259 100.336 66.5154 107.113 65.375 111.645C61.4313 110.378 63.6084 91.6573 63.6084 91.6573C65.9926 87.5047 82.8097 73.4436 94.6077 70.3192C106.406 67.1947 105.648 71.7226 105.644 71.7226C95.6621 91.9046 70.917 94.4256 70.917 94.4256Z" fill="#FFEFD9"/>
<path d="M64.4364 77.7769C64.4364 77.7769 66.0329 83.1469 69.624 88.1117C73.173 93.0239 75.8169 96.9606 71.1521 97.5852C66.5188 98.1975 56.4734 92.8485 56.4734 92.8485C56.4734 92.8485 54.8103 81.1241 64.4364 77.7769Z" fill="#3E4095"/>
<path d="M64.4364 77.7769C64.4364 77.7769 66.0329 83.1469 69.624 88.1117C73.173 93.0239 75.8169 96.9606 71.1521 97.5852C66.5188 98.1975 56.4734 92.8485 56.4734 92.8485C56.4734 92.8485 54.8103 81.1241 64.4364 77.7769Z" fill="white" fill-opacity="0.1"/>
<path d="M59.0331 103.913C59.0331 103.913 64.7522 106.369 64.6014 108.102C64.4505 109.836 56.57 110.473 56.57 110.473C56.57 110.473 54.8595 107.099 59.0331 103.913Z" fill="#3E4095"/>
<path d="M59.0331 103.913C59.0331 103.913 64.7522 106.369 64.6014 108.102C64.4505 109.836 56.57 110.473 56.57 110.473C56.57 110.473 54.8595 107.099 59.0331 103.913Z" fill="white" fill-opacity="0.1"/>
<path d="M49.9736 108.876C49.9736 108.876 44.6912 112.167 43.3509 111.05C42.0106 109.932 46.0017 103.104 46.0017 103.104C46.0017 103.104 49.7438 103.629 49.9736 108.876Z" fill="#3E4095"/>
<path d="M49.9736 108.876C49.9736 108.876 44.6912 112.167 43.3509 111.05C42.0106 109.932 46.0017 103.104 46.0017 103.104C46.0017 103.104 49.7438 103.629 49.9736 108.876Z" fill="white" fill-opacity="0.1"/>
<g opacity="0.1">
<path d="M34.4126 70.7295C34.4456 70.7313 34.4785 70.736 34.5108 70.7435L34.4126 70.7295Z" fill="#FFFEFF"/>
<path d="M34.1091 70.6875C30.9513 70.2612 28.4706 70.4664 28.4706 69.1682C28.4706 66.0437 36.1897 61.9754 42.2948 60.9228C46.5918 60.1963 50.9749 60.133 55.2911 60.7351C56.7185 59.4899 58.2438 58.3617 59.8524 57.3615C59.612 57.5632 52.7683 63.3859 49.214 72.9172C49.214 72.9172 49.8719 69.0577 51.3929 65.9279C51.3929 65.9279 46.6246 64.449 38.8528 66.2156C31.4776 67.8875 32.2495 70.3103 34.1091 70.6875Z" fill="#FFFEFF"/>
</g>
<path d="M48.3859 109.78C48.4526 109.851 56.9454 118.902 58.6033 120.344C60.2611 121.786 57.4629 132.4 58.2331 133.602C59.0032 134.804 64.3382 128.144 67.2995 126.295C70.2609 124.446 79.8905 127.267 82.2589 126.734C80.5694 127.872 74.159 125.007 69.3135 127.542C65.3048 129.648 58.3664 145.507 55.684 144.247C52.97 142.974 56.5261 122.711 55.8682 121.314C55.5244 120.581 51.8279 116.046 48.3859 109.78Z" fill="#3E4095"/>
<path d="M99.0936 79.3277C100.108 78.3154 100.355 76.9207 99.648 76.2137C98.9409 75.5067 97.5427 75.7558 96.5357 76.7681C95.5287 77.7804 95.2761 79.1751 95.9814 79.8821C96.6866 80.5891 98.0813 80.3399 99.0936 79.3277Z" fill="#1B2C4F"/>
<path d="M83.5694 63.1282C83.5694 63.1282 82.0484 66.4965 75.7959 66.2509L73.8661 67.0105C73.8661 67.0105 75.4047 64.9053 76.6731 64.5895C76.6766 64.5895 80.4695 64.8773 83.5694 63.1282Z" fill="#273E70"/>
<path d="M83.5694 63.1281C83.5694 63.1281 82.8677 55.3914 78.566 56.1703C75.7047 56.6966 75.2485 62.3877 76.4187 65.4824C76.4187 65.4824 80.5782 66.3403 83.5694 63.1281Z" fill="white"/>
<path d="M74.4169 54.9791C74.4169 54.9791 75.7309 52.2985 77.5274 52.0844C80.3554 51.7493 83.2799 56.1194 83.2799 56.1194C83.2799 56.1194 81.6238 50.2213 77.5011 50.6055C74.1783 50.9143 74.4169 54.9791 74.4169 54.9791Z" fill="#273E70"/>
<path d="M78.873 56.1299C81.2185 55.9159 82.4255 58.3228 83.0237 60.3719C82.8483 62.3736 81.5291 63.9297 79.9291 63.9297C78.2098 63.9297 76.8151 62.1298 76.8151 59.9088C76.8151 58.1685 77.673 56.6895 78.873 56.1299Z" fill="#273E70"/>
<path d="M79.9291 62.2632C79.0125 62.2632 78.2695 61.1809 78.2695 59.8457C78.2695 58.5106 79.0125 57.4282 79.9291 57.4282C80.8457 57.4282 81.5887 58.5106 81.5887 59.8457C81.5887 61.1809 80.8457 62.2632 79.9291 62.2632Z" fill="#1B2C4F"/>
<path d="M79.1414 58.5685C79.1142 58.409 79.0254 58.2665 78.8941 58.172C78.7628 58.0774 78.5995 58.0384 78.4396 58.0632C78.3614 58.0696 78.2852 58.0915 78.2155 58.1276C78.1459 58.1637 78.0841 58.2134 78.0338 58.2736C77.9835 58.3339 77.9457 58.4036 77.9226 58.4786C77.8995 58.5536 77.8916 58.6325 77.8993 58.7106C77.9264 58.8682 78.0141 59.0091 78.1435 59.1031C78.2729 59.1972 78.4339 59.237 78.5923 59.2141C78.6712 59.209 78.7483 59.1882 78.819 59.1527C78.8897 59.1173 78.9525 59.068 79.0037 59.0077C79.055 58.9475 79.0935 58.8776 79.1172 58.8021C79.1408 58.7266 79.1491 58.6472 79.1414 58.5685Z" fill="white"/>
<path d="M68.7574 71.4612C68.7278 71.4599 68.6987 71.4533 68.6714 71.4419C64.3189 69.6876 64.1259 64.9263 64.1242 64.8789C64.1231 64.8451 64.1287 64.8113 64.1408 64.7797C64.1528 64.748 64.1709 64.7189 64.1941 64.6943C64.2173 64.6696 64.2452 64.6497 64.2761 64.6358C64.3069 64.6219 64.3403 64.6142 64.3741 64.6132C64.408 64.6121 64.4418 64.6178 64.4735 64.6298C64.5051 64.6418 64.5341 64.6599 64.5588 64.6831C64.5835 64.7063 64.6034 64.7342 64.6173 64.7651C64.6312 64.7959 64.6389 64.8293 64.6399 64.8632C64.6399 64.907 64.8294 69.3315 68.8644 70.9648C68.9205 70.9877 68.9668 71.0296 68.9951 71.0832C69.0233 71.1368 69.0318 71.1986 69.019 71.2579C69.0063 71.3171 68.9731 71.37 68.9252 71.4072C68.8774 71.4443 68.818 71.4635 68.7574 71.4612Z" fill="#273E70"/>
<path d="M65.3873 72.1315C65.3578 72.1301 65.3287 72.1235 65.3014 72.1121C62.2892 70.8929 62.1541 67.6017 62.1541 67.5684C62.152 67.5 62.1771 67.4336 62.224 67.3837C62.2709 67.3339 62.3356 67.3047 62.404 67.3026C62.4724 67.3005 62.5389 67.3257 62.5887 67.3726C62.6386 67.4194 62.6678 67.4842 62.6698 67.5526C62.6698 67.6737 62.7996 70.535 65.4943 71.6332C65.5517 71.6553 65.5994 71.6971 65.6287 71.7512C65.658 71.8052 65.667 71.868 65.654 71.9281C65.6411 71.9882 65.6072 72.0418 65.5583 72.0791C65.5094 72.1164 65.4487 72.1349 65.3873 72.1315Z" fill="#273E70"/>
<path d="M62.5453 73.4155C62.5153 73.4148 62.4856 73.4089 62.4576 73.398C60.0805 72.4348 59.9769 69.9174 59.9734 69.8103C59.9713 69.7419 59.9965 69.6755 60.0434 69.6257C60.0902 69.5758 60.155 69.5466 60.2234 69.5446C60.2918 69.5425 60.3583 69.5676 60.4081 69.6145C60.4579 69.6614 60.4871 69.7262 60.4892 69.7945C60.4892 69.8875 60.5909 72.084 62.6523 72.919C62.7156 72.9451 62.7661 72.9951 62.7927 73.0582C62.8193 73.1213 62.8199 73.1923 62.7944 73.2559C62.7745 73.305 62.7398 73.3467 62.6952 73.3753C62.6506 73.4039 62.5982 73.418 62.5453 73.4155Z" fill="#273E70"/>
<path d="M98.541 79.7802C97.6217 80.396 96.5673 80.4662 95.9814 79.882C95.3954 79.2978 95.4551 78.3224 96.0147 77.4259C98.3059 77.3838 98.5743 78.9101 98.541 79.7802Z" fill="#EF5E80"/>
</g>
<defs>
<filter id="filter0_d_105_10243" x="-24" y="-5" width="206" height="206" filterUnits="userSpaceOnUse" color-interpolation-filters="sRGB">
<feFlood flood-opacity="0" result="BackgroundImageFix"/>
<feColorMatrix in="SourceAlpha" type="matrix" values="0 0 0 0 0 0 0 0 0 0 0 0 0 0 0 0 0 0 127 0" result="hardAlpha"/>
<feOffset dy="4"/>
<feGaussianBlur stdDeviation="20"/>
<feComposite in2="hardAlpha" operator="out"/>
<feColorMatrix type="matrix" values="0 0 0 0 0 0 0 0 0 0 0 0 0 0 0 0 0 0 0.16 0"/>
<feBlend mode="normal" in2="BackgroundImageFix" result="effect1_dropShadow_105_10243"/>
<feBlend mode="normal" in="SourceGraphic" in2="effect1_dropShadow_105_10243" result="shape"/>
</filter>
</defs>
</svg>
