<svg width="200" height="200" viewBox="0 0 200 200" fill="none" xmlns="http://www.w3.org/2000/svg">
<path d="M187.205 64.463C181.756 48.8803 171.788 35.2746 158.572 25.3826C151.993 20.4505 144.696 16.5576 136.935 13.8402C128.402 10.6707 119.368 9.06214 110.265 9.09133C102.825 9.10693 95.4209 10.1196 88.2502 12.1021C81.1309 14.0572 74.2924 16.919 67.9025 20.6173C55.9742 27.523 46.2794 36.9441 39.6146 48.0349C33.4889 50.3614 28.1926 53.0821 23.8269 56.1477C19.995 58.8382 16.809 61.8463 14.3702 65.087C11.3671 68.9954 9.37745 73.5859 8.57851 78.4496C8.48775 79.0245 8.442 79.6056 8.44165 80.1877C8.44165 84.0908 9.8321 87.6983 12.3639 90.3451C15.049 93.1561 18.8071 94.7026 22.9483 94.7026H23.5286C24.4784 94.6697 25.4883 94.6533 26.5394 94.6533H27.4509C28.1226 110.962 33.632 126.702 43.2775 139.87C52.9231 153.037 66.2687 163.037 81.6155 168.596C82.7952 172.94 84.0487 176.558 85.3571 179.405C86.5559 182.016 87.8451 184.085 89.293 185.728C93.0812 190.022 97.3812 190.655 99.6065 190.655C103.822 190.655 107.736 188.558 110.35 184.907C111.644 183.095 112.651 180.891 113.423 178.171C113.87 176.574 114.226 174.954 114.491 173.318C135.393 172.073 155.029 162.889 169.382 147.643C183.735 132.398 191.721 112.245 191.705 91.3058C191.705 90.6106 191.705 89.9017 191.677 89.1955C191.494 80.7677 189.985 72.4213 187.205 64.463Z" fill="white"/>
<path d="M109.542 162.391C148.802 162.391 180.628 130.565 180.628 91.3058C180.628 52.0465 148.802 20.2205 109.542 20.2205C70.2828 20.2205 38.4568 52.0465 38.4568 91.3058C38.4568 130.565 70.2828 162.391 109.542 162.391Z" fill="#84C6F8"/>
<path d="M90.7519 120.393C90.7519 120.393 94.9288 120.251 97.1294 117.968C99.33 115.685 91.9891 116.085 89.3341 114.215C89.3341 114.215 88.5486 117.026 90.7519 120.393Z" fill="#3E4095"/>
<path d="M90.7519 120.393C90.7519 120.393 94.9288 120.251 97.1294 117.968C99.33 115.685 91.9891 116.085 89.3341 114.215C89.3341 114.215 88.5486 117.026 90.7519 120.393Z" fill="black" fill-opacity="0.2"/>
<path d="M120.786 28.6207C118.358 25.9931 95.3311 25.7112 77.3757 36.9525C69.6023 41.8136 63.3563 47.5451 58.9276 54.8477C54.6906 55.042 46.8488 56.2518 36.3246 61.5317C20.0224 69.7074 15.4569 83.8911 23.1673 83.6311C29.7747 83.4094 44.5742 83.6721 51.261 88.1254C51.292 89.7969 51.365 91.5158 51.48 93.2821C53.4917 123.815 87.9902 142.701 88.1846 145.58C88.3789 148.459 93.9982 180.292 99.7461 179.712C105.494 179.131 103.852 152.045 105.888 147.857C107.925 143.67 127.279 147.584 128.516 143.051C129.753 138.518 100.028 135.33 98.5418 133.31C97.0555 131.29 88.8469 116.238 91.7154 100.85C94.2637 87.1647 102.084 86.7295 114.784 74.0266C130.489 58.3074 125.987 34.2482 120.786 28.6207Z" fill="#3E4095"/>
<path d="M112.969 60.3711C112.969 60.3711 123.466 70.044 124.213 80.8693C124.96 91.6945 107.96 75.1487 97.0417 74.0812C97.0417 74.0812 99.9841 64.1866 112.969 60.3711Z" fill="#3E4095"/>
<path d="M112.969 60.3711C112.969 60.3711 123.466 70.044 124.213 80.8693C124.96 91.6945 107.96 75.1487 97.0417 74.0812C97.0417 74.0812 99.9841 64.1866 112.969 60.3711Z" fill="black" fill-opacity="0.2"/>
<path d="M114.962 27.1946C114.962 27.1946 108.913 29.8879 105.883 33.3175C102.853 36.7471 85.3543 33.4379 86.0194 48.3004C86.6845 63.1629 70.3604 74.4261 72.52 95.3513C74.6796 116.276 96.9021 131.862 96.9021 131.862L96.9979 130.687C94.2334 125.334 89.397 113.203 91.7016 100.853C93.1058 93.3203 96.1111 89.8004 100.649 86.0342L101.503 75.603L122.073 41.5452C123.048 40.4166 123.943 39.2212 124.752 37.9678C123.843 33.6733 122.344 30.3039 120.778 28.6206C120.135 27.9226 118.033 27.3889 114.962 27.1946Z" fill="#3E4095"/>
<path d="M114.962 27.1946C114.962 27.1946 108.913 29.8879 105.883 33.3175C102.853 36.7471 85.3543 33.4379 86.0194 48.3004C86.6845 63.1629 70.3604 74.4261 72.52 95.3513C74.6796 116.276 96.9021 131.862 96.9021 131.862L96.9979 130.687C94.2334 125.334 89.397 113.203 91.7016 100.853C93.1058 93.3203 96.1111 89.8004 100.649 86.0342L101.503 75.603L122.073 41.5452C123.048 40.4166 123.943 39.2212 124.752 37.9678C123.843 33.6733 122.344 30.3039 120.778 28.6206C120.135 27.9226 118.033 27.3889 114.962 27.1946Z" fill="white" fill-opacity="0.1"/>
<path d="M89.2821 62.7387C89.2389 62.7588 89.1926 62.7717 89.1452 62.777C81.6401 63.6283 77.7178 57.0565 77.6795 56.988C77.6243 56.8929 77.6092 56.7798 77.6374 56.6736C77.6657 56.5673 77.735 56.4766 77.83 56.4214C77.9251 56.3663 78.0383 56.3511 78.1445 56.3794C78.2508 56.4076 78.3415 56.4769 78.3966 56.572C78.4322 56.6322 82.0945 62.7414 89.0522 61.9531C89.149 61.9431 89.2463 61.9672 89.3272 62.0215C89.408 62.0757 89.4673 62.1566 89.4946 62.2501C89.5219 62.3435 89.5157 62.4436 89.4768 62.5329C89.438 62.6221 89.3691 62.695 89.2821 62.7387Z" fill="#273E70"/>
<path d="M85.0314 66.275C84.9881 66.2951 84.9419 66.308 84.8945 66.3133C79.694 66.9018 76.987 62.3527 76.9569 62.3062C76.9094 62.2116 76.8997 62.1025 76.9298 62.001C76.9598 61.8996 77.0274 61.8134 77.1188 61.76C77.2102 61.7067 77.3185 61.6901 77.4217 61.7138C77.5248 61.7374 77.6151 61.7995 77.6741 61.8874C77.7726 62.0571 80.1511 66.015 84.7905 65.4894C84.8447 65.4829 84.8995 65.4872 84.952 65.502C85.0045 65.5168 85.0535 65.5419 85.0962 65.5757C85.1389 65.6096 85.1746 65.6515 85.201 65.6992C85.2275 65.7469 85.2443 65.7993 85.2504 65.8535C85.2608 65.9376 85.2455 66.023 85.2064 66.0983C85.1673 66.1735 85.1063 66.2352 85.0314 66.275Z" fill="#273E70"/>
<path d="M82.0069 70.282C81.964 70.3035 81.9177 70.3174 81.87 70.3231C77.7644 70.7884 75.6897 67.3123 75.6048 67.1617C75.5731 67.1146 75.5515 67.0614 75.5411 67.0055C75.5308 66.9496 75.532 66.8922 75.5447 66.8368C75.5574 66.7814 75.5813 66.7292 75.615 66.6834C75.6487 66.6376 75.6913 66.5992 75.7404 66.5706C75.7895 66.5419 75.8439 66.5236 75.9003 66.5168C75.9568 66.51 76.014 66.5148 76.0685 66.531C76.123 66.5471 76.1736 66.5743 76.2172 66.6107C76.2607 66.6472 76.2964 66.6922 76.3219 66.743C76.3958 66.8716 78.2215 69.9016 81.7742 69.4965C81.8714 69.4855 81.9692 69.5091 82.0507 69.5631C82.1322 69.6171 82.192 69.698 82.2198 69.7918C82.2475 69.8855 82.2414 69.9859 82.2025 70.0756C82.1636 70.1652 82.0943 70.2383 82.0069 70.282Z" fill="#273E70"/>
<path d="M91.7016 100.85C94.2498 87.1646 102.07 86.7294 114.77 74.0265C129.485 59.3146 126.474 37.2945 121.763 29.9208C121.763 29.9427 116.765 33.6761 113.393 37.2398C99.1192 52.3185 83.5423 72.866 82.0122 95.9097C80.4822 118.953 98.5279 133.309 98.5279 133.309C97.0417 131.29 88.8331 116.238 91.7016 100.85Z" fill="#FFFAF3"/>
<path d="M91.7017 100.85C94.25 87.1646 102.07 86.7294 114.77 74.0265C127.232 61.5645 126.98 43.8636 123.748 34.2563C123.712 34.3029 124.194 47.1755 116.932 56.9168C107.755 69.2338 90.6288 76.8184 87.9984 91.3059C85.3681 105.793 88.1161 122.336 98.5281 133.309C97.0418 131.29 88.8333 116.238 91.7017 100.85Z" fill="#FFEFD9"/>
<path d="M81.2514 101.277C81.2514 101.277 99.9842 106.647 113.67 100.656C127.355 94.6643 94.1952 85.8399 85.6883 74.6013C85.6801 74.6013 77.3346 84.7177 81.2514 101.277Z" fill="#3E4095"/>
<path d="M81.2514 101.277C81.2514 101.277 99.9842 106.647 113.67 100.656C127.355 94.6643 94.1952 85.8399 85.6883 74.6013C85.6801 74.6013 77.3346 84.7177 81.2514 101.277Z" fill="white" fill-opacity="0.1"/>
<path d="M90.459 125.528C90.459 125.528 94.8794 123.968 96.6859 120.875C98.4924 117.782 90.7655 120.675 87.4947 119.643C87.4947 119.635 87.3195 122.804 90.459 125.528Z" fill="#3E4095"/>
<path d="M124.246 49.2366C124.246 49.2366 120.209 43.4886 114.277 53.4736" stroke="#EC3237" stroke-width="5" stroke-linecap="round" stroke-linejoin="round"/>
<path d="M124.246 49.2366C124.246 49.2366 120.209 43.4886 114.277 53.4736" stroke="black" stroke-opacity="0.1" stroke-width="5" stroke-linecap="round" stroke-linejoin="round"/>
<path d="M118.273 36.4624C118.226 36.3727 118.197 36.2741 118.19 36.1728C118.182 36.0715 118.196 35.9697 118.23 35.8739L118.624 34.7408C118.688 34.556 118.823 34.4044 118.999 34.3191C119.175 34.2339 119.378 34.2222 119.563 34.2864C119.747 34.3506 119.899 34.4857 119.984 34.6617C120.069 34.8378 120.081 35.0405 120.017 35.2252L119.623 36.3584C119.575 36.4939 119.49 36.6126 119.376 36.7001C119.262 36.7876 119.125 36.8401 118.982 36.8511C118.839 36.8621 118.696 36.8312 118.57 36.7622C118.444 36.6932 118.341 36.589 118.273 36.4624Z" fill="#273E70"/>
<path d="M84.9437 31.0923C84.9437 31.0923 86.0003 40.3328 78.1584 43.3381C78.1584 43.3381 82.5378 43.6638 85.108 39.914C88.45 35.0501 84.9437 31.0923 84.9437 31.0923Z" fill="#273E70"/>
<path d="M90.6779 51.9682C90.6779 51.9682 86.0988 47.3863 86.8706 42.6101C87.7191 37.3658 90.8668 35.4936 95.758 40.4532C97.8601 42.5827 98.6046 47.3699 98.6046 47.3699C98.6046 47.3699 94.8739 47.4739 90.6779 51.9682Z" fill="#FFFAF3"/>
<path d="M95.7689 40.4532C92.2107 36.8593 89.5886 36.8566 88.0859 39.1311C87.8662 40.59 88.1114 42.081 88.7866 43.3928C90.1962 46.2503 93.0072 47.7475 95.0628 46.7321C96.5299 46.0095 97.2169 44.2085 96.9787 42.1967C96.6649 41.5583 96.2571 40.9706 95.7689 40.4532Z" fill="#273E70"/>
<path d="M93.9179 44.408C95.0515 43.8494 95.2902 42.016 94.451 40.3128C93.6119 38.6097 92.0126 37.6818 90.879 38.2404C89.7454 38.7989 89.5067 40.6324 90.3458 42.3355C91.185 44.0387 92.7842 44.9665 93.9179 44.408Z" fill="#1B2C4F"/>
<path d="M90.4042 40.1193C90.3395 39.9883 90.2374 39.8795 90.1108 39.8065C89.9842 39.7336 89.8389 39.6998 89.6931 39.7094C89.5474 39.719 89.4077 39.7716 89.2918 39.8605C89.1759 39.9494 89.089 40.0707 89.042 40.209C88.995 40.3473 88.99 40.4965 89.0277 40.6376C89.0655 40.7787 89.1442 40.9055 89.2539 41.002C89.3637 41.0984 89.4995 41.1601 89.6443 41.1794C89.7891 41.1986 89.9364 41.1745 90.0675 41.1101C90.1548 41.0672 90.2327 41.0076 90.2969 40.9346C90.361 40.8615 90.4102 40.7766 90.4414 40.6845C90.4727 40.5925 90.4855 40.4952 90.4791 40.3982C90.4727 40.3012 90.4473 40.2064 90.4042 40.1193Z" fill="#FFFAF3"/>
<path opacity="0.1" d="M43.3672 64.121C58.4212 60.8583 57.2087 67.1044 59.371 70.1864C61.5333 73.2683 58.257 60.8364 65.0943 46.8005C62.7588 49.2563 60.6916 51.9539 58.9276 54.8476C54.6906 55.042 46.8488 56.2518 36.3246 61.5316C24.8479 67.2796 19.1876 76.0219 19.5324 80.5983C19.5133 80.5956 28.3158 67.3918 43.3672 64.121Z" fill="#FFFEFF"/>
<path d="M104.728 156.654C101.758 172.612 98.4324 171.793 96.5164 165.73C94.6004 159.668 92.4107 145.796 90.7685 143.322C89.1262 140.847 69.1043 128.317 68.9866 128.243C78.394 138.064 88.0779 144.058 88.1819 145.58C88.3762 148.462 93.9955 180.292 99.7434 179.712C103.729 179.307 104.156 166.078 104.728 156.654Z" fill="#3E4095"/>
<path d="M68.9756 128.243C68.9756 128.243 66.1126 137.1 66.0661 141.14C66.0195 145.18 77.3703 134.982 77.3703 134.982L68.9756 128.243Z" fill="#3E4095"/>
</svg>
