<svg width="24" height="25" viewBox="0 0 24 25" fill="none" xmlns="http://www.w3.org/2000/svg">
<g clip-path="url(#clip0_465_6475)">
<path d="M20.8426 17.1742C20.5099 17.9428 20.1161 18.6503 19.6598 19.3008C19.0379 20.1875 18.5286 20.8013 18.1362 21.1422C17.5278 21.7017 16.876 21.9882 16.178 22.0045C15.6769 22.0045 15.0726 21.8619 14.3691 21.5727C13.6634 21.2848 13.0148 21.1422 12.4218 21.1422C11.7998 21.1422 11.1328 21.2848 10.4193 21.5727C9.70473 21.8619 9.12909 22.0127 8.68896 22.0276C8.01962 22.0561 7.35244 21.7614 6.68649 21.1422C6.26144 20.7715 5.72979 20.1359 5.0929 19.2356C4.40956 18.2741 3.84776 17.1592 3.40764 15.8882C2.93629 14.5152 2.7 13.1858 2.7 11.8987C2.7 10.4243 3.01858 9.15269 3.65669 8.08708C4.1582 7.23114 4.82537 6.55595 5.6604 6.06029C6.49542 5.56462 7.39766 5.31204 8.3693 5.29588C8.90095 5.29588 9.59813 5.46033 10.4645 5.78353C11.3285 6.10782 11.8832 6.27227 12.1264 6.27227C12.3083 6.27227 12.9245 6.07998 13.9692 5.69662C14.9571 5.3411 15.7909 5.19389 16.474 5.25188C18.3249 5.40126 19.7155 6.1309 20.6403 7.44543C18.9849 8.44844 18.166 9.85327 18.1823 11.6554C18.1973 13.0592 18.7065 14.2273 19.7074 15.1548C20.1609 15.5853 20.6674 15.918 21.231 16.1543C21.1088 16.5087 20.9798 16.8482 20.8426 17.1742ZM16.5976 0.469605C16.5976 1.56986 16.1956 2.59716 15.3944 3.54802C14.4275 4.6784 13.258 5.33159 11.9898 5.22852C11.9736 5.09653 11.9643 4.9576 11.9643 4.81162C11.9643 3.75538 12.4241 2.625 13.2406 1.70075C13.6483 1.23279 14.1668 0.843689 14.7955 0.533294C15.4229 0.22753 16.0164 0.0584366 16.5745 0.02948C16.5908 0.176566 16.5976 0.323662 16.5976 0.469591V0.469605Z" fill="white"/>
</g>
<defs>
<clipPath id="clip0_465_6475">
<rect width="24" height="24" fill="white" transform="translate(0 0.0292358)"/>
</clipPath>
</defs>
</svg>
