<svg width="24" height="25" viewBox="0 0 24 25" fill="none" xmlns="http://www.w3.org/2000/svg">
<g clip-path="url(#clip0_465_10957)">
<path d="M24 12.0292C24 5.40181 18.6274 0.0292358 12 0.0292358C5.37258 0.0292358 0 5.40181 0 12.0292C0 18.0187 4.3882 22.9832 10.125 23.8835V15.498H7.07812V12.0292H10.125V9.38549C10.125 6.37799 11.9166 4.71674 14.6576 4.71674C15.9701 4.71674 17.3438 4.95111 17.3438 4.95111V7.90424H15.8306C14.34 7.90424 13.875 8.82931 13.875 9.77924V12.0292H17.2031L16.6711 15.498H13.875V23.8835C19.6118 22.9832 24 18.0187 24 12.0292Z" fill="white"/>
</g>
<defs>
<clipPath id="clip0_465_10957">
<rect width="24" height="24" fill="white" transform="translate(0 0.0292358)"/>
</clipPath>
</defs>
</svg>
