<svg width="64" height="55" viewBox="0 0 64 55" fill="none" xmlns="http://www.w3.org/2000/svg">
<path d="M54.4219 15.5687V41.8844C54.4219 42.9234 53.5797 43.7656 52.5406 43.7656H11.4594C10.4203 43.7656 9.57812 42.9234 9.57812 41.8844V15.5687C9.57812 14.5297 10.4203 13.6875 11.4594 13.6875H52.5406C53.5797 13.6875 54.4219 14.5297 54.4219 15.5687Z" fill="#3E4095"/>
<path d="M54.4219 15.5687V41.8844C54.4219 42.9234 53.5797 43.7656 52.5406 43.7656H11.4594C10.4203 43.7656 9.57812 42.9234 9.57812 41.8844V15.5687C9.57812 14.5297 10.4203 13.6875 11.4594 13.6875H52.5406C53.5797 13.6875 54.4219 14.5297 54.4219 15.5687Z" fill="white" fill-opacity="0.35"/>
<g opacity="0.6">
<path d="M54.4219 15.5687V41.8844C54.4219 42.9234 53.5797 43.7656 52.5406 43.7656H26.5312V37.2031H48.4062V13.6875H52.5406C53.5797 13.6875 54.4219 14.5297 54.4219 15.5687Z" fill="#3E4095"/>
<path d="M54.4219 15.5687V41.8844C54.4219 42.9234 53.5797 43.7656 52.5406 43.7656H26.5312V37.2031H48.4062V13.6875H52.5406C53.5797 13.6875 54.4219 14.5297 54.4219 15.5687Z" fill="white" fill-opacity="0.1"/>
</g>
<path d="M51.6875 20.7969V36.7055C51.4906 36.6727 51.2828 36.6562 51.0695 36.6562C48.9641 36.6562 47.2578 38.2477 47.2578 40.2109C47.2578 40.4953 47.2906 40.7688 47.3617 41.0312H16.0531C16.1188 40.7688 16.157 40.4953 16.157 40.2109C16.157 38.2477 14.4508 36.6562 12.3398 36.6562H12.3125V20.7477C12.5094 20.7805 12.7172 20.7969 12.9305 20.7969C15.0359 20.7969 16.7422 19.2055 16.7422 17.2422C16.7422 16.9578 16.7094 16.6844 16.6383 16.4219H47.9469C47.8813 16.6844 47.843 16.9578 47.843 17.2422C47.843 17.9258 48.0453 18.5602 48.4062 19.0961C49.0734 20.1187 50.282 20.7969 51.6602 20.7969H51.6875Z" fill="#181818"/>
<path d="M51.6875 20.7969V36.7055C51.4906 36.6727 51.2828 36.6562 51.0695 36.6562C48.9641 36.6562 47.2578 38.2477 47.2578 40.2109C47.2578 40.4953 47.2906 40.7688 47.3617 41.0312H16.0531C16.1188 40.7688 16.157 40.4953 16.157 40.2109C16.157 38.2477 14.4508 36.6562 12.3398 36.6562H12.3125V20.7477C12.5094 20.7805 12.7172 20.7969 12.9305 20.7969C15.0359 20.7969 16.7422 19.2055 16.7422 17.2422C16.7422 16.9578 16.7094 16.6844 16.6383 16.4219H47.9469C47.8813 16.6844 47.843 16.9578 47.843 17.2422C47.843 17.9258 48.0453 18.5602 48.4062 19.0961C49.0734 20.1187 50.282 20.7969 51.6602 20.7969H51.6875Z" fill="white" fill-opacity="0.95"/>
<g opacity="0.6">
<path d="M51.6875 20.7969V36.7054C51.4906 36.6726 51.2828 36.6562 51.0695 36.6562C48.9641 36.6562 47.2578 38.2476 47.2578 40.2109C47.2578 40.4953 47.2906 40.7687 47.3617 41.0312H26.5312V37.2031H44.2456C46.5436 37.2031 48.4062 35.3404 48.4062 33.0425V19.0961C49.0734 20.1187 50.282 20.7969 51.6602 20.7969H51.6875Z" fill="#181818"/>
<path d="M51.6875 20.7969V36.7054C51.4906 36.6726 51.2828 36.6562 51.0695 36.6562C48.9641 36.6562 47.2578 38.2476 47.2578 40.2109C47.2578 40.4953 47.2906 40.7687 47.3617 41.0312H26.5312V37.2031H44.2456C46.5436 37.2031 48.4062 35.3404 48.4062 33.0425V19.0961C49.0734 20.1187 50.282 20.7969 51.6602 20.7969H51.6875Z" fill="white" fill-opacity="0.75"/>
</g>
<path d="M7.58966 7.99779C7.55795 7.99779 7.52568 7.99506 7.49287 7.98904C7.19537 7.93599 6.99795 7.65217 7.05045 7.35467L7.81826 3.04748C7.87076 2.75052 8.15021 2.55091 8.45263 2.60505C8.75013 2.6581 8.94756 2.94193 8.89506 3.23943L8.12724 7.54662C8.08076 7.81131 7.84998 7.99779 7.58966 7.99779Z" fill="#0C4E92"/>
<path d="M10.1272 6.22809C10.0955 6.22809 10.0632 6.22535 10.0304 6.21934L5.7232 5.45153C5.42624 5.39848 5.22828 5.11465 5.28078 4.81715C5.33328 4.5202 5.61273 4.32004 5.91515 4.37473L10.2223 5.14254C10.5193 5.19559 10.7173 5.47942 10.6648 5.77692C10.6177 6.04215 10.3869 6.22809 10.1272 6.22809Z" fill="#EC3237"/>
<path d="M10.1272 6.22809C10.0955 6.22809 10.0632 6.22535 10.0304 6.21934L5.7232 5.45153C5.42624 5.39848 5.22828 5.11465 5.28078 4.81715C5.33328 4.5202 5.61273 4.32004 5.91515 4.37473L10.2223 5.14254C10.5193 5.19559 10.7173 5.47942 10.6648 5.77692C10.6177 6.04215 10.3869 6.22809 10.1272 6.22809Z" fill="black" fill-opacity="0.1"/>
<path d="M55.5036 50.269C55.3855 51.3196 54.4377 52.0754 53.3872 51.9567C52.3367 51.8386 51.5814 50.8908 51.6995 49.8403C51.8177 48.7898 52.7654 48.034 53.816 48.1526C54.8665 48.2713 55.6223 49.2185 55.5036 50.269Z" fill="#FEDF89"/>
<path d="M53.5977 52.5161C53.5086 52.5161 53.4195 52.5112 53.3292 52.5013C51.9817 52.3466 51.0077 51.1271 51.1543 49.7817L51.1685 49.6751C51.2013 49.3754 51.4688 49.1348 51.7745 49.1643C52.0752 49.1971 52.2956 49.441 52.2634 49.7413L52.2415 49.8999C52.16 50.6496 52.702 51.3288 53.4506 51.4147C54.1911 51.4962 54.8747 50.9542 54.9616 50.2061C55.0426 49.4602 54.5006 48.7815 53.752 48.6956C53.7148 48.6929 53.6579 48.688 53.6016 48.688C53.2991 48.688 53.0547 48.443 53.0547 48.1411C53.0547 47.8392 53.2991 47.5942 53.6016 47.5942C53.6869 47.5942 53.7722 47.6003 53.8581 47.6068C55.2214 47.7632 56.1954 48.9828 56.0488 50.3281C55.9039 51.5842 54.8326 52.5161 53.5977 52.5161Z" fill="#3E4095"/>
<path d="M25.4375 43.2188V47.8234C24.5133 48.6984 23.2609 49.2344 21.8828 49.2344C21.2047 49.2344 20.5594 49.1086 19.9688 48.868V43.2188H25.4375Z" fill="#1364D8"/>
<path d="M19.9688 43.2188V54.1562L21.3359 52.637L22.7031 51.1178L24.0703 52.637L25.4375 54.1562V43.2188H19.9688Z" fill="#3E4095"/>
<path d="M25.4375 43.2188V47.5719C24.8086 48.5727 23.6984 49.2344 22.4297 49.2344C21.4727 49.2344 20.6086 48.857 19.9688 48.2445V43.2188H25.4375Z" fill="#3E4095"/>
<path d="M25.4375 43.2188V47.5719C24.8086 48.5727 23.6984 49.2344 22.4297 49.2344C21.4727 49.2344 20.6086 48.857 19.9688 48.2445V43.2188H25.4375Z" fill="white" fill-opacity="0.25"/>
<g opacity="0.6">
<path d="M25.4375 43.2188V47.8234C24.5133 48.6984 23.2609 49.2344 21.8828 49.2344C21.2047 49.2344 20.5594 49.1086 19.9688 48.868V43.2188H25.4375Z" fill="#3E4095"/>
<path d="M25.4375 43.2188V47.8234C24.5133 48.6984 23.2609 49.2344 21.8828 49.2344C21.2047 49.2344 20.5594 49.1086 19.9688 48.868V43.2188H25.4375Z" fill="white" fill-opacity="0.16"/>
</g>
<path d="M30.3594 40.2109C30.3594 39.1063 29.6266 38.1826 28.6247 37.8714C29.113 36.9428 28.978 35.7714 28.197 34.9905C27.4161 34.2095 26.2447 34.0745 25.3161 34.5628C25.0049 33.5609 24.0812 32.8281 22.9766 32.8281C21.8719 32.8281 20.9482 33.5609 20.637 34.5628C19.7084 34.0745 18.537 34.2095 17.7561 34.9905C16.9752 35.7714 16.8401 36.9428 17.3284 37.8714C16.3266 38.1826 15.5938 39.1063 15.5938 40.2109C15.5938 41.3156 16.3266 42.2393 17.3284 42.5505C16.8401 43.4791 16.9752 44.6505 17.7561 45.4314C18.537 46.2123 19.7084 46.3474 20.637 45.8591C20.9482 46.8609 21.8719 47.5938 22.9766 47.5938C24.0812 47.5938 25.0049 46.8609 25.3161 45.8591C26.2447 46.3474 27.4161 46.2123 28.197 45.4314C28.978 44.6505 29.113 43.4791 28.6247 42.5505C29.6266 42.2393 30.3594 41.3156 30.3594 40.2109Z" fill="#EC3237"/>
<path d="M30.3594 40.2109C30.3594 39.1063 29.6266 38.1826 28.6247 37.8714C29.113 36.9428 28.978 35.7714 28.197 34.9905C27.4161 34.2095 26.2447 34.0745 25.3161 34.5628C25.0049 33.5609 24.0812 32.8281 22.9766 32.8281C21.8719 32.8281 20.9482 33.5609 20.637 34.5628C19.7084 34.0745 18.537 34.2095 17.7561 34.9905C16.9752 35.7714 16.8401 36.9428 17.3284 37.8714C16.3266 38.1826 15.5938 39.1063 15.5938 40.2109C15.5938 41.3156 16.3266 42.2393 17.3284 42.5505C16.8401 43.4791 16.9752 44.6505 17.7561 45.4314C18.537 46.2123 19.7084 46.3474 20.637 45.8591C20.9482 46.8609 21.8719 47.5938 22.9766 47.5938C24.0812 47.5938 25.0049 46.8609 25.3161 45.8591C26.2447 46.3474 27.4161 46.2123 28.197 45.4314C28.978 44.6505 29.113 43.4791 28.6247 42.5505C29.6266 42.2393 30.3594 41.3156 30.3594 40.2109Z" fill="black" fill-opacity="0.1"/>
<g opacity="0.6">
<path d="M30.3593 40.211C30.3593 39.4399 30.0039 38.7563 29.4461 38.3079C28.3906 41.786 25.1586 44.3126 21.3359 44.3126C19.7937 44.3126 18.35 43.9024 17.1031 43.175C16.9281 43.9625 17.1414 44.8211 17.7539 45.4336C18.5359 46.2102 19.7062 46.3469 20.6359 45.8602C20.9476 46.861 21.8718 47.5938 22.9765 47.5938C24.0812 47.5938 25.0054 46.861 25.3172 45.8602C26.2468 46.3469 27.4172 46.2102 28.1992 45.4336C28.9758 44.6516 29.1125 43.4813 28.6258 42.5516C29.6265 42.2399 30.3593 41.3157 30.3593 40.211Z" fill="#EC3237"/>
<path d="M30.3593 40.211C30.3593 39.4399 30.0039 38.7563 29.4461 38.3079C28.3906 41.786 25.1586 44.3126 21.3359 44.3126C19.7937 44.3126 18.35 43.9024 17.1031 43.175C16.9281 43.9625 17.1414 44.8211 17.7539 45.4336C18.5359 46.2102 19.7062 46.3469 20.6359 45.8602C20.9476 46.861 21.8718 47.5938 22.9765 47.5938C24.0812 47.5938 25.0054 46.861 25.3172 45.8602C26.2468 46.3469 27.4172 46.2102 28.1992 45.4336C28.9758 44.6516 29.1125 43.4813 28.6258 42.5516C29.6265 42.2399 30.3593 41.3157 30.3593 40.211Z" fill="white" fill-opacity="0.2"/>
</g>
<path d="M22.9766 43.7656C24.9398 43.7656 26.5312 42.1741 26.5312 40.2109C26.5312 38.2477 24.9398 36.6562 22.9766 36.6562C21.0134 36.6562 19.4219 38.2477 19.4219 40.2109C19.4219 42.1741 21.0134 43.7656 22.9766 43.7656Z" fill="white"/>
<path d="M35.8281 21.3438H28.1719C27.8695 21.3438 27.625 21.0987 27.625 20.7969C27.625 20.495 27.8695 20.25 28.1719 20.25H35.8281C36.1305 20.25 36.375 20.495 36.375 20.7969C36.375 21.0987 36.1305 21.3438 35.8281 21.3438Z" fill="#181818"/>
<path d="M35.8281 21.3438H28.1719C27.8695 21.3438 27.625 21.0987 27.625 20.7969C27.625 20.495 27.8695 20.25 28.1719 20.25H35.8281C36.1305 20.25 36.375 20.495 36.375 20.7969C36.375 21.0987 36.1305 21.3438 35.8281 21.3438Z" fill="white" fill-opacity="0.6"/>
<path d="M40.2031 24.625H23.7969C23.4945 24.625 23.25 24.38 23.25 24.0781C23.25 23.7763 23.4945 23.5312 23.7969 23.5312H40.2031C40.5055 23.5312 40.75 23.7763 40.75 24.0781C40.75 24.38 40.5055 24.625 40.2031 24.625Z" fill="#181818"/>
<path d="M40.2031 24.625H23.7969C23.4945 24.625 23.25 24.38 23.25 24.0781C23.25 23.7763 23.4945 23.5312 23.7969 23.5312H40.2031C40.5055 23.5312 40.75 23.7763 40.75 24.0781C40.75 24.38 40.5055 24.625 40.2031 24.625Z" fill="white" fill-opacity="0.6"/>
<path d="M43.4844 27.3594H20.5156V30.0938H43.4844V27.3594Z" fill="#3E4095"/>
<path d="M43.4844 27.3594H20.5156V30.0938H43.4844V27.3594Z" fill="white" fill-opacity="0.35"/>
<path d="M33.0937 36.6562C32.7913 36.6562 32.5469 36.4112 32.5469 36.1093C32.5469 35.866 32.5469 35.5329 34.6348 34.2095C35.8713 33.4258 37.0739 32.8128 37.8527 32.5694C38.1327 32.4814 38.9852 32.215 39.3855 32.7909C39.472 32.9156 39.5223 33.0518 39.5337 33.2054C40.3344 32.7493 40.9272 32.6575 41.3045 32.9314C41.6288 33.1671 41.7048 33.5385 41.6502 33.9639C42.7215 33.515 44.349 33.0282 45.8042 33.3919C46.0973 33.4652 46.2756 33.7621 46.2023 34.0553C46.1291 34.3478 45.8305 34.5267 45.5395 34.4534C43.5981 33.9689 41.0568 35.4706 41.0311 35.4859C40.8266 35.6084 40.5684 35.5838 40.3902 35.4285C40.2119 35.2726 40.1539 35.0194 40.2474 34.8018C40.4355 34.3637 40.5154 34.0859 40.5493 33.9186C40.0855 34.1045 39.1766 34.7285 38.3755 35.429C38.1633 35.6144 37.845 35.6084 37.6399 35.4148C37.4348 35.2212 37.4108 34.904 37.5836 34.6814C38.0167 34.1242 38.2305 33.7709 38.3355 33.5582C37.197 33.8409 34.0984 35.7331 33.6018 36.3128C33.522 36.5129 33.3245 36.6562 33.0937 36.6562Z" fill="#EC3237"/>
<path d="M33.0937 36.6562C32.7913 36.6562 32.5469 36.4112 32.5469 36.1093C32.5469 35.866 32.5469 35.5329 34.6348 34.2095C35.8713 33.4258 37.0739 32.8128 37.8527 32.5694C38.1327 32.4814 38.9852 32.215 39.3855 32.7909C39.472 32.9156 39.5223 33.0518 39.5337 33.2054C40.3344 32.7493 40.9272 32.6575 41.3045 32.9314C41.6288 33.1671 41.7048 33.5385 41.6502 33.9639C42.7215 33.515 44.349 33.0282 45.8042 33.3919C46.0973 33.4652 46.2756 33.7621 46.2023 34.0553C46.1291 34.3478 45.8305 34.5267 45.5395 34.4534C43.5981 33.9689 41.0568 35.4706 41.0311 35.4859C40.8266 35.6084 40.5684 35.5838 40.3902 35.4285C40.2119 35.2726 40.1539 35.0194 40.2474 34.8018C40.4355 34.3637 40.5154 34.0859 40.5493 33.9186C40.0855 34.1045 39.1766 34.7285 38.3755 35.429C38.1633 35.6144 37.845 35.6084 37.6399 35.4148C37.4348 35.2212 37.4108 34.904 37.5836 34.6814C38.0167 34.1242 38.2305 33.7709 38.3355 33.5582C37.197 33.8409 34.0984 35.7331 33.6018 36.3128C33.522 36.5129 33.3245 36.6562 33.0937 36.6562Z" fill="white" fill-opacity="0.2"/>
<path d="M60.17 22.7546C60.0131 22.7546 59.8578 22.6879 59.7495 22.5583C59.5559 22.3264 59.5871 21.9814 59.8189 21.7878L62.8213 19.2831C63.0548 19.0895 63.3993 19.1212 63.5913 19.3531C63.7849 19.585 63.7537 19.93 63.5218 20.1236L60.5195 22.6283C60.4172 22.7131 60.2931 22.7546 60.17 22.7546Z" fill="#FEDF89"/>
<path d="M56.6099 25.7187C56.4529 25.7187 56.2976 25.6515 56.1888 25.5219C55.9952 25.29 56.0269 24.9449 56.2593 24.7513L58.5179 22.8701C58.7504 22.6765 59.0943 22.7087 59.2879 22.9401C59.4815 23.1719 59.4498 23.517 59.2174 23.7106L56.9588 25.5919C56.8571 25.6772 56.7335 25.7187 56.6099 25.7187Z" fill="#3E4095"/>
<path d="M56.6088 22.9843C56.5268 22.9843 56.4431 22.9657 56.3649 22.9269C56.0947 22.7918 55.9854 22.4631 56.1204 22.193L58.3079 17.818C58.4436 17.5478 58.7717 17.439 59.0418 17.5735C59.312 17.7086 59.4214 18.0373 59.2863 18.3074L57.0988 22.6824C57.0026 22.8738 56.8095 22.9843 56.6088 22.9843Z" fill="#3E4095"/>
<path d="M0.828654 45.4062C0.659123 45.4062 0.492873 45.328 0.385686 45.1809C0.207951 44.9364 0.261545 44.5946 0.506545 44.4169L3.05498 42.563C3.29779 42.3852 3.64123 42.4388 3.81842 42.6833C3.99615 42.9277 3.94256 43.2695 3.69756 43.4473L1.14912 45.3012C1.05287 45.3723 0.940217 45.4062 0.828654 45.4062Z" fill="#FEDF89"/>
<path d="M4.90287 42.4421C4.73334 42.4421 4.56709 42.3639 4.4599 42.2168C4.28217 41.9723 4.33576 41.6305 4.58076 41.4528L6.52217 40.0419C6.76662 39.8647 7.10897 39.9188 7.28615 40.1627C7.46389 40.4072 7.4103 40.749 7.16529 40.9267L5.22389 42.3377C5.12655 42.4082 5.01444 42.4421 4.90287 42.4421Z" fill="#3E4095"/>
<path d="M6.84376 38.8438C6.25423 38.8438 3.63196 37.9852 2.84282 37.7221C2.55681 37.6264 2.40149 37.3169 2.4972 37.0303C2.5929 36.7443 2.8997 36.5879 3.18899 36.6847C4.70165 37.1889 6.52985 37.7396 6.84649 37.7505C7.14454 37.7609 7.38735 38.0081 7.38298 38.3067C7.37751 38.6042 7.14235 38.8438 6.84376 38.8438Z" fill="#3E4095"/>
<path d="M5.20255 47.0469C5.12052 47.0469 5.03685 47.0283 4.95865 46.9895C4.68849 46.8544 4.57912 46.5257 4.71419 46.2556L6.35482 42.9743C6.49044 42.7036 6.81857 42.5942 7.08873 42.7299C7.35888 42.8649 7.46826 43.1936 7.33318 43.4638L5.69255 46.745C5.5963 46.9364 5.40326 47.0469 5.20255 47.0469Z" fill="#3E4095"/>
<path d="M56.6088 27.9062C56.3534 27.9062 56.1248 27.7263 56.0729 27.4665C56.0138 27.1701 56.2058 26.8824 56.5016 26.8228L61.9704 25.7291C62.2706 25.6695 62.555 25.8625 62.614 26.1578C62.6731 26.4542 62.4812 26.7419 62.1853 26.8015L56.7165 27.8952C56.6804 27.9029 56.6438 27.9062 56.6088 27.9062Z" fill="#3E4095"/>
<path d="M31.2644 5.80591C32.3199 5.80591 32.3221 4.16528 31.2644 4.16528C30.2089 4.16528 30.2068 5.80591 31.2644 5.80591Z" fill="#FEDF89"/>
<path d="M45.2436 4.20961C45.2196 3.90828 45.4444 3.64523 45.7457 3.62117C47.0986 3.51398 48.1115 2.32672 48.0048 0.973748C47.9808 0.67242 48.2055 0.409373 48.5068 0.38531C48.8082 0.361248 49.0712 0.586013 49.0953 0.887341C49.2025 2.24031 50.3897 3.25312 51.7427 3.14648C52.044 3.12242 52.3071 3.34719 52.3311 3.64851C52.3552 3.94984 52.1304 4.21289 51.8291 4.23695C50.4761 4.34414 49.4628 5.5314 49.57 6.88437C49.594 7.1857 49.3693 7.44875 49.0679 7.47281C48.7666 7.49687 48.5036 7.27211 48.4795 6.97078C48.3723 5.61781 47.1845 4.605 45.8321 4.71164C45.5308 4.73515 45.2672 4.51039 45.2436 4.20961Z" fill="#FEDF89"/>
<path d="M49.5645 5.50565C49.4568 5.50565 49.3479 5.47393 49.2528 5.40776C49.0051 5.23495 48.9433 4.89425 49.1166 4.64651C49.3332 4.33425 49.5962 4.06354 49.8932 3.84097C49.6624 3.71901 49.4437 3.57081 49.2402 3.39745C49.0362 3.223 48.8541 3.02886 48.6972 2.81886C48.5506 3.09667 48.3669 3.35643 48.1481 3.58995C47.9408 3.80925 47.5947 3.82073 47.3748 3.61456C47.155 3.40784 47.1435 3.06167 47.3502 2.84128C47.8276 2.33268 48.0601 1.66987 48.0043 0.973699C47.9808 0.672371 48.205 0.409324 48.5063 0.385262C48.8016 0.360652 49.0707 0.585965 49.0947 0.886746C49.0947 0.88784 49.0947 0.888934 49.0947 0.890027C49.1478 1.54464 49.4508 2.13964 49.9501 2.56511C50.4494 2.99167 51.0821 3.19893 51.7416 3.14589C52.0506 3.12675 52.306 3.34714 52.3301 3.64792C52.3541 3.94925 52.1294 4.21229 51.828 4.23636H51.8264C51.0908 4.29542 50.4302 4.67222 50.0135 5.27104C49.9074 5.42417 49.7379 5.50565 49.5645 5.50565Z" fill="#EC3237"/>
<path d="M49.5645 5.50565C49.4568 5.50565 49.3479 5.47393 49.2528 5.40776C49.0051 5.23495 48.9433 4.89425 49.1166 4.64651C49.3332 4.33425 49.5962 4.06354 49.8932 3.84097C49.6624 3.71901 49.4437 3.57081 49.2402 3.39745C49.0362 3.223 48.8541 3.02886 48.6972 2.81886C48.5506 3.09667 48.3669 3.35643 48.1481 3.58995C47.9408 3.80925 47.5947 3.82073 47.3748 3.61456C47.155 3.40784 47.1435 3.06167 47.3502 2.84128C47.8276 2.33268 48.0601 1.66987 48.0043 0.973699C47.9808 0.672371 48.205 0.409324 48.5063 0.385262C48.8016 0.360652 49.0707 0.585965 49.0947 0.886746C49.0947 0.88784 49.0947 0.888934 49.0947 0.890027C49.1478 1.54464 49.4508 2.13964 49.9501 2.56511C50.4494 2.99167 51.0821 3.19893 51.7416 3.14589C52.0506 3.12675 52.306 3.34714 52.3301 3.64792C52.3541 3.94925 52.1294 4.21229 51.828 4.23636H51.8264C51.0908 4.29542 50.4302 4.67222 50.0135 5.27104C49.9074 5.42417 49.7379 5.50565 49.5645 5.50565Z" fill="black" fill-opacity="0.1"/>
</svg>
