<svg width="24" height="25" viewBox="0 0 24 25" fill="none" xmlns="http://www.w3.org/2000/svg">
<g clip-path="url(#clip0_465_10945)">
<path d="M23.766 12.3057C23.766 11.4899 23.6999 10.6698 23.5588 9.86731H12.24V14.4883H18.7217C18.4528 15.9786 17.5885 17.297 16.323 18.1348V21.1332H20.19C22.4608 19.0431 23.766 15.9566 23.766 12.3057Z" fill="#4285F4"/>
<path d="M12.24 24.0301C15.4764 24.0301 18.2058 22.9674 20.1944 21.1331L16.3274 18.1348C15.2516 18.8667 13.8626 19.2812 12.2444 19.2812C9.11376 19.2812 6.45934 17.1691 5.50693 14.3295H1.51648V17.4205C3.55359 21.4726 7.70278 24.0301 12.24 24.0301Z" fill="#34A853"/>
<path d="M5.50253 14.3295C4.99987 12.8392 4.99987 11.2253 5.50253 9.73499V6.64404H1.51649C-0.18551 10.0348 -0.18551 14.0297 1.51649 17.4205L5.50253 14.3295Z" fill="#FBBC04"/>
<path d="M12.24 4.7789C13.9508 4.75244 15.6043 5.3962 16.8433 6.5779L20.2694 3.15185C18.1 1.11474 15.2207 -0.00523016 12.24 0.0300445C7.70277 0.0300445 3.55359 2.58746 1.51648 6.64404L5.50252 9.73499C6.45052 6.89097 9.10935 4.7789 12.24 4.7789Z" fill="#EA4335"/>
</g>
<defs>
<clipPath id="clip0_465_10945">
<rect width="24" height="24" fill="white" transform="translate(0 0.0292358)"/>
</clipPath>
</defs>
</svg>
