<svg width="27" height="41" viewBox="0 0 27 41" fill="none" xmlns="http://www.w3.org/2000/svg">
<path d="M27 35.0755V41H0V35.0755C0 30.6783 3.564 27.1143 7.96114 27.1143H19.0389C23.436 27.1143 27 30.6783 27 35.0755Z" fill="#181818"/>
<path d="M27 35.0755V41H0V35.0755C0 30.6783 3.564 27.1143 7.96114 27.1143H19.0389C23.436 27.1143 27 30.6783 27 35.0755Z" fill="white" fill-opacity="0.95"/>
<path d="M15.4285 22.4857H10.7999V30.9714H15.4285V22.4857Z" fill="#181818"/>
<path d="M15.4285 22.4857H10.7999V30.9714H15.4285V22.4857Z" fill="white" fill-opacity="0.75"/>
<path d="M20.0571 3.19998C20.0571 3.19998 27 8.59998 21.6 15.5428L17.7428 17.8571L5.39997 20.1714C5.39997 20.1714 0.771401 13.2286 2.31426 6.2857C3.85712 -0.65716 9.25711 3.19998 9.25711 3.19998C10.8 0.114269 15.4285 -0.65716 20.0571 3.19998Z" fill="#181818"/>
<path d="M20.0571 3.19998C20.0571 3.19998 27 8.59998 21.6 15.5428L17.7428 17.8571L5.39997 20.1714C5.39997 20.1714 0.771401 13.2286 2.31426 6.2857C3.85712 -0.65716 9.25711 3.19998 9.25711 3.19998C10.8 0.114269 15.4285 -0.65716 20.0571 3.19998Z" fill="white" fill-opacity="0.75"/>
<path d="M15.3243 24.0286H10.9041C7.43802 24.0286 4.62848 21.219 4.62848 17.753V7.05716H21.5999V17.753C21.5999 21.219 18.7904 24.0286 15.3243 24.0286Z" fill="#181818"/>
<path d="M15.3243 24.0286H10.9041C7.43802 24.0286 4.62848 21.219 4.62848 17.753V7.05716H21.5999V17.753C21.5999 21.219 18.7904 24.0286 15.3243 24.0286Z" fill="white" fill-opacity="0.8"/>
<path d="M13.1142 31.7428L16.1999 26.3428L17.7428 31.7428C16.6057 30.4785 14.9132 30.9452 13.1142 31.7428Z" fill="#181818"/>
<path d="M13.1142 31.7428L16.1999 26.3428L17.7428 31.7428C16.6057 30.4785 14.9132 30.9452 13.1142 31.7428Z" fill="white" fill-opacity="0.8"/>
<path d="M13.1143 31.7428L10.0286 26.3428L8.48572 31.7428C9.6228 30.4785 11.3153 30.9452 13.1143 31.7428Z" fill="#181818"/>
<path d="M13.1143 31.7428L10.0286 26.3428L8.48572 31.7428C9.6228 30.4785 11.3153 30.9452 13.1143 31.7428Z" fill="white" fill-opacity="0.8"/>
<path d="M2.09827 10.9683C3.88798 12.218 6.49541 11.4157 8.48569 7.82859C12.3043 11.138 16.9714 13.2286 20.8286 10.9143C21.6077 10.5209 22.5874 9.80344 23.5594 8.96259C24.516 8.12944 25.4648 7.17287 26.2286 6.28573C23.4437 5.36001 21.654 4.4343 20.4583 3.54716C20.4505 3.54716 20.4506 3.53944 20.4428 3.53944C20.1188 3.30801 19.8334 3.06887 19.5943 2.82973C19.5866 2.82202 19.5865 2.82201 19.5788 2.8143L18.9 3.58573C10.6079 4.31627 2.63209 5.10236 3.47141 7.44287C3.08569 9.37144 4.13638 10.9644 2.09827 10.9683Z" fill="#181818"/>
<path d="M2.09827 10.9683C3.88798 12.218 6.49541 11.4157 8.48569 7.82859C12.3043 11.138 16.9714 13.2286 20.8286 10.9143C21.6077 10.5209 22.5874 9.80344 23.5594 8.96259C24.516 8.12944 25.4648 7.17287 26.2286 6.28573C23.4437 5.36001 21.654 4.4343 20.4583 3.54716C20.4505 3.54716 20.4506 3.53944 20.4428 3.53944C20.1188 3.30801 19.8334 3.06887 19.5943 2.82973C19.5866 2.82202 19.5865 2.82201 19.5788 2.8143L18.9 3.58573C10.6079 4.31627 2.63209 5.10236 3.47141 7.44287C3.08569 9.37144 4.13638 10.9644 2.09827 10.9683Z" fill="white" fill-opacity="0.75"/>
</svg>
