<svg width="16" height="18" viewBox="0 0 16 18" fill="none" xmlns="http://www.w3.org/2000/svg">
<path d="M14.6667 16.5V14.8333C14.6667 13.9493 14.3155 13.1014 13.6904 12.4763C13.0652 11.8512 12.2174 11.5 11.3333 11.5H4.66668C3.78262 11.5 2.93478 11.8512 2.30965 12.4763C1.68453 13.1014 1.33334 13.9493 1.33334 14.8333V16.5M11.3333 4.83333C11.3333 6.67428 9.84096 8.16667 8.00001 8.16667C6.15906 8.16667 4.66668 6.67428 4.66668 4.83333C4.66668 2.99238 6.15906 1.5 8.00001 1.5C9.84096 1.5 11.3333 2.99238 11.3333 4.83333Z" stroke="#181818" stroke-width="1.66667" stroke-linecap="round" stroke-linejoin="round"/>
<path d="M14.6667 16.5V14.8333C14.6667 13.9493 14.3155 13.1014 13.6904 12.4763C13.0652 11.8512 12.2174 11.5 11.3333 11.5H4.66668C3.78262 11.5 2.93478 11.8512 2.30965 12.4763C1.68453 13.1014 1.33334 13.9493 1.33334 14.8333V16.5M11.3333 4.83333C11.3333 6.67428 9.84096 8.16667 8.00001 8.16667C6.15906 8.16667 4.66668 6.67428 4.66668 4.83333C4.66668 2.99238 6.15906 1.5 8.00001 1.5C9.84096 1.5 11.3333 2.99238 11.3333 4.83333Z" stroke="white" stroke-opacity="0.6" stroke-width="1.66667" stroke-linecap="round" stroke-linejoin="round"/>
</svg>
